%TF.GenerationSoftware,KiCad,Pcbnew,9.0.6*%
%TF.CreationDate,2025-12-20T13:57:38-05:00*%
%TF.ProjectId,TinkerNav V24,54696e6b-6572-44e6-9176-205632342e6b,1*%
%TF.SameCoordinates,Original*%
%TF.FileFunction,Copper,L2,Inr*%
%TF.FilePolarity,Positive*%
%FSLAX46Y46*%
G04 Gerber Fmt 4.6, Leading zero omitted, Abs format (unit mm)*
G04 Created by KiCad (PCBNEW 9.0.6) date 2025-12-20 13:57:38*
%MOMM*%
%LPD*%
G01*
G04 APERTURE LIST*
G04 Aperture macros list*
%AMRoundRect*
0 Rectangle with rounded corners*
0 $1 Rounding radius*
0 $2 $3 $4 $5 $6 $7 $8 $9 X,Y pos of 4 corners*
0 Add a 4 corners polygon primitive as box body*
4,1,4,$2,$3,$4,$5,$6,$7,$8,$9,$2,$3,0*
0 Add four circle primitives for the rounded corners*
1,1,$1+$1,$2,$3*
1,1,$1+$1,$4,$5*
1,1,$1+$1,$6,$7*
1,1,$1+$1,$8,$9*
0 Add four rect primitives between the rounded corners*
20,1,$1+$1,$2,$3,$4,$5,0*
20,1,$1+$1,$4,$5,$6,$7,0*
20,1,$1+$1,$6,$7,$8,$9,0*
20,1,$1+$1,$8,$9,$2,$3,0*%
G04 Aperture macros list end*
%TA.AperFunction,ComponentPad*%
%ADD10O,1.000000X2.100000*%
%TD*%
%TA.AperFunction,ComponentPad*%
%ADD11O,1.000000X1.600000*%
%TD*%
%TA.AperFunction,ComponentPad*%
%ADD12C,3.800000*%
%TD*%
%TA.AperFunction,ComponentPad*%
%ADD13C,2.325000*%
%TD*%
%TA.AperFunction,ComponentPad*%
%ADD14C,2.625000*%
%TD*%
%TA.AperFunction,ComponentPad*%
%ADD15RoundRect,0.250000X-0.600000X-0.725000X0.600000X-0.725000X0.600000X0.725000X-0.600000X0.725000X0*%
%TD*%
%TA.AperFunction,ComponentPad*%
%ADD16O,1.700000X1.950000*%
%TD*%
%TA.AperFunction,ComponentPad*%
%ADD17R,1.700000X1.700000*%
%TD*%
%TA.AperFunction,ComponentPad*%
%ADD18C,1.700000*%
%TD*%
%TA.AperFunction,ComponentPad*%
%ADD19RoundRect,0.250000X0.625000X-0.350000X0.625000X0.350000X-0.625000X0.350000X-0.625000X-0.350000X0*%
%TD*%
%TA.AperFunction,ComponentPad*%
%ADD20O,1.750000X1.200000*%
%TD*%
%TA.AperFunction,ViaPad*%
%ADD21C,0.500000*%
%TD*%
G04 APERTURE END LIST*
D10*
%TO.N,GND*%
%TO.C,J7*%
X46740000Y-119370000D03*
D11*
X46740000Y-123550000D03*
D10*
X55380000Y-119370000D03*
D11*
X55380000Y-123550000D03*
%TD*%
D12*
%TO.N,N/C*%
%TO.C,H1*%
X41620000Y-66480000D03*
%TD*%
D13*
%TO.N,Net-(U2-RF_IN)*%
%TO.C,J2*%
X44200000Y-104840000D03*
D14*
%TO.N,GND*%
X41660000Y-102300000D03*
X46740000Y-102300000D03*
X41660000Y-107380000D03*
X46740000Y-107380000D03*
%TD*%
D12*
%TO.N,N/C*%
%TO.C,H4*%
X61870000Y-123920000D03*
%TD*%
%TO.N,N/C*%
%TO.C,H2*%
X61930000Y-66450000D03*
%TD*%
D15*
%TO.N,GND*%
%TO.C,J5*%
X53560000Y-103540000D03*
D16*
%TO.N,GPS_RX*%
X56060000Y-103540000D03*
%TO.N,GPS_TX*%
X58560000Y-103540000D03*
%TO.N,GPS_RXD2*%
X61060000Y-103540000D03*
%TD*%
D17*
%TO.N,GND*%
%TO.C,J1*%
X41860000Y-74020000D03*
D18*
%TO.N,+3V3*%
X41860000Y-76560000D03*
%TO.N,SDA*%
X41860000Y-79100000D03*
%TO.N,SCL*%
X41860000Y-81640000D03*
%TO.N,IO34*%
X41860000Y-84180000D03*
%TO.N,IO33*%
X41860000Y-86720000D03*
%TO.N,GPS_RXD2*%
X41860000Y-89260000D03*
%TO.N,L_BUSY*%
X41860000Y-91800000D03*
%TO.N,L_DI01*%
X41860000Y-94340000D03*
%TO.N,VCC*%
X41860000Y-96880000D03*
%TD*%
D17*
%TO.N,unconnected-(J4-Pin_1-Pad1)*%
%TO.C,J4*%
X61640000Y-73850000D03*
D18*
%TO.N,GPS_TX*%
X61640000Y-76390000D03*
%TO.N,GPS_RX*%
X61640000Y-78930000D03*
%TO.N,L_CS*%
X61640000Y-81470000D03*
%TO.N,L_RST*%
X61640000Y-84010000D03*
%TO.N,L_SCK*%
X61640000Y-86550000D03*
%TO.N,L_MOSI*%
X61640000Y-89090000D03*
%TO.N,L_MISO*%
X61640000Y-91630000D03*
%TO.N,unconnected-(J4-Pin_9-Pad9)*%
X61640000Y-94170000D03*
%TO.N,L_RXEN*%
X61640000Y-96710000D03*
%TD*%
D19*
%TO.N,GND*%
%TO.C,J29*%
X60090000Y-114550000D03*
D20*
%TO.N,V_BAT*%
X60090000Y-112550000D03*
%TD*%
D12*
%TO.N,N/C*%
%TO.C,H3*%
X41740000Y-123930000D03*
%TD*%
D21*
%TO.N,GND*%
X47480000Y-85530000D03*
X48710000Y-85520000D03*
X58980000Y-80210000D03*
X57240000Y-80230000D03*
X57970000Y-83680000D03*
X54880000Y-78380000D03*
X54960000Y-82510000D03*
X57140000Y-77610000D03*
X53490000Y-96650000D03*
X40910000Y-120790000D03*
X41780000Y-120790000D03*
X42690000Y-120830000D03*
%TO.N,GPS_RX*%
X54980000Y-81670000D03*
%TO.N,GPS_TX*%
X53650000Y-87960000D03*
X57570000Y-78440000D03*
%TO.N,GPS_RX*%
X54940000Y-80300000D03*
%TO.N,GND*%
X48900000Y-120820000D03*
X40560000Y-90230000D03*
X40550000Y-77790000D03*
X45340000Y-120790000D03*
X54990000Y-90060000D03*
X59840000Y-64920000D03*
X50750000Y-86210000D03*
X42920000Y-105770000D03*
X57470000Y-85350000D03*
X54320000Y-66310000D03*
X60860000Y-109850000D03*
X40560000Y-82630000D03*
X49230000Y-77670000D03*
X46590000Y-97750000D03*
X51780000Y-115520000D03*
X60260000Y-85820000D03*
X45780000Y-105070000D03*
X63010000Y-94810000D03*
X39990000Y-74520000D03*
X47020000Y-100190000D03*
X47700000Y-99590000D03*
X63000000Y-84900000D03*
X43580000Y-64850000D03*
X48790000Y-90000000D03*
X44640000Y-106400000D03*
X48000000Y-112120000D03*
X48250000Y-97840000D03*
X45260000Y-100700000D03*
X40060000Y-116360000D03*
X40560000Y-92660000D03*
X62950000Y-70180000D03*
X44790000Y-102710000D03*
X46060000Y-100390000D03*
X40110000Y-120670000D03*
X45680000Y-68010000D03*
X53100000Y-121480000D03*
X48340000Y-66400000D03*
X45570000Y-88010000D03*
X40560000Y-85250000D03*
X50030000Y-66370000D03*
X62280000Y-111310000D03*
X43050000Y-72320000D03*
X56390000Y-87510000D03*
X60530000Y-105060000D03*
X43520000Y-120860000D03*
X44470000Y-120860000D03*
X47490000Y-66400000D03*
X48340000Y-108710000D03*
X44420000Y-113670000D03*
X53790000Y-115490000D03*
X56000000Y-66350000D03*
X42630000Y-70470000D03*
X50880000Y-66370000D03*
X43340000Y-116960000D03*
X58100000Y-105040000D03*
X61820000Y-70120000D03*
X54830000Y-115600000D03*
X50950000Y-80350000D03*
X44200000Y-79920000D03*
X40080000Y-108930000D03*
X43620000Y-106360000D03*
X53440000Y-66310000D03*
X60470000Y-82960000D03*
X45370000Y-99350000D03*
X47150000Y-80450000D03*
X57140000Y-107220000D03*
X58010000Y-119400000D03*
X56840000Y-66340000D03*
X40560000Y-80090000D03*
X57690000Y-66350000D03*
X43650000Y-102460000D03*
X53210000Y-107920000D03*
X45510000Y-98040000D03*
X55140000Y-66310000D03*
X48110000Y-84250000D03*
X44760000Y-84700000D03*
X44730000Y-108440000D03*
X45760000Y-66350000D03*
X50310000Y-90110000D03*
X40540000Y-95330000D03*
X45020000Y-103500000D03*
X63120000Y-116090000D03*
X49090000Y-107430000D03*
X46610000Y-66370000D03*
X58220000Y-118050000D03*
X53140000Y-81070000D03*
X50530000Y-88040000D03*
X47220000Y-89980000D03*
X43630000Y-100460000D03*
X43540000Y-99310000D03*
X45720000Y-67160000D03*
X63000000Y-89540000D03*
X55520000Y-105000000D03*
X44040000Y-116350000D03*
X42820000Y-104030000D03*
X46220000Y-86400000D03*
X48760000Y-105720000D03*
X42560000Y-105030000D03*
X63000000Y-79970000D03*
X48420000Y-117240000D03*
X46510000Y-116840000D03*
X55160000Y-87880000D03*
X53620000Y-86960000D03*
X43340000Y-110470000D03*
X39960000Y-119830000D03*
X51750000Y-66350000D03*
X40060000Y-72290000D03*
X52600000Y-66350000D03*
X43840000Y-67250000D03*
X44890000Y-101630000D03*
X63010000Y-87140000D03*
X41450000Y-115100000D03*
X60460000Y-75150000D03*
X43520000Y-103320000D03*
X45642959Y-104077383D03*
X43550000Y-108480000D03*
X62970000Y-82180000D03*
X53180000Y-108970000D03*
X63000000Y-92370000D03*
X49200000Y-66380000D03*
X62940000Y-97880000D03*
X47400000Y-97670000D03*
X60910000Y-108140000D03*
X45370000Y-105910000D03*
X45600000Y-70120000D03*
X59760000Y-68400000D03*
X43760000Y-101300000D03*
X45610000Y-113680000D03*
X40560000Y-87630000D03*
X43380000Y-112410000D03*
%TO.N,+3V3*%
X47200000Y-88070000D03*
X47020000Y-86410000D03*
X41430000Y-114120000D03*
X41340000Y-110880000D03*
X57980000Y-81900000D03*
X43770000Y-68120000D03*
X63090000Y-116980000D03*
X43010000Y-68540000D03*
X47860000Y-86410000D03*
X47990000Y-109430000D03*
X48680000Y-86440000D03*
X43780000Y-69230000D03*
X56230000Y-107270000D03*
X48740000Y-88050000D03*
X44770000Y-83870000D03*
X41770000Y-112640000D03*
X40280000Y-110840000D03*
X42610000Y-112660000D03*
%TO.N,VCC*%
X50500000Y-115400000D03*
X49460000Y-114590000D03*
X49520000Y-115430000D03*
X50480000Y-114560000D03*
%TO.N,ESP32 D-*%
X57160000Y-119410000D03*
X51740000Y-80170000D03*
X51750000Y-116740000D03*
%TO.N,ESP32 D+*%
X52480000Y-116390000D03*
X52540000Y-80190000D03*
X56330000Y-118100000D03*
%TO.N,Net-(J7-CC2)*%
X56310000Y-121820000D03*
X52810000Y-117330000D03*
%TO.N,NEOPIX*%
X60070000Y-108220000D03*
X55810000Y-86910000D03*
%TO.N,SCL*%
X44840000Y-80400000D03*
%TO.N,SDA*%
X46280000Y-80410000D03*
%TO.N,GPS_RXD2*%
X51940000Y-97790000D03*
X49240000Y-78480000D03*
%TO.N,GPS_RX*%
X52840000Y-88060000D03*
%TO.N,Net-(U2-PPS)*%
X51690000Y-89950000D03*
X50450000Y-106270000D03*
%TO.N,Net-(U3-IO0)*%
X60980000Y-70140000D03*
X45780000Y-68950000D03*
%TD*%
%TA.AperFunction,Conductor*%
%TO.N,GND*%
G36*
X61116654Y-64498801D02*
G01*
X61134967Y-64542992D01*
X61116668Y-64587189D01*
X61096385Y-64600744D01*
X61031341Y-64627686D01*
X61031329Y-64627692D01*
X60801167Y-64760576D01*
X60590313Y-64922369D01*
X60590303Y-64922378D01*
X60402378Y-65110303D01*
X60402369Y-65110313D01*
X60240576Y-65321167D01*
X60107692Y-65551329D01*
X60107686Y-65551341D01*
X60005981Y-65796881D01*
X60005974Y-65796899D01*
X59937191Y-66053601D01*
X59937191Y-66053602D01*
X59902500Y-66317106D01*
X59902500Y-66582893D01*
X59937191Y-66846397D01*
X59937191Y-66846398D01*
X60005974Y-67103100D01*
X60005978Y-67103111D01*
X60005980Y-67103117D01*
X60060117Y-67233816D01*
X60107686Y-67348658D01*
X60107692Y-67348670D01*
X60144447Y-67412331D01*
X60240578Y-67578835D01*
X60263598Y-67608835D01*
X60366596Y-67743066D01*
X60402374Y-67789692D01*
X60590308Y-67977626D01*
X60801165Y-68139422D01*
X61031336Y-68272311D01*
X61276883Y-68374020D01*
X61276893Y-68374022D01*
X61276899Y-68374025D01*
X61533602Y-68442808D01*
X61533606Y-68442809D01*
X61797111Y-68477500D01*
X61797117Y-68477500D01*
X62062883Y-68477500D01*
X62062889Y-68477500D01*
X62326394Y-68442809D01*
X62326398Y-68442808D01*
X62583100Y-68374025D01*
X62583103Y-68374023D01*
X62583117Y-68374020D01*
X62828664Y-68272311D01*
X63058835Y-68139422D01*
X63269692Y-67977626D01*
X63457626Y-67789692D01*
X63619422Y-67578835D01*
X63742873Y-67365010D01*
X63780824Y-67335891D01*
X63828250Y-67342134D01*
X63857370Y-67380085D01*
X63859500Y-67396261D01*
X63859500Y-123110758D01*
X63841194Y-123154952D01*
X63797000Y-123173258D01*
X63752806Y-123154952D01*
X63739258Y-123134676D01*
X63692311Y-123021336D01*
X63559422Y-122791165D01*
X63405299Y-122590308D01*
X63397630Y-122580313D01*
X63397621Y-122580303D01*
X63209696Y-122392378D01*
X63209686Y-122392369D01*
X63011867Y-122240578D01*
X62998835Y-122230578D01*
X62988308Y-122224500D01*
X62768670Y-122097692D01*
X62768658Y-122097686D01*
X62653816Y-122050117D01*
X62523117Y-121995980D01*
X62523111Y-121995978D01*
X62523100Y-121995974D01*
X62266397Y-121927191D01*
X62002893Y-121892500D01*
X62002889Y-121892500D01*
X61737111Y-121892500D01*
X61737106Y-121892500D01*
X61473602Y-121927191D01*
X61473601Y-121927191D01*
X61216899Y-121995974D01*
X61216884Y-121995979D01*
X61216883Y-121995980D01*
X61178600Y-122011837D01*
X60971341Y-122097686D01*
X60971329Y-122097692D01*
X60741167Y-122230576D01*
X60530313Y-122392369D01*
X60530303Y-122392378D01*
X60342378Y-122580303D01*
X60342369Y-122580313D01*
X60180576Y-122791167D01*
X60047692Y-123021329D01*
X60047686Y-123021341D01*
X59945981Y-123266881D01*
X59945974Y-123266899D01*
X59877191Y-123523601D01*
X59877191Y-123523602D01*
X59842500Y-123787106D01*
X59842500Y-124052893D01*
X59877191Y-124316397D01*
X59877191Y-124316398D01*
X59945974Y-124573100D01*
X59945978Y-124573111D01*
X59945980Y-124573117D01*
X59950123Y-124583118D01*
X60047686Y-124818658D01*
X60047692Y-124818670D01*
X60180576Y-125048832D01*
X60180578Y-125048835D01*
X60342374Y-125259692D01*
X60530308Y-125447626D01*
X60741165Y-125609422D01*
X60971336Y-125742311D01*
X61216883Y-125844020D01*
X61216891Y-125844022D01*
X61216898Y-125844025D01*
X61226621Y-125846630D01*
X61264572Y-125875750D01*
X61270815Y-125923176D01*
X61241695Y-125961127D01*
X61210445Y-125969500D01*
X42428531Y-125969500D01*
X42384337Y-125951194D01*
X42366031Y-125907000D01*
X42384337Y-125862806D01*
X42404613Y-125849258D01*
X42417259Y-125844020D01*
X42638664Y-125752311D01*
X42868835Y-125619422D01*
X43079692Y-125457626D01*
X43267626Y-125269692D01*
X43429422Y-125058835D01*
X43562311Y-124828664D01*
X43664020Y-124583117D01*
X43666700Y-124573118D01*
X43732808Y-124326398D01*
X43732809Y-124326393D01*
X43733166Y-124323680D01*
X43767500Y-124062889D01*
X43767500Y-123797111D01*
X43732809Y-123533606D01*
X43732808Y-123533601D01*
X43664025Y-123276899D01*
X43664023Y-123276894D01*
X43664022Y-123276893D01*
X43664020Y-123276883D01*
X43613514Y-123154952D01*
X43612087Y-123151508D01*
X45740000Y-123151508D01*
X45740000Y-123300000D01*
X46440000Y-123300000D01*
X46440000Y-123800000D01*
X45740000Y-123800000D01*
X45740000Y-123948491D01*
X45778429Y-124141689D01*
X45778431Y-124141697D01*
X45853811Y-124323678D01*
X45853812Y-124323680D01*
X45963248Y-124487462D01*
X46102537Y-124626751D01*
X46266319Y-124736187D01*
X46266321Y-124736188D01*
X46448302Y-124811568D01*
X46448310Y-124811570D01*
X46489999Y-124819863D01*
X46490000Y-124819863D01*
X46490000Y-124016988D01*
X46499940Y-124034205D01*
X46555795Y-124090060D01*
X46624204Y-124129556D01*
X46700504Y-124150000D01*
X46779496Y-124150000D01*
X46855796Y-124129556D01*
X46924205Y-124090060D01*
X46980060Y-124034205D01*
X46990000Y-124016988D01*
X46990000Y-124819863D01*
X47031689Y-124811570D01*
X47031697Y-124811568D01*
X47213678Y-124736188D01*
X47213680Y-124736187D01*
X47377462Y-124626751D01*
X47516751Y-124487462D01*
X47626187Y-124323680D01*
X47626188Y-124323678D01*
X47701568Y-124141697D01*
X47701570Y-124141689D01*
X47739999Y-123948491D01*
X47740000Y-123948491D01*
X47740000Y-123800000D01*
X47040000Y-123800000D01*
X47040000Y-123300000D01*
X47740000Y-123300000D01*
X47740000Y-123151509D01*
X47739999Y-123151508D01*
X54380000Y-123151508D01*
X54380000Y-123300000D01*
X55080000Y-123300000D01*
X55080000Y-123800000D01*
X54380000Y-123800000D01*
X54380000Y-123948491D01*
X54418429Y-124141689D01*
X54418431Y-124141697D01*
X54493811Y-124323678D01*
X54493812Y-124323680D01*
X54603248Y-124487462D01*
X54742537Y-124626751D01*
X54906319Y-124736187D01*
X54906321Y-124736188D01*
X55088302Y-124811568D01*
X55088310Y-124811570D01*
X55129999Y-124819863D01*
X55130000Y-124819863D01*
X55130000Y-124016988D01*
X55139940Y-124034205D01*
X55195795Y-124090060D01*
X55264204Y-124129556D01*
X55340504Y-124150000D01*
X55419496Y-124150000D01*
X55495796Y-124129556D01*
X55564205Y-124090060D01*
X55620060Y-124034205D01*
X55630000Y-124016988D01*
X55630000Y-124819863D01*
X55671689Y-124811570D01*
X55671697Y-124811568D01*
X55853678Y-124736188D01*
X55853680Y-124736187D01*
X56017462Y-124626751D01*
X56156751Y-124487462D01*
X56266187Y-124323680D01*
X56266188Y-124323678D01*
X56341568Y-124141697D01*
X56341570Y-124141689D01*
X56379999Y-123948491D01*
X56380000Y-123948491D01*
X56380000Y-123800000D01*
X55680000Y-123800000D01*
X55680000Y-123300000D01*
X56380000Y-123300000D01*
X56380000Y-123151509D01*
X56379999Y-123151508D01*
X56341570Y-122958310D01*
X56341568Y-122958302D01*
X56266188Y-122776321D01*
X56266187Y-122776319D01*
X56156751Y-122612537D01*
X56017462Y-122473248D01*
X55853680Y-122363812D01*
X55853678Y-122363811D01*
X55671688Y-122288428D01*
X55630000Y-122280136D01*
X55630000Y-123083011D01*
X55620060Y-123065795D01*
X55564205Y-123009940D01*
X55495796Y-122970444D01*
X55419496Y-122950000D01*
X55340504Y-122950000D01*
X55264204Y-122970444D01*
X55195795Y-123009940D01*
X55139940Y-123065795D01*
X55130000Y-123083011D01*
X55130000Y-122280136D01*
X55088311Y-122288428D01*
X54906321Y-122363811D01*
X54906319Y-122363812D01*
X54742537Y-122473248D01*
X54603248Y-122612537D01*
X54493812Y-122776319D01*
X54493811Y-122776321D01*
X54418431Y-122958302D01*
X54418429Y-122958310D01*
X54380000Y-123151508D01*
X47739999Y-123151508D01*
X47701570Y-122958310D01*
X47701568Y-122958302D01*
X47626188Y-122776321D01*
X47626187Y-122776319D01*
X47516751Y-122612537D01*
X47377462Y-122473248D01*
X47213680Y-122363812D01*
X47213678Y-122363811D01*
X47031688Y-122288428D01*
X46990000Y-122280136D01*
X46990000Y-123083011D01*
X46980060Y-123065795D01*
X46924205Y-123009940D01*
X46855796Y-122970444D01*
X46779496Y-122950000D01*
X46700504Y-122950000D01*
X46624204Y-122970444D01*
X46555795Y-123009940D01*
X46499940Y-123065795D01*
X46490000Y-123083011D01*
X46490000Y-122280136D01*
X46448311Y-122288428D01*
X46266321Y-122363811D01*
X46266319Y-122363812D01*
X46102537Y-122473248D01*
X45963248Y-122612537D01*
X45853812Y-122776319D01*
X45853811Y-122776321D01*
X45778431Y-122958302D01*
X45778429Y-122958310D01*
X45740000Y-123151508D01*
X43612087Y-123151508D01*
X43562313Y-123031341D01*
X43562307Y-123031329D01*
X43527155Y-122970444D01*
X43429422Y-122801165D01*
X43267626Y-122590308D01*
X43079692Y-122402374D01*
X43079688Y-122402371D01*
X43079686Y-122402369D01*
X42868832Y-122240576D01*
X42638670Y-122107692D01*
X42638658Y-122107686D01*
X42523816Y-122060117D01*
X42393117Y-122005980D01*
X42393111Y-122005978D01*
X42393100Y-122005974D01*
X42136397Y-121937191D01*
X41872893Y-121902500D01*
X41872889Y-121902500D01*
X41607111Y-121902500D01*
X41607106Y-121902500D01*
X41343602Y-121937191D01*
X41343601Y-121937191D01*
X41086899Y-122005974D01*
X41086884Y-122005979D01*
X41086883Y-122005980D01*
X41086881Y-122005981D01*
X40841341Y-122107686D01*
X40841329Y-122107692D01*
X40611167Y-122240576D01*
X40400313Y-122402369D01*
X40400303Y-122402378D01*
X40212378Y-122590303D01*
X40212369Y-122590313D01*
X40050576Y-122801167D01*
X39917692Y-123031329D01*
X39917686Y-123031341D01*
X39820742Y-123265387D01*
X39786918Y-123299211D01*
X39739082Y-123299211D01*
X39705258Y-123265387D01*
X39700500Y-123241469D01*
X39700500Y-121766748D01*
X55905500Y-121766748D01*
X55905500Y-121873251D01*
X55905501Y-121873259D01*
X55933064Y-121976127D01*
X55933068Y-121976136D01*
X55986317Y-122068365D01*
X55986324Y-122068374D01*
X56061625Y-122143675D01*
X56061634Y-122143682D01*
X56153863Y-122196931D01*
X56153866Y-122196932D01*
X56153869Y-122196934D01*
X56153870Y-122196934D01*
X56153872Y-122196935D01*
X56216826Y-122213803D01*
X56256747Y-122224500D01*
X56256748Y-122224500D01*
X56363252Y-122224500D01*
X56363253Y-122224500D01*
X56466131Y-122196934D01*
X56558369Y-122143680D01*
X56633680Y-122068369D01*
X56686934Y-121976131D01*
X56714500Y-121873253D01*
X56714500Y-121766747D01*
X56686934Y-121663869D01*
X56633680Y-121571631D01*
X56633678Y-121571629D01*
X56633675Y-121571625D01*
X56558374Y-121496324D01*
X56558365Y-121496317D01*
X56466136Y-121443068D01*
X56466127Y-121443064D01*
X56363259Y-121415501D01*
X56363254Y-121415500D01*
X56363253Y-121415500D01*
X56256747Y-121415500D01*
X56256746Y-121415500D01*
X56256740Y-121415501D01*
X56153872Y-121443064D01*
X56153863Y-121443068D01*
X56061634Y-121496317D01*
X56061625Y-121496324D01*
X55986324Y-121571625D01*
X55986317Y-121571634D01*
X55933068Y-121663863D01*
X55933064Y-121663872D01*
X55905501Y-121766740D01*
X55905500Y-121766748D01*
X39700500Y-121766748D01*
X39700500Y-118721508D01*
X45740000Y-118721508D01*
X45740000Y-119120000D01*
X46440000Y-119120000D01*
X46440000Y-119620000D01*
X45740000Y-119620000D01*
X45740000Y-120018491D01*
X45778429Y-120211689D01*
X45778431Y-120211697D01*
X45853811Y-120393678D01*
X45853812Y-120393680D01*
X45963248Y-120557462D01*
X46102537Y-120696751D01*
X46266319Y-120806187D01*
X46266321Y-120806188D01*
X46448302Y-120881568D01*
X46448310Y-120881570D01*
X46489999Y-120889863D01*
X46490000Y-120889863D01*
X46490000Y-120086988D01*
X46499940Y-120104205D01*
X46555795Y-120160060D01*
X46624204Y-120199556D01*
X46700504Y-120220000D01*
X46779496Y-120220000D01*
X46855796Y-120199556D01*
X46924205Y-120160060D01*
X46980060Y-120104205D01*
X46990000Y-120086988D01*
X46990000Y-120889863D01*
X47031689Y-120881570D01*
X47031697Y-120881568D01*
X47213678Y-120806188D01*
X47213680Y-120806187D01*
X47377462Y-120696751D01*
X47516751Y-120557462D01*
X47626188Y-120393679D01*
X47626189Y-120393677D01*
X47654229Y-120325980D01*
X47688053Y-120292155D01*
X47735889Y-120292154D01*
X47756166Y-120305703D01*
X47814173Y-120363710D01*
X47814177Y-120363713D01*
X47814179Y-120363715D01*
X47946322Y-120440008D01*
X48093707Y-120479500D01*
X48093708Y-120479500D01*
X48246292Y-120479500D01*
X48246293Y-120479500D01*
X48393678Y-120440008D01*
X48525821Y-120363715D01*
X48633715Y-120255821D01*
X48710008Y-120123678D01*
X48749500Y-119976293D01*
X48749500Y-119823708D01*
X53370500Y-119823708D01*
X53370500Y-119976291D01*
X53370501Y-119976299D01*
X53409990Y-120123673D01*
X53409991Y-120123677D01*
X53486286Y-120255822D01*
X53486289Y-120255826D01*
X53594173Y-120363710D01*
X53594177Y-120363713D01*
X53594179Y-120363715D01*
X53726322Y-120440008D01*
X53873707Y-120479500D01*
X53873708Y-120479500D01*
X54026292Y-120479500D01*
X54026293Y-120479500D01*
X54173678Y-120440008D01*
X54305821Y-120363715D01*
X54363833Y-120305702D01*
X54408026Y-120287397D01*
X54452221Y-120305702D01*
X54465769Y-120325979D01*
X54493811Y-120393678D01*
X54493812Y-120393680D01*
X54603248Y-120557462D01*
X54742537Y-120696751D01*
X54906319Y-120806187D01*
X54906321Y-120806188D01*
X55088302Y-120881568D01*
X55088310Y-120881570D01*
X55129999Y-120889863D01*
X55130000Y-120889863D01*
X55130000Y-120086988D01*
X55139940Y-120104205D01*
X55195795Y-120160060D01*
X55264204Y-120199556D01*
X55340504Y-120220000D01*
X55419496Y-120220000D01*
X55495796Y-120199556D01*
X55564205Y-120160060D01*
X55620060Y-120104205D01*
X55630000Y-120086988D01*
X55630000Y-120889863D01*
X55671689Y-120881570D01*
X55671697Y-120881568D01*
X55853678Y-120806188D01*
X55853680Y-120806187D01*
X56017462Y-120696751D01*
X56156751Y-120557462D01*
X56266187Y-120393680D01*
X56266188Y-120393678D01*
X56341568Y-120211697D01*
X56341570Y-120211689D01*
X56379999Y-120018491D01*
X56380000Y-120018491D01*
X56380000Y-119620000D01*
X55680000Y-119620000D01*
X55680000Y-119356748D01*
X56755500Y-119356748D01*
X56755500Y-119463251D01*
X56755501Y-119463259D01*
X56783064Y-119566127D01*
X56783068Y-119566136D01*
X56836317Y-119658365D01*
X56836324Y-119658374D01*
X56911625Y-119733675D01*
X56911634Y-119733682D01*
X57003863Y-119786931D01*
X57003866Y-119786932D01*
X57003869Y-119786934D01*
X57003870Y-119786934D01*
X57003872Y-119786935D01*
X57066826Y-119803803D01*
X57106747Y-119814500D01*
X57106748Y-119814500D01*
X57213252Y-119814500D01*
X57213253Y-119814500D01*
X57316131Y-119786934D01*
X57408369Y-119733680D01*
X57483680Y-119658369D01*
X57536934Y-119566131D01*
X57564500Y-119463253D01*
X57564500Y-119356747D01*
X57536934Y-119253869D01*
X57483680Y-119161631D01*
X57483678Y-119161629D01*
X57483675Y-119161625D01*
X57408374Y-119086324D01*
X57408365Y-119086317D01*
X57316136Y-119033068D01*
X57316127Y-119033064D01*
X57213259Y-119005501D01*
X57213254Y-119005500D01*
X57213253Y-119005500D01*
X57106747Y-119005500D01*
X57106746Y-119005500D01*
X57106740Y-119005501D01*
X57003872Y-119033064D01*
X57003863Y-119033068D01*
X56911634Y-119086317D01*
X56911625Y-119086324D01*
X56836324Y-119161625D01*
X56836317Y-119161634D01*
X56783068Y-119253863D01*
X56783064Y-119253872D01*
X56755501Y-119356740D01*
X56755500Y-119356748D01*
X55680000Y-119356748D01*
X55680000Y-119120000D01*
X56380000Y-119120000D01*
X56380000Y-118721509D01*
X56379999Y-118721508D01*
X56350603Y-118573721D01*
X56359935Y-118526805D01*
X56395726Y-118501158D01*
X56486127Y-118476935D01*
X56486126Y-118476935D01*
X56486131Y-118476934D01*
X56578369Y-118423680D01*
X56653680Y-118348369D01*
X56706934Y-118256131D01*
X56734500Y-118153253D01*
X56734500Y-118046747D01*
X56710148Y-117955863D01*
X56706935Y-117943872D01*
X56706931Y-117943863D01*
X56653682Y-117851634D01*
X56653675Y-117851625D01*
X56578374Y-117776324D01*
X56578365Y-117776317D01*
X56486136Y-117723068D01*
X56486127Y-117723064D01*
X56383259Y-117695501D01*
X56383254Y-117695500D01*
X56383253Y-117695500D01*
X56276747Y-117695500D01*
X56276746Y-117695500D01*
X56276740Y-117695501D01*
X56173872Y-117723064D01*
X56173863Y-117723068D01*
X56081634Y-117776317D01*
X56081625Y-117776324D01*
X56006324Y-117851625D01*
X56006319Y-117851631D01*
X55962953Y-117926743D01*
X55925002Y-117955863D01*
X55877576Y-117949618D01*
X55874104Y-117947459D01*
X55853681Y-117933812D01*
X55853678Y-117933811D01*
X55671688Y-117858428D01*
X55630000Y-117850136D01*
X55630000Y-118653011D01*
X55620060Y-118635795D01*
X55564205Y-118579940D01*
X55495796Y-118540444D01*
X55419496Y-118520000D01*
X55340504Y-118520000D01*
X55264204Y-118540444D01*
X55195795Y-118579940D01*
X55139940Y-118635795D01*
X55130000Y-118653011D01*
X55130000Y-117850136D01*
X55088311Y-117858428D01*
X54906321Y-117933811D01*
X54906319Y-117933812D01*
X54742537Y-118043248D01*
X54603248Y-118182537D01*
X54493812Y-118346319D01*
X54493811Y-118346321D01*
X54418431Y-118528302D01*
X54418429Y-118528310D01*
X54380000Y-118721508D01*
X54380000Y-119120000D01*
X55080000Y-119120000D01*
X55080000Y-119620000D01*
X54493575Y-119620000D01*
X54449381Y-119601694D01*
X54439449Y-119588750D01*
X54413717Y-119544182D01*
X54413710Y-119544173D01*
X54305826Y-119436289D01*
X54305817Y-119436282D01*
X54254716Y-119406778D01*
X54254714Y-119406778D01*
X54221321Y-119387498D01*
X54173677Y-119359991D01*
X54173673Y-119359990D01*
X54026299Y-119320501D01*
X54026294Y-119320500D01*
X54026293Y-119320500D01*
X53873707Y-119320500D01*
X53873706Y-119320500D01*
X53873700Y-119320501D01*
X53726326Y-119359990D01*
X53726322Y-119359991D01*
X53594177Y-119436286D01*
X53594173Y-119436289D01*
X53486289Y-119544173D01*
X53486286Y-119544177D01*
X53409991Y-119676322D01*
X53409990Y-119676326D01*
X53370501Y-119823700D01*
X53370500Y-119823708D01*
X48749500Y-119823708D01*
X48749500Y-119823707D01*
X48710008Y-119676322D01*
X48633715Y-119544179D01*
X48633713Y-119544177D01*
X48633710Y-119544173D01*
X48525826Y-119436289D01*
X48525822Y-119436286D01*
X48525821Y-119436285D01*
X48459749Y-119398138D01*
X48393677Y-119359991D01*
X48393673Y-119359990D01*
X48246299Y-119320501D01*
X48246294Y-119320500D01*
X48246293Y-119320500D01*
X48093707Y-119320500D01*
X48093706Y-119320500D01*
X48093700Y-119320501D01*
X47946326Y-119359990D01*
X47946322Y-119359991D01*
X47814177Y-119436286D01*
X47814173Y-119436289D01*
X47706289Y-119544173D01*
X47706282Y-119544182D01*
X47680551Y-119588750D01*
X47642601Y-119617870D01*
X47626425Y-119620000D01*
X47040000Y-119620000D01*
X47040000Y-119120000D01*
X47740000Y-119120000D01*
X47740000Y-118721509D01*
X47739999Y-118721508D01*
X47701570Y-118528310D01*
X47701568Y-118528302D01*
X47626188Y-118346321D01*
X47626187Y-118346319D01*
X47516751Y-118182537D01*
X47377462Y-118043248D01*
X47213680Y-117933812D01*
X47213678Y-117933811D01*
X47031688Y-117858428D01*
X46990000Y-117850136D01*
X46990000Y-118653011D01*
X46980060Y-118635795D01*
X46924205Y-118579940D01*
X46855796Y-118540444D01*
X46779496Y-118520000D01*
X46700504Y-118520000D01*
X46624204Y-118540444D01*
X46555795Y-118579940D01*
X46499940Y-118635795D01*
X46490000Y-118653011D01*
X46490000Y-117850136D01*
X46448311Y-117858428D01*
X46266321Y-117933811D01*
X46266319Y-117933812D01*
X46102537Y-118043248D01*
X45963248Y-118182537D01*
X45853812Y-118346319D01*
X45853811Y-118346321D01*
X45778431Y-118528302D01*
X45778429Y-118528310D01*
X45740000Y-118721508D01*
X39700500Y-118721508D01*
X39700500Y-117276748D01*
X52405500Y-117276748D01*
X52405500Y-117383251D01*
X52405501Y-117383259D01*
X52433064Y-117486127D01*
X52433068Y-117486136D01*
X52486317Y-117578365D01*
X52486324Y-117578374D01*
X52561625Y-117653675D01*
X52561634Y-117653682D01*
X52653863Y-117706931D01*
X52653866Y-117706932D01*
X52653869Y-117706934D01*
X52653870Y-117706934D01*
X52653872Y-117706935D01*
X52714067Y-117723064D01*
X52756747Y-117734500D01*
X52756748Y-117734500D01*
X52863252Y-117734500D01*
X52863253Y-117734500D01*
X52966131Y-117706934D01*
X53058369Y-117653680D01*
X53133680Y-117578369D01*
X53186934Y-117486131D01*
X53214500Y-117383253D01*
X53214500Y-117276747D01*
X53186934Y-117173869D01*
X53165143Y-117136127D01*
X53133682Y-117081634D01*
X53133675Y-117081625D01*
X53058374Y-117006324D01*
X53058370Y-117006321D01*
X53058369Y-117006320D01*
X53007198Y-116976776D01*
X52966136Y-116953068D01*
X52966127Y-116953064D01*
X52867913Y-116926748D01*
X62685500Y-116926748D01*
X62685500Y-117033251D01*
X62685501Y-117033259D01*
X62713064Y-117136127D01*
X62713068Y-117136136D01*
X62766317Y-117228365D01*
X62766324Y-117228374D01*
X62841625Y-117303675D01*
X62841634Y-117303682D01*
X62933863Y-117356931D01*
X62933866Y-117356932D01*
X62933869Y-117356934D01*
X62933870Y-117356934D01*
X62933872Y-117356935D01*
X62996826Y-117373803D01*
X63036747Y-117384500D01*
X63036748Y-117384500D01*
X63143252Y-117384500D01*
X63143253Y-117384500D01*
X63246131Y-117356934D01*
X63338369Y-117303680D01*
X63413680Y-117228369D01*
X63466934Y-117136131D01*
X63494500Y-117033253D01*
X63494500Y-116926747D01*
X63466934Y-116823869D01*
X63449261Y-116793259D01*
X63413682Y-116731634D01*
X63413675Y-116731625D01*
X63338374Y-116656324D01*
X63338365Y-116656317D01*
X63246136Y-116603068D01*
X63246127Y-116603064D01*
X63143259Y-116575501D01*
X63143254Y-116575500D01*
X63143253Y-116575500D01*
X63036747Y-116575500D01*
X63036746Y-116575500D01*
X63036740Y-116575501D01*
X62933872Y-116603064D01*
X62933863Y-116603068D01*
X62841634Y-116656317D01*
X62841625Y-116656324D01*
X62766324Y-116731625D01*
X62766317Y-116731634D01*
X62713068Y-116823863D01*
X62713064Y-116823872D01*
X62685501Y-116926740D01*
X62685500Y-116926748D01*
X52867913Y-116926748D01*
X52863259Y-116925501D01*
X52863254Y-116925500D01*
X52863253Y-116925500D01*
X52756747Y-116925500D01*
X52756746Y-116925500D01*
X52756740Y-116925501D01*
X52653872Y-116953064D01*
X52653863Y-116953068D01*
X52561634Y-117006317D01*
X52561625Y-117006324D01*
X52486324Y-117081625D01*
X52486317Y-117081634D01*
X52433068Y-117173863D01*
X52433064Y-117173872D01*
X52405501Y-117276740D01*
X52405500Y-117276748D01*
X39700500Y-117276748D01*
X39700500Y-116686748D01*
X51345500Y-116686748D01*
X51345500Y-116793251D01*
X51345501Y-116793259D01*
X51373064Y-116896127D01*
X51373068Y-116896136D01*
X51426317Y-116988365D01*
X51426324Y-116988374D01*
X51501625Y-117063675D01*
X51501634Y-117063682D01*
X51593863Y-117116931D01*
X51593866Y-117116932D01*
X51593869Y-117116934D01*
X51593870Y-117116934D01*
X51593872Y-117116935D01*
X51656826Y-117133803D01*
X51696747Y-117144500D01*
X51696748Y-117144500D01*
X51803252Y-117144500D01*
X51803253Y-117144500D01*
X51906131Y-117116934D01*
X51998369Y-117063680D01*
X52073680Y-116988369D01*
X52126934Y-116896131D01*
X52154500Y-116793253D01*
X52154500Y-116777401D01*
X52172806Y-116733207D01*
X52217000Y-116714901D01*
X52248249Y-116723274D01*
X52323869Y-116766934D01*
X52323871Y-116766934D01*
X52323872Y-116766935D01*
X52362932Y-116777401D01*
X52426747Y-116794500D01*
X52426748Y-116794500D01*
X52533252Y-116794500D01*
X52533253Y-116794500D01*
X52636131Y-116766934D01*
X52728369Y-116713680D01*
X52803680Y-116638369D01*
X52856934Y-116546131D01*
X52884500Y-116443253D01*
X52884500Y-116336747D01*
X52856934Y-116233869D01*
X52803680Y-116141631D01*
X52803678Y-116141629D01*
X52803675Y-116141625D01*
X52728374Y-116066324D01*
X52728365Y-116066317D01*
X52636136Y-116013068D01*
X52636127Y-116013064D01*
X52533259Y-115985501D01*
X52533254Y-115985500D01*
X52533253Y-115985500D01*
X52426747Y-115985500D01*
X52426746Y-115985500D01*
X52426740Y-115985501D01*
X52323872Y-116013064D01*
X52323863Y-116013068D01*
X52231634Y-116066317D01*
X52231625Y-116066324D01*
X52156324Y-116141625D01*
X52156317Y-116141634D01*
X52103068Y-116233863D01*
X52103064Y-116233872D01*
X52075501Y-116336740D01*
X52075500Y-116336748D01*
X52075500Y-116352598D01*
X52057194Y-116396792D01*
X52013000Y-116415098D01*
X51981750Y-116406725D01*
X51906130Y-116363065D01*
X51906127Y-116363064D01*
X51803259Y-116335501D01*
X51803254Y-116335500D01*
X51803253Y-116335500D01*
X51696747Y-116335500D01*
X51696746Y-116335500D01*
X51696740Y-116335501D01*
X51593872Y-116363064D01*
X51593863Y-116363068D01*
X51501634Y-116416317D01*
X51501625Y-116416324D01*
X51426324Y-116491625D01*
X51426317Y-116491634D01*
X51373068Y-116583863D01*
X51373064Y-116583872D01*
X51345501Y-116686740D01*
X51345500Y-116686748D01*
X39700500Y-116686748D01*
X39700500Y-114536748D01*
X49055500Y-114536748D01*
X49055500Y-114643251D01*
X49055501Y-114643259D01*
X49083064Y-114746127D01*
X49083068Y-114746136D01*
X49136317Y-114838365D01*
X49136324Y-114838374D01*
X49211625Y-114913675D01*
X49211634Y-114913682D01*
X49303863Y-114966931D01*
X49303865Y-114966932D01*
X49303869Y-114966934D01*
X49303872Y-114966934D01*
X49307653Y-114968501D01*
X49306782Y-114970602D01*
X49338949Y-114995285D01*
X49345192Y-115042712D01*
X49316072Y-115080661D01*
X49271634Y-115106317D01*
X49271625Y-115106324D01*
X49196324Y-115181625D01*
X49196317Y-115181634D01*
X49143068Y-115273863D01*
X49143064Y-115273872D01*
X49115501Y-115376740D01*
X49115500Y-115376748D01*
X49115500Y-115483251D01*
X49115501Y-115483259D01*
X49143064Y-115586127D01*
X49143068Y-115586136D01*
X49196317Y-115678365D01*
X49196324Y-115678374D01*
X49271625Y-115753675D01*
X49271634Y-115753682D01*
X49363863Y-115806931D01*
X49363866Y-115806932D01*
X49363869Y-115806934D01*
X49363870Y-115806934D01*
X49363872Y-115806935D01*
X49426826Y-115823803D01*
X49466747Y-115834500D01*
X49466748Y-115834500D01*
X49573252Y-115834500D01*
X49573253Y-115834500D01*
X49676131Y-115806934D01*
X49768369Y-115753680D01*
X49843680Y-115678369D01*
X49896934Y-115586131D01*
X49924500Y-115483253D01*
X49924500Y-115376747D01*
X49896934Y-115273869D01*
X49879615Y-115243872D01*
X49843682Y-115181634D01*
X49843675Y-115181625D01*
X49768374Y-115106324D01*
X49768365Y-115106317D01*
X49676136Y-115053068D01*
X49672347Y-115051499D01*
X49673213Y-115049406D01*
X49641031Y-115024680D01*
X49634817Y-114977250D01*
X49663926Y-114939339D01*
X49708369Y-114913680D01*
X49783680Y-114838369D01*
X49836934Y-114746131D01*
X49864500Y-114643253D01*
X49864500Y-114536747D01*
X49863713Y-114533810D01*
X49859699Y-114518827D01*
X49856462Y-114506748D01*
X50075500Y-114506748D01*
X50075500Y-114613251D01*
X50075501Y-114613259D01*
X50103064Y-114716127D01*
X50103068Y-114716136D01*
X50156317Y-114808365D01*
X50156324Y-114808374D01*
X50231625Y-114883675D01*
X50231629Y-114883678D01*
X50231631Y-114883680D01*
X50314711Y-114931647D01*
X50343831Y-114969597D01*
X50337588Y-115017023D01*
X50314712Y-115039899D01*
X50251631Y-115076319D01*
X50251625Y-115076324D01*
X50176324Y-115151625D01*
X50176317Y-115151634D01*
X50123068Y-115243863D01*
X50123064Y-115243872D01*
X50095501Y-115346740D01*
X50095500Y-115346748D01*
X50095500Y-115453251D01*
X50095501Y-115453259D01*
X50123064Y-115556127D01*
X50123068Y-115556136D01*
X50176317Y-115648365D01*
X50176324Y-115648374D01*
X50251625Y-115723675D01*
X50251634Y-115723682D01*
X50343863Y-115776931D01*
X50343866Y-115776932D01*
X50343869Y-115776934D01*
X50343870Y-115776934D01*
X50343872Y-115776935D01*
X50406826Y-115793803D01*
X50446747Y-115804500D01*
X50446748Y-115804500D01*
X50553252Y-115804500D01*
X50553253Y-115804500D01*
X50656131Y-115776934D01*
X50748369Y-115723680D01*
X50823680Y-115648369D01*
X50876934Y-115556131D01*
X50904500Y-115453253D01*
X50904500Y-115346747D01*
X50884973Y-115273872D01*
X50876935Y-115243872D01*
X50876931Y-115243863D01*
X50823682Y-115151634D01*
X50823675Y-115151625D01*
X50748374Y-115076324D01*
X50748365Y-115076317D01*
X50665288Y-115028352D01*
X50636168Y-114990402D01*
X50642412Y-114942976D01*
X50665285Y-114920101D01*
X50728369Y-114883680D01*
X50803680Y-114808369D01*
X50856934Y-114716131D01*
X50884500Y-114613253D01*
X50884500Y-114506747D01*
X50864973Y-114433872D01*
X50856935Y-114403872D01*
X50856931Y-114403863D01*
X50803682Y-114311634D01*
X50803675Y-114311625D01*
X50728374Y-114236324D01*
X50728370Y-114236321D01*
X50728369Y-114236320D01*
X50669887Y-114202555D01*
X50636136Y-114183068D01*
X50636127Y-114183064D01*
X50533259Y-114155501D01*
X50533254Y-114155500D01*
X50533253Y-114155500D01*
X50426747Y-114155500D01*
X50426746Y-114155500D01*
X50426740Y-114155501D01*
X50323872Y-114183064D01*
X50323863Y-114183068D01*
X50231634Y-114236317D01*
X50231625Y-114236324D01*
X50156324Y-114311625D01*
X50156317Y-114311634D01*
X50103068Y-114403863D01*
X50103064Y-114403872D01*
X50075501Y-114506740D01*
X50075500Y-114506748D01*
X49856462Y-114506748D01*
X49836935Y-114433872D01*
X49836931Y-114433863D01*
X49783682Y-114341634D01*
X49783675Y-114341625D01*
X49708374Y-114266324D01*
X49708365Y-114266317D01*
X49616136Y-114213068D01*
X49616127Y-114213064D01*
X49513259Y-114185501D01*
X49513254Y-114185500D01*
X49513253Y-114185500D01*
X49406747Y-114185500D01*
X49406746Y-114185500D01*
X49406740Y-114185501D01*
X49303872Y-114213064D01*
X49303863Y-114213068D01*
X49211634Y-114266317D01*
X49211625Y-114266324D01*
X49136324Y-114341625D01*
X49136317Y-114341634D01*
X49083068Y-114433863D01*
X49083064Y-114433872D01*
X49055501Y-114536740D01*
X49055500Y-114536748D01*
X39700500Y-114536748D01*
X39700500Y-114066748D01*
X41025500Y-114066748D01*
X41025500Y-114173251D01*
X41025501Y-114173259D01*
X41053064Y-114276127D01*
X41053068Y-114276136D01*
X41106317Y-114368365D01*
X41106324Y-114368374D01*
X41181625Y-114443675D01*
X41181634Y-114443682D01*
X41273863Y-114496931D01*
X41273866Y-114496932D01*
X41273869Y-114496934D01*
X41273870Y-114496934D01*
X41273872Y-114496935D01*
X41310495Y-114506748D01*
X41376747Y-114524500D01*
X41376748Y-114524500D01*
X41483252Y-114524500D01*
X41483253Y-114524500D01*
X41586131Y-114496934D01*
X41591862Y-114493624D01*
X41618017Y-114478525D01*
X41655774Y-114456724D01*
X41678369Y-114443680D01*
X41753680Y-114368369D01*
X41806934Y-114276131D01*
X41834500Y-114173253D01*
X41834500Y-114150013D01*
X58715000Y-114150013D01*
X58715000Y-114300000D01*
X59809670Y-114300000D01*
X59789925Y-114319745D01*
X59740556Y-114405255D01*
X59715000Y-114500630D01*
X59715000Y-114599370D01*
X59740556Y-114694745D01*
X59789925Y-114780255D01*
X59809670Y-114800000D01*
X58715001Y-114800000D01*
X58715001Y-114949987D01*
X58725492Y-115052687D01*
X58725493Y-115052694D01*
X58780641Y-115219121D01*
X58872682Y-115368343D01*
X58996656Y-115492317D01*
X59145878Y-115584358D01*
X59312308Y-115639507D01*
X59415018Y-115649999D01*
X59840000Y-115649999D01*
X59840000Y-114830330D01*
X59859745Y-114850075D01*
X59945255Y-114899444D01*
X60040630Y-114925000D01*
X60139370Y-114925000D01*
X60234745Y-114899444D01*
X60320255Y-114850075D01*
X60340000Y-114830330D01*
X60340000Y-115649999D01*
X60764976Y-115649999D01*
X60764987Y-115649998D01*
X60867687Y-115639507D01*
X60867694Y-115639506D01*
X61034121Y-115584358D01*
X61183343Y-115492317D01*
X61307317Y-115368343D01*
X61399358Y-115219121D01*
X61454507Y-115052691D01*
X61464999Y-114949986D01*
X61465000Y-114949977D01*
X61465000Y-114800000D01*
X60370330Y-114800000D01*
X60390075Y-114780255D01*
X60439444Y-114694745D01*
X60465000Y-114599370D01*
X60465000Y-114500630D01*
X60439444Y-114405255D01*
X60390075Y-114319745D01*
X60370330Y-114300000D01*
X61464999Y-114300000D01*
X61464999Y-114150024D01*
X61464998Y-114150012D01*
X61454507Y-114047312D01*
X61454506Y-114047305D01*
X61399358Y-113880878D01*
X61307317Y-113731656D01*
X61183343Y-113607682D01*
X61034121Y-113515641D01*
X60867691Y-113460492D01*
X60764986Y-113450000D01*
X60340000Y-113450000D01*
X60340000Y-114269670D01*
X60320255Y-114249925D01*
X60234745Y-114200556D01*
X60139370Y-114175000D01*
X60040630Y-114175000D01*
X59945255Y-114200556D01*
X59859745Y-114249925D01*
X59840000Y-114269670D01*
X59840000Y-113450000D01*
X59415024Y-113450000D01*
X59415012Y-113450001D01*
X59312312Y-113460492D01*
X59312305Y-113460493D01*
X59145878Y-113515641D01*
X58996656Y-113607682D01*
X58872682Y-113731656D01*
X58780641Y-113880878D01*
X58725492Y-114047308D01*
X58715000Y-114150013D01*
X41834500Y-114150013D01*
X41834500Y-114066747D01*
X41806934Y-113963869D01*
X41753680Y-113871631D01*
X41753678Y-113871629D01*
X41753675Y-113871625D01*
X41678374Y-113796324D01*
X41678365Y-113796317D01*
X41586136Y-113743068D01*
X41586127Y-113743064D01*
X41483259Y-113715501D01*
X41483254Y-113715500D01*
X41483253Y-113715500D01*
X41376747Y-113715500D01*
X41376746Y-113715500D01*
X41376740Y-113715501D01*
X41273872Y-113743064D01*
X41273863Y-113743068D01*
X41181634Y-113796317D01*
X41181625Y-113796324D01*
X41106324Y-113871625D01*
X41106317Y-113871634D01*
X41053068Y-113963863D01*
X41053064Y-113963872D01*
X41025501Y-114066740D01*
X41025500Y-114066748D01*
X39700500Y-114066748D01*
X39700500Y-112586748D01*
X41365500Y-112586748D01*
X41365500Y-112693251D01*
X41365501Y-112693259D01*
X41393064Y-112796127D01*
X41393068Y-112796136D01*
X41446317Y-112888365D01*
X41446324Y-112888374D01*
X41521625Y-112963675D01*
X41521634Y-112963682D01*
X41613863Y-113016931D01*
X41613866Y-113016932D01*
X41613869Y-113016934D01*
X41613870Y-113016934D01*
X41613872Y-113016935D01*
X41676826Y-113033803D01*
X41716747Y-113044500D01*
X41716748Y-113044500D01*
X41823252Y-113044500D01*
X41823253Y-113044500D01*
X41926131Y-113016934D01*
X42018369Y-112963680D01*
X42093680Y-112888369D01*
X42130100Y-112825286D01*
X42168050Y-112796168D01*
X42215476Y-112802411D01*
X42238352Y-112825288D01*
X42286317Y-112908365D01*
X42286324Y-112908374D01*
X42361625Y-112983675D01*
X42361634Y-112983682D01*
X42453863Y-113036931D01*
X42453866Y-113036932D01*
X42453869Y-113036934D01*
X42453870Y-113036934D01*
X42453872Y-113036935D01*
X42516826Y-113053803D01*
X42556747Y-113064500D01*
X42556748Y-113064500D01*
X42663252Y-113064500D01*
X42663253Y-113064500D01*
X42766131Y-113036934D01*
X42858369Y-112983680D01*
X42933680Y-112908369D01*
X42986934Y-112816131D01*
X43014500Y-112713253D01*
X43014500Y-112606747D01*
X42986934Y-112503869D01*
X42975387Y-112483869D01*
X42972199Y-112478347D01*
X59087500Y-112478347D01*
X59087500Y-112621652D01*
X59115456Y-112762202D01*
X59115457Y-112762205D01*
X59170296Y-112894597D01*
X59170297Y-112894599D01*
X59170298Y-112894600D01*
X59210106Y-112954177D01*
X59229820Y-112983682D01*
X59249914Y-113013754D01*
X59351246Y-113115086D01*
X59470400Y-113194702D01*
X59602796Y-113249543D01*
X59743348Y-113277500D01*
X60436652Y-113277500D01*
X60577204Y-113249543D01*
X60709600Y-113194702D01*
X60828754Y-113115086D01*
X60930086Y-113013754D01*
X61009702Y-112894600D01*
X61064543Y-112762204D01*
X61092500Y-112621652D01*
X61092500Y-112478348D01*
X61064543Y-112337796D01*
X61030454Y-112255500D01*
X61009703Y-112205402D01*
X61009702Y-112205401D01*
X61009702Y-112205400D01*
X60930086Y-112086246D01*
X60828754Y-111984914D01*
X60709600Y-111905298D01*
X60709599Y-111905297D01*
X60709597Y-111905296D01*
X60577205Y-111850457D01*
X60577202Y-111850456D01*
X60436652Y-111822500D01*
X59743348Y-111822500D01*
X59602797Y-111850456D01*
X59602794Y-111850457D01*
X59470402Y-111905296D01*
X59470398Y-111905299D01*
X59351246Y-111984913D01*
X59249913Y-112086246D01*
X59170299Y-112205398D01*
X59170296Y-112205402D01*
X59115457Y-112337794D01*
X59115456Y-112337797D01*
X59087500Y-112478347D01*
X42972199Y-112478347D01*
X42933682Y-112411634D01*
X42933675Y-112411625D01*
X42858374Y-112336324D01*
X42858365Y-112336317D01*
X42766136Y-112283068D01*
X42766127Y-112283064D01*
X42663259Y-112255501D01*
X42663254Y-112255500D01*
X42663253Y-112255500D01*
X42556747Y-112255500D01*
X42556746Y-112255500D01*
X42556740Y-112255501D01*
X42453872Y-112283064D01*
X42453863Y-112283068D01*
X42361634Y-112336317D01*
X42361625Y-112336324D01*
X42286324Y-112411625D01*
X42286319Y-112411631D01*
X42249899Y-112474712D01*
X42211948Y-112503832D01*
X42164522Y-112497587D01*
X42141647Y-112474712D01*
X42093680Y-112391631D01*
X42093678Y-112391629D01*
X42093675Y-112391625D01*
X42018374Y-112316324D01*
X42018365Y-112316317D01*
X41926136Y-112263068D01*
X41926127Y-112263064D01*
X41823259Y-112235501D01*
X41823254Y-112235500D01*
X41823253Y-112235500D01*
X41716747Y-112235500D01*
X41716746Y-112235500D01*
X41716740Y-112235501D01*
X41613872Y-112263064D01*
X41613863Y-112263068D01*
X41521634Y-112316317D01*
X41521625Y-112316324D01*
X41446324Y-112391625D01*
X41446317Y-112391634D01*
X41393068Y-112483863D01*
X41393064Y-112483872D01*
X41365501Y-112586740D01*
X41365500Y-112586748D01*
X39700500Y-112586748D01*
X39700500Y-110786748D01*
X39875500Y-110786748D01*
X39875500Y-110893251D01*
X39875501Y-110893259D01*
X39903064Y-110996127D01*
X39903068Y-110996136D01*
X39956317Y-111088365D01*
X39956324Y-111088374D01*
X40031625Y-111163675D01*
X40031634Y-111163682D01*
X40123863Y-111216931D01*
X40123866Y-111216932D01*
X40123869Y-111216934D01*
X40123870Y-111216934D01*
X40123872Y-111216935D01*
X40186826Y-111233803D01*
X40226747Y-111244500D01*
X40226748Y-111244500D01*
X40333252Y-111244500D01*
X40333253Y-111244500D01*
X40436131Y-111216934D01*
X40528369Y-111163680D01*
X40603680Y-111088369D01*
X40656934Y-110996131D01*
X40684500Y-110893253D01*
X40684500Y-110826748D01*
X40935500Y-110826748D01*
X40935500Y-110933251D01*
X40935501Y-110933259D01*
X40963064Y-111036127D01*
X40963068Y-111036136D01*
X41016317Y-111128365D01*
X41016324Y-111128374D01*
X41091625Y-111203675D01*
X41091634Y-111203682D01*
X41183863Y-111256931D01*
X41183866Y-111256932D01*
X41183869Y-111256934D01*
X41183870Y-111256934D01*
X41183872Y-111256935D01*
X41246826Y-111273803D01*
X41286747Y-111284500D01*
X41286748Y-111284500D01*
X41393252Y-111284500D01*
X41393253Y-111284500D01*
X41496131Y-111256934D01*
X41588369Y-111203680D01*
X41663680Y-111128369D01*
X41716934Y-111036131D01*
X41744500Y-110933253D01*
X41744500Y-110826747D01*
X41716934Y-110723869D01*
X41693836Y-110683863D01*
X41663682Y-110631634D01*
X41663675Y-110631625D01*
X41588374Y-110556324D01*
X41588365Y-110556317D01*
X41496136Y-110503068D01*
X41496127Y-110503064D01*
X41393259Y-110475501D01*
X41393254Y-110475500D01*
X41393253Y-110475500D01*
X41286747Y-110475500D01*
X41286746Y-110475500D01*
X41286740Y-110475501D01*
X41183872Y-110503064D01*
X41183863Y-110503068D01*
X41091634Y-110556317D01*
X41091625Y-110556324D01*
X41016324Y-110631625D01*
X41016317Y-110631634D01*
X40963068Y-110723863D01*
X40963064Y-110723872D01*
X40935501Y-110826740D01*
X40935500Y-110826748D01*
X40684500Y-110826748D01*
X40684500Y-110786747D01*
X40656934Y-110683869D01*
X40626774Y-110631631D01*
X40603682Y-110591634D01*
X40603675Y-110591625D01*
X40528374Y-110516324D01*
X40528365Y-110516317D01*
X40436136Y-110463068D01*
X40436127Y-110463064D01*
X40333259Y-110435501D01*
X40333254Y-110435500D01*
X40333253Y-110435500D01*
X40226747Y-110435500D01*
X40226746Y-110435500D01*
X40226740Y-110435501D01*
X40123872Y-110463064D01*
X40123863Y-110463068D01*
X40031634Y-110516317D01*
X40031625Y-110516324D01*
X39956324Y-110591625D01*
X39956317Y-110591634D01*
X39903068Y-110683863D01*
X39903064Y-110683872D01*
X39875501Y-110786740D01*
X39875500Y-110786748D01*
X39700500Y-110786748D01*
X39700500Y-109376748D01*
X47585500Y-109376748D01*
X47585500Y-109483251D01*
X47585501Y-109483259D01*
X47613064Y-109586127D01*
X47613068Y-109586136D01*
X47666317Y-109678365D01*
X47666324Y-109678374D01*
X47741625Y-109753675D01*
X47741634Y-109753682D01*
X47833863Y-109806931D01*
X47833866Y-109806932D01*
X47833869Y-109806934D01*
X47833870Y-109806934D01*
X47833872Y-109806935D01*
X47896826Y-109823803D01*
X47936747Y-109834500D01*
X47936748Y-109834500D01*
X48043252Y-109834500D01*
X48043253Y-109834500D01*
X48146131Y-109806934D01*
X48238369Y-109753680D01*
X48313680Y-109678369D01*
X48366934Y-109586131D01*
X48394500Y-109483253D01*
X48394500Y-109376747D01*
X48366934Y-109273869D01*
X48319955Y-109192500D01*
X48313682Y-109181634D01*
X48313675Y-109181625D01*
X48238374Y-109106324D01*
X48238365Y-109106317D01*
X48146136Y-109053068D01*
X48146127Y-109053064D01*
X48043259Y-109025501D01*
X48043254Y-109025500D01*
X48043253Y-109025500D01*
X47936747Y-109025500D01*
X47936746Y-109025500D01*
X47936740Y-109025501D01*
X47833872Y-109053064D01*
X47833863Y-109053068D01*
X47741634Y-109106317D01*
X47741625Y-109106324D01*
X47666324Y-109181625D01*
X47666317Y-109181634D01*
X47613068Y-109273863D01*
X47613064Y-109273872D01*
X47585501Y-109376740D01*
X47585500Y-109376748D01*
X39700500Y-109376748D01*
X39700500Y-107261197D01*
X39847500Y-107261197D01*
X39847500Y-107498802D01*
X39878512Y-107734363D01*
X39878512Y-107734364D01*
X39940001Y-107963842D01*
X39940005Y-107963853D01*
X40030928Y-108183364D01*
X40030929Y-108183367D01*
X40149726Y-108389129D01*
X40213804Y-108472640D01*
X40887545Y-107798898D01*
X40980343Y-107937780D01*
X41102220Y-108059657D01*
X41241099Y-108152453D01*
X40567358Y-108826194D01*
X40650870Y-108890273D01*
X40856632Y-109009070D01*
X40856635Y-109009071D01*
X41076146Y-109099994D01*
X41076157Y-109099998D01*
X41305636Y-109161487D01*
X41541197Y-109192499D01*
X41541208Y-109192500D01*
X41778792Y-109192500D01*
X41778802Y-109192499D01*
X42014363Y-109161487D01*
X42014364Y-109161487D01*
X42243842Y-109099998D01*
X42243853Y-109099994D01*
X42463364Y-109009071D01*
X42463367Y-109009070D01*
X42669125Y-108890275D01*
X42752639Y-108826193D01*
X42078899Y-108152453D01*
X42217780Y-108059657D01*
X42339657Y-107937780D01*
X42432453Y-107798899D01*
X43106193Y-108472639D01*
X43170275Y-108389125D01*
X43289070Y-108183367D01*
X43289071Y-108183364D01*
X43379994Y-107963853D01*
X43379998Y-107963842D01*
X43441487Y-107734364D01*
X43441487Y-107734363D01*
X43472499Y-107498802D01*
X43472500Y-107498791D01*
X43472500Y-107261208D01*
X43472499Y-107261197D01*
X44927500Y-107261197D01*
X44927500Y-107498802D01*
X44958512Y-107734363D01*
X44958512Y-107734364D01*
X45020001Y-107963842D01*
X45020005Y-107963853D01*
X45110928Y-108183364D01*
X45110929Y-108183367D01*
X45229726Y-108389129D01*
X45293804Y-108472640D01*
X45967545Y-107798898D01*
X46060343Y-107937780D01*
X46182220Y-108059657D01*
X46321099Y-108152453D01*
X45647358Y-108826194D01*
X45730870Y-108890273D01*
X45936632Y-109009070D01*
X45936635Y-109009071D01*
X46156146Y-109099994D01*
X46156157Y-109099998D01*
X46385636Y-109161487D01*
X46621197Y-109192499D01*
X46621208Y-109192500D01*
X46858792Y-109192500D01*
X46858802Y-109192499D01*
X47094363Y-109161487D01*
X47094364Y-109161487D01*
X47323842Y-109099998D01*
X47323853Y-109099994D01*
X47543364Y-109009071D01*
X47543367Y-109009070D01*
X47749125Y-108890275D01*
X47832639Y-108826193D01*
X47158899Y-108152453D01*
X47297780Y-108059657D01*
X47419657Y-107937780D01*
X47512453Y-107798899D01*
X48186193Y-108472639D01*
X48250275Y-108389125D01*
X48369070Y-108183367D01*
X48369071Y-108183364D01*
X48375954Y-108166748D01*
X59665500Y-108166748D01*
X59665500Y-108273251D01*
X59665501Y-108273259D01*
X59693064Y-108376127D01*
X59693068Y-108376136D01*
X59746317Y-108468365D01*
X59746324Y-108468374D01*
X59821625Y-108543675D01*
X59821634Y-108543682D01*
X59913863Y-108596931D01*
X59913866Y-108596932D01*
X59913869Y-108596934D01*
X59913870Y-108596934D01*
X59913872Y-108596935D01*
X59976826Y-108613803D01*
X60016747Y-108624500D01*
X60016748Y-108624500D01*
X60123252Y-108624500D01*
X60123253Y-108624500D01*
X60226131Y-108596934D01*
X60318369Y-108543680D01*
X60393680Y-108468369D01*
X60446934Y-108376131D01*
X60474500Y-108273253D01*
X60474500Y-108166747D01*
X60446934Y-108063869D01*
X60444502Y-108059657D01*
X60393682Y-107971634D01*
X60393675Y-107971625D01*
X60318374Y-107896324D01*
X60318365Y-107896317D01*
X60226136Y-107843068D01*
X60226127Y-107843064D01*
X60123259Y-107815501D01*
X60123254Y-107815500D01*
X60123253Y-107815500D01*
X60016747Y-107815500D01*
X60016746Y-107815500D01*
X60016740Y-107815501D01*
X59913872Y-107843064D01*
X59913863Y-107843068D01*
X59821634Y-107896317D01*
X59821625Y-107896324D01*
X59746324Y-107971625D01*
X59746317Y-107971634D01*
X59693068Y-108063863D01*
X59693064Y-108063872D01*
X59665501Y-108166740D01*
X59665500Y-108166748D01*
X48375954Y-108166748D01*
X48387558Y-108138734D01*
X48459994Y-107963853D01*
X48459998Y-107963842D01*
X48521487Y-107734364D01*
X48521487Y-107734363D01*
X48552499Y-107498802D01*
X48552500Y-107498791D01*
X48552500Y-107261208D01*
X48552499Y-107261197D01*
X48547182Y-107220809D01*
X48546647Y-107216748D01*
X55825500Y-107216748D01*
X55825500Y-107323251D01*
X55825501Y-107323259D01*
X55853064Y-107426127D01*
X55853068Y-107426136D01*
X55906317Y-107518365D01*
X55906324Y-107518374D01*
X55981625Y-107593675D01*
X55981634Y-107593682D01*
X56073863Y-107646931D01*
X56073866Y-107646932D01*
X56073869Y-107646934D01*
X56073870Y-107646934D01*
X56073872Y-107646935D01*
X56136826Y-107663803D01*
X56176747Y-107674500D01*
X56176748Y-107674500D01*
X56283252Y-107674500D01*
X56283253Y-107674500D01*
X56386131Y-107646934D01*
X56478369Y-107593680D01*
X56553680Y-107518369D01*
X56606934Y-107426131D01*
X56634500Y-107323253D01*
X56634500Y-107216747D01*
X56623803Y-107176826D01*
X56606935Y-107113872D01*
X56606931Y-107113863D01*
X56553682Y-107021634D01*
X56553675Y-107021625D01*
X56478374Y-106946324D01*
X56478365Y-106946317D01*
X56386136Y-106893068D01*
X56386127Y-106893064D01*
X56283259Y-106865501D01*
X56283254Y-106865500D01*
X56283253Y-106865500D01*
X56176747Y-106865500D01*
X56176746Y-106865500D01*
X56176740Y-106865501D01*
X56073872Y-106893064D01*
X56073863Y-106893068D01*
X55981634Y-106946317D01*
X55981625Y-106946324D01*
X55906324Y-107021625D01*
X55906317Y-107021634D01*
X55853068Y-107113863D01*
X55853064Y-107113872D01*
X55825501Y-107216740D01*
X55825500Y-107216748D01*
X48546647Y-107216748D01*
X48521487Y-107025636D01*
X48521487Y-107025635D01*
X48459998Y-106796157D01*
X48459994Y-106796146D01*
X48369071Y-106576635D01*
X48369070Y-106576632D01*
X48250273Y-106370870D01*
X48186194Y-106287358D01*
X47512453Y-106961099D01*
X47419657Y-106822220D01*
X47297780Y-106700343D01*
X47158898Y-106607545D01*
X47549697Y-106216748D01*
X50045500Y-106216748D01*
X50045500Y-106323251D01*
X50045501Y-106323259D01*
X50073064Y-106426127D01*
X50073068Y-106426136D01*
X50126317Y-106518365D01*
X50126324Y-106518374D01*
X50201625Y-106593675D01*
X50201634Y-106593682D01*
X50293863Y-106646931D01*
X50293866Y-106646932D01*
X50293869Y-106646934D01*
X50293870Y-106646934D01*
X50293872Y-106646935D01*
X50356826Y-106663803D01*
X50396747Y-106674500D01*
X50396748Y-106674500D01*
X50503252Y-106674500D01*
X50503253Y-106674500D01*
X50606131Y-106646934D01*
X50698369Y-106593680D01*
X50773680Y-106518369D01*
X50826934Y-106426131D01*
X50854500Y-106323253D01*
X50854500Y-106216747D01*
X50826934Y-106113869D01*
X50817908Y-106098236D01*
X50773682Y-106021634D01*
X50773675Y-106021625D01*
X50698374Y-105946324D01*
X50698365Y-105946317D01*
X50606136Y-105893068D01*
X50606127Y-105893064D01*
X50503259Y-105865501D01*
X50503254Y-105865500D01*
X50503253Y-105865500D01*
X50396747Y-105865500D01*
X50396746Y-105865500D01*
X50396740Y-105865501D01*
X50293872Y-105893064D01*
X50293863Y-105893068D01*
X50201634Y-105946317D01*
X50201625Y-105946324D01*
X50126324Y-106021625D01*
X50126317Y-106021634D01*
X50073068Y-106113863D01*
X50073064Y-106113872D01*
X50045501Y-106216740D01*
X50045500Y-106216748D01*
X47549697Y-106216748D01*
X47597988Y-106168457D01*
X47832640Y-105933804D01*
X47749129Y-105869726D01*
X47543367Y-105750929D01*
X47543364Y-105750928D01*
X47323853Y-105660005D01*
X47323842Y-105660001D01*
X47094363Y-105598512D01*
X46858802Y-105567500D01*
X46621197Y-105567500D01*
X46385636Y-105598512D01*
X46385635Y-105598512D01*
X46156157Y-105660001D01*
X46156146Y-105660005D01*
X45936635Y-105750928D01*
X45936632Y-105750929D01*
X45730870Y-105869726D01*
X45647359Y-105933805D01*
X46321100Y-106607546D01*
X46182220Y-106700343D01*
X46060343Y-106822220D01*
X45967546Y-106961100D01*
X45293805Y-106287359D01*
X45229726Y-106370870D01*
X45110929Y-106576632D01*
X45110928Y-106576635D01*
X45020005Y-106796146D01*
X45020001Y-106796157D01*
X44958512Y-107025635D01*
X44958512Y-107025636D01*
X44927500Y-107261197D01*
X43472499Y-107261197D01*
X43441487Y-107025636D01*
X43441487Y-107025635D01*
X43379998Y-106796157D01*
X43379994Y-106796146D01*
X43289071Y-106576635D01*
X43289070Y-106576632D01*
X43170273Y-106370870D01*
X43106194Y-106287358D01*
X42432453Y-106961099D01*
X42339657Y-106822220D01*
X42217780Y-106700343D01*
X42078898Y-106607545D01*
X42752640Y-105933804D01*
X42669129Y-105869726D01*
X42463367Y-105750929D01*
X42463364Y-105750928D01*
X42243853Y-105660005D01*
X42243842Y-105660001D01*
X42014363Y-105598512D01*
X41778802Y-105567500D01*
X41541197Y-105567500D01*
X41305636Y-105598512D01*
X41305635Y-105598512D01*
X41076157Y-105660001D01*
X41076146Y-105660005D01*
X40856635Y-105750928D01*
X40856632Y-105750929D01*
X40650870Y-105869726D01*
X40567359Y-105933805D01*
X41241100Y-106607546D01*
X41102220Y-106700343D01*
X40980343Y-106822220D01*
X40887546Y-106961100D01*
X40213805Y-106287359D01*
X40149726Y-106370870D01*
X40030929Y-106576632D01*
X40030928Y-106576635D01*
X39940005Y-106796146D01*
X39940001Y-106796157D01*
X39878512Y-107025635D01*
X39878512Y-107025636D01*
X39847500Y-107261197D01*
X39700500Y-107261197D01*
X39700500Y-104738477D01*
X42910000Y-104738477D01*
X42910000Y-104941522D01*
X42910001Y-104941538D01*
X42941763Y-105142073D01*
X42941763Y-105142074D01*
X43004509Y-105335186D01*
X43004510Y-105335189D01*
X43096693Y-105516107D01*
X43216043Y-105680379D01*
X43216046Y-105680382D01*
X43216049Y-105680386D01*
X43359613Y-105823950D01*
X43359616Y-105823952D01*
X43359621Y-105823957D01*
X43523893Y-105943307D01*
X43704812Y-106035490D01*
X43897924Y-106098236D01*
X43982452Y-106111623D01*
X44098461Y-106129998D01*
X44098467Y-106129998D01*
X44098475Y-106130000D01*
X44098477Y-106130000D01*
X44301523Y-106130000D01*
X44301525Y-106130000D01*
X44502076Y-106098236D01*
X44695188Y-106035490D01*
X44876107Y-105943307D01*
X45040379Y-105823957D01*
X45183957Y-105680379D01*
X45303307Y-105516107D01*
X45395490Y-105335188D01*
X45458236Y-105142076D01*
X45490000Y-104941525D01*
X45490000Y-104738475D01*
X45458236Y-104537924D01*
X45395490Y-104344812D01*
X45303307Y-104163893D01*
X45183957Y-103999621D01*
X45183952Y-103999616D01*
X45183950Y-103999613D01*
X45040381Y-103856044D01*
X44925512Y-103772588D01*
X44925511Y-103772587D01*
X44876111Y-103736696D01*
X44876107Y-103736693D01*
X44757839Y-103676432D01*
X44695189Y-103644510D01*
X44695186Y-103644509D01*
X44502074Y-103581763D01*
X44301538Y-103550001D01*
X44301526Y-103550000D01*
X44301525Y-103550000D01*
X44098475Y-103550000D01*
X44098473Y-103550000D01*
X44098461Y-103550001D01*
X43897926Y-103581763D01*
X43897925Y-103581763D01*
X43704813Y-103644509D01*
X43704810Y-103644510D01*
X43523892Y-103736693D01*
X43359613Y-103856049D01*
X43216049Y-103999613D01*
X43096693Y-104163892D01*
X43004510Y-104344810D01*
X43004509Y-104344813D01*
X42941763Y-104537925D01*
X42941763Y-104537926D01*
X42910001Y-104738461D01*
X42910000Y-104738477D01*
X39700500Y-104738477D01*
X39700500Y-102181197D01*
X39847500Y-102181197D01*
X39847500Y-102418802D01*
X39878512Y-102654363D01*
X39878512Y-102654364D01*
X39940001Y-102883842D01*
X39940005Y-102883853D01*
X40030928Y-103103364D01*
X40030929Y-103103367D01*
X40149726Y-103309129D01*
X40213804Y-103392640D01*
X40887545Y-102718898D01*
X40980343Y-102857780D01*
X41102220Y-102979657D01*
X41241099Y-103072453D01*
X40567358Y-103746194D01*
X40650870Y-103810273D01*
X40856632Y-103929070D01*
X40856635Y-103929071D01*
X41076146Y-104019994D01*
X41076157Y-104019998D01*
X41305636Y-104081487D01*
X41541197Y-104112499D01*
X41541208Y-104112500D01*
X41778792Y-104112500D01*
X41778802Y-104112499D01*
X42014363Y-104081487D01*
X42014364Y-104081487D01*
X42243842Y-104019998D01*
X42243853Y-104019994D01*
X42463364Y-103929071D01*
X42463367Y-103929070D01*
X42669125Y-103810275D01*
X42752639Y-103746193D01*
X42078899Y-103072453D01*
X42217780Y-102979657D01*
X42339657Y-102857780D01*
X42432453Y-102718899D01*
X43106193Y-103392639D01*
X43170275Y-103309125D01*
X43289070Y-103103367D01*
X43289071Y-103103364D01*
X43379994Y-102883853D01*
X43379998Y-102883842D01*
X43441487Y-102654364D01*
X43441487Y-102654363D01*
X43472499Y-102418802D01*
X43472500Y-102418791D01*
X43472500Y-102181208D01*
X43472499Y-102181197D01*
X44927500Y-102181197D01*
X44927500Y-102418802D01*
X44958512Y-102654363D01*
X44958512Y-102654364D01*
X45020001Y-102883842D01*
X45020005Y-102883853D01*
X45110928Y-103103364D01*
X45110929Y-103103367D01*
X45229726Y-103309129D01*
X45293804Y-103392640D01*
X45967545Y-102718898D01*
X46060343Y-102857780D01*
X46182220Y-102979657D01*
X46321099Y-103072453D01*
X45647358Y-103746194D01*
X45730870Y-103810273D01*
X45936632Y-103929070D01*
X45936635Y-103929071D01*
X46156146Y-104019994D01*
X46156157Y-104019998D01*
X46385636Y-104081487D01*
X46621197Y-104112499D01*
X46621208Y-104112500D01*
X46858792Y-104112500D01*
X46858802Y-104112499D01*
X47094363Y-104081487D01*
X47094364Y-104081487D01*
X47323842Y-104019998D01*
X47323853Y-104019994D01*
X47543364Y-103929071D01*
X47543367Y-103929070D01*
X47749125Y-103810275D01*
X47832639Y-103746193D01*
X47158899Y-103072453D01*
X47297780Y-102979657D01*
X47419657Y-102857780D01*
X47512453Y-102718899D01*
X48186193Y-103392639D01*
X48250275Y-103309125D01*
X48369070Y-103103367D01*
X48369071Y-103103364D01*
X48459994Y-102883853D01*
X48459998Y-102883842D01*
X48491838Y-102765013D01*
X52210000Y-102765013D01*
X52210000Y-103290000D01*
X53155854Y-103290000D01*
X53117370Y-103356657D01*
X53085000Y-103477465D01*
X53085000Y-103602535D01*
X53117370Y-103723343D01*
X53155854Y-103790000D01*
X52210001Y-103790000D01*
X52210001Y-104314987D01*
X52220492Y-104417687D01*
X52220493Y-104417694D01*
X52275641Y-104584121D01*
X52367682Y-104733343D01*
X52491656Y-104857317D01*
X52640878Y-104949358D01*
X52807308Y-105004507D01*
X52910018Y-105014999D01*
X53310000Y-105014999D01*
X53310000Y-103944145D01*
X53376657Y-103982630D01*
X53497465Y-104015000D01*
X53622535Y-104015000D01*
X53743343Y-103982630D01*
X53810000Y-103944145D01*
X53810000Y-105014999D01*
X54209976Y-105014999D01*
X54209987Y-105014998D01*
X54312687Y-105004507D01*
X54312694Y-105004506D01*
X54479121Y-104949358D01*
X54628343Y-104857317D01*
X54752317Y-104733343D01*
X54844358Y-104584121D01*
X54899507Y-104417691D01*
X54909999Y-104314986D01*
X54910000Y-104314977D01*
X54910000Y-103790000D01*
X53964146Y-103790000D01*
X54002630Y-103723343D01*
X54035000Y-103602535D01*
X54035000Y-103477465D01*
X54002630Y-103356657D01*
X53980730Y-103318724D01*
X55082500Y-103318724D01*
X55082500Y-103761275D01*
X55120064Y-103950126D01*
X55120066Y-103950134D01*
X55193750Y-104128020D01*
X55193751Y-104128022D01*
X55300725Y-104288119D01*
X55300726Y-104288120D01*
X55436880Y-104424274D01*
X55596980Y-104531250D01*
X55676299Y-104564105D01*
X55774865Y-104604933D01*
X55774869Y-104604934D01*
X55774874Y-104604936D01*
X55963725Y-104642500D01*
X56156275Y-104642500D01*
X56345126Y-104604936D01*
X56345132Y-104604933D01*
X56345134Y-104604933D01*
X56395378Y-104584121D01*
X56523020Y-104531250D01*
X56683120Y-104424274D01*
X56819274Y-104288120D01*
X56926250Y-104128020D01*
X56999936Y-103950126D01*
X57037500Y-103761275D01*
X57037500Y-103318725D01*
X57037500Y-103318724D01*
X57582500Y-103318724D01*
X57582500Y-103761275D01*
X57620064Y-103950126D01*
X57620066Y-103950134D01*
X57693750Y-104128020D01*
X57693751Y-104128022D01*
X57800725Y-104288119D01*
X57800726Y-104288120D01*
X57936880Y-104424274D01*
X58096980Y-104531250D01*
X58176299Y-104564105D01*
X58274865Y-104604933D01*
X58274869Y-104604934D01*
X58274874Y-104604936D01*
X58463725Y-104642500D01*
X58656275Y-104642500D01*
X58845126Y-104604936D01*
X58845132Y-104604933D01*
X58845134Y-104604933D01*
X58895378Y-104584121D01*
X59023020Y-104531250D01*
X59183120Y-104424274D01*
X59319274Y-104288120D01*
X59426250Y-104128020D01*
X59499936Y-103950126D01*
X59537500Y-103761275D01*
X59537500Y-103318725D01*
X59537500Y-103318724D01*
X60082500Y-103318724D01*
X60082500Y-103761275D01*
X60120064Y-103950126D01*
X60120066Y-103950134D01*
X60193750Y-104128020D01*
X60193751Y-104128022D01*
X60300725Y-104288119D01*
X60300726Y-104288120D01*
X60436880Y-104424274D01*
X60596980Y-104531250D01*
X60676299Y-104564105D01*
X60774865Y-104604933D01*
X60774869Y-104604934D01*
X60774874Y-104604936D01*
X60963725Y-104642500D01*
X61156275Y-104642500D01*
X61345126Y-104604936D01*
X61345132Y-104604933D01*
X61345134Y-104604933D01*
X61395378Y-104584121D01*
X61523020Y-104531250D01*
X61683120Y-104424274D01*
X61819274Y-104288120D01*
X61926250Y-104128020D01*
X61999936Y-103950126D01*
X62037500Y-103761275D01*
X62037500Y-103318725D01*
X61999936Y-103129874D01*
X61999934Y-103129869D01*
X61999933Y-103129865D01*
X61937714Y-102979657D01*
X61926250Y-102951980D01*
X61819274Y-102791880D01*
X61683120Y-102655726D01*
X61681082Y-102654364D01*
X61523022Y-102548751D01*
X61523020Y-102548750D01*
X61345134Y-102475066D01*
X61345126Y-102475064D01*
X61156275Y-102437500D01*
X60963725Y-102437500D01*
X60774873Y-102475064D01*
X60774865Y-102475066D01*
X60596979Y-102548750D01*
X60596977Y-102548751D01*
X60436880Y-102655725D01*
X60300725Y-102791880D01*
X60193751Y-102951977D01*
X60193750Y-102951979D01*
X60120066Y-103129865D01*
X60120064Y-103129873D01*
X60082500Y-103318724D01*
X59537500Y-103318724D01*
X59499936Y-103129874D01*
X59499934Y-103129869D01*
X59499933Y-103129865D01*
X59437714Y-102979657D01*
X59426250Y-102951980D01*
X59319274Y-102791880D01*
X59183120Y-102655726D01*
X59181082Y-102654364D01*
X59023022Y-102548751D01*
X59023020Y-102548750D01*
X58845134Y-102475066D01*
X58845126Y-102475064D01*
X58656275Y-102437500D01*
X58463725Y-102437500D01*
X58274873Y-102475064D01*
X58274865Y-102475066D01*
X58096979Y-102548750D01*
X58096977Y-102548751D01*
X57936880Y-102655725D01*
X57800725Y-102791880D01*
X57693751Y-102951977D01*
X57693750Y-102951979D01*
X57620066Y-103129865D01*
X57620064Y-103129873D01*
X57582500Y-103318724D01*
X57037500Y-103318724D01*
X56999936Y-103129874D01*
X56999934Y-103129869D01*
X56999933Y-103129865D01*
X56937714Y-102979657D01*
X56926250Y-102951980D01*
X56819274Y-102791880D01*
X56683120Y-102655726D01*
X56681082Y-102654364D01*
X56523022Y-102548751D01*
X56523020Y-102548750D01*
X56345134Y-102475066D01*
X56345126Y-102475064D01*
X56156275Y-102437500D01*
X55963725Y-102437500D01*
X55774873Y-102475064D01*
X55774865Y-102475066D01*
X55596979Y-102548750D01*
X55596977Y-102548751D01*
X55436880Y-102655725D01*
X55300725Y-102791880D01*
X55193751Y-102951977D01*
X55193750Y-102951979D01*
X55120066Y-103129865D01*
X55120064Y-103129873D01*
X55082500Y-103318724D01*
X53980730Y-103318724D01*
X53964146Y-103290000D01*
X54909999Y-103290000D01*
X54909999Y-102765024D01*
X54909998Y-102765012D01*
X54899507Y-102662312D01*
X54899506Y-102662305D01*
X54844358Y-102495878D01*
X54752317Y-102346656D01*
X54628343Y-102222682D01*
X54479121Y-102130641D01*
X54312691Y-102075492D01*
X54209986Y-102065000D01*
X53810000Y-102065000D01*
X53810000Y-103135854D01*
X53743343Y-103097370D01*
X53622535Y-103065000D01*
X53497465Y-103065000D01*
X53376657Y-103097370D01*
X53310000Y-103135854D01*
X53310000Y-102065000D01*
X52910024Y-102065000D01*
X52910012Y-102065001D01*
X52807312Y-102075492D01*
X52807305Y-102075493D01*
X52640878Y-102130641D01*
X52491656Y-102222682D01*
X52367682Y-102346656D01*
X52275641Y-102495878D01*
X52220492Y-102662308D01*
X52210000Y-102765013D01*
X48491838Y-102765013D01*
X48496597Y-102747254D01*
X48496597Y-102747253D01*
X48521487Y-102654361D01*
X48552499Y-102418802D01*
X48552500Y-102418791D01*
X48552500Y-102181208D01*
X48552499Y-102181197D01*
X48521487Y-101945636D01*
X48521487Y-101945635D01*
X48459998Y-101716157D01*
X48459994Y-101716146D01*
X48369071Y-101496635D01*
X48369070Y-101496632D01*
X48250273Y-101290870D01*
X48186194Y-101207358D01*
X47512453Y-101881099D01*
X47419657Y-101742220D01*
X47297780Y-101620343D01*
X47158898Y-101527545D01*
X47832640Y-100853804D01*
X47749129Y-100789726D01*
X47543367Y-100670929D01*
X47543364Y-100670928D01*
X47323853Y-100580005D01*
X47323842Y-100580001D01*
X47094363Y-100518512D01*
X46858802Y-100487500D01*
X46621197Y-100487500D01*
X46385636Y-100518512D01*
X46385635Y-100518512D01*
X46156157Y-100580001D01*
X46156146Y-100580005D01*
X45936635Y-100670928D01*
X45936632Y-100670929D01*
X45730870Y-100789726D01*
X45647359Y-100853805D01*
X46321100Y-101527546D01*
X46182220Y-101620343D01*
X46060343Y-101742220D01*
X45967546Y-101881100D01*
X45293805Y-101207359D01*
X45229726Y-101290870D01*
X45110929Y-101496632D01*
X45110928Y-101496635D01*
X45020005Y-101716146D01*
X45020001Y-101716157D01*
X44958512Y-101945635D01*
X44958512Y-101945636D01*
X44927500Y-102181197D01*
X43472499Y-102181197D01*
X43441487Y-101945636D01*
X43441487Y-101945635D01*
X43379998Y-101716157D01*
X43379994Y-101716146D01*
X43289071Y-101496635D01*
X43289070Y-101496632D01*
X43170273Y-101290870D01*
X43106194Y-101207358D01*
X42432453Y-101881099D01*
X42339657Y-101742220D01*
X42217780Y-101620343D01*
X42078898Y-101527545D01*
X42752640Y-100853804D01*
X42669129Y-100789726D01*
X42463367Y-100670929D01*
X42463364Y-100670928D01*
X42243853Y-100580005D01*
X42243842Y-100580001D01*
X42014363Y-100518512D01*
X41778802Y-100487500D01*
X41541197Y-100487500D01*
X41305636Y-100518512D01*
X41305635Y-100518512D01*
X41076157Y-100580001D01*
X41076146Y-100580005D01*
X40856635Y-100670928D01*
X40856632Y-100670929D01*
X40650870Y-100789726D01*
X40567359Y-100853805D01*
X41241100Y-101527546D01*
X41102220Y-101620343D01*
X40980343Y-101742220D01*
X40887546Y-101881100D01*
X40213805Y-101207359D01*
X40149726Y-101290870D01*
X40030929Y-101496632D01*
X40030928Y-101496635D01*
X39940005Y-101716146D01*
X39940001Y-101716157D01*
X39878512Y-101945635D01*
X39878512Y-101945636D01*
X39847500Y-102181197D01*
X39700500Y-102181197D01*
X39700500Y-96783724D01*
X40882500Y-96783724D01*
X40882500Y-96976275D01*
X40920064Y-97165126D01*
X40920066Y-97165134D01*
X40993750Y-97343020D01*
X40993751Y-97343022D01*
X41100725Y-97503119D01*
X41100726Y-97503120D01*
X41236880Y-97639274D01*
X41396980Y-97746250D01*
X41476299Y-97779105D01*
X41574865Y-97819933D01*
X41574869Y-97819934D01*
X41574874Y-97819936D01*
X41763725Y-97857500D01*
X41956275Y-97857500D01*
X42145126Y-97819936D01*
X42145132Y-97819933D01*
X42145134Y-97819933D01*
X42187611Y-97802337D01*
X42323020Y-97746250D01*
X42337241Y-97736748D01*
X51535500Y-97736748D01*
X51535500Y-97843251D01*
X51535501Y-97843259D01*
X51563064Y-97946127D01*
X51563068Y-97946136D01*
X51616317Y-98038365D01*
X51616324Y-98038374D01*
X51691625Y-98113675D01*
X51691634Y-98113682D01*
X51783863Y-98166931D01*
X51783866Y-98166932D01*
X51783869Y-98166934D01*
X51783870Y-98166934D01*
X51783872Y-98166935D01*
X51846826Y-98183803D01*
X51886747Y-98194500D01*
X51886748Y-98194500D01*
X51993252Y-98194500D01*
X51993253Y-98194500D01*
X52096131Y-98166934D01*
X52188369Y-98113680D01*
X52263680Y-98038369D01*
X52316934Y-97946131D01*
X52344500Y-97843253D01*
X52344500Y-97736747D01*
X52316934Y-97633869D01*
X52283667Y-97576250D01*
X52263682Y-97541634D01*
X52263675Y-97541625D01*
X52188374Y-97466324D01*
X52188365Y-97466317D01*
X52096136Y-97413068D01*
X52096127Y-97413064D01*
X51993259Y-97385501D01*
X51993254Y-97385500D01*
X51993253Y-97385500D01*
X51886747Y-97385500D01*
X51886746Y-97385500D01*
X51886740Y-97385501D01*
X51783872Y-97413064D01*
X51783863Y-97413068D01*
X51691634Y-97466317D01*
X51691625Y-97466324D01*
X51616324Y-97541625D01*
X51616317Y-97541634D01*
X51563068Y-97633863D01*
X51563064Y-97633872D01*
X51535501Y-97736740D01*
X51535500Y-97736748D01*
X42337241Y-97736748D01*
X42483120Y-97639274D01*
X42619274Y-97503120D01*
X42726250Y-97343020D01*
X42782337Y-97207611D01*
X42799933Y-97165134D01*
X42799933Y-97165132D01*
X42799936Y-97165126D01*
X42837500Y-96976275D01*
X42837500Y-96783725D01*
X42803685Y-96613724D01*
X60662500Y-96613724D01*
X60662500Y-96806275D01*
X60700064Y-96995126D01*
X60700066Y-96995134D01*
X60773750Y-97173020D01*
X60880726Y-97333120D01*
X61016880Y-97469274D01*
X61176980Y-97576250D01*
X61256299Y-97609105D01*
X61354865Y-97649933D01*
X61354869Y-97649934D01*
X61354874Y-97649936D01*
X61543725Y-97687500D01*
X61736275Y-97687500D01*
X61925126Y-97649936D01*
X61925132Y-97649933D01*
X61925134Y-97649933D01*
X61967611Y-97632337D01*
X62103020Y-97576250D01*
X62263120Y-97469274D01*
X62399274Y-97333120D01*
X62506250Y-97173020D01*
X62579936Y-96995126D01*
X62617500Y-96806275D01*
X62617500Y-96613725D01*
X62579936Y-96424874D01*
X62579934Y-96424869D01*
X62579933Y-96424865D01*
X62539105Y-96326299D01*
X62506250Y-96246980D01*
X62399274Y-96086880D01*
X62263120Y-95950726D01*
X62263119Y-95950725D01*
X62103022Y-95843751D01*
X62103020Y-95843750D01*
X61925134Y-95770066D01*
X61925126Y-95770064D01*
X61736275Y-95732500D01*
X61543725Y-95732500D01*
X61354873Y-95770064D01*
X61354865Y-95770066D01*
X61176979Y-95843750D01*
X61176977Y-95843751D01*
X61016880Y-95950725D01*
X60880725Y-96086880D01*
X60773751Y-96246977D01*
X60773750Y-96246979D01*
X60700066Y-96424865D01*
X60700064Y-96424873D01*
X60662500Y-96613724D01*
X42803685Y-96613724D01*
X42799936Y-96594874D01*
X42799934Y-96594869D01*
X42799933Y-96594865D01*
X42759105Y-96496299D01*
X42726250Y-96416980D01*
X42619274Y-96256880D01*
X42483120Y-96120726D01*
X42483119Y-96120725D01*
X42323022Y-96013751D01*
X42323020Y-96013750D01*
X42145134Y-95940066D01*
X42145126Y-95940064D01*
X41956275Y-95902500D01*
X41763725Y-95902500D01*
X41574873Y-95940064D01*
X41574865Y-95940066D01*
X41396979Y-96013750D01*
X41396977Y-96013751D01*
X41236880Y-96120725D01*
X41100725Y-96256880D01*
X40993751Y-96416977D01*
X40993750Y-96416979D01*
X40920066Y-96594865D01*
X40920064Y-96594873D01*
X40882500Y-96783724D01*
X39700500Y-96783724D01*
X39700500Y-94243724D01*
X40882500Y-94243724D01*
X40882500Y-94436275D01*
X40920064Y-94625126D01*
X40920066Y-94625134D01*
X40993750Y-94803020D01*
X40993751Y-94803022D01*
X41100725Y-94963119D01*
X41100726Y-94963120D01*
X41236880Y-95099274D01*
X41396980Y-95206250D01*
X41476299Y-95239105D01*
X41574865Y-95279933D01*
X41574869Y-95279934D01*
X41574874Y-95279936D01*
X41763725Y-95317500D01*
X41956275Y-95317500D01*
X42145126Y-95279936D01*
X42145132Y-95279933D01*
X42145134Y-95279933D01*
X42187611Y-95262337D01*
X42323020Y-95206250D01*
X42483120Y-95099274D01*
X42619274Y-94963120D01*
X42726250Y-94803020D01*
X42782337Y-94667611D01*
X42799933Y-94625134D01*
X42799933Y-94625132D01*
X42799936Y-94625126D01*
X42837500Y-94436275D01*
X42837500Y-94243725D01*
X42803685Y-94073724D01*
X60662500Y-94073724D01*
X60662500Y-94266275D01*
X60700064Y-94455126D01*
X60700066Y-94455134D01*
X60773750Y-94633020D01*
X60880726Y-94793120D01*
X61016880Y-94929274D01*
X61176980Y-95036250D01*
X61256299Y-95069105D01*
X61354865Y-95109933D01*
X61354869Y-95109934D01*
X61354874Y-95109936D01*
X61543725Y-95147500D01*
X61736275Y-95147500D01*
X61925126Y-95109936D01*
X61925132Y-95109933D01*
X61925134Y-95109933D01*
X61967611Y-95092337D01*
X62103020Y-95036250D01*
X62263120Y-94929274D01*
X62399274Y-94793120D01*
X62506250Y-94633020D01*
X62579936Y-94455126D01*
X62617500Y-94266275D01*
X62617500Y-94073725D01*
X62579936Y-93884874D01*
X62579934Y-93884869D01*
X62579933Y-93884865D01*
X62539105Y-93786299D01*
X62506250Y-93706980D01*
X62399274Y-93546880D01*
X62263120Y-93410726D01*
X62263119Y-93410725D01*
X62103022Y-93303751D01*
X62103020Y-93303750D01*
X61925134Y-93230066D01*
X61925126Y-93230064D01*
X61736275Y-93192500D01*
X61543725Y-93192500D01*
X61354873Y-93230064D01*
X61354865Y-93230066D01*
X61176979Y-93303750D01*
X61176977Y-93303751D01*
X61016880Y-93410725D01*
X60880725Y-93546880D01*
X60773751Y-93706977D01*
X60773750Y-93706979D01*
X60700066Y-93884865D01*
X60700064Y-93884873D01*
X60662500Y-94073724D01*
X42803685Y-94073724D01*
X42799936Y-94054874D01*
X42799934Y-94054869D01*
X42799933Y-94054865D01*
X42759105Y-93956299D01*
X42726250Y-93876980D01*
X42619274Y-93716880D01*
X42483120Y-93580726D01*
X42483119Y-93580725D01*
X42323022Y-93473751D01*
X42323020Y-93473750D01*
X42145134Y-93400066D01*
X42145126Y-93400064D01*
X41956275Y-93362500D01*
X41763725Y-93362500D01*
X41574873Y-93400064D01*
X41574865Y-93400066D01*
X41396979Y-93473750D01*
X41396977Y-93473751D01*
X41236880Y-93580725D01*
X41100725Y-93716880D01*
X40993751Y-93876977D01*
X40993750Y-93876979D01*
X40920066Y-94054865D01*
X40920064Y-94054873D01*
X40882500Y-94243724D01*
X39700500Y-94243724D01*
X39700500Y-91703724D01*
X40882500Y-91703724D01*
X40882500Y-91896275D01*
X40920064Y-92085126D01*
X40920066Y-92085134D01*
X40993750Y-92263020D01*
X40993751Y-92263022D01*
X41100725Y-92423119D01*
X41100726Y-92423120D01*
X41236880Y-92559274D01*
X41396980Y-92666250D01*
X41476299Y-92699105D01*
X41574865Y-92739933D01*
X41574869Y-92739934D01*
X41574874Y-92739936D01*
X41763725Y-92777500D01*
X41956275Y-92777500D01*
X42145126Y-92739936D01*
X42145132Y-92739933D01*
X42145134Y-92739933D01*
X42187611Y-92722337D01*
X42323020Y-92666250D01*
X42483120Y-92559274D01*
X42619274Y-92423120D01*
X42726250Y-92263020D01*
X42782337Y-92127611D01*
X42799933Y-92085134D01*
X42799933Y-92085132D01*
X42799936Y-92085126D01*
X42837500Y-91896275D01*
X42837500Y-91703725D01*
X42803685Y-91533724D01*
X60662500Y-91533724D01*
X60662500Y-91726275D01*
X60700064Y-91915126D01*
X60700066Y-91915134D01*
X60773750Y-92093020D01*
X60880726Y-92253120D01*
X61016880Y-92389274D01*
X61176980Y-92496250D01*
X61256299Y-92529105D01*
X61354865Y-92569933D01*
X61354869Y-92569934D01*
X61354874Y-92569936D01*
X61543725Y-92607500D01*
X61736275Y-92607500D01*
X61925126Y-92569936D01*
X61925132Y-92569933D01*
X61925134Y-92569933D01*
X61967611Y-92552337D01*
X62103020Y-92496250D01*
X62263120Y-92389274D01*
X62399274Y-92253120D01*
X62506250Y-92093020D01*
X62579936Y-91915126D01*
X62617500Y-91726275D01*
X62617500Y-91533725D01*
X62579936Y-91344874D01*
X62579934Y-91344869D01*
X62579933Y-91344865D01*
X62539105Y-91246299D01*
X62506250Y-91166980D01*
X62399274Y-91006880D01*
X62263120Y-90870726D01*
X62263119Y-90870725D01*
X62103022Y-90763751D01*
X62103020Y-90763750D01*
X61925134Y-90690066D01*
X61925126Y-90690064D01*
X61736275Y-90652500D01*
X61543725Y-90652500D01*
X61354873Y-90690064D01*
X61354865Y-90690066D01*
X61176979Y-90763750D01*
X61176977Y-90763751D01*
X61016880Y-90870725D01*
X60880725Y-91006880D01*
X60773751Y-91166977D01*
X60773750Y-91166979D01*
X60700066Y-91344865D01*
X60700064Y-91344873D01*
X60662500Y-91533724D01*
X42803685Y-91533724D01*
X42799936Y-91514874D01*
X42799934Y-91514869D01*
X42799933Y-91514865D01*
X42759105Y-91416299D01*
X42726250Y-91336980D01*
X42619274Y-91176880D01*
X42483120Y-91040726D01*
X42483119Y-91040725D01*
X42323022Y-90933751D01*
X42323020Y-90933750D01*
X42145134Y-90860066D01*
X42145126Y-90860064D01*
X41956275Y-90822500D01*
X41763725Y-90822500D01*
X41574873Y-90860064D01*
X41574865Y-90860066D01*
X41396979Y-90933750D01*
X41396977Y-90933751D01*
X41236880Y-91040725D01*
X41100725Y-91176880D01*
X40993751Y-91336977D01*
X40993750Y-91336979D01*
X40920066Y-91514865D01*
X40920064Y-91514873D01*
X40882500Y-91703724D01*
X39700500Y-91703724D01*
X39700500Y-89163724D01*
X40882500Y-89163724D01*
X40882500Y-89356275D01*
X40920064Y-89545126D01*
X40920066Y-89545134D01*
X40993750Y-89723020D01*
X40993751Y-89723022D01*
X41083892Y-89857927D01*
X41100726Y-89883120D01*
X41236880Y-90019274D01*
X41396980Y-90126250D01*
X41476299Y-90159105D01*
X41574865Y-90199933D01*
X41574869Y-90199934D01*
X41574874Y-90199936D01*
X41763725Y-90237500D01*
X41956275Y-90237500D01*
X42145126Y-90199936D01*
X42145132Y-90199933D01*
X42145134Y-90199933D01*
X42187611Y-90182337D01*
X42323020Y-90126250D01*
X42483120Y-90019274D01*
X42605646Y-89896748D01*
X51285500Y-89896748D01*
X51285500Y-90003251D01*
X51285501Y-90003259D01*
X51313064Y-90106127D01*
X51313068Y-90106136D01*
X51366317Y-90198365D01*
X51366324Y-90198374D01*
X51441625Y-90273675D01*
X51441634Y-90273682D01*
X51533863Y-90326931D01*
X51533866Y-90326932D01*
X51533869Y-90326934D01*
X51533870Y-90326934D01*
X51533872Y-90326935D01*
X51596826Y-90343803D01*
X51636747Y-90354500D01*
X51636748Y-90354500D01*
X51743252Y-90354500D01*
X51743253Y-90354500D01*
X51846131Y-90326934D01*
X51938369Y-90273680D01*
X52013680Y-90198369D01*
X52066934Y-90106131D01*
X52094500Y-90003253D01*
X52094500Y-89896747D01*
X52066934Y-89793869D01*
X52020313Y-89713120D01*
X52013682Y-89701634D01*
X52013675Y-89701625D01*
X51938374Y-89626324D01*
X51938365Y-89626317D01*
X51846136Y-89573068D01*
X51846127Y-89573064D01*
X51743259Y-89545501D01*
X51743254Y-89545500D01*
X51743253Y-89545500D01*
X51636747Y-89545500D01*
X51636746Y-89545500D01*
X51636740Y-89545501D01*
X51533872Y-89573064D01*
X51533863Y-89573068D01*
X51441634Y-89626317D01*
X51441625Y-89626324D01*
X51366324Y-89701625D01*
X51366317Y-89701634D01*
X51313068Y-89793863D01*
X51313064Y-89793872D01*
X51285501Y-89896740D01*
X51285500Y-89896748D01*
X42605646Y-89896748D01*
X42619274Y-89883120D01*
X42726250Y-89723020D01*
X42788364Y-89573064D01*
X42799933Y-89545134D01*
X42799933Y-89545132D01*
X42799936Y-89545126D01*
X42837500Y-89356275D01*
X42837500Y-89163725D01*
X42803685Y-88993724D01*
X60662500Y-88993724D01*
X60662500Y-89186275D01*
X60700064Y-89375126D01*
X60700066Y-89375134D01*
X60773750Y-89553020D01*
X60773751Y-89553022D01*
X60822730Y-89626324D01*
X60880726Y-89713120D01*
X61016880Y-89849274D01*
X61176980Y-89956250D01*
X61256299Y-89989105D01*
X61354865Y-90029933D01*
X61354869Y-90029934D01*
X61354874Y-90029936D01*
X61543725Y-90067500D01*
X61736275Y-90067500D01*
X61925126Y-90029936D01*
X61925132Y-90029933D01*
X61925134Y-90029933D01*
X61989530Y-90003259D01*
X62103020Y-89956250D01*
X62263120Y-89849274D01*
X62399274Y-89713120D01*
X62506250Y-89553020D01*
X62579936Y-89375126D01*
X62617500Y-89186275D01*
X62617500Y-88993725D01*
X62579936Y-88804874D01*
X62579934Y-88804869D01*
X62579933Y-88804865D01*
X62539105Y-88706299D01*
X62506250Y-88626980D01*
X62399274Y-88466880D01*
X62263120Y-88330726D01*
X62263119Y-88330725D01*
X62103022Y-88223751D01*
X62103020Y-88223750D01*
X61925134Y-88150066D01*
X61925126Y-88150064D01*
X61736275Y-88112500D01*
X61543725Y-88112500D01*
X61354873Y-88150064D01*
X61354865Y-88150066D01*
X61176979Y-88223750D01*
X61176977Y-88223751D01*
X61016880Y-88330725D01*
X60880725Y-88466880D01*
X60773751Y-88626977D01*
X60773750Y-88626979D01*
X60700066Y-88804865D01*
X60700064Y-88804873D01*
X60662500Y-88993724D01*
X42803685Y-88993724D01*
X42799936Y-88974874D01*
X42799934Y-88974869D01*
X42799933Y-88974865D01*
X42759105Y-88876299D01*
X42726250Y-88796980D01*
X42619274Y-88636880D01*
X42483120Y-88500726D01*
X42483119Y-88500725D01*
X42323022Y-88393751D01*
X42323020Y-88393750D01*
X42145134Y-88320066D01*
X42145126Y-88320064D01*
X41956275Y-88282500D01*
X41763725Y-88282500D01*
X41574873Y-88320064D01*
X41574865Y-88320066D01*
X41396979Y-88393750D01*
X41396977Y-88393751D01*
X41236880Y-88500725D01*
X41100725Y-88636880D01*
X40993751Y-88796977D01*
X40993750Y-88796979D01*
X40920066Y-88974865D01*
X40920064Y-88974873D01*
X40882500Y-89163724D01*
X39700500Y-89163724D01*
X39700500Y-88016748D01*
X46795500Y-88016748D01*
X46795500Y-88123251D01*
X46795501Y-88123259D01*
X46823064Y-88226127D01*
X46823068Y-88226136D01*
X46876317Y-88318365D01*
X46876324Y-88318374D01*
X46951625Y-88393675D01*
X46951634Y-88393682D01*
X47043863Y-88446931D01*
X47043866Y-88446932D01*
X47043869Y-88446934D01*
X47043870Y-88446934D01*
X47043872Y-88446935D01*
X47106826Y-88463803D01*
X47146747Y-88474500D01*
X47146748Y-88474500D01*
X47253252Y-88474500D01*
X47253253Y-88474500D01*
X47356131Y-88446934D01*
X47448369Y-88393680D01*
X47523680Y-88318369D01*
X47576934Y-88226131D01*
X47604500Y-88123253D01*
X47604500Y-88016747D01*
X47604498Y-88016740D01*
X47602378Y-88008825D01*
X47602378Y-88008824D01*
X47599142Y-87996748D01*
X48335500Y-87996748D01*
X48335500Y-88103251D01*
X48335501Y-88103259D01*
X48363064Y-88206127D01*
X48363068Y-88206136D01*
X48416317Y-88298365D01*
X48416324Y-88298374D01*
X48491625Y-88373675D01*
X48491634Y-88373682D01*
X48583863Y-88426931D01*
X48583866Y-88426932D01*
X48583869Y-88426934D01*
X48583870Y-88426934D01*
X48583872Y-88426935D01*
X48621193Y-88436935D01*
X48686747Y-88454500D01*
X48686748Y-88454500D01*
X48793252Y-88454500D01*
X48793253Y-88454500D01*
X48896131Y-88426934D01*
X48988369Y-88373680D01*
X49063680Y-88298369D01*
X49116934Y-88206131D01*
X49144500Y-88103253D01*
X49144500Y-88006748D01*
X52435500Y-88006748D01*
X52435500Y-88113251D01*
X52435501Y-88113259D01*
X52463064Y-88216127D01*
X52463068Y-88216136D01*
X52516317Y-88308365D01*
X52516324Y-88308374D01*
X52591625Y-88383675D01*
X52591634Y-88383682D01*
X52683863Y-88436931D01*
X52683866Y-88436932D01*
X52683869Y-88436934D01*
X52683870Y-88436934D01*
X52683872Y-88436935D01*
X52721193Y-88446935D01*
X52786747Y-88464500D01*
X52786748Y-88464500D01*
X52893252Y-88464500D01*
X52893253Y-88464500D01*
X52996131Y-88436934D01*
X53088369Y-88383680D01*
X53163680Y-88308369D01*
X53211158Y-88226136D01*
X53218983Y-88212583D01*
X53220779Y-88213620D01*
X53249787Y-88184575D01*
X53297622Y-88184544D01*
X53322382Y-88206232D01*
X53323829Y-88205122D01*
X53326324Y-88208374D01*
X53401625Y-88283675D01*
X53401634Y-88283682D01*
X53493863Y-88336931D01*
X53493866Y-88336932D01*
X53493869Y-88336934D01*
X53493870Y-88336934D01*
X53493872Y-88336935D01*
X53556826Y-88353803D01*
X53596747Y-88364500D01*
X53596748Y-88364500D01*
X53703252Y-88364500D01*
X53703253Y-88364500D01*
X53806131Y-88336934D01*
X53898369Y-88283680D01*
X53973680Y-88208369D01*
X54026934Y-88116131D01*
X54054500Y-88013253D01*
X54054500Y-87906747D01*
X54027885Y-87807417D01*
X54026935Y-87803872D01*
X54026931Y-87803863D01*
X53973682Y-87711634D01*
X53973675Y-87711625D01*
X53898374Y-87636324D01*
X53898365Y-87636317D01*
X53806136Y-87583068D01*
X53806127Y-87583064D01*
X53703259Y-87555501D01*
X53703254Y-87555500D01*
X53703253Y-87555500D01*
X53596747Y-87555500D01*
X53596746Y-87555500D01*
X53596740Y-87555501D01*
X53493872Y-87583064D01*
X53493863Y-87583068D01*
X53401634Y-87636317D01*
X53401625Y-87636324D01*
X53326324Y-87711625D01*
X53326317Y-87711634D01*
X53271017Y-87807417D01*
X53269231Y-87806386D01*
X53240167Y-87835443D01*
X53192331Y-87835436D01*
X53167620Y-87813765D01*
X53166171Y-87814878D01*
X53163675Y-87811625D01*
X53088374Y-87736324D01*
X53088365Y-87736317D01*
X52996136Y-87683068D01*
X52996127Y-87683064D01*
X52893259Y-87655501D01*
X52893254Y-87655500D01*
X52893253Y-87655500D01*
X52786747Y-87655500D01*
X52786746Y-87655500D01*
X52786740Y-87655501D01*
X52683872Y-87683064D01*
X52683863Y-87683068D01*
X52591634Y-87736317D01*
X52591625Y-87736324D01*
X52516324Y-87811625D01*
X52516317Y-87811634D01*
X52463068Y-87903863D01*
X52463064Y-87903872D01*
X52435501Y-88006740D01*
X52435500Y-88006748D01*
X49144500Y-88006748D01*
X49144500Y-87996747D01*
X49119614Y-87903872D01*
X49116935Y-87893872D01*
X49116931Y-87893863D01*
X49063682Y-87801634D01*
X49063675Y-87801625D01*
X48988374Y-87726324D01*
X48988365Y-87726317D01*
X48896136Y-87673068D01*
X48896127Y-87673064D01*
X48793259Y-87645501D01*
X48793254Y-87645500D01*
X48793253Y-87645500D01*
X48686747Y-87645500D01*
X48686746Y-87645500D01*
X48686740Y-87645501D01*
X48583872Y-87673064D01*
X48583863Y-87673068D01*
X48491634Y-87726317D01*
X48491625Y-87726324D01*
X48416324Y-87801625D01*
X48416317Y-87801634D01*
X48363068Y-87893863D01*
X48363064Y-87893872D01*
X48335501Y-87996740D01*
X48335500Y-87996748D01*
X47599142Y-87996748D01*
X47586076Y-87947989D01*
X47576934Y-87913869D01*
X47572822Y-87906747D01*
X47523682Y-87821634D01*
X47523675Y-87821625D01*
X47448374Y-87746324D01*
X47448365Y-87746317D01*
X47356136Y-87693068D01*
X47356127Y-87693064D01*
X47253259Y-87665501D01*
X47253254Y-87665500D01*
X47253253Y-87665500D01*
X47146747Y-87665500D01*
X47146746Y-87665500D01*
X47146740Y-87665501D01*
X47043872Y-87693064D01*
X47043863Y-87693068D01*
X46951634Y-87746317D01*
X46951625Y-87746324D01*
X46876324Y-87821625D01*
X46876317Y-87821634D01*
X46823068Y-87913863D01*
X46823064Y-87913872D01*
X46795501Y-88016740D01*
X46795500Y-88016748D01*
X39700500Y-88016748D01*
X39700500Y-86623724D01*
X40882500Y-86623724D01*
X40882500Y-86816275D01*
X40920064Y-87005126D01*
X40920066Y-87005134D01*
X40993750Y-87183020D01*
X40993751Y-87183022D01*
X41100725Y-87343119D01*
X41100726Y-87343120D01*
X41236880Y-87479274D01*
X41396980Y-87586250D01*
X41476299Y-87619105D01*
X41574865Y-87659933D01*
X41574869Y-87659934D01*
X41574874Y-87659936D01*
X41763725Y-87697500D01*
X41956275Y-87697500D01*
X42145126Y-87659936D01*
X42145132Y-87659933D01*
X42145134Y-87659933D01*
X42202147Y-87636317D01*
X42323020Y-87586250D01*
X42483120Y-87479274D01*
X42619274Y-87343120D01*
X42726250Y-87183020D01*
X42782337Y-87047611D01*
X42799933Y-87005134D01*
X42799933Y-87005132D01*
X42799936Y-87005126D01*
X42829450Y-86856748D01*
X55405500Y-86856748D01*
X55405500Y-86963251D01*
X55405501Y-86963259D01*
X55433064Y-87066127D01*
X55433068Y-87066136D01*
X55486317Y-87158365D01*
X55486324Y-87158374D01*
X55561625Y-87233675D01*
X55561634Y-87233682D01*
X55653863Y-87286931D01*
X55653866Y-87286932D01*
X55653869Y-87286934D01*
X55653870Y-87286934D01*
X55653872Y-87286935D01*
X55716826Y-87303803D01*
X55756747Y-87314500D01*
X55756748Y-87314500D01*
X55863252Y-87314500D01*
X55863253Y-87314500D01*
X55966131Y-87286934D01*
X56058369Y-87233680D01*
X56133680Y-87158369D01*
X56186934Y-87066131D01*
X56214500Y-86963253D01*
X56214500Y-86856747D01*
X56195793Y-86786931D01*
X56186935Y-86753872D01*
X56186931Y-86753863D01*
X56133682Y-86661634D01*
X56133675Y-86661625D01*
X56058374Y-86586324D01*
X56058365Y-86586317D01*
X55966136Y-86533068D01*
X55966127Y-86533064D01*
X55883875Y-86511025D01*
X55863259Y-86505501D01*
X55863254Y-86505500D01*
X55863253Y-86505500D01*
X55756747Y-86505500D01*
X55756746Y-86505500D01*
X55756740Y-86505501D01*
X55653872Y-86533064D01*
X55653863Y-86533068D01*
X55561634Y-86586317D01*
X55561625Y-86586324D01*
X55486324Y-86661625D01*
X55486317Y-86661634D01*
X55433068Y-86753863D01*
X55433064Y-86753872D01*
X55405501Y-86856740D01*
X55405500Y-86856748D01*
X42829450Y-86856748D01*
X42837500Y-86816275D01*
X42837500Y-86623725D01*
X42799936Y-86434874D01*
X42799934Y-86434869D01*
X42799933Y-86434865D01*
X42775786Y-86376569D01*
X42767576Y-86356748D01*
X46615500Y-86356748D01*
X46615500Y-86463251D01*
X46615501Y-86463259D01*
X46643064Y-86566127D01*
X46643068Y-86566136D01*
X46696317Y-86658365D01*
X46696324Y-86658374D01*
X46771625Y-86733675D01*
X46771634Y-86733682D01*
X46863863Y-86786931D01*
X46863866Y-86786932D01*
X46863869Y-86786934D01*
X46863870Y-86786934D01*
X46863872Y-86786935D01*
X46907127Y-86798525D01*
X46966747Y-86814500D01*
X46966748Y-86814500D01*
X47073252Y-86814500D01*
X47073253Y-86814500D01*
X47176131Y-86786934D01*
X47268369Y-86733680D01*
X47343680Y-86658369D01*
X47385874Y-86585287D01*
X47423824Y-86556168D01*
X47471250Y-86562411D01*
X47494125Y-86585286D01*
X47536320Y-86658369D01*
X47536321Y-86658370D01*
X47536324Y-86658374D01*
X47611625Y-86733675D01*
X47611634Y-86733682D01*
X47703863Y-86786931D01*
X47703866Y-86786932D01*
X47703869Y-86786934D01*
X47703870Y-86786934D01*
X47703872Y-86786935D01*
X47747127Y-86798525D01*
X47806747Y-86814500D01*
X47806748Y-86814500D01*
X47913252Y-86814500D01*
X47913253Y-86814500D01*
X48016131Y-86786934D01*
X48108369Y-86733680D01*
X48183680Y-86658369D01*
X48207213Y-86617607D01*
X48245162Y-86588488D01*
X48292588Y-86594731D01*
X48315465Y-86617608D01*
X48356317Y-86688365D01*
X48356324Y-86688374D01*
X48431625Y-86763675D01*
X48431634Y-86763682D01*
X48523863Y-86816931D01*
X48523866Y-86816932D01*
X48523869Y-86816934D01*
X48523870Y-86816934D01*
X48523872Y-86816935D01*
X48586826Y-86833803D01*
X48626747Y-86844500D01*
X48626748Y-86844500D01*
X48733252Y-86844500D01*
X48733253Y-86844500D01*
X48836131Y-86816934D01*
X48841862Y-86813624D01*
X48868017Y-86798525D01*
X48905774Y-86776724D01*
X48928369Y-86763680D01*
X49003680Y-86688369D01*
X49056934Y-86596131D01*
X49084500Y-86493253D01*
X49084500Y-86453724D01*
X60662500Y-86453724D01*
X60662500Y-86646275D01*
X60700064Y-86835126D01*
X60700066Y-86835134D01*
X60773750Y-87013020D01*
X60773751Y-87013022D01*
X60870873Y-87158374D01*
X60880726Y-87173120D01*
X61016880Y-87309274D01*
X61176980Y-87416250D01*
X61256299Y-87449105D01*
X61354865Y-87489933D01*
X61354869Y-87489934D01*
X61354874Y-87489936D01*
X61543725Y-87527500D01*
X61736275Y-87527500D01*
X61925126Y-87489936D01*
X61925132Y-87489933D01*
X61925134Y-87489933D01*
X61967611Y-87472337D01*
X62103020Y-87416250D01*
X62263120Y-87309274D01*
X62399274Y-87173120D01*
X62506250Y-87013020D01*
X62579936Y-86835126D01*
X62617500Y-86646275D01*
X62617500Y-86453725D01*
X62579936Y-86264874D01*
X62579934Y-86264869D01*
X62579933Y-86264865D01*
X62537169Y-86161625D01*
X62506250Y-86086980D01*
X62451806Y-86005500D01*
X62399274Y-85926880D01*
X62263119Y-85790725D01*
X62103022Y-85683751D01*
X62103020Y-85683750D01*
X61925134Y-85610066D01*
X61925126Y-85610064D01*
X61736275Y-85572500D01*
X61543725Y-85572500D01*
X61354873Y-85610064D01*
X61354865Y-85610066D01*
X61176979Y-85683750D01*
X61176977Y-85683751D01*
X61016880Y-85790725D01*
X60880725Y-85926880D01*
X60773751Y-86086977D01*
X60773750Y-86086979D01*
X60700066Y-86264865D01*
X60700064Y-86264873D01*
X60662500Y-86453724D01*
X49084500Y-86453724D01*
X49084500Y-86386747D01*
X49056934Y-86283869D01*
X49045967Y-86264874D01*
X49003682Y-86191634D01*
X49003675Y-86191625D01*
X48928374Y-86116324D01*
X48928365Y-86116317D01*
X48836136Y-86063068D01*
X48836127Y-86063064D01*
X48733259Y-86035501D01*
X48733254Y-86035500D01*
X48733253Y-86035500D01*
X48626747Y-86035500D01*
X48626746Y-86035500D01*
X48626740Y-86035501D01*
X48523872Y-86063064D01*
X48523863Y-86063068D01*
X48431634Y-86116317D01*
X48431625Y-86116324D01*
X48356324Y-86191625D01*
X48356319Y-86191631D01*
X48332786Y-86232392D01*
X48294835Y-86261512D01*
X48247409Y-86255267D01*
X48224534Y-86232392D01*
X48183680Y-86161631D01*
X48183678Y-86161629D01*
X48183675Y-86161625D01*
X48108374Y-86086324D01*
X48108365Y-86086317D01*
X48016136Y-86033068D01*
X48016127Y-86033064D01*
X47913259Y-86005501D01*
X47913254Y-86005500D01*
X47913253Y-86005500D01*
X47806747Y-86005500D01*
X47806746Y-86005500D01*
X47806740Y-86005501D01*
X47703872Y-86033064D01*
X47703863Y-86033068D01*
X47611634Y-86086317D01*
X47611625Y-86086324D01*
X47536324Y-86161625D01*
X47536317Y-86161634D01*
X47494126Y-86234711D01*
X47456176Y-86263831D01*
X47408750Y-86257587D01*
X47385874Y-86234711D01*
X47343682Y-86161634D01*
X47343675Y-86161625D01*
X47268374Y-86086324D01*
X47268365Y-86086317D01*
X47176136Y-86033068D01*
X47176127Y-86033064D01*
X47073259Y-86005501D01*
X47073254Y-86005500D01*
X47073253Y-86005500D01*
X46966747Y-86005500D01*
X46966746Y-86005500D01*
X46966740Y-86005501D01*
X46863872Y-86033064D01*
X46863863Y-86033068D01*
X46771634Y-86086317D01*
X46771625Y-86086324D01*
X46696324Y-86161625D01*
X46696317Y-86161634D01*
X46643068Y-86253863D01*
X46643064Y-86253872D01*
X46615501Y-86356740D01*
X46615500Y-86356748D01*
X42767576Y-86356748D01*
X42737389Y-86283872D01*
X42726250Y-86256980D01*
X42619274Y-86096880D01*
X42483120Y-85960726D01*
X42483119Y-85960725D01*
X42323022Y-85853751D01*
X42323020Y-85853750D01*
X42145134Y-85780066D01*
X42145126Y-85780064D01*
X41956275Y-85742500D01*
X41763725Y-85742500D01*
X41574873Y-85780064D01*
X41574865Y-85780066D01*
X41396979Y-85853750D01*
X41396977Y-85853751D01*
X41236880Y-85960725D01*
X41100725Y-86096880D01*
X40993751Y-86256977D01*
X40993750Y-86256979D01*
X40920066Y-86434865D01*
X40920064Y-86434873D01*
X40882500Y-86623724D01*
X39700500Y-86623724D01*
X39700500Y-84083724D01*
X40882500Y-84083724D01*
X40882500Y-84276275D01*
X40920064Y-84465126D01*
X40920066Y-84465134D01*
X40993750Y-84643020D01*
X40993751Y-84643022D01*
X41100725Y-84803119D01*
X41100726Y-84803120D01*
X41236880Y-84939274D01*
X41396980Y-85046250D01*
X41476299Y-85079105D01*
X41574865Y-85119933D01*
X41574869Y-85119934D01*
X41574874Y-85119936D01*
X41763725Y-85157500D01*
X41956275Y-85157500D01*
X42145126Y-85119936D01*
X42145132Y-85119933D01*
X42145134Y-85119933D01*
X42187611Y-85102337D01*
X42323020Y-85046250D01*
X42483120Y-84939274D01*
X42619274Y-84803120D01*
X42726250Y-84643020D01*
X42782337Y-84507611D01*
X42799933Y-84465134D01*
X42799933Y-84465132D01*
X42799936Y-84465126D01*
X42837500Y-84276275D01*
X42837500Y-84083725D01*
X42799936Y-83894874D01*
X42799934Y-83894869D01*
X42799933Y-83894865D01*
X42775786Y-83836569D01*
X42767576Y-83816748D01*
X44365500Y-83816748D01*
X44365500Y-83923251D01*
X44365501Y-83923259D01*
X44393064Y-84026127D01*
X44393068Y-84026136D01*
X44446317Y-84118365D01*
X44446324Y-84118374D01*
X44521625Y-84193675D01*
X44521634Y-84193682D01*
X44613863Y-84246931D01*
X44613866Y-84246932D01*
X44613869Y-84246934D01*
X44613870Y-84246934D01*
X44613872Y-84246935D01*
X44676826Y-84263803D01*
X44716747Y-84274500D01*
X44716748Y-84274500D01*
X44823252Y-84274500D01*
X44823253Y-84274500D01*
X44926131Y-84246934D01*
X45018369Y-84193680D01*
X45093680Y-84118369D01*
X45146934Y-84026131D01*
X45174500Y-83923253D01*
X45174500Y-83913724D01*
X60662500Y-83913724D01*
X60662500Y-84106275D01*
X60700064Y-84295126D01*
X60700066Y-84295134D01*
X60773750Y-84473020D01*
X60880726Y-84633120D01*
X61016880Y-84769274D01*
X61176980Y-84876250D01*
X61256299Y-84909105D01*
X61354865Y-84949933D01*
X61354869Y-84949934D01*
X61354874Y-84949936D01*
X61543725Y-84987500D01*
X61736275Y-84987500D01*
X61925126Y-84949936D01*
X61925132Y-84949933D01*
X61925134Y-84949933D01*
X61967611Y-84932337D01*
X62103020Y-84876250D01*
X62263120Y-84769274D01*
X62399274Y-84633120D01*
X62506250Y-84473020D01*
X62579936Y-84295126D01*
X62617500Y-84106275D01*
X62617500Y-83913725D01*
X62579936Y-83724874D01*
X62579934Y-83724869D01*
X62579933Y-83724865D01*
X62537169Y-83621625D01*
X62506250Y-83546980D01*
X62451806Y-83465500D01*
X62399274Y-83386880D01*
X62263119Y-83250725D01*
X62103022Y-83143751D01*
X62103020Y-83143750D01*
X61925134Y-83070066D01*
X61925126Y-83070064D01*
X61736275Y-83032500D01*
X61543725Y-83032500D01*
X61354873Y-83070064D01*
X61354865Y-83070066D01*
X61176979Y-83143750D01*
X61176977Y-83143751D01*
X61016880Y-83250725D01*
X60880725Y-83386880D01*
X60773751Y-83546977D01*
X60773750Y-83546979D01*
X60700066Y-83724865D01*
X60700064Y-83724873D01*
X60662500Y-83913724D01*
X45174500Y-83913724D01*
X45174500Y-83816747D01*
X45149883Y-83724873D01*
X45146935Y-83713872D01*
X45146931Y-83713863D01*
X45093682Y-83621634D01*
X45093675Y-83621625D01*
X45018374Y-83546324D01*
X45018365Y-83546317D01*
X44926136Y-83493068D01*
X44926127Y-83493064D01*
X44823259Y-83465501D01*
X44823254Y-83465500D01*
X44823253Y-83465500D01*
X44716747Y-83465500D01*
X44716746Y-83465500D01*
X44716740Y-83465501D01*
X44613872Y-83493064D01*
X44613863Y-83493068D01*
X44521634Y-83546317D01*
X44521625Y-83546324D01*
X44446324Y-83621625D01*
X44446317Y-83621634D01*
X44393068Y-83713863D01*
X44393064Y-83713872D01*
X44365501Y-83816740D01*
X44365500Y-83816748D01*
X42767576Y-83816748D01*
X42749056Y-83772039D01*
X42726250Y-83716980D01*
X42619274Y-83556880D01*
X42483120Y-83420726D01*
X42483119Y-83420725D01*
X42323022Y-83313751D01*
X42323020Y-83313750D01*
X42145134Y-83240066D01*
X42145126Y-83240064D01*
X41956275Y-83202500D01*
X41763725Y-83202500D01*
X41574873Y-83240064D01*
X41574865Y-83240066D01*
X41396979Y-83313750D01*
X41396977Y-83313751D01*
X41236880Y-83420725D01*
X41100725Y-83556880D01*
X40993751Y-83716977D01*
X40993750Y-83716979D01*
X40920066Y-83894865D01*
X40920064Y-83894873D01*
X40882500Y-84083724D01*
X39700500Y-84083724D01*
X39700500Y-81543724D01*
X40882500Y-81543724D01*
X40882500Y-81736275D01*
X40920064Y-81925126D01*
X40920066Y-81925134D01*
X40993750Y-82103020D01*
X40993751Y-82103022D01*
X41100725Y-82263119D01*
X41100726Y-82263120D01*
X41236880Y-82399274D01*
X41396980Y-82506250D01*
X41476299Y-82539105D01*
X41574865Y-82579933D01*
X41574869Y-82579934D01*
X41574874Y-82579936D01*
X41763725Y-82617500D01*
X41956275Y-82617500D01*
X42145126Y-82579936D01*
X42145132Y-82579933D01*
X42145134Y-82579933D01*
X42187611Y-82562337D01*
X42323020Y-82506250D01*
X42483120Y-82399274D01*
X42619274Y-82263120D01*
X42726250Y-82103020D01*
X42788283Y-81953259D01*
X42799933Y-81925134D01*
X42799933Y-81925132D01*
X42799936Y-81925126D01*
X42837500Y-81736275D01*
X42837500Y-81616748D01*
X54575500Y-81616748D01*
X54575500Y-81723251D01*
X54575501Y-81723259D01*
X54603064Y-81826127D01*
X54603068Y-81826136D01*
X54656317Y-81918365D01*
X54656324Y-81918374D01*
X54731625Y-81993675D01*
X54731634Y-81993682D01*
X54823863Y-82046931D01*
X54823866Y-82046932D01*
X54823869Y-82046934D01*
X54823870Y-82046934D01*
X54823872Y-82046935D01*
X54858211Y-82056136D01*
X54926747Y-82074500D01*
X54926748Y-82074500D01*
X55033252Y-82074500D01*
X55033253Y-82074500D01*
X55136131Y-82046934D01*
X55228369Y-81993680D01*
X55303680Y-81918369D01*
X55345031Y-81846748D01*
X57575500Y-81846748D01*
X57575500Y-81953251D01*
X57575501Y-81953259D01*
X57603064Y-82056127D01*
X57603068Y-82056136D01*
X57656317Y-82148365D01*
X57656324Y-82148374D01*
X57731625Y-82223675D01*
X57731634Y-82223682D01*
X57823863Y-82276931D01*
X57823866Y-82276932D01*
X57823869Y-82276934D01*
X57823870Y-82276934D01*
X57823872Y-82276935D01*
X57886826Y-82293803D01*
X57926747Y-82304500D01*
X57926748Y-82304500D01*
X58033252Y-82304500D01*
X58033253Y-82304500D01*
X58136131Y-82276934D01*
X58228369Y-82223680D01*
X58303680Y-82148369D01*
X58356934Y-82056131D01*
X58384500Y-81953253D01*
X58384500Y-81846747D01*
X58373803Y-81806826D01*
X58356935Y-81743872D01*
X58356931Y-81743863D01*
X58303682Y-81651634D01*
X58303675Y-81651625D01*
X58228374Y-81576324D01*
X58228365Y-81576317D01*
X58136136Y-81523068D01*
X58136127Y-81523064D01*
X58033259Y-81495501D01*
X58033254Y-81495500D01*
X58033253Y-81495500D01*
X57926747Y-81495500D01*
X57926746Y-81495500D01*
X57926740Y-81495501D01*
X57823872Y-81523064D01*
X57823863Y-81523068D01*
X57731634Y-81576317D01*
X57731625Y-81576324D01*
X57656324Y-81651625D01*
X57656317Y-81651634D01*
X57603068Y-81743863D01*
X57603064Y-81743872D01*
X57575501Y-81846740D01*
X57575500Y-81846748D01*
X55345031Y-81846748D01*
X55356934Y-81826131D01*
X55384500Y-81723253D01*
X55384500Y-81616747D01*
X55356934Y-81513869D01*
X55346329Y-81495501D01*
X55303682Y-81421634D01*
X55303675Y-81421625D01*
X55255774Y-81373724D01*
X60662500Y-81373724D01*
X60662500Y-81566275D01*
X60700064Y-81755126D01*
X60700066Y-81755134D01*
X60773750Y-81933020D01*
X60773751Y-81933022D01*
X60856014Y-82056136D01*
X60880726Y-82093120D01*
X61016880Y-82229274D01*
X61176980Y-82336250D01*
X61256299Y-82369105D01*
X61354865Y-82409933D01*
X61354869Y-82409934D01*
X61354874Y-82409936D01*
X61543725Y-82447500D01*
X61736275Y-82447500D01*
X61925126Y-82409936D01*
X61925132Y-82409933D01*
X61925134Y-82409933D01*
X61967611Y-82392337D01*
X62103020Y-82336250D01*
X62263120Y-82229274D01*
X62399274Y-82093120D01*
X62506250Y-81933020D01*
X62579936Y-81755126D01*
X62617500Y-81566275D01*
X62617500Y-81373725D01*
X62579936Y-81184874D01*
X62579934Y-81184869D01*
X62579933Y-81184865D01*
X62539105Y-81086299D01*
X62506250Y-81006980D01*
X62399274Y-80846880D01*
X62263120Y-80710726D01*
X62263119Y-80710725D01*
X62103022Y-80603751D01*
X62103020Y-80603750D01*
X61925134Y-80530066D01*
X61925126Y-80530064D01*
X61736275Y-80492500D01*
X61543725Y-80492500D01*
X61354873Y-80530064D01*
X61354865Y-80530066D01*
X61176979Y-80603750D01*
X61176977Y-80603751D01*
X61016880Y-80710725D01*
X60880725Y-80846880D01*
X60773751Y-81006977D01*
X60773750Y-81006979D01*
X60700066Y-81184865D01*
X60700064Y-81184873D01*
X60662500Y-81373724D01*
X55255774Y-81373724D01*
X55228374Y-81346324D01*
X55228365Y-81346317D01*
X55136136Y-81293068D01*
X55136127Y-81293064D01*
X55033259Y-81265501D01*
X55033254Y-81265500D01*
X55033253Y-81265500D01*
X54926747Y-81265500D01*
X54926746Y-81265500D01*
X54926740Y-81265501D01*
X54823872Y-81293064D01*
X54823863Y-81293068D01*
X54731634Y-81346317D01*
X54731625Y-81346324D01*
X54656324Y-81421625D01*
X54656317Y-81421634D01*
X54603068Y-81513863D01*
X54603064Y-81513872D01*
X54575501Y-81616740D01*
X54575500Y-81616748D01*
X42837500Y-81616748D01*
X42837500Y-81543725D01*
X42799936Y-81354874D01*
X42799934Y-81354869D01*
X42799933Y-81354865D01*
X42759105Y-81256299D01*
X42726250Y-81176980D01*
X42619274Y-81016880D01*
X42483120Y-80880726D01*
X42483119Y-80880725D01*
X42323022Y-80773751D01*
X42323020Y-80773750D01*
X42145134Y-80700066D01*
X42145126Y-80700064D01*
X41956275Y-80662500D01*
X41763725Y-80662500D01*
X41574873Y-80700064D01*
X41574865Y-80700066D01*
X41396979Y-80773750D01*
X41396977Y-80773751D01*
X41236880Y-80880725D01*
X41100725Y-81016880D01*
X40993751Y-81176977D01*
X40993750Y-81176979D01*
X40920066Y-81354865D01*
X40920064Y-81354873D01*
X40882500Y-81543724D01*
X39700500Y-81543724D01*
X39700500Y-80346748D01*
X44435500Y-80346748D01*
X44435500Y-80453251D01*
X44435501Y-80453259D01*
X44463064Y-80556127D01*
X44463068Y-80556136D01*
X44516317Y-80648365D01*
X44516324Y-80648374D01*
X44591625Y-80723675D01*
X44591634Y-80723682D01*
X44683863Y-80776931D01*
X44683866Y-80776932D01*
X44683869Y-80776934D01*
X44683870Y-80776934D01*
X44683872Y-80776935D01*
X44721193Y-80786935D01*
X44786747Y-80804500D01*
X44786748Y-80804500D01*
X44893252Y-80804500D01*
X44893253Y-80804500D01*
X44996131Y-80776934D01*
X45088369Y-80723680D01*
X45163680Y-80648369D01*
X45216934Y-80556131D01*
X45244500Y-80453253D01*
X45244500Y-80356748D01*
X45875500Y-80356748D01*
X45875500Y-80463251D01*
X45875501Y-80463259D01*
X45903064Y-80566127D01*
X45903068Y-80566136D01*
X45956317Y-80658365D01*
X45956324Y-80658374D01*
X46031625Y-80733675D01*
X46031634Y-80733682D01*
X46123863Y-80786931D01*
X46123866Y-80786932D01*
X46123869Y-80786934D01*
X46123870Y-80786934D01*
X46123872Y-80786935D01*
X46186826Y-80803803D01*
X46226747Y-80814500D01*
X46226748Y-80814500D01*
X46333252Y-80814500D01*
X46333253Y-80814500D01*
X46436131Y-80786934D01*
X46528369Y-80733680D01*
X46603680Y-80658369D01*
X46656934Y-80566131D01*
X46684500Y-80463253D01*
X46684500Y-80356747D01*
X46656934Y-80253869D01*
X46654727Y-80250047D01*
X46603682Y-80161634D01*
X46603675Y-80161625D01*
X46558798Y-80116748D01*
X51335500Y-80116748D01*
X51335500Y-80223251D01*
X51335501Y-80223259D01*
X51363064Y-80326127D01*
X51363068Y-80326136D01*
X51416317Y-80418365D01*
X51416324Y-80418374D01*
X51491625Y-80493675D01*
X51491634Y-80493682D01*
X51583863Y-80546931D01*
X51583866Y-80546932D01*
X51583869Y-80546934D01*
X51583870Y-80546934D01*
X51583872Y-80546935D01*
X51618211Y-80556136D01*
X51686747Y-80574500D01*
X51686748Y-80574500D01*
X51793252Y-80574500D01*
X51793253Y-80574500D01*
X51896131Y-80546934D01*
X51988369Y-80493680D01*
X52063680Y-80418369D01*
X52080100Y-80389927D01*
X52118049Y-80360809D01*
X52165476Y-80367052D01*
X52188352Y-80389928D01*
X52216319Y-80438368D01*
X52216324Y-80438374D01*
X52291625Y-80513675D01*
X52291634Y-80513682D01*
X52383863Y-80566931D01*
X52383866Y-80566932D01*
X52383869Y-80566934D01*
X52383870Y-80566934D01*
X52383872Y-80566935D01*
X52446826Y-80583803D01*
X52486747Y-80594500D01*
X52486748Y-80594500D01*
X52593252Y-80594500D01*
X52593253Y-80594500D01*
X52696131Y-80566934D01*
X52788369Y-80513680D01*
X52863680Y-80438369D01*
X52916934Y-80346131D01*
X52943564Y-80246748D01*
X54535500Y-80246748D01*
X54535500Y-80353251D01*
X54535501Y-80353259D01*
X54563064Y-80456127D01*
X54563068Y-80456136D01*
X54616317Y-80548365D01*
X54616324Y-80548374D01*
X54691625Y-80623675D01*
X54691634Y-80623682D01*
X54783863Y-80676931D01*
X54783866Y-80676932D01*
X54783869Y-80676934D01*
X54783870Y-80676934D01*
X54783872Y-80676935D01*
X54846826Y-80693803D01*
X54886747Y-80704500D01*
X54886748Y-80704500D01*
X54993252Y-80704500D01*
X54993253Y-80704500D01*
X55096131Y-80676934D01*
X55188369Y-80623680D01*
X55263680Y-80548369D01*
X55316934Y-80456131D01*
X55344500Y-80353253D01*
X55344500Y-80246747D01*
X55316934Y-80143869D01*
X55312822Y-80136747D01*
X55263682Y-80051634D01*
X55263675Y-80051625D01*
X55188374Y-79976324D01*
X55188365Y-79976317D01*
X55096136Y-79923068D01*
X55096127Y-79923064D01*
X54993259Y-79895501D01*
X54993254Y-79895500D01*
X54993253Y-79895500D01*
X54886747Y-79895500D01*
X54886746Y-79895500D01*
X54886740Y-79895501D01*
X54783872Y-79923064D01*
X54783863Y-79923068D01*
X54691634Y-79976317D01*
X54691625Y-79976324D01*
X54616324Y-80051625D01*
X54616317Y-80051634D01*
X54563068Y-80143863D01*
X54563064Y-80143872D01*
X54535501Y-80246740D01*
X54535500Y-80246748D01*
X52943564Y-80246748D01*
X52944500Y-80243253D01*
X52944500Y-80136747D01*
X52918560Y-80039936D01*
X52916935Y-80033872D01*
X52916931Y-80033863D01*
X52863682Y-79941634D01*
X52863675Y-79941625D01*
X52788374Y-79866324D01*
X52788365Y-79866317D01*
X52696136Y-79813068D01*
X52696127Y-79813064D01*
X52593259Y-79785501D01*
X52593254Y-79785500D01*
X52593253Y-79785500D01*
X52486747Y-79785500D01*
X52486746Y-79785500D01*
X52486740Y-79785501D01*
X52383872Y-79813064D01*
X52383863Y-79813068D01*
X52291634Y-79866317D01*
X52291625Y-79866324D01*
X52216324Y-79941625D01*
X52216321Y-79941629D01*
X52199899Y-79970072D01*
X52161947Y-79999191D01*
X52114521Y-79992946D01*
X52091647Y-79970070D01*
X52063682Y-79921634D01*
X52063675Y-79921625D01*
X51988374Y-79846324D01*
X51988365Y-79846317D01*
X51896136Y-79793068D01*
X51896127Y-79793064D01*
X51793259Y-79765501D01*
X51793254Y-79765500D01*
X51793253Y-79765500D01*
X51686747Y-79765500D01*
X51686746Y-79765500D01*
X51686740Y-79765501D01*
X51583872Y-79793064D01*
X51583863Y-79793068D01*
X51491634Y-79846317D01*
X51491625Y-79846324D01*
X51416324Y-79921625D01*
X51416317Y-79921634D01*
X51363068Y-80013863D01*
X51363064Y-80013872D01*
X51335501Y-80116740D01*
X51335500Y-80116748D01*
X46558798Y-80116748D01*
X46528374Y-80086324D01*
X46528365Y-80086317D01*
X46436136Y-80033068D01*
X46436127Y-80033064D01*
X46333259Y-80005501D01*
X46333254Y-80005500D01*
X46333253Y-80005500D01*
X46226747Y-80005500D01*
X46226746Y-80005500D01*
X46226740Y-80005501D01*
X46123872Y-80033064D01*
X46123863Y-80033068D01*
X46031634Y-80086317D01*
X46031625Y-80086324D01*
X45956324Y-80161625D01*
X45956317Y-80161634D01*
X45903068Y-80253863D01*
X45903064Y-80253872D01*
X45875501Y-80356740D01*
X45875500Y-80356748D01*
X45244500Y-80356748D01*
X45244500Y-80346747D01*
X45219614Y-80253872D01*
X45216935Y-80243872D01*
X45216931Y-80243863D01*
X45163682Y-80151634D01*
X45163675Y-80151625D01*
X45088374Y-80076324D01*
X45088365Y-80076317D01*
X44996136Y-80023068D01*
X44996127Y-80023064D01*
X44893259Y-79995501D01*
X44893254Y-79995500D01*
X44893253Y-79995500D01*
X44786747Y-79995500D01*
X44786746Y-79995500D01*
X44786740Y-79995501D01*
X44683872Y-80023064D01*
X44683863Y-80023068D01*
X44591634Y-80076317D01*
X44591625Y-80076324D01*
X44516324Y-80151625D01*
X44516317Y-80151634D01*
X44463068Y-80243863D01*
X44463064Y-80243872D01*
X44435501Y-80346740D01*
X44435500Y-80346748D01*
X39700500Y-80346748D01*
X39700500Y-79003724D01*
X40882500Y-79003724D01*
X40882500Y-79196275D01*
X40920064Y-79385126D01*
X40920066Y-79385134D01*
X40993750Y-79563020D01*
X40993751Y-79563022D01*
X41100725Y-79723119D01*
X41100726Y-79723120D01*
X41236880Y-79859274D01*
X41396980Y-79966250D01*
X41461430Y-79992946D01*
X41574865Y-80039933D01*
X41574869Y-80039934D01*
X41574874Y-80039936D01*
X41763725Y-80077500D01*
X41956275Y-80077500D01*
X42145126Y-80039936D01*
X42145132Y-80039933D01*
X42145134Y-80039933D01*
X42208072Y-80013863D01*
X42323020Y-79966250D01*
X42483120Y-79859274D01*
X42619274Y-79723120D01*
X42726250Y-79563020D01*
X42782337Y-79427611D01*
X42799933Y-79385134D01*
X42799933Y-79385132D01*
X42799936Y-79385126D01*
X42837500Y-79196275D01*
X42837500Y-79003725D01*
X42799936Y-78814874D01*
X42799934Y-78814869D01*
X42799933Y-78814865D01*
X42747534Y-78688365D01*
X42726250Y-78636980D01*
X42619274Y-78476880D01*
X42569142Y-78426748D01*
X48835500Y-78426748D01*
X48835500Y-78533251D01*
X48835501Y-78533259D01*
X48863064Y-78636127D01*
X48863068Y-78636136D01*
X48916317Y-78728365D01*
X48916324Y-78728374D01*
X48991625Y-78803675D01*
X48991634Y-78803682D01*
X49083863Y-78856931D01*
X49083866Y-78856932D01*
X49083869Y-78856934D01*
X49083870Y-78856934D01*
X49083872Y-78856935D01*
X49146826Y-78873803D01*
X49186747Y-78884500D01*
X49186748Y-78884500D01*
X49293252Y-78884500D01*
X49293253Y-78884500D01*
X49396131Y-78856934D01*
X49488369Y-78803680D01*
X49563680Y-78728369D01*
X49616934Y-78636131D01*
X49644500Y-78533253D01*
X49644500Y-78426747D01*
X49633782Y-78386748D01*
X57165500Y-78386748D01*
X57165500Y-78493251D01*
X57165501Y-78493259D01*
X57193064Y-78596127D01*
X57193068Y-78596136D01*
X57246317Y-78688365D01*
X57246324Y-78688374D01*
X57321625Y-78763675D01*
X57321634Y-78763682D01*
X57413863Y-78816931D01*
X57413866Y-78816932D01*
X57413869Y-78816934D01*
X57413870Y-78816934D01*
X57413872Y-78816935D01*
X57476530Y-78833724D01*
X57516747Y-78844500D01*
X57516748Y-78844500D01*
X57623252Y-78844500D01*
X57623253Y-78844500D01*
X57663470Y-78833724D01*
X60662500Y-78833724D01*
X60662500Y-79026275D01*
X60700064Y-79215126D01*
X60700066Y-79215134D01*
X60773750Y-79393020D01*
X60880726Y-79553120D01*
X61016880Y-79689274D01*
X61176980Y-79796250D01*
X61256299Y-79829105D01*
X61354865Y-79869933D01*
X61354869Y-79869934D01*
X61354874Y-79869936D01*
X61543725Y-79907500D01*
X61736275Y-79907500D01*
X61925126Y-79869936D01*
X61925132Y-79869933D01*
X61925134Y-79869933D01*
X61982147Y-79846317D01*
X62103020Y-79796250D01*
X62263120Y-79689274D01*
X62399274Y-79553120D01*
X62506250Y-79393020D01*
X62579936Y-79215126D01*
X62617500Y-79026275D01*
X62617500Y-78833725D01*
X62579936Y-78644874D01*
X62579934Y-78644869D01*
X62579933Y-78644865D01*
X62517135Y-78493259D01*
X62506250Y-78466980D01*
X62399274Y-78306880D01*
X62263120Y-78170726D01*
X62263119Y-78170725D01*
X62103022Y-78063751D01*
X62103020Y-78063750D01*
X61925134Y-77990066D01*
X61925126Y-77990064D01*
X61736275Y-77952500D01*
X61543725Y-77952500D01*
X61354873Y-77990064D01*
X61354865Y-77990066D01*
X61176979Y-78063750D01*
X61176977Y-78063751D01*
X61016880Y-78170725D01*
X60880725Y-78306880D01*
X60773751Y-78466977D01*
X60773750Y-78466979D01*
X60700066Y-78644865D01*
X60700064Y-78644873D01*
X60662500Y-78833724D01*
X57663470Y-78833724D01*
X57726131Y-78816934D01*
X57749084Y-78803682D01*
X57796115Y-78776529D01*
X57810435Y-78768260D01*
X57818369Y-78763680D01*
X57893680Y-78688369D01*
X57946934Y-78596131D01*
X57974500Y-78493253D01*
X57974500Y-78386747D01*
X57946934Y-78283869D01*
X57917998Y-78233751D01*
X57893682Y-78191634D01*
X57893675Y-78191625D01*
X57818374Y-78116324D01*
X57818365Y-78116317D01*
X57726136Y-78063068D01*
X57726127Y-78063064D01*
X57623259Y-78035501D01*
X57623254Y-78035500D01*
X57623253Y-78035500D01*
X57516747Y-78035500D01*
X57516746Y-78035500D01*
X57516740Y-78035501D01*
X57413872Y-78063064D01*
X57413863Y-78063068D01*
X57321634Y-78116317D01*
X57321625Y-78116324D01*
X57246324Y-78191625D01*
X57246317Y-78191634D01*
X57193068Y-78283863D01*
X57193064Y-78283872D01*
X57165501Y-78386740D01*
X57165500Y-78386748D01*
X49633782Y-78386748D01*
X49616934Y-78323869D01*
X49607125Y-78306880D01*
X49563682Y-78231634D01*
X49563675Y-78231625D01*
X49488374Y-78156324D01*
X49488365Y-78156317D01*
X49396136Y-78103068D01*
X49396127Y-78103064D01*
X49293259Y-78075501D01*
X49293254Y-78075500D01*
X49293253Y-78075500D01*
X49186747Y-78075500D01*
X49186746Y-78075500D01*
X49186740Y-78075501D01*
X49083872Y-78103064D01*
X49083863Y-78103068D01*
X48991634Y-78156317D01*
X48991625Y-78156324D01*
X48916324Y-78231625D01*
X48916317Y-78231634D01*
X48863068Y-78323863D01*
X48863064Y-78323872D01*
X48835501Y-78426740D01*
X48835500Y-78426748D01*
X42569142Y-78426748D01*
X42483120Y-78340726D01*
X42483119Y-78340725D01*
X42323022Y-78233751D01*
X42323020Y-78233750D01*
X42145134Y-78160066D01*
X42145126Y-78160064D01*
X41956275Y-78122500D01*
X41763725Y-78122500D01*
X41574873Y-78160064D01*
X41574865Y-78160066D01*
X41396979Y-78233750D01*
X41396977Y-78233751D01*
X41236880Y-78340725D01*
X41100725Y-78476880D01*
X40993751Y-78636977D01*
X40993750Y-78636979D01*
X40920066Y-78814865D01*
X40920064Y-78814873D01*
X40882500Y-79003724D01*
X39700500Y-79003724D01*
X39700500Y-76463724D01*
X40882500Y-76463724D01*
X40882500Y-76656275D01*
X40920064Y-76845126D01*
X40920066Y-76845134D01*
X40993750Y-77023020D01*
X40993751Y-77023022D01*
X41100725Y-77183119D01*
X41100726Y-77183120D01*
X41236880Y-77319274D01*
X41396980Y-77426250D01*
X41476299Y-77459105D01*
X41574865Y-77499933D01*
X41574869Y-77499934D01*
X41574874Y-77499936D01*
X41763725Y-77537500D01*
X41956275Y-77537500D01*
X42145126Y-77499936D01*
X42145132Y-77499933D01*
X42145134Y-77499933D01*
X42187611Y-77482337D01*
X42323020Y-77426250D01*
X42483120Y-77319274D01*
X42619274Y-77183120D01*
X42726250Y-77023020D01*
X42782337Y-76887611D01*
X42799933Y-76845134D01*
X42799933Y-76845132D01*
X42799936Y-76845126D01*
X42837500Y-76656275D01*
X42837500Y-76463725D01*
X42803685Y-76293724D01*
X60662500Y-76293724D01*
X60662500Y-76486275D01*
X60700064Y-76675126D01*
X60700066Y-76675134D01*
X60773750Y-76853020D01*
X60880726Y-77013120D01*
X61016880Y-77149274D01*
X61176980Y-77256250D01*
X61256299Y-77289105D01*
X61354865Y-77329933D01*
X61354869Y-77329934D01*
X61354874Y-77329936D01*
X61543725Y-77367500D01*
X61736275Y-77367500D01*
X61925126Y-77329936D01*
X61925132Y-77329933D01*
X61925134Y-77329933D01*
X61967611Y-77312337D01*
X62103020Y-77256250D01*
X62263120Y-77149274D01*
X62399274Y-77013120D01*
X62506250Y-76853020D01*
X62579936Y-76675126D01*
X62617500Y-76486275D01*
X62617500Y-76293725D01*
X62579936Y-76104874D01*
X62579934Y-76104869D01*
X62579933Y-76104865D01*
X62539105Y-76006299D01*
X62506250Y-75926980D01*
X62399274Y-75766880D01*
X62263120Y-75630726D01*
X62263119Y-75630725D01*
X62103022Y-75523751D01*
X62103020Y-75523750D01*
X61925134Y-75450066D01*
X61925126Y-75450064D01*
X61736275Y-75412500D01*
X61543725Y-75412500D01*
X61354873Y-75450064D01*
X61354865Y-75450066D01*
X61176979Y-75523750D01*
X61176977Y-75523751D01*
X61016880Y-75630725D01*
X60880725Y-75766880D01*
X60773751Y-75926977D01*
X60773750Y-75926979D01*
X60700066Y-76104865D01*
X60700064Y-76104873D01*
X60662500Y-76293724D01*
X42803685Y-76293724D01*
X42799936Y-76274874D01*
X42799934Y-76274869D01*
X42799933Y-76274865D01*
X42759105Y-76176299D01*
X42726250Y-76096980D01*
X42619274Y-75936880D01*
X42483120Y-75800726D01*
X42483119Y-75800725D01*
X42323022Y-75693751D01*
X42323020Y-75693750D01*
X42145134Y-75620066D01*
X42145126Y-75620064D01*
X41956275Y-75582500D01*
X41763725Y-75582500D01*
X41574873Y-75620064D01*
X41574865Y-75620066D01*
X41396979Y-75693750D01*
X41396977Y-75693751D01*
X41236880Y-75800725D01*
X41100725Y-75936880D01*
X40993751Y-76096977D01*
X40993750Y-76096979D01*
X40920066Y-76274865D01*
X40920064Y-76274873D01*
X40882500Y-76463724D01*
X39700500Y-76463724D01*
X39700500Y-73122164D01*
X40510000Y-73122164D01*
X40510000Y-73770000D01*
X41426988Y-73770000D01*
X41394075Y-73827007D01*
X41360000Y-73954174D01*
X41360000Y-74085826D01*
X41394075Y-74212993D01*
X41426988Y-74270000D01*
X40510000Y-74270000D01*
X40510000Y-74917835D01*
X40516402Y-74977377D01*
X40566647Y-75112091D01*
X40566649Y-75112094D01*
X40652808Y-75227186D01*
X40652813Y-75227191D01*
X40767905Y-75313350D01*
X40767908Y-75313352D01*
X40902622Y-75363597D01*
X40962164Y-75369999D01*
X40962178Y-75370000D01*
X41610000Y-75370000D01*
X41610000Y-74453012D01*
X41667007Y-74485925D01*
X41794174Y-74520000D01*
X41925826Y-74520000D01*
X42052993Y-74485925D01*
X42110000Y-74453012D01*
X42110000Y-75370000D01*
X42757822Y-75370000D01*
X42757835Y-75369999D01*
X42817377Y-75363597D01*
X42952091Y-75313352D01*
X42952094Y-75313350D01*
X43067186Y-75227191D01*
X43067191Y-75227186D01*
X43153350Y-75112094D01*
X43153352Y-75112091D01*
X43203597Y-74977377D01*
X43209999Y-74917835D01*
X43210000Y-74917822D01*
X43210000Y-74270000D01*
X42293012Y-74270000D01*
X42325925Y-74212993D01*
X42360000Y-74085826D01*
X42360000Y-73954174D01*
X42325925Y-73827007D01*
X42293012Y-73770000D01*
X43210000Y-73770000D01*
X43210000Y-73122177D01*
X43209999Y-73122164D01*
X43203597Y-73062622D01*
X43182558Y-73006213D01*
X43182558Y-73006212D01*
X43175557Y-72987442D01*
X60662500Y-72987442D01*
X60662500Y-74712557D01*
X60669898Y-74749748D01*
X60669898Y-74749749D01*
X60698077Y-74791922D01*
X60726257Y-74810750D01*
X60740252Y-74820102D01*
X60777442Y-74827500D01*
X60777443Y-74827500D01*
X62502557Y-74827500D01*
X62502558Y-74827500D01*
X62539748Y-74820102D01*
X62581922Y-74791922D01*
X62610102Y-74749748D01*
X62617500Y-74712558D01*
X62617500Y-72987442D01*
X62610102Y-72950252D01*
X62610101Y-72950250D01*
X62581922Y-72908077D01*
X62539748Y-72879898D01*
X62502558Y-72872500D01*
X60777442Y-72872500D01*
X60758847Y-72876199D01*
X60740251Y-72879898D01*
X60740250Y-72879898D01*
X60698077Y-72908077D01*
X60669898Y-72950250D01*
X60669898Y-72950251D01*
X60662500Y-72987442D01*
X43175557Y-72987442D01*
X43153353Y-72927910D01*
X43153350Y-72927905D01*
X43067191Y-72812813D01*
X43067186Y-72812808D01*
X42952094Y-72726649D01*
X42952091Y-72726647D01*
X42817377Y-72676402D01*
X42757835Y-72670000D01*
X42110000Y-72670000D01*
X42110000Y-73586988D01*
X42052993Y-73554075D01*
X41925826Y-73520000D01*
X41794174Y-73520000D01*
X41667007Y-73554075D01*
X41610000Y-73586988D01*
X41610000Y-72670000D01*
X40962164Y-72670000D01*
X40902622Y-72676402D01*
X40767908Y-72726647D01*
X40767905Y-72726649D01*
X40652813Y-72812808D01*
X40652808Y-72812813D01*
X40566649Y-72927905D01*
X40566647Y-72927908D01*
X40516402Y-73062622D01*
X40510000Y-73122164D01*
X39700500Y-73122164D01*
X39700500Y-70086748D01*
X60575500Y-70086748D01*
X60575500Y-70193251D01*
X60575501Y-70193259D01*
X60603064Y-70296127D01*
X60603068Y-70296136D01*
X60656317Y-70388365D01*
X60656324Y-70388374D01*
X60731625Y-70463675D01*
X60731634Y-70463682D01*
X60823863Y-70516931D01*
X60823866Y-70516932D01*
X60823869Y-70516934D01*
X60823870Y-70516934D01*
X60823872Y-70516935D01*
X60886826Y-70533803D01*
X60926747Y-70544500D01*
X60926748Y-70544500D01*
X61033252Y-70544500D01*
X61033253Y-70544500D01*
X61136131Y-70516934D01*
X61228369Y-70463680D01*
X61303680Y-70388369D01*
X61356934Y-70296131D01*
X61384500Y-70193253D01*
X61384500Y-70086747D01*
X61356934Y-69983869D01*
X61303680Y-69891631D01*
X61303678Y-69891629D01*
X61303675Y-69891625D01*
X61228374Y-69816324D01*
X61228365Y-69816317D01*
X61136136Y-69763068D01*
X61136127Y-69763064D01*
X61033259Y-69735501D01*
X61033254Y-69735500D01*
X61033253Y-69735500D01*
X60926747Y-69735500D01*
X60926746Y-69735500D01*
X60926740Y-69735501D01*
X60823872Y-69763064D01*
X60823863Y-69763068D01*
X60731634Y-69816317D01*
X60731625Y-69816324D01*
X60656324Y-69891625D01*
X60656317Y-69891634D01*
X60603068Y-69983863D01*
X60603064Y-69983872D01*
X60575501Y-70086740D01*
X60575500Y-70086748D01*
X39700500Y-70086748D01*
X39700500Y-69176748D01*
X43375500Y-69176748D01*
X43375500Y-69283251D01*
X43375501Y-69283259D01*
X43403064Y-69386127D01*
X43403068Y-69386136D01*
X43456317Y-69478365D01*
X43456324Y-69478374D01*
X43531625Y-69553675D01*
X43531634Y-69553682D01*
X43623863Y-69606931D01*
X43623866Y-69606932D01*
X43623869Y-69606934D01*
X43623870Y-69606934D01*
X43623872Y-69606935D01*
X43686826Y-69623803D01*
X43726747Y-69634500D01*
X43726748Y-69634500D01*
X43833252Y-69634500D01*
X43833253Y-69634500D01*
X43936131Y-69606934D01*
X44028369Y-69553680D01*
X44103680Y-69478369D01*
X44156934Y-69386131D01*
X44184500Y-69283253D01*
X44184500Y-69176747D01*
X44165579Y-69106131D01*
X44156935Y-69073872D01*
X44156931Y-69073863D01*
X44103682Y-68981634D01*
X44103675Y-68981625D01*
X44028374Y-68906324D01*
X44028365Y-68906317D01*
X44011791Y-68896748D01*
X45375500Y-68896748D01*
X45375500Y-69003251D01*
X45375501Y-69003259D01*
X45403064Y-69106127D01*
X45403068Y-69106136D01*
X45456317Y-69198365D01*
X45456324Y-69198374D01*
X45531625Y-69273675D01*
X45531634Y-69273682D01*
X45623863Y-69326931D01*
X45623866Y-69326932D01*
X45623869Y-69326934D01*
X45623870Y-69326934D01*
X45623872Y-69326935D01*
X45686826Y-69343803D01*
X45726747Y-69354500D01*
X45726748Y-69354500D01*
X45833252Y-69354500D01*
X45833253Y-69354500D01*
X45936131Y-69326934D01*
X46028369Y-69273680D01*
X46103680Y-69198369D01*
X46156934Y-69106131D01*
X46184500Y-69003253D01*
X46184500Y-68896747D01*
X46165410Y-68825501D01*
X46156935Y-68793872D01*
X46156931Y-68793863D01*
X46103682Y-68701634D01*
X46103675Y-68701625D01*
X46028374Y-68626324D01*
X46028365Y-68626317D01*
X45936136Y-68573068D01*
X45936127Y-68573064D01*
X45833259Y-68545501D01*
X45833254Y-68545500D01*
X45833253Y-68545500D01*
X45726747Y-68545500D01*
X45726746Y-68545500D01*
X45726740Y-68545501D01*
X45623872Y-68573064D01*
X45623863Y-68573068D01*
X45531634Y-68626317D01*
X45531625Y-68626324D01*
X45456324Y-68701625D01*
X45456317Y-68701634D01*
X45403068Y-68793863D01*
X45403064Y-68793872D01*
X45375501Y-68896740D01*
X45375500Y-68896748D01*
X44011791Y-68896748D01*
X43936136Y-68853068D01*
X43936127Y-68853064D01*
X43833259Y-68825501D01*
X43833254Y-68825500D01*
X43833253Y-68825500D01*
X43726747Y-68825500D01*
X43726746Y-68825500D01*
X43726740Y-68825501D01*
X43623872Y-68853064D01*
X43623863Y-68853068D01*
X43531634Y-68906317D01*
X43531625Y-68906324D01*
X43456324Y-68981625D01*
X43456317Y-68981634D01*
X43403068Y-69073863D01*
X43403064Y-69073872D01*
X43375501Y-69176740D01*
X43375500Y-69176748D01*
X39700500Y-69176748D01*
X39700500Y-67443581D01*
X39718806Y-67399387D01*
X39763000Y-67381081D01*
X39807194Y-67399387D01*
X39817127Y-67412331D01*
X39930576Y-67608832D01*
X40074437Y-67796317D01*
X40092374Y-67819692D01*
X40280308Y-68007626D01*
X40491165Y-68169422D01*
X40721336Y-68302311D01*
X40966883Y-68404020D01*
X40966893Y-68404022D01*
X40966899Y-68404025D01*
X41223602Y-68472808D01*
X41223606Y-68472809D01*
X41487111Y-68507500D01*
X41487117Y-68507500D01*
X41752883Y-68507500D01*
X41752889Y-68507500D01*
X42016394Y-68472809D01*
X42016398Y-68472808D01*
X42273100Y-68404025D01*
X42273103Y-68404023D01*
X42273117Y-68404020D01*
X42518664Y-68302311D01*
X42558894Y-68279083D01*
X42606319Y-68272839D01*
X42644270Y-68301959D01*
X42650515Y-68349385D01*
X42644272Y-68364458D01*
X42633066Y-68383867D01*
X42633064Y-68383872D01*
X42605501Y-68486740D01*
X42605500Y-68486748D01*
X42605500Y-68593251D01*
X42605501Y-68593259D01*
X42633064Y-68696127D01*
X42633068Y-68696136D01*
X42686317Y-68788365D01*
X42686324Y-68788374D01*
X42761625Y-68863675D01*
X42761634Y-68863682D01*
X42853863Y-68916931D01*
X42853866Y-68916932D01*
X42853869Y-68916934D01*
X42853870Y-68916934D01*
X42853872Y-68916935D01*
X42916826Y-68933803D01*
X42956747Y-68944500D01*
X42956748Y-68944500D01*
X43063252Y-68944500D01*
X43063253Y-68944500D01*
X43166131Y-68916934D01*
X43258369Y-68863680D01*
X43333680Y-68788369D01*
X43386934Y-68696131D01*
X43414500Y-68593253D01*
X43414500Y-68487438D01*
X43432806Y-68443244D01*
X43477000Y-68424938D01*
X43517857Y-68441862D01*
X43518378Y-68441184D01*
X43520909Y-68443126D01*
X43521194Y-68443244D01*
X43521625Y-68443675D01*
X43521634Y-68443682D01*
X43613863Y-68496931D01*
X43613866Y-68496932D01*
X43613869Y-68496934D01*
X43613870Y-68496934D01*
X43613872Y-68496935D01*
X43653298Y-68507499D01*
X43716747Y-68524500D01*
X43716748Y-68524500D01*
X43823252Y-68524500D01*
X43823253Y-68524500D01*
X43926131Y-68496934D01*
X44018369Y-68443680D01*
X44093680Y-68368369D01*
X44146934Y-68276131D01*
X44174500Y-68173253D01*
X44174500Y-68066747D01*
X44146934Y-67963869D01*
X44093680Y-67871631D01*
X44093678Y-67871629D01*
X44093675Y-67871625D01*
X44018374Y-67796324D01*
X44018365Y-67796317D01*
X43926136Y-67743068D01*
X43926127Y-67743064D01*
X43823259Y-67715501D01*
X43823254Y-67715500D01*
X43823253Y-67715500D01*
X43716747Y-67715500D01*
X43716746Y-67715500D01*
X43716740Y-67715501D01*
X43613872Y-67743064D01*
X43613863Y-67743068D01*
X43521634Y-67796317D01*
X43521625Y-67796324D01*
X43446324Y-67871625D01*
X43446317Y-67871634D01*
X43393068Y-67963863D01*
X43393064Y-67963872D01*
X43365501Y-68066740D01*
X43365500Y-68066748D01*
X43365500Y-68172562D01*
X43347194Y-68216756D01*
X43303000Y-68235062D01*
X43262142Y-68218137D01*
X43261622Y-68218816D01*
X43259090Y-68216873D01*
X43258806Y-68216756D01*
X43258374Y-68216324D01*
X43258365Y-68216317D01*
X43166136Y-68163068D01*
X43166127Y-68163064D01*
X43063259Y-68135501D01*
X43063254Y-68135500D01*
X43063253Y-68135500D01*
X42977162Y-68135500D01*
X42932968Y-68117194D01*
X42914662Y-68073000D01*
X42932968Y-68028806D01*
X42939115Y-68023415D01*
X42959692Y-68007626D01*
X43147626Y-67819692D01*
X43309422Y-67608835D01*
X43442311Y-67378664D01*
X43544020Y-67133117D01*
X43552059Y-67103118D01*
X43612808Y-66876398D01*
X43612808Y-66876397D01*
X43612809Y-66876394D01*
X43647500Y-66612889D01*
X43647500Y-66347111D01*
X43612809Y-66083606D01*
X43612808Y-66083601D01*
X43544025Y-65826899D01*
X43544022Y-65826893D01*
X43544020Y-65826883D01*
X43442311Y-65581336D01*
X43424986Y-65551329D01*
X43309423Y-65351167D01*
X43309422Y-65351165D01*
X43147626Y-65140308D01*
X42959692Y-64952374D01*
X42959688Y-64952371D01*
X42959686Y-64952369D01*
X42748832Y-64790576D01*
X42518670Y-64657692D01*
X42518658Y-64657686D01*
X42388358Y-64603714D01*
X42354533Y-64569889D01*
X42354534Y-64522054D01*
X42388359Y-64488229D01*
X42412259Y-64483473D01*
X61072458Y-64480502D01*
X61116654Y-64498801D01*
G37*
%TD.AperFunction*%
%TD*%
M02*
