%TF.GenerationSoftware,KiCad,Pcbnew,9.0.6*%
%TF.CreationDate,2025-12-20T13:57:38-05:00*%
%TF.ProjectId,TinkerNav V24,54696e6b-6572-44e6-9176-205632342e6b,1*%
%TF.SameCoordinates,Original*%
%TF.FileFunction,Soldermask,Bot*%
%TF.FilePolarity,Negative*%
%FSLAX46Y46*%
G04 Gerber Fmt 4.6, Leading zero omitted, Abs format (unit mm)*
G04 Created by KiCad (PCBNEW 9.0.6) date 2025-12-20 13:57:38*
%MOMM*%
%LPD*%
G01*
G04 APERTURE LIST*
G04 Aperture macros list*
%AMRoundRect*
0 Rectangle with rounded corners*
0 $1 Rounding radius*
0 $2 $3 $4 $5 $6 $7 $8 $9 X,Y pos of 4 corners*
0 Add a 4 corners polygon primitive as box body*
4,1,4,$2,$3,$4,$5,$6,$7,$8,$9,$2,$3,0*
0 Add four circle primitives for the rounded corners*
1,1,$1+$1,$2,$3*
1,1,$1+$1,$4,$5*
1,1,$1+$1,$6,$7*
1,1,$1+$1,$8,$9*
0 Add four rect primitives between the rounded corners*
20,1,$1+$1,$2,$3,$4,$5,0*
20,1,$1+$1,$4,$5,$6,$7,0*
20,1,$1+$1,$6,$7,$8,$9,0*
20,1,$1+$1,$8,$9,$2,$3,0*%
G04 Aperture macros list end*
%ADD10C,0.650000*%
%ADD11O,1.000000X2.100000*%
%ADD12O,1.000000X1.600000*%
%ADD13C,3.800000*%
%ADD14C,2.529000*%
%ADD15C,2.829000*%
%ADD16RoundRect,0.250000X-0.600000X-0.725000X0.600000X-0.725000X0.600000X0.725000X-0.600000X0.725000X0*%
%ADD17O,1.700000X1.950000*%
%ADD18R,1.700000X1.700000*%
%ADD19C,1.700000*%
%ADD20RoundRect,0.250000X0.625000X-0.350000X0.625000X0.350000X-0.625000X0.350000X-0.625000X-0.350000X0*%
%ADD21O,1.750000X1.200000*%
G04 APERTURE END LIST*
D10*
%TO.C,J7*%
X48170000Y-119900000D03*
X53950000Y-119900000D03*
D11*
X46740000Y-119370000D03*
D12*
X46740000Y-123550000D03*
D11*
X55380000Y-119370000D03*
D12*
X55380000Y-123550000D03*
%TD*%
D13*
%TO.C,H1*%
X41620000Y-66480000D03*
%TD*%
D14*
%TO.C,J2*%
X44200000Y-104840000D03*
D15*
X41660000Y-102300000D03*
X46740000Y-102300000D03*
X41660000Y-107380000D03*
X46740000Y-107380000D03*
%TD*%
D13*
%TO.C,H4*%
X61870000Y-123920000D03*
%TD*%
%TO.C,H2*%
X61930000Y-66450000D03*
%TD*%
D16*
%TO.C,J5*%
X53560000Y-103540000D03*
D17*
X56060000Y-103540000D03*
X58560000Y-103540000D03*
X61060000Y-103540000D03*
%TD*%
D18*
%TO.C,J1*%
X41860000Y-74020000D03*
D19*
X41860000Y-76560000D03*
X41860000Y-79100000D03*
X41860000Y-81640000D03*
X41860000Y-84180000D03*
X41860000Y-86720000D03*
X41860000Y-89260000D03*
X41860000Y-91800000D03*
X41860000Y-94340000D03*
X41860000Y-96880000D03*
%TD*%
D18*
%TO.C,J4*%
X61640000Y-73850000D03*
D19*
X61640000Y-76390000D03*
X61640000Y-78930000D03*
X61640000Y-81470000D03*
X61640000Y-84010000D03*
X61640000Y-86550000D03*
X61640000Y-89090000D03*
X61640000Y-91630000D03*
X61640000Y-94170000D03*
X61640000Y-96710000D03*
%TD*%
D20*
%TO.C,J29*%
X60090000Y-114550000D03*
D21*
X60090000Y-112550000D03*
%TD*%
D13*
%TO.C,H3*%
X41740000Y-123930000D03*
%TD*%
M02*
