%TF.GenerationSoftware,KiCad,Pcbnew,9.0.6*%
%TF.CreationDate,2025-12-20T13:57:38-05:00*%
%TF.ProjectId,TinkerNav V24,54696e6b-6572-44e6-9176-205632342e6b,1*%
%TF.SameCoordinates,Original*%
%TF.FileFunction,Legend,Bot*%
%TF.FilePolarity,Positive*%
%FSLAX46Y46*%
G04 Gerber Fmt 4.6, Leading zero omitted, Abs format (unit mm)*
G04 Created by KiCad (PCBNEW 9.0.6) date 2025-12-20 13:57:38*
%MOMM*%
%LPD*%
G01*
G04 APERTURE LIST*
%ADD10C,0.150000*%
%ADD11C,0.000000*%
G04 APERTURE END LIST*
D10*
X44075000Y-83360000D02*
X59825000Y-83360000D01*
X59825000Y-99910000D01*
X44075000Y-99910000D01*
X44075000Y-83360000D01*
G36*
X44075000Y-83360000D02*
G01*
X59825000Y-83360000D01*
X59825000Y-99910000D01*
X44075000Y-99910000D01*
X44075000Y-83360000D01*
G37*
X57350476Y-110843236D02*
X56969524Y-110843236D01*
X57207619Y-110509903D02*
X57207619Y-111367045D01*
X57207619Y-111367045D02*
X57160000Y-111462284D01*
X57160000Y-111462284D02*
X57064762Y-111509903D01*
X57064762Y-111509903D02*
X56969524Y-111509903D01*
X56636190Y-111509903D02*
X56636190Y-110843236D01*
X56636190Y-110509903D02*
X56683809Y-110557522D01*
X56683809Y-110557522D02*
X56636190Y-110605141D01*
X56636190Y-110605141D02*
X56588571Y-110557522D01*
X56588571Y-110557522D02*
X56636190Y-110509903D01*
X56636190Y-110509903D02*
X56636190Y-110605141D01*
X56160000Y-110843236D02*
X56160000Y-111509903D01*
X56160000Y-110938474D02*
X56112381Y-110890855D01*
X56112381Y-110890855D02*
X56017143Y-110843236D01*
X56017143Y-110843236D02*
X55874286Y-110843236D01*
X55874286Y-110843236D02*
X55779048Y-110890855D01*
X55779048Y-110890855D02*
X55731429Y-110986093D01*
X55731429Y-110986093D02*
X55731429Y-111509903D01*
X55255238Y-111509903D02*
X55255238Y-110509903D01*
X55160000Y-111128950D02*
X54874286Y-111509903D01*
X54874286Y-110843236D02*
X55255238Y-111224188D01*
X54064762Y-111462284D02*
X54160000Y-111509903D01*
X54160000Y-111509903D02*
X54350476Y-111509903D01*
X54350476Y-111509903D02*
X54445714Y-111462284D01*
X54445714Y-111462284D02*
X54493333Y-111367045D01*
X54493333Y-111367045D02*
X54493333Y-110986093D01*
X54493333Y-110986093D02*
X54445714Y-110890855D01*
X54445714Y-110890855D02*
X54350476Y-110843236D01*
X54350476Y-110843236D02*
X54160000Y-110843236D01*
X54160000Y-110843236D02*
X54064762Y-110890855D01*
X54064762Y-110890855D02*
X54017143Y-110986093D01*
X54017143Y-110986093D02*
X54017143Y-111081331D01*
X54017143Y-111081331D02*
X54493333Y-111176569D01*
X53588571Y-111509903D02*
X53588571Y-110843236D01*
X53588571Y-111033712D02*
X53540952Y-110938474D01*
X53540952Y-110938474D02*
X53493333Y-110890855D01*
X53493333Y-110890855D02*
X53398095Y-110843236D01*
X53398095Y-110843236D02*
X53302857Y-110843236D01*
X52969523Y-111509903D02*
X52969523Y-110509903D01*
X52969523Y-110890855D02*
X52874285Y-110843236D01*
X52874285Y-110843236D02*
X52683809Y-110843236D01*
X52683809Y-110843236D02*
X52588571Y-110890855D01*
X52588571Y-110890855D02*
X52540952Y-110938474D01*
X52540952Y-110938474D02*
X52493333Y-111033712D01*
X52493333Y-111033712D02*
X52493333Y-111319426D01*
X52493333Y-111319426D02*
X52540952Y-111414664D01*
X52540952Y-111414664D02*
X52588571Y-111462284D01*
X52588571Y-111462284D02*
X52683809Y-111509903D01*
X52683809Y-111509903D02*
X52874285Y-111509903D01*
X52874285Y-111509903D02*
X52969523Y-111462284D01*
X51636190Y-110843236D02*
X51636190Y-111509903D01*
X52064761Y-110843236D02*
X52064761Y-111367045D01*
X52064761Y-111367045D02*
X52017142Y-111462284D01*
X52017142Y-111462284D02*
X51921904Y-111509903D01*
X51921904Y-111509903D02*
X51779047Y-111509903D01*
X51779047Y-111509903D02*
X51683809Y-111462284D01*
X51683809Y-111462284D02*
X51636190Y-111414664D01*
X50731428Y-110843236D02*
X50731428Y-111652760D01*
X50731428Y-111652760D02*
X50779047Y-111747998D01*
X50779047Y-111747998D02*
X50826666Y-111795617D01*
X50826666Y-111795617D02*
X50921904Y-111843236D01*
X50921904Y-111843236D02*
X51064761Y-111843236D01*
X51064761Y-111843236D02*
X51159999Y-111795617D01*
X50731428Y-111462284D02*
X50826666Y-111509903D01*
X50826666Y-111509903D02*
X51017142Y-111509903D01*
X51017142Y-111509903D02*
X51112380Y-111462284D01*
X51112380Y-111462284D02*
X51159999Y-111414664D01*
X51159999Y-111414664D02*
X51207618Y-111319426D01*
X51207618Y-111319426D02*
X51207618Y-111033712D01*
X51207618Y-111033712D02*
X51159999Y-110938474D01*
X51159999Y-110938474D02*
X51112380Y-110890855D01*
X51112380Y-110890855D02*
X51017142Y-110843236D01*
X51017142Y-110843236D02*
X50826666Y-110843236D01*
X50826666Y-110843236D02*
X50731428Y-110890855D01*
X50255237Y-111509903D02*
X50255237Y-110843236D01*
X50255237Y-111033712D02*
X50207618Y-110938474D01*
X50207618Y-110938474D02*
X50159999Y-110890855D01*
X50159999Y-110890855D02*
X50064761Y-110843236D01*
X50064761Y-110843236D02*
X49969523Y-110843236D01*
X49493332Y-111509903D02*
X49588570Y-111462284D01*
X49588570Y-111462284D02*
X49636189Y-111414664D01*
X49636189Y-111414664D02*
X49683808Y-111319426D01*
X49683808Y-111319426D02*
X49683808Y-111033712D01*
X49683808Y-111033712D02*
X49636189Y-110938474D01*
X49636189Y-110938474D02*
X49588570Y-110890855D01*
X49588570Y-110890855D02*
X49493332Y-110843236D01*
X49493332Y-110843236D02*
X49350475Y-110843236D01*
X49350475Y-110843236D02*
X49255237Y-110890855D01*
X49255237Y-110890855D02*
X49207618Y-110938474D01*
X49207618Y-110938474D02*
X49159999Y-111033712D01*
X49159999Y-111033712D02*
X49159999Y-111319426D01*
X49159999Y-111319426D02*
X49207618Y-111414664D01*
X49207618Y-111414664D02*
X49255237Y-111462284D01*
X49255237Y-111462284D02*
X49350475Y-111509903D01*
X49350475Y-111509903D02*
X49493332Y-111509903D01*
X48731427Y-111509903D02*
X48731427Y-110509903D01*
X48731427Y-110890855D02*
X48636189Y-110843236D01*
X48636189Y-110843236D02*
X48445713Y-110843236D01*
X48445713Y-110843236D02*
X48350475Y-110890855D01*
X48350475Y-110890855D02*
X48302856Y-110938474D01*
X48302856Y-110938474D02*
X48255237Y-111033712D01*
X48255237Y-111033712D02*
X48255237Y-111319426D01*
X48255237Y-111319426D02*
X48302856Y-111414664D01*
X48302856Y-111414664D02*
X48350475Y-111462284D01*
X48350475Y-111462284D02*
X48445713Y-111509903D01*
X48445713Y-111509903D02*
X48636189Y-111509903D01*
X48636189Y-111509903D02*
X48731427Y-111462284D01*
X47683808Y-111509903D02*
X47779046Y-111462284D01*
X47779046Y-111462284D02*
X47826665Y-111414664D01*
X47826665Y-111414664D02*
X47874284Y-111319426D01*
X47874284Y-111319426D02*
X47874284Y-111033712D01*
X47874284Y-111033712D02*
X47826665Y-110938474D01*
X47826665Y-110938474D02*
X47779046Y-110890855D01*
X47779046Y-110890855D02*
X47683808Y-110843236D01*
X47683808Y-110843236D02*
X47540951Y-110843236D01*
X47540951Y-110843236D02*
X47445713Y-110890855D01*
X47445713Y-110890855D02*
X47398094Y-110938474D01*
X47398094Y-110938474D02*
X47350475Y-111033712D01*
X47350475Y-111033712D02*
X47350475Y-111319426D01*
X47350475Y-111319426D02*
X47398094Y-111414664D01*
X47398094Y-111414664D02*
X47445713Y-111462284D01*
X47445713Y-111462284D02*
X47540951Y-111509903D01*
X47540951Y-111509903D02*
X47683808Y-111509903D01*
X47064760Y-110843236D02*
X46683808Y-110843236D01*
X46921903Y-110509903D02*
X46921903Y-111367045D01*
X46921903Y-111367045D02*
X46874284Y-111462284D01*
X46874284Y-111462284D02*
X46779046Y-111509903D01*
X46779046Y-111509903D02*
X46683808Y-111509903D01*
X46350474Y-111509903D02*
X46350474Y-110843236D01*
X46350474Y-110509903D02*
X46398093Y-110557522D01*
X46398093Y-110557522D02*
X46350474Y-110605141D01*
X46350474Y-110605141D02*
X46302855Y-110557522D01*
X46302855Y-110557522D02*
X46350474Y-110509903D01*
X46350474Y-110509903D02*
X46350474Y-110605141D01*
X45445713Y-111462284D02*
X45540951Y-111509903D01*
X45540951Y-111509903D02*
X45731427Y-111509903D01*
X45731427Y-111509903D02*
X45826665Y-111462284D01*
X45826665Y-111462284D02*
X45874284Y-111414664D01*
X45874284Y-111414664D02*
X45921903Y-111319426D01*
X45921903Y-111319426D02*
X45921903Y-111033712D01*
X45921903Y-111033712D02*
X45874284Y-110938474D01*
X45874284Y-110938474D02*
X45826665Y-110890855D01*
X45826665Y-110890855D02*
X45731427Y-110843236D01*
X45731427Y-110843236D02*
X45540951Y-110843236D01*
X45540951Y-110843236D02*
X45445713Y-110890855D01*
X45064760Y-111462284D02*
X44969522Y-111509903D01*
X44969522Y-111509903D02*
X44779046Y-111509903D01*
X44779046Y-111509903D02*
X44683808Y-111462284D01*
X44683808Y-111462284D02*
X44636189Y-111367045D01*
X44636189Y-111367045D02*
X44636189Y-111319426D01*
X44636189Y-111319426D02*
X44683808Y-111224188D01*
X44683808Y-111224188D02*
X44779046Y-111176569D01*
X44779046Y-111176569D02*
X44921903Y-111176569D01*
X44921903Y-111176569D02*
X45017141Y-111128950D01*
X45017141Y-111128950D02*
X45064760Y-111033712D01*
X45064760Y-111033712D02*
X45064760Y-110986093D01*
X45064760Y-110986093D02*
X45017141Y-110890855D01*
X45017141Y-110890855D02*
X44921903Y-110843236D01*
X44921903Y-110843236D02*
X44779046Y-110843236D01*
X44779046Y-110843236D02*
X44683808Y-110890855D01*
X44207617Y-111414664D02*
X44159998Y-111462284D01*
X44159998Y-111462284D02*
X44207617Y-111509903D01*
X44207617Y-111509903D02*
X44255236Y-111462284D01*
X44255236Y-111462284D02*
X44207617Y-111414664D01*
X44207617Y-111414664D02*
X44207617Y-111509903D01*
X43302856Y-111462284D02*
X43398094Y-111509903D01*
X43398094Y-111509903D02*
X43588570Y-111509903D01*
X43588570Y-111509903D02*
X43683808Y-111462284D01*
X43683808Y-111462284D02*
X43731427Y-111414664D01*
X43731427Y-111414664D02*
X43779046Y-111319426D01*
X43779046Y-111319426D02*
X43779046Y-111033712D01*
X43779046Y-111033712D02*
X43731427Y-110938474D01*
X43731427Y-110938474D02*
X43683808Y-110890855D01*
X43683808Y-110890855D02*
X43588570Y-110843236D01*
X43588570Y-110843236D02*
X43398094Y-110843236D01*
X43398094Y-110843236D02*
X43302856Y-110890855D01*
X42731427Y-111509903D02*
X42826665Y-111462284D01*
X42826665Y-111462284D02*
X42874284Y-111414664D01*
X42874284Y-111414664D02*
X42921903Y-111319426D01*
X42921903Y-111319426D02*
X42921903Y-111033712D01*
X42921903Y-111033712D02*
X42874284Y-110938474D01*
X42874284Y-110938474D02*
X42826665Y-110890855D01*
X42826665Y-110890855D02*
X42731427Y-110843236D01*
X42731427Y-110843236D02*
X42588570Y-110843236D01*
X42588570Y-110843236D02*
X42493332Y-110890855D01*
X42493332Y-110890855D02*
X42445713Y-110938474D01*
X42445713Y-110938474D02*
X42398094Y-111033712D01*
X42398094Y-111033712D02*
X42398094Y-111319426D01*
X42398094Y-111319426D02*
X42445713Y-111414664D01*
X42445713Y-111414664D02*
X42493332Y-111462284D01*
X42493332Y-111462284D02*
X42588570Y-111509903D01*
X42588570Y-111509903D02*
X42731427Y-111509903D01*
X41969522Y-111509903D02*
X41969522Y-110843236D01*
X41969522Y-110938474D02*
X41921903Y-110890855D01*
X41921903Y-110890855D02*
X41826665Y-110843236D01*
X41826665Y-110843236D02*
X41683808Y-110843236D01*
X41683808Y-110843236D02*
X41588570Y-110890855D01*
X41588570Y-110890855D02*
X41540951Y-110986093D01*
X41540951Y-110986093D02*
X41540951Y-111509903D01*
X41540951Y-110986093D02*
X41493332Y-110890855D01*
X41493332Y-110890855D02*
X41398094Y-110843236D01*
X41398094Y-110843236D02*
X41255237Y-110843236D01*
X41255237Y-110843236D02*
X41159998Y-110890855D01*
X41159998Y-110890855D02*
X41112379Y-110986093D01*
X41112379Y-110986093D02*
X41112379Y-111509903D01*
X52636190Y-112119847D02*
X52064762Y-112119847D01*
X52350476Y-113119847D02*
X52350476Y-112119847D01*
X51731428Y-113119847D02*
X51731428Y-112453180D01*
X51731428Y-112119847D02*
X51779047Y-112167466D01*
X51779047Y-112167466D02*
X51731428Y-112215085D01*
X51731428Y-112215085D02*
X51683809Y-112167466D01*
X51683809Y-112167466D02*
X51731428Y-112119847D01*
X51731428Y-112119847D02*
X51731428Y-112215085D01*
X51255238Y-112453180D02*
X51255238Y-113119847D01*
X51255238Y-112548418D02*
X51207619Y-112500799D01*
X51207619Y-112500799D02*
X51112381Y-112453180D01*
X51112381Y-112453180D02*
X50969524Y-112453180D01*
X50969524Y-112453180D02*
X50874286Y-112500799D01*
X50874286Y-112500799D02*
X50826667Y-112596037D01*
X50826667Y-112596037D02*
X50826667Y-113119847D01*
X50350476Y-113119847D02*
X50350476Y-112119847D01*
X50255238Y-112738894D02*
X49969524Y-113119847D01*
X49969524Y-112453180D02*
X50350476Y-112834132D01*
X49160000Y-113072228D02*
X49255238Y-113119847D01*
X49255238Y-113119847D02*
X49445714Y-113119847D01*
X49445714Y-113119847D02*
X49540952Y-113072228D01*
X49540952Y-113072228D02*
X49588571Y-112976989D01*
X49588571Y-112976989D02*
X49588571Y-112596037D01*
X49588571Y-112596037D02*
X49540952Y-112500799D01*
X49540952Y-112500799D02*
X49445714Y-112453180D01*
X49445714Y-112453180D02*
X49255238Y-112453180D01*
X49255238Y-112453180D02*
X49160000Y-112500799D01*
X49160000Y-112500799D02*
X49112381Y-112596037D01*
X49112381Y-112596037D02*
X49112381Y-112691275D01*
X49112381Y-112691275D02*
X49588571Y-112786513D01*
X48683809Y-113119847D02*
X48683809Y-112453180D01*
X48683809Y-112643656D02*
X48636190Y-112548418D01*
X48636190Y-112548418D02*
X48588571Y-112500799D01*
X48588571Y-112500799D02*
X48493333Y-112453180D01*
X48493333Y-112453180D02*
X48398095Y-112453180D01*
X48064761Y-113119847D02*
X48064761Y-112119847D01*
X48064761Y-112119847D02*
X47493333Y-113119847D01*
X47493333Y-113119847D02*
X47493333Y-112119847D01*
X46588571Y-113119847D02*
X46588571Y-112596037D01*
X46588571Y-112596037D02*
X46636190Y-112500799D01*
X46636190Y-112500799D02*
X46731428Y-112453180D01*
X46731428Y-112453180D02*
X46921904Y-112453180D01*
X46921904Y-112453180D02*
X47017142Y-112500799D01*
X46588571Y-113072228D02*
X46683809Y-113119847D01*
X46683809Y-113119847D02*
X46921904Y-113119847D01*
X46921904Y-113119847D02*
X47017142Y-113072228D01*
X47017142Y-113072228D02*
X47064761Y-112976989D01*
X47064761Y-112976989D02*
X47064761Y-112881751D01*
X47064761Y-112881751D02*
X47017142Y-112786513D01*
X47017142Y-112786513D02*
X46921904Y-112738894D01*
X46921904Y-112738894D02*
X46683809Y-112738894D01*
X46683809Y-112738894D02*
X46588571Y-112691275D01*
X46207618Y-112453180D02*
X45969523Y-113119847D01*
X45969523Y-113119847D02*
X45731428Y-112453180D01*
X54445715Y-114729791D02*
X54779048Y-114253600D01*
X55017143Y-114729791D02*
X55017143Y-113729791D01*
X55017143Y-113729791D02*
X54636191Y-113729791D01*
X54636191Y-113729791D02*
X54540953Y-113777410D01*
X54540953Y-113777410D02*
X54493334Y-113825029D01*
X54493334Y-113825029D02*
X54445715Y-113920267D01*
X54445715Y-113920267D02*
X54445715Y-114063124D01*
X54445715Y-114063124D02*
X54493334Y-114158362D01*
X54493334Y-114158362D02*
X54540953Y-114205981D01*
X54540953Y-114205981D02*
X54636191Y-114253600D01*
X54636191Y-114253600D02*
X55017143Y-114253600D01*
X54160000Y-113729791D02*
X53588572Y-113729791D01*
X53874286Y-114729791D02*
X53874286Y-113729791D01*
X53255238Y-114729791D02*
X53255238Y-113729791D01*
X52683810Y-114729791D02*
X53112381Y-114158362D01*
X52683810Y-113729791D02*
X53255238Y-114301219D01*
X51160000Y-114205981D02*
X51017143Y-114253600D01*
X51017143Y-114253600D02*
X50969524Y-114301219D01*
X50969524Y-114301219D02*
X50921905Y-114396457D01*
X50921905Y-114396457D02*
X50921905Y-114539314D01*
X50921905Y-114539314D02*
X50969524Y-114634552D01*
X50969524Y-114634552D02*
X51017143Y-114682172D01*
X51017143Y-114682172D02*
X51112381Y-114729791D01*
X51112381Y-114729791D02*
X51493333Y-114729791D01*
X51493333Y-114729791D02*
X51493333Y-113729791D01*
X51493333Y-113729791D02*
X51160000Y-113729791D01*
X51160000Y-113729791D02*
X51064762Y-113777410D01*
X51064762Y-113777410D02*
X51017143Y-113825029D01*
X51017143Y-113825029D02*
X50969524Y-113920267D01*
X50969524Y-113920267D02*
X50969524Y-114015505D01*
X50969524Y-114015505D02*
X51017143Y-114110743D01*
X51017143Y-114110743D02*
X51064762Y-114158362D01*
X51064762Y-114158362D02*
X51160000Y-114205981D01*
X51160000Y-114205981D02*
X51493333Y-114205981D01*
X50064762Y-114729791D02*
X50064762Y-114205981D01*
X50064762Y-114205981D02*
X50112381Y-114110743D01*
X50112381Y-114110743D02*
X50207619Y-114063124D01*
X50207619Y-114063124D02*
X50398095Y-114063124D01*
X50398095Y-114063124D02*
X50493333Y-114110743D01*
X50064762Y-114682172D02*
X50160000Y-114729791D01*
X50160000Y-114729791D02*
X50398095Y-114729791D01*
X50398095Y-114729791D02*
X50493333Y-114682172D01*
X50493333Y-114682172D02*
X50540952Y-114586933D01*
X50540952Y-114586933D02*
X50540952Y-114491695D01*
X50540952Y-114491695D02*
X50493333Y-114396457D01*
X50493333Y-114396457D02*
X50398095Y-114348838D01*
X50398095Y-114348838D02*
X50160000Y-114348838D01*
X50160000Y-114348838D02*
X50064762Y-114301219D01*
X49636190Y-114682172D02*
X49540952Y-114729791D01*
X49540952Y-114729791D02*
X49350476Y-114729791D01*
X49350476Y-114729791D02*
X49255238Y-114682172D01*
X49255238Y-114682172D02*
X49207619Y-114586933D01*
X49207619Y-114586933D02*
X49207619Y-114539314D01*
X49207619Y-114539314D02*
X49255238Y-114444076D01*
X49255238Y-114444076D02*
X49350476Y-114396457D01*
X49350476Y-114396457D02*
X49493333Y-114396457D01*
X49493333Y-114396457D02*
X49588571Y-114348838D01*
X49588571Y-114348838D02*
X49636190Y-114253600D01*
X49636190Y-114253600D02*
X49636190Y-114205981D01*
X49636190Y-114205981D02*
X49588571Y-114110743D01*
X49588571Y-114110743D02*
X49493333Y-114063124D01*
X49493333Y-114063124D02*
X49350476Y-114063124D01*
X49350476Y-114063124D02*
X49255238Y-114110743D01*
X48398095Y-114682172D02*
X48493333Y-114729791D01*
X48493333Y-114729791D02*
X48683809Y-114729791D01*
X48683809Y-114729791D02*
X48779047Y-114682172D01*
X48779047Y-114682172D02*
X48826666Y-114586933D01*
X48826666Y-114586933D02*
X48826666Y-114205981D01*
X48826666Y-114205981D02*
X48779047Y-114110743D01*
X48779047Y-114110743D02*
X48683809Y-114063124D01*
X48683809Y-114063124D02*
X48493333Y-114063124D01*
X48493333Y-114063124D02*
X48398095Y-114110743D01*
X48398095Y-114110743D02*
X48350476Y-114205981D01*
X48350476Y-114205981D02*
X48350476Y-114301219D01*
X48350476Y-114301219D02*
X48826666Y-114396457D01*
X46826666Y-114205981D02*
X46683809Y-114253600D01*
X46683809Y-114253600D02*
X46636190Y-114301219D01*
X46636190Y-114301219D02*
X46588571Y-114396457D01*
X46588571Y-114396457D02*
X46588571Y-114539314D01*
X46588571Y-114539314D02*
X46636190Y-114634552D01*
X46636190Y-114634552D02*
X46683809Y-114682172D01*
X46683809Y-114682172D02*
X46779047Y-114729791D01*
X46779047Y-114729791D02*
X47159999Y-114729791D01*
X47159999Y-114729791D02*
X47159999Y-113729791D01*
X47159999Y-113729791D02*
X46826666Y-113729791D01*
X46826666Y-113729791D02*
X46731428Y-113777410D01*
X46731428Y-113777410D02*
X46683809Y-113825029D01*
X46683809Y-113825029D02*
X46636190Y-113920267D01*
X46636190Y-113920267D02*
X46636190Y-114015505D01*
X46636190Y-114015505D02*
X46683809Y-114110743D01*
X46683809Y-114110743D02*
X46731428Y-114158362D01*
X46731428Y-114158362D02*
X46826666Y-114205981D01*
X46826666Y-114205981D02*
X47159999Y-114205981D01*
X46017142Y-114729791D02*
X46112380Y-114682172D01*
X46112380Y-114682172D02*
X46159999Y-114634552D01*
X46159999Y-114634552D02*
X46207618Y-114539314D01*
X46207618Y-114539314D02*
X46207618Y-114253600D01*
X46207618Y-114253600D02*
X46159999Y-114158362D01*
X46159999Y-114158362D02*
X46112380Y-114110743D01*
X46112380Y-114110743D02*
X46017142Y-114063124D01*
X46017142Y-114063124D02*
X45874285Y-114063124D01*
X45874285Y-114063124D02*
X45779047Y-114110743D01*
X45779047Y-114110743D02*
X45731428Y-114158362D01*
X45731428Y-114158362D02*
X45683809Y-114253600D01*
X45683809Y-114253600D02*
X45683809Y-114539314D01*
X45683809Y-114539314D02*
X45731428Y-114634552D01*
X45731428Y-114634552D02*
X45779047Y-114682172D01*
X45779047Y-114682172D02*
X45874285Y-114729791D01*
X45874285Y-114729791D02*
X46017142Y-114729791D01*
X44826666Y-114729791D02*
X44826666Y-114205981D01*
X44826666Y-114205981D02*
X44874285Y-114110743D01*
X44874285Y-114110743D02*
X44969523Y-114063124D01*
X44969523Y-114063124D02*
X45159999Y-114063124D01*
X45159999Y-114063124D02*
X45255237Y-114110743D01*
X44826666Y-114682172D02*
X44921904Y-114729791D01*
X44921904Y-114729791D02*
X45159999Y-114729791D01*
X45159999Y-114729791D02*
X45255237Y-114682172D01*
X45255237Y-114682172D02*
X45302856Y-114586933D01*
X45302856Y-114586933D02*
X45302856Y-114491695D01*
X45302856Y-114491695D02*
X45255237Y-114396457D01*
X45255237Y-114396457D02*
X45159999Y-114348838D01*
X45159999Y-114348838D02*
X44921904Y-114348838D01*
X44921904Y-114348838D02*
X44826666Y-114301219D01*
X44350475Y-114729791D02*
X44350475Y-114063124D01*
X44350475Y-114253600D02*
X44302856Y-114158362D01*
X44302856Y-114158362D02*
X44255237Y-114110743D01*
X44255237Y-114110743D02*
X44159999Y-114063124D01*
X44159999Y-114063124D02*
X44064761Y-114063124D01*
X43302856Y-114729791D02*
X43302856Y-113729791D01*
X43302856Y-114682172D02*
X43398094Y-114729791D01*
X43398094Y-114729791D02*
X43588570Y-114729791D01*
X43588570Y-114729791D02*
X43683808Y-114682172D01*
X43683808Y-114682172D02*
X43731427Y-114634552D01*
X43731427Y-114634552D02*
X43779046Y-114539314D01*
X43779046Y-114539314D02*
X43779046Y-114253600D01*
X43779046Y-114253600D02*
X43731427Y-114158362D01*
X43731427Y-114158362D02*
X43683808Y-114110743D01*
X43683808Y-114110743D02*
X43588570Y-114063124D01*
X43588570Y-114063124D02*
X43398094Y-114063124D01*
X43398094Y-114063124D02*
X43302856Y-114110743D01*
X50683808Y-115339735D02*
X50350475Y-116339735D01*
X50350475Y-116339735D02*
X50017142Y-115339735D01*
X49159999Y-116339735D02*
X49731427Y-116339735D01*
X49445713Y-116339735D02*
X49445713Y-115339735D01*
X49445713Y-115339735D02*
X49540951Y-115482592D01*
X49540951Y-115482592D02*
X49636189Y-115577830D01*
X49636189Y-115577830D02*
X49731427Y-115625449D01*
X48731427Y-116244496D02*
X48683808Y-116292116D01*
X48683808Y-116292116D02*
X48731427Y-116339735D01*
X48731427Y-116339735D02*
X48779046Y-116292116D01*
X48779046Y-116292116D02*
X48731427Y-116244496D01*
X48731427Y-116244496D02*
X48731427Y-116339735D01*
X48064761Y-115339735D02*
X47969523Y-115339735D01*
X47969523Y-115339735D02*
X47874285Y-115387354D01*
X47874285Y-115387354D02*
X47826666Y-115434973D01*
X47826666Y-115434973D02*
X47779047Y-115530211D01*
X47779047Y-115530211D02*
X47731428Y-115720687D01*
X47731428Y-115720687D02*
X47731428Y-115958782D01*
X47731428Y-115958782D02*
X47779047Y-116149258D01*
X47779047Y-116149258D02*
X47826666Y-116244496D01*
X47826666Y-116244496D02*
X47874285Y-116292116D01*
X47874285Y-116292116D02*
X47969523Y-116339735D01*
X47969523Y-116339735D02*
X48064761Y-116339735D01*
X48064761Y-116339735D02*
X48159999Y-116292116D01*
X48159999Y-116292116D02*
X48207618Y-116244496D01*
X48207618Y-116244496D02*
X48255237Y-116149258D01*
X48255237Y-116149258D02*
X48302856Y-115958782D01*
X48302856Y-115958782D02*
X48302856Y-115720687D01*
X48302856Y-115720687D02*
X48255237Y-115530211D01*
X48255237Y-115530211D02*
X48207618Y-115434973D01*
X48207618Y-115434973D02*
X48159999Y-115387354D01*
X48159999Y-115387354D02*
X48064761Y-115339735D01*
D11*
%TO.C,G\u002A\u002A\u002A*%
G36*
X53370817Y-68348952D02*
G01*
X53345720Y-68428445D01*
X53295886Y-68496735D01*
X53223174Y-68549815D01*
X53146910Y-68575962D01*
X53069518Y-68577448D01*
X52995921Y-68557147D01*
X52930297Y-68518326D01*
X52876823Y-68464252D01*
X52839679Y-68398193D01*
X52823041Y-68323417D01*
X52824847Y-68305409D01*
X53028646Y-68305409D01*
X53042817Y-68346344D01*
X53050722Y-68355860D01*
X53085875Y-68374511D01*
X53124455Y-68369414D01*
X53156875Y-68341015D01*
X53168271Y-68312450D01*
X53163429Y-68275722D01*
X53140393Y-68247895D01*
X53105343Y-68235411D01*
X53064460Y-68244710D01*
X53039510Y-68267020D01*
X53028646Y-68305409D01*
X52824847Y-68305409D01*
X52831089Y-68243190D01*
X52843508Y-68205704D01*
X52885198Y-68133508D01*
X52941602Y-68080412D01*
X53008160Y-68046413D01*
X53080312Y-68031511D01*
X53153500Y-68035703D01*
X53223164Y-68058988D01*
X53284744Y-68101364D01*
X53333682Y-68162830D01*
X53365417Y-68243384D01*
X53369317Y-68262263D01*
X53370185Y-68312450D01*
X53370817Y-68348952D01*
G37*
G36*
X51498948Y-68315181D02*
G01*
X51497449Y-68336033D01*
X51477618Y-68400722D01*
X51439492Y-68465238D01*
X51389130Y-68520727D01*
X51332590Y-68558334D01*
X51323470Y-68562107D01*
X51250442Y-68576899D01*
X51170346Y-68571928D01*
X51093761Y-68548907D01*
X51031266Y-68509549D01*
X51021383Y-68500050D01*
X50976502Y-68435374D01*
X50953150Y-68359696D01*
X50952193Y-68326788D01*
X51153422Y-68326788D01*
X51169046Y-68358859D01*
X51170493Y-68360258D01*
X51205381Y-68375699D01*
X51244102Y-68368338D01*
X51276029Y-68340044D01*
X51288866Y-68318278D01*
X51291342Y-68296006D01*
X51276029Y-68267679D01*
X51256372Y-68244558D01*
X51222821Y-68232512D01*
X51179673Y-68246479D01*
X51168900Y-68255142D01*
X51153800Y-68287703D01*
X51153422Y-68326788D01*
X50952193Y-68326788D01*
X50950820Y-68279559D01*
X50969001Y-68201502D01*
X51007184Y-68132069D01*
X51064862Y-68077799D01*
X51097332Y-68059228D01*
X51176250Y-68034729D01*
X51255610Y-68034753D01*
X51330838Y-68056799D01*
X51397360Y-68098367D01*
X51450601Y-68156954D01*
X51485989Y-68230059D01*
X51496029Y-68296006D01*
X51498948Y-68315181D01*
G37*
G36*
X52565216Y-70177856D02*
G01*
X52555501Y-70234206D01*
X52526961Y-70284220D01*
X52484716Y-70317243D01*
X52439769Y-70337139D01*
X52439769Y-72483681D01*
X52489541Y-72513047D01*
X52494788Y-72516264D01*
X52540472Y-72559888D01*
X52562508Y-72613239D01*
X52561573Y-72647345D01*
X52560952Y-72670003D01*
X52535861Y-72723865D01*
X52487289Y-72768512D01*
X52440884Y-72797708D01*
X52440327Y-74536322D01*
X52439769Y-76274937D01*
X52482173Y-76292501D01*
X52511936Y-76309823D01*
X52546777Y-76352156D01*
X52562281Y-76404696D01*
X52560925Y-76423178D01*
X52558213Y-76460131D01*
X52534339Y-76511146D01*
X52490425Y-76550427D01*
X52458854Y-76562619D01*
X52399059Y-76565120D01*
X52338946Y-76546450D01*
X52320551Y-76534445D01*
X52287741Y-76492434D01*
X52273271Y-76439664D01*
X52273846Y-76431412D01*
X52324898Y-76431412D01*
X52338913Y-76462979D01*
X52338975Y-76463089D01*
X52370602Y-76495416D01*
X52412848Y-76509481D01*
X52455675Y-76504239D01*
X52489049Y-76478641D01*
X52504218Y-76451409D01*
X52512134Y-76423178D01*
X52506415Y-76400225D01*
X52489049Y-76367715D01*
X52488982Y-76367618D01*
X52455569Y-76342077D01*
X52412729Y-76336887D01*
X52370499Y-76351003D01*
X52338913Y-76383377D01*
X52327804Y-76405649D01*
X52324898Y-76431412D01*
X52273846Y-76431412D01*
X52277118Y-76384407D01*
X52299257Y-76334939D01*
X52339664Y-76299535D01*
X52381878Y-76277705D01*
X52381877Y-74537707D01*
X52381877Y-72797708D01*
X52331857Y-72757797D01*
X52327349Y-72754068D01*
X52289249Y-72706098D01*
X52276147Y-72662799D01*
X52327434Y-72662799D01*
X52352932Y-72703634D01*
X52380623Y-72722514D01*
X52418060Y-72732580D01*
X52429181Y-72731592D01*
X52468476Y-72714546D01*
X52499522Y-72683388D01*
X52512134Y-72647345D01*
X52500401Y-72604218D01*
X52470047Y-72573247D01*
X52429363Y-72558123D01*
X52386645Y-72561903D01*
X52350188Y-72587645D01*
X52330708Y-72619653D01*
X52327434Y-72662799D01*
X52276147Y-72662799D01*
X52272525Y-72650830D01*
X52276756Y-72595394D01*
X52301519Y-72546919D01*
X52346391Y-72512535D01*
X52381878Y-72496367D01*
X52381878Y-70336314D01*
X52340335Y-70311774D01*
X52302314Y-70280377D01*
X52275443Y-70231981D01*
X52271378Y-70193575D01*
X52324898Y-70193575D01*
X52338913Y-70225144D01*
X52338975Y-70225254D01*
X52370602Y-70257581D01*
X52412848Y-70271647D01*
X52455675Y-70266404D01*
X52489049Y-70240806D01*
X52506280Y-70208879D01*
X52508315Y-70166578D01*
X52482335Y-70126598D01*
X52461149Y-70110733D01*
X52416143Y-70099711D01*
X52372159Y-70111742D01*
X52338910Y-70145543D01*
X52327805Y-70167809D01*
X52324898Y-70193575D01*
X52271378Y-70193575D01*
X52269836Y-70179003D01*
X52283665Y-70127409D01*
X52315099Y-70083168D01*
X52362310Y-70052247D01*
X52423467Y-70040614D01*
X52451754Y-70045263D01*
X52499862Y-70070313D01*
X52540163Y-70109767D01*
X52562546Y-70155289D01*
X52563882Y-70166578D01*
X52565216Y-70177856D01*
G37*
G36*
X51990880Y-70249523D02*
G01*
X51960041Y-70295897D01*
X51918366Y-70322956D01*
X51914297Y-70324518D01*
X51909490Y-70328230D01*
X51905357Y-70335586D01*
X51901846Y-70348532D01*
X51898908Y-70369014D01*
X51896490Y-70398979D01*
X51894543Y-70440372D01*
X51893016Y-70495141D01*
X51891857Y-70565231D01*
X51891016Y-70652589D01*
X51890442Y-70759161D01*
X51890084Y-70886894D01*
X51889891Y-71037733D01*
X51889813Y-71213626D01*
X51889798Y-71416518D01*
X51889866Y-71611694D01*
X51890108Y-71794766D01*
X51890556Y-71952221D01*
X51891239Y-72085785D01*
X51892187Y-72197180D01*
X51893432Y-72288130D01*
X51895002Y-72360360D01*
X51896928Y-72415591D01*
X51899241Y-72455548D01*
X51901970Y-72481955D01*
X51905146Y-72496536D01*
X51908799Y-72501013D01*
X51912532Y-72501586D01*
X51936949Y-72515314D01*
X51966691Y-72541605D01*
X51978292Y-72555386D01*
X52002321Y-72607758D01*
X52003749Y-72637693D01*
X52005008Y-72664098D01*
X51988260Y-72717041D01*
X51953987Y-72759221D01*
X51904094Y-72783274D01*
X51860852Y-72792771D01*
X51860852Y-76554151D01*
X51895574Y-76567352D01*
X51937662Y-76594648D01*
X51967105Y-76640435D01*
X51977214Y-76695131D01*
X51976418Y-76699373D01*
X51966713Y-76751071D01*
X51934330Y-76800588D01*
X51920091Y-76813889D01*
X51881254Y-76836791D01*
X51831906Y-76842893D01*
X51788600Y-76837061D01*
X51735479Y-76809078D01*
X51700059Y-76762222D01*
X51692083Y-76724460D01*
X51748275Y-76724460D01*
X51767812Y-76762258D01*
X51793200Y-76777279D01*
X51831906Y-76785001D01*
X51873035Y-76776595D01*
X51906585Y-76746729D01*
X51918744Y-76699373D01*
X51912196Y-76666287D01*
X51886255Y-76632097D01*
X51848228Y-76613681D01*
X51806390Y-76614445D01*
X51769021Y-76637793D01*
X51768580Y-76638285D01*
X51748573Y-76678777D01*
X51748275Y-76724460D01*
X51692083Y-76724460D01*
X51687177Y-76701229D01*
X51687561Y-76690503D01*
X51701878Y-76633984D01*
X51732717Y-76587610D01*
X51774392Y-76560551D01*
X51776756Y-76559705D01*
X51780637Y-76557238D01*
X51784115Y-76552285D01*
X51787211Y-76543376D01*
X51789948Y-76529041D01*
X51792348Y-76507809D01*
X51794434Y-76478212D01*
X51796226Y-76438778D01*
X51797748Y-76388038D01*
X51799022Y-76324523D01*
X51800069Y-76246761D01*
X51800912Y-76153283D01*
X51801573Y-76042619D01*
X51802074Y-75913300D01*
X51802437Y-75763854D01*
X51802684Y-75592812D01*
X51802838Y-75398705D01*
X51802921Y-75180062D01*
X51802954Y-74935412D01*
X51802960Y-74663287D01*
X51802953Y-74516259D01*
X51802896Y-74256552D01*
X51802766Y-74023607D01*
X51802548Y-73815992D01*
X51802223Y-73632275D01*
X51801776Y-73471021D01*
X51801189Y-73330799D01*
X51800445Y-73210174D01*
X51799529Y-73107715D01*
X51798422Y-73021987D01*
X51797109Y-72951558D01*
X51795572Y-72894995D01*
X51793795Y-72850865D01*
X51791761Y-72817735D01*
X51789453Y-72794172D01*
X51786853Y-72778743D01*
X51783947Y-72770015D01*
X51780716Y-72766554D01*
X51768080Y-72758676D01*
X51742791Y-72726072D01*
X51723684Y-72680822D01*
X51721985Y-72670286D01*
X51776992Y-72670286D01*
X51800482Y-72708627D01*
X51824842Y-72724531D01*
X51868472Y-72731255D01*
X51909292Y-72716578D01*
X51939504Y-72684168D01*
X51951308Y-72637693D01*
X51950414Y-72624223D01*
X51933027Y-72582650D01*
X51899197Y-72558144D01*
X51856490Y-72554165D01*
X51812471Y-72574174D01*
X51800944Y-72584671D01*
X51777416Y-72625948D01*
X51776992Y-72670286D01*
X51721985Y-72670286D01*
X51716123Y-72633940D01*
X51716893Y-72622637D01*
X51733276Y-72575195D01*
X51764815Y-72533096D01*
X51803338Y-72508129D01*
X51807286Y-72506628D01*
X51812117Y-72502976D01*
X51816270Y-72495723D01*
X51819797Y-72482920D01*
X51822748Y-72462618D01*
X51825175Y-72432866D01*
X51827128Y-72391715D01*
X51828659Y-72337216D01*
X51829817Y-72267418D01*
X51830655Y-72180372D01*
X51831223Y-72074129D01*
X51831572Y-71946738D01*
X51831753Y-71796250D01*
X51831817Y-71620716D01*
X51831815Y-71418186D01*
X51831723Y-70337309D01*
X51788265Y-70312579D01*
X51748562Y-70278391D01*
X51723144Y-70223447D01*
X51721971Y-70168955D01*
X51776633Y-70168955D01*
X51777434Y-70211001D01*
X51800482Y-70248228D01*
X51830990Y-70265242D01*
X51875189Y-70271635D01*
X51912959Y-70261105D01*
X51937837Y-70235668D01*
X51952982Y-70193811D01*
X51946032Y-70152779D01*
X51932107Y-70129868D01*
X51902843Y-70105473D01*
X51859477Y-70098727D01*
X51828188Y-70104841D01*
X51794683Y-70130699D01*
X51776633Y-70168955D01*
X51721971Y-70168955D01*
X51721701Y-70156397D01*
X51738915Y-70106174D01*
X51773948Y-70067226D01*
X51819922Y-70045789D01*
X51870886Y-70041321D01*
X51920886Y-70053278D01*
X51963970Y-70081119D01*
X51994186Y-70124299D01*
X52005581Y-70182278D01*
X52005197Y-70193005D01*
X52004993Y-70193811D01*
X51990880Y-70249523D01*
G37*
G36*
X54971905Y-69767810D02*
G01*
X55063995Y-69785158D01*
X55146695Y-69809916D01*
X55225398Y-69842954D01*
X55293197Y-69879591D01*
X55413680Y-69965852D01*
X55524662Y-70072007D01*
X55620390Y-70192206D01*
X55695113Y-70320602D01*
X55710738Y-70355513D01*
X55745830Y-70448250D01*
X55777988Y-70551005D01*
X55803683Y-70651905D01*
X55819392Y-70739080D01*
X55829771Y-70822152D01*
X57971704Y-70822152D01*
X58487474Y-70312553D01*
X58578539Y-70222574D01*
X58690432Y-70112007D01*
X58801056Y-70002687D01*
X58907189Y-69897795D01*
X59005612Y-69800516D01*
X59093104Y-69714031D01*
X59166445Y-69641524D01*
X59222414Y-69586178D01*
X59242677Y-69566226D01*
X59308526Y-69502607D01*
X59368329Y-69446611D01*
X59418508Y-69401477D01*
X59455488Y-69370445D01*
X59475691Y-69356755D01*
X59528266Y-69348508D01*
X59584064Y-69362702D01*
X59631298Y-69397137D01*
X59664009Y-69447297D01*
X59676237Y-69508670D01*
X59676506Y-69517083D01*
X59676980Y-69526514D01*
X59676464Y-69535680D01*
X59673732Y-69545869D01*
X59667559Y-69558368D01*
X59656718Y-69574464D01*
X59639985Y-69595445D01*
X59616133Y-69622598D01*
X59583937Y-69657211D01*
X59542171Y-69700572D01*
X59489609Y-69753967D01*
X59425027Y-69818684D01*
X59347198Y-69896011D01*
X59254896Y-69987234D01*
X59146897Y-70093642D01*
X59021973Y-70216522D01*
X58878901Y-70357161D01*
X58716453Y-70516847D01*
X58096784Y-71126084D01*
X55826436Y-71126084D01*
X55826436Y-74064090D01*
X57773337Y-74064090D01*
X58634331Y-74861451D01*
X58682058Y-74905652D01*
X58816299Y-75029984D01*
X58945400Y-75149570D01*
X59067574Y-75262753D01*
X59181031Y-75367875D01*
X59283983Y-75463277D01*
X59374640Y-75547303D01*
X59451213Y-75618295D01*
X59511915Y-75674593D01*
X59554955Y-75714542D01*
X59578544Y-75736482D01*
X59599277Y-75756010D01*
X59633401Y-75790841D01*
X59652175Y-75817790D01*
X59660120Y-75844611D01*
X59661764Y-75879054D01*
X59654817Y-75928807D01*
X59626775Y-75983015D01*
X59582082Y-76020045D01*
X59525985Y-76035978D01*
X59463732Y-76026897D01*
X59462456Y-76026320D01*
X59441604Y-76011180D01*
X59401240Y-75977637D01*
X59342750Y-75926939D01*
X59267519Y-75860334D01*
X59176933Y-75779072D01*
X59072378Y-75684401D01*
X58955240Y-75577570D01*
X58826905Y-75459826D01*
X58688757Y-75332419D01*
X58542184Y-75196597D01*
X57665623Y-74382494D01*
X55826436Y-74382494D01*
X55826436Y-78015201D01*
X57744100Y-78017055D01*
X58669832Y-78877338D01*
X58785638Y-78985043D01*
X58919275Y-79109553D01*
X59045633Y-79227517D01*
X59163160Y-79337479D01*
X59270308Y-79437977D01*
X59365526Y-79527554D01*
X59447263Y-79604751D01*
X59513969Y-79668109D01*
X59564095Y-79716170D01*
X59596089Y-79747473D01*
X59608402Y-79760561D01*
X59611968Y-79767978D01*
X59620736Y-79815089D01*
X59615698Y-79868908D01*
X59597880Y-79914461D01*
X59569812Y-79945634D01*
X59515890Y-79974863D01*
X59455017Y-79982680D01*
X59396681Y-79966624D01*
X59383199Y-79957478D01*
X59349501Y-79929960D01*
X59305267Y-79890681D01*
X59256521Y-79844875D01*
X59238006Y-79827209D01*
X59195301Y-79786964D01*
X59134786Y-79730269D01*
X59058466Y-79658989D01*
X58968346Y-79574991D01*
X58866430Y-79480143D01*
X58754723Y-79376311D01*
X58635231Y-79265362D01*
X58509958Y-79149162D01*
X58380909Y-79029580D01*
X57613843Y-78319137D01*
X56721851Y-78319135D01*
X55829859Y-78319132D01*
X55822528Y-78503662D01*
X55817976Y-78578424D01*
X55809836Y-78644773D01*
X55794920Y-78766349D01*
X55755374Y-78969934D01*
X55700508Y-79184367D01*
X55679146Y-79252607D01*
X55631492Y-79404837D01*
X55549497Y-79626532D01*
X55512282Y-79718744D01*
X55473784Y-79810155D01*
X55438721Y-79886934D01*
X55403564Y-79955939D01*
X55364786Y-80024027D01*
X55318859Y-80098057D01*
X55262253Y-80184887D01*
X55153711Y-80344413D01*
X55010627Y-80538768D01*
X54964199Y-80595476D01*
X54867333Y-80713790D01*
X54719454Y-80874447D01*
X54562617Y-81025705D01*
X54392446Y-81172532D01*
X54335511Y-81218813D01*
X54240746Y-81293009D01*
X54154470Y-81355677D01*
X54068562Y-81412318D01*
X53974897Y-81468435D01*
X53865353Y-81529529D01*
X53671096Y-81625817D01*
X53445911Y-81719089D01*
X53207516Y-81801467D01*
X52963647Y-81870533D01*
X52722038Y-81923872D01*
X52490425Y-81959066D01*
X52485514Y-81959617D01*
X52232791Y-81976520D01*
X51977057Y-81970834D01*
X51715023Y-81942200D01*
X51443405Y-81890262D01*
X51158915Y-81814665D01*
X51089772Y-81793434D01*
X50849685Y-81710554D01*
X50628804Y-81618093D01*
X50422231Y-81513131D01*
X50225067Y-81392750D01*
X50032417Y-81254028D01*
X49839383Y-81094049D01*
X49641067Y-80909891D01*
X49626428Y-80895518D01*
X49511495Y-80775042D01*
X49393017Y-80638677D01*
X49344326Y-80578075D01*
X49467166Y-80578075D01*
X49468314Y-80586345D01*
X49486217Y-80612581D01*
X49520542Y-80653148D01*
X49568329Y-80705059D01*
X49626621Y-80765331D01*
X49692460Y-80830978D01*
X49762889Y-80899016D01*
X49834950Y-80966461D01*
X49905684Y-81030327D01*
X49972134Y-81087629D01*
X50077664Y-81173551D01*
X50189039Y-81257146D01*
X50300113Y-81331642D01*
X50420118Y-81403188D01*
X50558288Y-81477930D01*
X50608709Y-81503500D01*
X50799304Y-81589452D01*
X51006062Y-81668147D01*
X51221341Y-81737284D01*
X51437500Y-81794565D01*
X51646897Y-81837687D01*
X51841890Y-81864351D01*
X51967333Y-81874574D01*
X52162219Y-81882156D01*
X52348699Y-81877654D01*
X52533332Y-81860363D01*
X52722673Y-81829580D01*
X52923279Y-81784600D01*
X53141707Y-81724719D01*
X53203165Y-81705911D01*
X53395636Y-81638574D01*
X53589500Y-81559010D01*
X53777183Y-81470705D01*
X53951115Y-81377144D01*
X54103724Y-81281813D01*
X54152838Y-81246619D01*
X54237138Y-81181129D01*
X54331972Y-81102910D01*
X54431795Y-81016865D01*
X54531062Y-80927900D01*
X54624226Y-80840917D01*
X54705744Y-80760821D01*
X54770069Y-80692516D01*
X54856101Y-80595476D01*
X54442173Y-80303971D01*
X54028246Y-80012466D01*
X53221308Y-80012466D01*
X53221308Y-80113776D01*
X52772647Y-80113776D01*
X52772647Y-80316397D01*
X51470083Y-80316397D01*
X51470083Y-80128249D01*
X51021422Y-80128249D01*
X51021422Y-80012466D01*
X50268306Y-80012466D01*
X49874180Y-80289478D01*
X49809452Y-80335006D01*
X49719484Y-80398407D01*
X49638856Y-80455368D01*
X49570438Y-80503851D01*
X49517102Y-80541820D01*
X49481721Y-80567241D01*
X49467166Y-80578075D01*
X49344326Y-80578075D01*
X49275294Y-80492155D01*
X49162627Y-80341210D01*
X49059316Y-80191575D01*
X48969660Y-80048983D01*
X48897959Y-79919165D01*
X48875345Y-79871666D01*
X48840435Y-79792109D01*
X48801285Y-79697813D01*
X48760569Y-79595638D01*
X48720959Y-79492448D01*
X48685129Y-79395103D01*
X48655752Y-79310467D01*
X48635500Y-79245400D01*
X48631508Y-79230601D01*
X48728251Y-79230601D01*
X48729897Y-79245400D01*
X48735623Y-79265663D01*
X48752553Y-79315450D01*
X48777390Y-79382917D01*
X48807969Y-79462666D01*
X48842128Y-79549297D01*
X48877702Y-79637409D01*
X48912528Y-79721603D01*
X48944441Y-79796480D01*
X48971279Y-79856639D01*
X48990878Y-79896682D01*
X49015329Y-79939644D01*
X49052912Y-80001562D01*
X49098019Y-80072974D01*
X49148092Y-80150109D01*
X49200574Y-80229195D01*
X49252906Y-80306460D01*
X49302530Y-80378135D01*
X49346889Y-80440446D01*
X49383425Y-80489624D01*
X49409580Y-80521896D01*
X49422795Y-80533491D01*
X49432040Y-80527733D01*
X49462546Y-80507096D01*
X49511670Y-80473273D01*
X49576681Y-80428159D01*
X49654849Y-80373651D01*
X49743443Y-80311643D01*
X49839731Y-80244033D01*
X50251337Y-79954574D01*
X51021422Y-79954574D01*
X51021422Y-79882209D01*
X51470083Y-79882209D01*
X51470083Y-79462494D01*
X51021422Y-79462494D01*
X51021422Y-79361184D01*
X50101500Y-79361184D01*
X50085016Y-79404856D01*
X50068957Y-79431525D01*
X50027279Y-79464803D01*
X49974302Y-79483939D01*
X49920371Y-79483960D01*
X49895882Y-79475138D01*
X49851020Y-79440708D01*
X49818337Y-79392184D01*
X49805695Y-79339474D01*
X49863587Y-79339474D01*
X49870636Y-79370123D01*
X49892533Y-79404603D01*
X49915552Y-79421860D01*
X49957807Y-79431610D01*
X49997063Y-79418931D01*
X50025991Y-79387119D01*
X50037262Y-79339474D01*
X50032611Y-79321415D01*
X54141463Y-79321415D01*
X54150095Y-79339474D01*
X54162845Y-79366146D01*
X54165992Y-79369993D01*
X54206061Y-79399089D01*
X54250101Y-79401119D01*
X54292305Y-79375657D01*
X54317012Y-79334183D01*
X54316397Y-79287929D01*
X54289576Y-79245964D01*
X54260064Y-79224710D01*
X54220259Y-79219090D01*
X54179382Y-79241782D01*
X54148978Y-79278303D01*
X54141463Y-79321415D01*
X50032611Y-79321415D01*
X50025097Y-79292243D01*
X49992764Y-79258319D01*
X49947204Y-79245400D01*
X49936528Y-79246720D01*
X49902102Y-79266021D01*
X49874740Y-79300369D01*
X49863587Y-79339474D01*
X49805695Y-79339474D01*
X49809006Y-79313271D01*
X49832630Y-79261412D01*
X49872372Y-79218682D01*
X49920371Y-79194988D01*
X49957664Y-79192999D01*
X50010617Y-79206348D01*
X50056142Y-79233806D01*
X50083642Y-79270475D01*
X50098752Y-79310528D01*
X51021422Y-79302506D01*
X51021422Y-79216454D01*
X51470083Y-79216454D01*
X51470083Y-78796739D01*
X51021422Y-78796739D01*
X51021422Y-78695429D01*
X50501976Y-78695429D01*
X50483095Y-78735229D01*
X50480088Y-78740802D01*
X50451141Y-78773775D01*
X50411884Y-78800621D01*
X50378567Y-78814700D01*
X50345179Y-78818237D01*
X50303337Y-78807857D01*
X50262513Y-78787048D01*
X50223045Y-78744222D01*
X50204132Y-78690916D01*
X50206868Y-78663716D01*
X50257736Y-78663716D01*
X50261428Y-78696182D01*
X50289881Y-78732269D01*
X50296778Y-78738975D01*
X50331578Y-78763116D01*
X50364357Y-78762575D01*
X50404370Y-78737797D01*
X50407968Y-78734860D01*
X50436997Y-78694888D01*
X50438862Y-78653875D01*
X53882634Y-78653875D01*
X53893823Y-78695515D01*
X53921794Y-78727771D01*
X53958345Y-78738376D01*
X54002293Y-78732746D01*
X54036785Y-78712380D01*
X54054366Y-78686125D01*
X54061563Y-78644253D01*
X54047551Y-78606664D01*
X54016837Y-78578837D01*
X53973925Y-78566250D01*
X53923320Y-78574383D01*
X53910213Y-78581613D01*
X53888130Y-78612644D01*
X53883042Y-78650813D01*
X53882634Y-78653875D01*
X50438862Y-78653875D01*
X50439001Y-78650813D01*
X50413559Y-78608591D01*
X50410281Y-78605435D01*
X50367681Y-78582279D01*
X50323718Y-78586535D01*
X50284353Y-78617779D01*
X50278358Y-78625614D01*
X50257736Y-78663716D01*
X50206868Y-78663716D01*
X50209797Y-78634588D01*
X50229601Y-78590780D01*
X50267986Y-78548647D01*
X50321713Y-78527617D01*
X50377373Y-78526744D01*
X50434343Y-78549301D01*
X50476747Y-78594732D01*
X50502033Y-78637537D01*
X51021422Y-78637537D01*
X51021422Y-78550699D01*
X51470083Y-78550699D01*
X51470083Y-78116511D01*
X51021422Y-78116511D01*
X51021422Y-77884944D01*
X51108259Y-77884944D01*
X51108259Y-77638905D01*
X51108063Y-77569195D01*
X51107003Y-77495980D01*
X51104754Y-77445390D01*
X51101012Y-77413775D01*
X51095474Y-77397484D01*
X51087837Y-77392865D01*
X51083185Y-77392025D01*
X51058581Y-77376748D01*
X51029945Y-77348335D01*
X51015387Y-77328622D01*
X50993477Y-77273965D01*
X50994338Y-77232355D01*
X51054360Y-77232355D01*
X51054539Y-77278095D01*
X51078460Y-77319647D01*
X51105959Y-77339628D01*
X51137205Y-77349446D01*
X51156530Y-77347094D01*
X51192520Y-77326232D01*
X51214451Y-77290496D01*
X51220435Y-77248104D01*
X51208582Y-77207274D01*
X51177006Y-77176222D01*
X51154742Y-77165117D01*
X51128974Y-77162209D01*
X51097405Y-77176222D01*
X51076639Y-77192138D01*
X51054360Y-77232355D01*
X50994338Y-77232355D01*
X50994567Y-77221311D01*
X51014422Y-77174398D01*
X51048809Y-77136964D01*
X51093493Y-77112746D01*
X51144240Y-77105481D01*
X51196816Y-77118906D01*
X51246986Y-77156760D01*
X51262868Y-77177638D01*
X51281772Y-77233096D01*
X51280212Y-77248104D01*
X51275606Y-77292412D01*
X51244466Y-77348335D01*
X51236843Y-77356937D01*
X51208280Y-77382555D01*
X51186574Y-77392865D01*
X51180788Y-77395231D01*
X51174710Y-77407996D01*
X51170511Y-77435095D01*
X51167887Y-77480179D01*
X51166535Y-77546898D01*
X51166151Y-77638905D01*
X51166151Y-77884944D01*
X51470083Y-77884944D01*
X51470083Y-77740215D01*
X52092419Y-77740215D01*
X52092419Y-75146700D01*
X52049000Y-75106141D01*
X52026851Y-75081421D01*
X52005566Y-75031562D01*
X52012949Y-74981153D01*
X52049000Y-74932466D01*
X52092419Y-74891907D01*
X52092419Y-73318563D01*
X52051218Y-73300326D01*
X52012008Y-73271655D01*
X51984668Y-73222954D01*
X51978274Y-73168792D01*
X52035061Y-73168792D01*
X52040304Y-73211619D01*
X52065902Y-73244994D01*
X52093134Y-73260162D01*
X52121365Y-73268078D01*
X52144318Y-73262359D01*
X52176828Y-73244994D01*
X52176924Y-73244926D01*
X52202466Y-73211513D01*
X52207656Y-73168674D01*
X52193540Y-73126443D01*
X52161165Y-73094858D01*
X52138893Y-73083748D01*
X52113131Y-73080842D01*
X52081564Y-73094858D01*
X52081454Y-73094919D01*
X52049127Y-73126547D01*
X52035061Y-73168792D01*
X51978274Y-73168792D01*
X51977726Y-73164146D01*
X51993326Y-73102552D01*
X52015627Y-73072852D01*
X52051218Y-73047683D01*
X52092419Y-73029445D01*
X52092419Y-70864855D01*
X52057697Y-70851654D01*
X52057617Y-70851623D01*
X52012973Y-70820698D01*
X51985089Y-70773460D01*
X51979016Y-70738761D01*
X52036847Y-70738761D01*
X52057462Y-70780087D01*
X52061896Y-70784580D01*
X52101839Y-70804650D01*
X52147075Y-70803125D01*
X52185335Y-70780013D01*
X52192664Y-70770552D01*
X52205652Y-70727966D01*
X52195197Y-70682960D01*
X52162826Y-70644704D01*
X52140481Y-70629807D01*
X52115341Y-70624468D01*
X52083225Y-70636137D01*
X52059691Y-70653449D01*
X52038218Y-70693039D01*
X52036847Y-70738761D01*
X51979016Y-70738761D01*
X51975409Y-70718149D01*
X51985377Y-70663002D01*
X52016436Y-70616259D01*
X52051667Y-70590150D01*
X52110313Y-70572208D01*
X52169370Y-70581648D01*
X52223789Y-70618418D01*
X52243968Y-70643780D01*
X52264011Y-70698679D01*
X52262514Y-70727966D01*
X52261090Y-70755809D01*
X52236344Y-70807308D01*
X52190912Y-70845319D01*
X52150311Y-70866315D01*
X52150311Y-73033373D01*
X52186230Y-73042388D01*
X52191679Y-73044017D01*
X52227338Y-73069847D01*
X52252207Y-73113430D01*
X52264123Y-73165974D01*
X52263959Y-73168674D01*
X52260924Y-73218683D01*
X52240445Y-73262766D01*
X52217852Y-73285546D01*
X52182875Y-73310312D01*
X52150311Y-73326988D01*
X52150311Y-74121515D01*
X52150314Y-74189067D01*
X52150380Y-74350623D01*
X52150590Y-74486362D01*
X52151021Y-74598560D01*
X52151752Y-74689496D01*
X52152861Y-74761445D01*
X52154424Y-74816685D01*
X52156519Y-74857493D01*
X52159225Y-74886145D01*
X52162618Y-74904918D01*
X52166776Y-74916090D01*
X52171778Y-74921936D01*
X52177700Y-74924735D01*
X52202199Y-74943409D01*
X52222875Y-74976366D01*
X52229821Y-75002174D01*
X52227391Y-75049664D01*
X52208890Y-75090327D01*
X52177700Y-75113871D01*
X52173047Y-75116064D01*
X52168917Y-75120710D01*
X52165319Y-75129562D01*
X52162217Y-75144386D01*
X52159574Y-75166950D01*
X52157354Y-75199021D01*
X52155520Y-75242366D01*
X52154035Y-75298752D01*
X52152862Y-75369947D01*
X52151965Y-75457717D01*
X52151306Y-75563830D01*
X52150850Y-75690054D01*
X52150559Y-75838154D01*
X52150396Y-76009899D01*
X52150326Y-76207055D01*
X52150311Y-76431390D01*
X52150311Y-77740215D01*
X52772647Y-77740215D01*
X52772647Y-77855999D01*
X53047633Y-77855999D01*
X53047633Y-77618170D01*
X53047601Y-77578818D01*
X53047102Y-77500980D01*
X53045639Y-77446125D01*
X53042753Y-77410021D01*
X53037986Y-77388434D01*
X53030880Y-77377132D01*
X53020976Y-77371882D01*
X53019189Y-77371298D01*
X52971955Y-77341254D01*
X52939785Y-77292061D01*
X52931223Y-77248488D01*
X52985478Y-77248488D01*
X52997464Y-77286901D01*
X53025998Y-77311290D01*
X53040808Y-77316116D01*
X53091723Y-77318941D01*
X53131687Y-77301461D01*
X53156200Y-77268857D01*
X53160766Y-77226307D01*
X53140886Y-77178991D01*
X53140510Y-77178461D01*
X53107602Y-77154205D01*
X53064070Y-77146472D01*
X53024472Y-77157901D01*
X53011545Y-77168756D01*
X52990139Y-77205843D01*
X52985478Y-77248488D01*
X52931223Y-77248488D01*
X52927902Y-77231590D01*
X52929574Y-77200421D01*
X52942280Y-77163894D01*
X52973523Y-77129695D01*
X53017496Y-77101834D01*
X53074246Y-77090579D01*
X53129254Y-77101123D01*
X53176264Y-77130769D01*
X53209017Y-77176815D01*
X53219154Y-77226307D01*
X53221254Y-77236562D01*
X53216117Y-77265917D01*
X53195711Y-77310454D01*
X53166420Y-77349196D01*
X53135469Y-77370838D01*
X53127243Y-77374035D01*
X53118445Y-77381647D01*
X53112410Y-77396776D01*
X53108619Y-77423707D01*
X53106554Y-77466726D01*
X53105695Y-77530118D01*
X53105524Y-77618170D01*
X53105524Y-77855999D01*
X53221308Y-77855999D01*
X53221308Y-78102038D01*
X52772647Y-78102038D01*
X52772647Y-78521754D01*
X53221308Y-78521754D01*
X53221308Y-78623064D01*
X53525239Y-78623064D01*
X53574175Y-78623012D01*
X53665955Y-78622429D01*
X53733586Y-78621019D01*
X53780395Y-78618559D01*
X53809711Y-78614825D01*
X53824861Y-78609594D01*
X53829171Y-78602641D01*
X53830011Y-78597990D01*
X53845287Y-78573385D01*
X53873700Y-78544749D01*
X53890943Y-78531911D01*
X53947928Y-78508563D01*
X54004813Y-78508941D01*
X54055415Y-78530833D01*
X54093554Y-78572030D01*
X54113048Y-78630323D01*
X54112153Y-78644253D01*
X54109058Y-78692455D01*
X54084301Y-78742171D01*
X54044544Y-78777261D01*
X53995559Y-78795569D01*
X53943121Y-78794939D01*
X53893001Y-78773213D01*
X53850972Y-78728234D01*
X53821935Y-78682071D01*
X53521621Y-78681513D01*
X53221308Y-78680956D01*
X53221308Y-78767793D01*
X52772647Y-78767793D01*
X52772647Y-79201981D01*
X53221308Y-79201981D01*
X53221308Y-79288819D01*
X54083338Y-79288819D01*
X54099822Y-79245147D01*
X54112461Y-79222465D01*
X54152678Y-79187810D01*
X54205991Y-79168076D01*
X54262742Y-79167847D01*
X54285574Y-79175078D01*
X54332712Y-79208327D01*
X54366324Y-79257352D01*
X54379143Y-79313086D01*
X54378113Y-79326118D01*
X54375138Y-79334183D01*
X54360703Y-79373309D01*
X54327541Y-79417313D01*
X54286146Y-79449813D01*
X54244039Y-79462494D01*
X54207542Y-79459139D01*
X54148555Y-79435206D01*
X54107177Y-79390352D01*
X54082447Y-79346894D01*
X53651878Y-79346802D01*
X53221308Y-79346711D01*
X53221308Y-79448021D01*
X52772647Y-79448021D01*
X52772647Y-79867736D01*
X53221308Y-79867736D01*
X53221308Y-79954574D01*
X54043017Y-79954574D01*
X54120624Y-80007724D01*
X54145274Y-80024763D01*
X54194275Y-80058927D01*
X54259386Y-80104515D01*
X54336408Y-80158583D01*
X54421145Y-80218187D01*
X54509399Y-80280383D01*
X54585192Y-80333773D01*
X54665293Y-80390024D01*
X54736079Y-80439551D01*
X54793969Y-80479855D01*
X54835386Y-80508439D01*
X54856749Y-80522805D01*
X54892932Y-80545720D01*
X54996167Y-80405731D01*
X55065477Y-80309491D01*
X55141500Y-80199302D01*
X55213661Y-80090236D01*
X55277227Y-79989456D01*
X55327464Y-79904131D01*
X55329843Y-79899781D01*
X55350822Y-79857045D01*
X55378057Y-79796172D01*
X55409582Y-79722132D01*
X55443431Y-79639893D01*
X55477639Y-79554427D01*
X55510238Y-79470701D01*
X55539263Y-79393687D01*
X55562748Y-79328353D01*
X55578726Y-79279670D01*
X55585231Y-79252607D01*
X55583896Y-79241832D01*
X55574117Y-79227202D01*
X55552076Y-79209358D01*
X55514312Y-79185979D01*
X55457366Y-79154739D01*
X55377775Y-79113317D01*
X55341529Y-79094479D01*
X55174461Y-79002355D01*
X55007177Y-78902031D01*
X54845150Y-78797157D01*
X54693853Y-78691380D01*
X54558759Y-78588349D01*
X54445339Y-78491711D01*
X54428195Y-78475790D01*
X54294615Y-78336379D01*
X54163465Y-78173325D01*
X54037780Y-77991314D01*
X53920598Y-77795031D01*
X53814955Y-77589162D01*
X53723886Y-77378392D01*
X53723054Y-77376263D01*
X53648213Y-77177951D01*
X53571607Y-76962344D01*
X53494697Y-76734320D01*
X53418948Y-76498756D01*
X53345822Y-76260531D01*
X53276781Y-76024522D01*
X53213288Y-75795608D01*
X53156807Y-75578667D01*
X53108799Y-75378577D01*
X53070727Y-75200215D01*
X53060427Y-75146764D01*
X53023372Y-74935444D01*
X52988234Y-74703718D01*
X52954921Y-74450639D01*
X52923344Y-74175260D01*
X52893412Y-73876635D01*
X52865034Y-73553818D01*
X52838121Y-73205862D01*
X52812582Y-72831821D01*
X52788326Y-72430748D01*
X52765264Y-72001697D01*
X52759542Y-71890525D01*
X52750839Y-71726458D01*
X52741754Y-71560369D01*
X52732583Y-71397414D01*
X52723622Y-71242748D01*
X52715166Y-71101527D01*
X52707512Y-70978907D01*
X52700954Y-70880044D01*
X52695660Y-70801489D01*
X52687639Y-70674623D01*
X52680087Y-70546349D01*
X52673428Y-70424235D01*
X52668085Y-70315850D01*
X52664482Y-70228762D01*
X52662046Y-70164605D01*
X52658287Y-70080431D01*
X52654359Y-70006433D01*
X52650601Y-69948864D01*
X52647353Y-69913976D01*
X52639104Y-69852466D01*
X51647045Y-69852466D01*
X51638662Y-69913976D01*
X51636329Y-69936890D01*
X51632644Y-69988921D01*
X51628708Y-70059079D01*
X51624865Y-70141110D01*
X51621455Y-70228762D01*
X51619330Y-70282894D01*
X51614563Y-70384761D01*
X51608336Y-70502978D01*
X51601072Y-70629976D01*
X51593191Y-70758188D01*
X51585117Y-70880044D01*
X51580654Y-70946714D01*
X51573310Y-71062790D01*
X51565077Y-71199005D01*
X51556248Y-71350202D01*
X51547119Y-71511225D01*
X51537985Y-71676919D01*
X51529142Y-71842128D01*
X51520884Y-72001697D01*
X51501546Y-72363846D01*
X51475924Y-72791420D01*
X51448693Y-73190759D01*
X51419817Y-73562232D01*
X51389260Y-73906212D01*
X51356986Y-74223070D01*
X51322960Y-74513178D01*
X51287145Y-74776907D01*
X51249506Y-75014629D01*
X51210008Y-75226715D01*
X51187480Y-75332693D01*
X51141143Y-75530321D01*
X51085837Y-75746364D01*
X51023100Y-75975680D01*
X50954473Y-76213123D01*
X50881495Y-76453550D01*
X50805705Y-76691816D01*
X50728644Y-76922777D01*
X50651851Y-77141290D01*
X50576865Y-77342209D01*
X50550515Y-77408332D01*
X50455075Y-77620807D01*
X50346737Y-77826376D01*
X50228322Y-78020638D01*
X50102649Y-78199188D01*
X49972538Y-78357624D01*
X49840809Y-78491542D01*
X49787186Y-78538656D01*
X49667573Y-78634608D01*
X49529860Y-78735490D01*
X49379795Y-78837462D01*
X49223123Y-78936686D01*
X49065589Y-79029321D01*
X48912941Y-79111529D01*
X48893325Y-79121558D01*
X48824917Y-79157024D01*
X48777892Y-79182966D01*
X48748563Y-79202080D01*
X48733244Y-79217059D01*
X48728251Y-79230601D01*
X48631508Y-79230601D01*
X48624218Y-79203572D01*
X48599667Y-79104112D01*
X48574957Y-78994116D01*
X48551337Y-78880007D01*
X48530055Y-78768208D01*
X48512360Y-78665141D01*
X48499500Y-78577231D01*
X48492724Y-78510899D01*
X48484405Y-78377024D01*
X47462572Y-78377045D01*
X46440738Y-78377066D01*
X45709625Y-79098272D01*
X45636537Y-79170294D01*
X45480174Y-79323765D01*
X45343801Y-79456678D01*
X45227283Y-79569163D01*
X45130480Y-79661351D01*
X45053257Y-79733370D01*
X44995474Y-79785353D01*
X44956996Y-79817428D01*
X44937684Y-79829726D01*
X44905547Y-79832515D01*
X44850740Y-79817722D01*
X44800692Y-79782966D01*
X44763874Y-79732962D01*
X44763703Y-79732611D01*
X44747480Y-79693868D01*
X44745473Y-79664859D01*
X44756638Y-79630833D01*
X44758165Y-79628039D01*
X44777134Y-79604249D01*
X44815632Y-79561698D01*
X44872606Y-79501460D01*
X44947002Y-79424611D01*
X45037766Y-79332225D01*
X45143843Y-79225375D01*
X45264180Y-79105138D01*
X45397722Y-78972586D01*
X45543416Y-78828794D01*
X46310482Y-78073712D01*
X47399570Y-78073402D01*
X48488658Y-78073093D01*
X48488658Y-74396967D01*
X46433778Y-74396967D01*
X45843868Y-74977211D01*
X45779301Y-75040741D01*
X45667337Y-75151005D01*
X45559273Y-75257547D01*
X45457502Y-75358002D01*
X45364417Y-75450003D01*
X45282411Y-75531185D01*
X45213877Y-75599181D01*
X45161208Y-75651626D01*
X45126797Y-75686155D01*
X45116667Y-75696397D01*
X45058274Y-75754489D01*
X45014519Y-75795070D01*
X44980860Y-75821239D01*
X44952755Y-75836095D01*
X44925662Y-75842736D01*
X44895037Y-75844261D01*
X44844106Y-75834436D01*
X44795560Y-75802857D01*
X44761931Y-75755958D01*
X44747768Y-75700408D01*
X44757620Y-75642873D01*
X44762562Y-75635376D01*
X44786993Y-75606784D01*
X44830209Y-75560107D01*
X44890907Y-75496666D01*
X44967785Y-75417788D01*
X45059541Y-75324795D01*
X45164871Y-75219012D01*
X45282473Y-75101762D01*
X45411046Y-74974371D01*
X45549285Y-74838161D01*
X46322219Y-74078563D01*
X48488658Y-74078563D01*
X48488658Y-71183976D01*
X47377860Y-71183356D01*
X46267063Y-71182737D01*
X45492761Y-70419995D01*
X45488314Y-70415614D01*
X45363519Y-70292518D01*
X45244569Y-70174892D01*
X45133110Y-70064381D01*
X45030788Y-69962629D01*
X44939249Y-69871283D01*
X44860137Y-69791987D01*
X44795098Y-69726388D01*
X44745779Y-69676130D01*
X44713825Y-69642859D01*
X44700880Y-69628221D01*
X44689593Y-69604331D01*
X44683020Y-69548714D01*
X44698777Y-69494638D01*
X44732979Y-69448318D01*
X44781741Y-69415969D01*
X44841178Y-69403805D01*
X44849943Y-69403904D01*
X44861422Y-69405047D01*
X44873883Y-69408609D01*
X44888836Y-69415968D01*
X44907790Y-69428500D01*
X44932254Y-69447585D01*
X44963739Y-69474598D01*
X45003753Y-69510919D01*
X45053807Y-69557925D01*
X45115410Y-69616993D01*
X45190071Y-69689500D01*
X45279300Y-69776826D01*
X45384607Y-69880347D01*
X45507500Y-70001441D01*
X45649491Y-70141486D01*
X46397319Y-70879167D01*
X47441303Y-70879605D01*
X48485286Y-70880044D01*
X48495433Y-70785297D01*
X48500437Y-70747251D01*
X48512407Y-70684659D01*
X48597205Y-70684659D01*
X48597205Y-78659246D01*
X48646376Y-78887195D01*
X48657252Y-78935969D01*
X48674699Y-79007575D01*
X48690413Y-79064254D01*
X48703110Y-79101515D01*
X48711505Y-79114866D01*
X48715621Y-79114305D01*
X48745831Y-79103059D01*
X48795734Y-79079023D01*
X48861547Y-79044355D01*
X48939487Y-79001214D01*
X49025774Y-78951759D01*
X49116625Y-78898149D01*
X49208259Y-78842542D01*
X49296892Y-78787099D01*
X49378744Y-78733977D01*
X49538021Y-78621389D01*
X49745033Y-78450034D01*
X49930526Y-78263635D01*
X50096210Y-78060025D01*
X50243795Y-77837037D01*
X50374993Y-77592505D01*
X50491513Y-77324260D01*
X50502394Y-77296133D01*
X50548893Y-77170843D01*
X50600830Y-77024064D01*
X50656556Y-76860940D01*
X50714423Y-76686614D01*
X50772782Y-76506228D01*
X50829984Y-76324926D01*
X50884381Y-76147851D01*
X50934325Y-75980147D01*
X50978167Y-75826955D01*
X51014258Y-75693419D01*
X51039363Y-75593931D01*
X51082842Y-75406683D01*
X51123430Y-75210790D01*
X51161318Y-75004560D01*
X51196699Y-74786303D01*
X51229765Y-74554327D01*
X51260710Y-74306942D01*
X51289724Y-74042455D01*
X51317000Y-73759175D01*
X51342731Y-73455412D01*
X51367109Y-73129474D01*
X51390326Y-72779669D01*
X51412574Y-72404307D01*
X51434047Y-72001697D01*
X51439768Y-71890525D01*
X51448467Y-71726458D01*
X51457545Y-71560369D01*
X51466707Y-71397413D01*
X51475656Y-71242748D01*
X51484098Y-71101527D01*
X51491737Y-70978907D01*
X51498279Y-70880044D01*
X51503557Y-70801494D01*
X51511553Y-70674627D01*
X51519079Y-70546351D01*
X51525713Y-70424237D01*
X51531033Y-70315851D01*
X51534617Y-70228762D01*
X51537045Y-70164607D01*
X51540804Y-70080432D01*
X51544748Y-70006433D01*
X51548536Y-69948864D01*
X51551824Y-69913976D01*
X51560207Y-69852466D01*
X50461661Y-69852466D01*
X50328165Y-69852491D01*
X50135962Y-69852651D01*
X49969461Y-69852993D01*
X49826660Y-69853554D01*
X49705561Y-69854371D01*
X49604163Y-69855482D01*
X49520467Y-69856924D01*
X49452473Y-69858734D01*
X49398181Y-69860951D01*
X49355591Y-69863611D01*
X49322703Y-69866752D01*
X49297517Y-69870411D01*
X49278035Y-69874627D01*
X49216508Y-69893737D01*
X49087066Y-69954950D01*
X48966832Y-70040499D01*
X48858434Y-70147565D01*
X48764494Y-70273332D01*
X48687639Y-70414981D01*
X48630493Y-70569695D01*
X48597205Y-70684659D01*
X48512407Y-70684659D01*
X48519399Y-70648095D01*
X48546263Y-70541126D01*
X48577772Y-70438577D01*
X48610667Y-70352681D01*
X48615001Y-70343089D01*
X48675170Y-70235108D01*
X48754201Y-70126682D01*
X48845716Y-70024966D01*
X48943337Y-69937114D01*
X49040688Y-69870280D01*
X49075579Y-69851627D01*
X52725816Y-69851627D01*
X52734128Y-69913556D01*
X52736438Y-69936541D01*
X52740092Y-69988694D01*
X52743994Y-70058958D01*
X52747804Y-70141069D01*
X52751184Y-70228762D01*
X52754018Y-70301413D01*
X52759363Y-70416582D01*
X52765934Y-70541743D01*
X52773156Y-70666069D01*
X52780451Y-70778734D01*
X52787783Y-70885525D01*
X52797640Y-71032574D01*
X52806636Y-71171920D01*
X52815075Y-71308793D01*
X52823261Y-71448427D01*
X52831499Y-71596051D01*
X52840092Y-71756899D01*
X52849345Y-71936201D01*
X52859562Y-72139189D01*
X52867449Y-72293465D01*
X52890893Y-72710207D01*
X52916178Y-73099911D01*
X52943462Y-73463952D01*
X52972899Y-73803704D01*
X53004644Y-74120543D01*
X53038852Y-74415843D01*
X53075680Y-74690978D01*
X53115281Y-74947325D01*
X53157812Y-75186258D01*
X53203427Y-75409151D01*
X53252282Y-75617380D01*
X53263438Y-75661085D01*
X53302222Y-75805061D01*
X53348580Y-75967822D01*
X53400861Y-76144170D01*
X53457413Y-76328904D01*
X53516583Y-76516825D01*
X53576720Y-76702733D01*
X53636173Y-76881427D01*
X53693288Y-77047709D01*
X53746414Y-77196378D01*
X53793899Y-77322235D01*
X53805775Y-77352174D01*
X53915260Y-77597146D01*
X54040675Y-77828358D01*
X54179966Y-78042885D01*
X54331080Y-78237802D01*
X54491963Y-78410183D01*
X54660562Y-78557103D01*
X54664151Y-78559882D01*
X54779547Y-78644979D01*
X54912363Y-78736148D01*
X55054716Y-78828411D01*
X55198722Y-78916791D01*
X55336498Y-78996310D01*
X55460161Y-79061989D01*
X55520147Y-79091064D01*
X55576451Y-79115518D01*
X55611651Y-79126805D01*
X55623815Y-79124190D01*
X55625518Y-79114954D01*
X55632731Y-79081376D01*
X55644612Y-79027952D01*
X55660089Y-78959488D01*
X55678088Y-78880793D01*
X55732362Y-78644773D01*
X55732362Y-70728078D01*
X55699944Y-70605058D01*
X55644934Y-70442631D01*
X55569505Y-70293276D01*
X55476164Y-70160989D01*
X55367047Y-70048349D01*
X55244289Y-69957936D01*
X55110026Y-69892330D01*
X55023188Y-69859702D01*
X53874502Y-69855664D01*
X52725816Y-69851627D01*
X49075579Y-69851627D01*
X49098613Y-69839313D01*
X49161317Y-69811632D01*
X49225976Y-69790836D01*
X49297981Y-69775834D01*
X49381975Y-69765628D01*
X49996588Y-69765628D01*
X52121365Y-69765628D01*
X52121365Y-68746140D01*
X52121281Y-68619369D01*
X52120917Y-68456476D01*
X52120287Y-68303918D01*
X52119416Y-68164020D01*
X52118329Y-68039111D01*
X52117050Y-67931515D01*
X52115604Y-67843560D01*
X52114016Y-67777571D01*
X52112309Y-67735876D01*
X52110510Y-67720799D01*
X52104248Y-67719746D01*
X52073840Y-67719653D01*
X52025247Y-67721922D01*
X51965486Y-67726289D01*
X51833017Y-67741558D01*
X51594148Y-67790217D01*
X51364821Y-67864149D01*
X51146895Y-67961897D01*
X50942226Y-68082007D01*
X50752674Y-68223021D01*
X50580096Y-68383484D01*
X50426349Y-68561941D01*
X50293292Y-68756935D01*
X50182782Y-68967010D01*
X50096678Y-69190712D01*
X50061841Y-69315335D01*
X50025362Y-69495365D01*
X50003562Y-69675172D01*
X49996588Y-69765628D01*
X49381975Y-69765628D01*
X49382724Y-69765537D01*
X49485594Y-69758853D01*
X49611984Y-69754690D01*
X49903116Y-69747899D01*
X49912873Y-69630125D01*
X49913692Y-69620512D01*
X49948801Y-69383211D01*
X50011180Y-69151409D01*
X50099360Y-68927568D01*
X50211875Y-68714153D01*
X50347257Y-68513626D01*
X50504037Y-68328449D01*
X50680749Y-68161087D01*
X50875924Y-68014002D01*
X50974088Y-67948472D01*
X49735008Y-66516454D01*
X49629241Y-66508074D01*
X49617774Y-66507085D01*
X49509252Y-66487544D01*
X49420886Y-66449836D01*
X49348923Y-66391788D01*
X49289612Y-66311225D01*
X49260635Y-66242626D01*
X49243802Y-66152944D01*
X49244372Y-66060909D01*
X49263267Y-65978139D01*
X49298574Y-65907497D01*
X49361468Y-65831471D01*
X49439172Y-65774923D01*
X49527157Y-65738971D01*
X49620894Y-65724729D01*
X49715855Y-65733313D01*
X49807511Y-65765839D01*
X49891332Y-65823423D01*
X49953811Y-65890526D01*
X49995866Y-65965336D01*
X50017328Y-66051828D01*
X50020652Y-66156326D01*
X50015553Y-66276025D01*
X50665203Y-67027262D01*
X51314854Y-67778498D01*
X51440799Y-67737996D01*
X51526543Y-67711835D01*
X52208202Y-67711835D01*
X52208202Y-69765628D01*
X54325413Y-69765628D01*
X54315729Y-69649512D01*
X54315410Y-69645724D01*
X54280794Y-69403053D01*
X54219239Y-69170897D01*
X54130900Y-68949586D01*
X54015933Y-68739450D01*
X53874492Y-68540819D01*
X53706732Y-68354024D01*
X53533723Y-68197317D01*
X53349405Y-68063419D01*
X53149626Y-67949779D01*
X53107245Y-67929019D01*
X52958778Y-67864377D01*
X52808992Y-67812860D01*
X52651134Y-67772667D01*
X52478450Y-67741997D01*
X52284185Y-67719051D01*
X52208202Y-67711835D01*
X51526543Y-67711835D01*
X51552056Y-67704051D01*
X51664682Y-67675121D01*
X51772413Y-67654692D01*
X51883655Y-67641506D01*
X52006819Y-67634304D01*
X52150311Y-67631829D01*
X52267638Y-67632789D01*
X52405146Y-67639013D01*
X52528478Y-67652022D01*
X52645862Y-67673058D01*
X52765528Y-67703361D01*
X52895706Y-67744171D01*
X53040396Y-67792839D01*
X53696589Y-67034401D01*
X54352783Y-66275963D01*
X54339056Y-66196291D01*
X54332135Y-66098903D01*
X54349837Y-65997370D01*
X54394779Y-65905623D01*
X54466981Y-65823602D01*
X54469766Y-65821121D01*
X54554074Y-65763806D01*
X54644641Y-65731797D01*
X54737415Y-65723480D01*
X54828347Y-65737243D01*
X54913384Y-65771476D01*
X54988475Y-65824566D01*
X55049569Y-65894901D01*
X55092615Y-65980869D01*
X55113561Y-66080858D01*
X55115216Y-66113796D01*
X55104979Y-66215790D01*
X55069400Y-66305696D01*
X55007319Y-66386862D01*
X54960071Y-66430450D01*
X54897325Y-66470454D01*
X54825019Y-66494935D01*
X54733937Y-66507976D01*
X54632835Y-66516454D01*
X54049420Y-67189446D01*
X54045481Y-67193990D01*
X53940831Y-67314767D01*
X53840896Y-67430209D01*
X53747459Y-67538250D01*
X53662301Y-67636823D01*
X53587206Y-67723864D01*
X53523955Y-67797306D01*
X53474331Y-67855085D01*
X53440115Y-67895134D01*
X53423089Y-67915388D01*
X53380173Y-67968339D01*
X53499201Y-68051744D01*
X53507625Y-68057689D01*
X53654481Y-68174509D01*
X53798675Y-68312556D01*
X53933926Y-68464793D01*
X54053952Y-68624183D01*
X54152472Y-68783688D01*
X54208796Y-68895558D01*
X54282506Y-69073869D01*
X54341131Y-69257702D01*
X54382251Y-69439085D01*
X54403443Y-69610044D01*
X54412461Y-69751155D01*
X54655041Y-69751155D01*
X54737986Y-69751873D01*
X54865033Y-69757004D01*
X54950325Y-69765628D01*
X54971905Y-69767810D01*
G37*
%TD*%
M02*
