M48
; DRILL file {KiCad 9.0.6} date 2025-12-20T13:57:42-0500
; FORMAT={-:-/ absolute / inch / decimal}
; #@! TF.CreationDate,2025-12-20T13:57:42-05:00
; #@! TF.GenerationSoftware,Kicad,Pcbnew,9.0.6
; #@! TF.FileFunction,Plated,1,4,PTH
FMAT,2
INCH
; #@! TA.AperFunction,Plated,PTH,ViaDrill
T1C0.0118
; #@! TA.AperFunction,Plated,PTH,ComponentDrill
T2C0.0236
; #@! TA.AperFunction,Plated,PTH,ComponentDrill
T3C0.0295
; #@! TA.AperFunction,Plated,PTH,ComponentDrill
T4C0.0374
; #@! TA.AperFunction,Plated,PTH,ComponentDrill
T5C0.0394
; #@! TA.AperFunction,Plated,PTH,ComponentDrill
T6C0.0610
; #@! TA.AperFunction,Plated,PTH,ComponentDrill
T7C0.0689
; #@! TA.AperFunction,Plated,PTH,ComponentDrill
T8C0.0866
%
G90
G05
T1
X1.5732Y-4.7177
X1.5744Y-2.9339
X1.5772Y-2.8461
X1.5772Y-4.5811
X1.578Y-4.2886
X1.5791Y-4.7508
X1.5858Y-4.3638
X1.5961Y-3.7531
X1.5965Y-3.0626
X1.5969Y-3.1531
X1.5969Y-3.2531
X1.5969Y-3.3563
X1.5969Y-3.45
X1.5969Y-3.5524
X1.5969Y-3.648
X1.6106Y-4.7555
X1.6276Y-4.3654
X1.6311Y-4.4929
X1.6319Y-4.5315
X1.6445Y-4.4346
X1.6449Y-4.7555
X1.6756Y-4.135
X1.6776Y-4.4354
X1.6783Y-2.7744
X1.6807Y-4.7571
X1.6858Y-4.0957
X1.6898Y-4.1642
X1.6933Y-2.6984
X1.6949Y-2.8472
X1.7063Y-4.3492
X1.7063Y-4.6047
X1.7079Y-4.4256
X1.7134Y-4.0677
X1.7134Y-4.7583
X1.7142Y-3.9098
X1.7146Y-4.2709
X1.7157Y-2.5531
X1.7173Y-4.1874
X1.7177Y-3.9551
X1.7185Y-4.0339
X1.7228Y-3.9882
X1.7232Y-2.6819
X1.7236Y-2.7256
X1.726Y-2.6476
X1.7339Y-4.5807
X1.7402Y-3.1465
X1.7488Y-4.4752
X1.7508Y-4.7583
X1.7575Y-4.189
X1.761Y-4.2693
X1.7622Y-3.3346
X1.7626Y-3.302
X1.7634Y-4.0437
X1.7654Y-3.1654
X1.7673Y-4.0012
X1.7724Y-4.0748
X1.7819Y-3.9646
X1.785Y-4.7555
X1.7862Y-3.9114
X1.7862Y-4.1697
X1.7917Y-3.8598
X1.7941Y-3.465
X1.7953Y-2.7606
X1.7957Y-4.4756
X1.797Y-4.0975
X1.7984Y-2.6776
X1.8Y-2.6441
X1.8016Y-2.6122
X1.8024Y-2.7146
X1.8024Y-4.1366
X1.8134Y-3.9524
X1.8197Y-3.4016
X1.822Y-3.1657
X1.8311Y-4.6
X1.8343Y-3.8484
X1.835Y-2.613
X1.8512Y-3.402
X1.8512Y-3.9445
X1.8563Y-3.1673
X1.8583Y-3.4673
X1.8591Y-3.5425
X1.8661Y-3.8453
X1.8693Y-3.3673
X1.8697Y-2.6142
X1.878Y-3.9209
X1.8843Y-3.402
X1.8894Y-4.3083
X1.8898Y-4.4142
X1.8941Y-3.3169
X1.8996Y-3.852
X1.9031Y-2.6142
X1.9031Y-4.2799
X1.9063Y-4.6157
X1.9165Y-3.4031
X1.9177Y-3.3669
X1.9189Y-3.4665
X1.9197Y-4.1622
X1.9209Y-3.5433
X1.9252Y-4.7567
X1.9327Y-4.2295
X1.937Y-2.6134
X1.9382Y-3.0579
X1.9386Y-3.0898
X1.9472Y-4.5114
X1.9496Y-4.5445
X1.9697Y-2.613
X1.9807Y-3.5476
X1.9862Y-4.1839
X1.9874Y-4.5102
X1.9882Y-4.5433
X1.9894Y-3.4661
X1.998Y-3.3941
X2.0031Y-2.613
X2.0059Y-3.1634
X2.035Y-3.5413
X2.037Y-3.1563
X2.0374Y-2.6122
X2.0374Y-4.5961
X2.0386Y-4.548
X2.0449Y-3.85
X2.0661Y-4.5823
X2.0685Y-3.1571
X2.0709Y-2.6122
X2.0791Y-4.6193
X2.0803Y-3.4669
X2.0906Y-4.7827
X2.0921Y-3.1917
X2.0937Y-4.2902
X2.0949Y-4.2488
X2.1039Y-2.6106
X2.1059Y-3.8051
X2.111Y-3.4236
X2.1122Y-3.463
X2.1177Y-4.5469
X2.1386Y-2.6106
X2.1587Y-4.5512
X2.1606Y-3.0858
X2.163Y-3.1614
X2.1638Y-3.2484
X2.1646Y-3.2154
X2.165Y-3.5457
X2.1709Y-2.6106
X2.1717Y-3.4598
X2.1858Y-4.1339
X2.1972Y-3.4217
X2.2047Y-2.6122
X2.2138Y-4.2232
X2.2169Y-4.7961
X2.2177Y-4.6496
X2.2201Y-3.4453
X2.2378Y-2.6118
X2.2496Y-3.0555
X2.2496Y-4.2213
X2.2504Y-4.7012
X2.2535Y-3.1587
X2.2626Y-3.3602
X2.2665Y-3.0882
X2.2713Y-2.6122
X2.2823Y-3.2945
X2.2827Y-3.2244
X2.2839Y-4.7008
X2.2874Y-4.1354
X2.2921Y-4.6476
X2.322Y-3.1579
X2.3528Y-2.6929
X2.3559Y-2.5559
X2.365Y-4.2606
X2.3724Y-3.3787
X2.3803Y-2.9587
X2.3807Y-3.2661
X2.3831Y-4.1362
X2.3961Y-4.3248
X2.398Y-4.2575
X2.4008Y-2.7614
X2.4339Y-2.7606
X2.452Y-4.3823
X2.478Y-3.8535
X2.4783Y-2.763
X2.4791Y-3.2354
X2.4803Y-3.1484
X2.4803Y-3.3425
X2.4803Y-3.5252
X2.4803Y-3.6366
X2.4807Y-3.4307
X2.4807Y-3.7327
X2.4839Y-4.6055
X2.485Y-4.5705
T3
X2.3657Y-4.4311
X2.3657Y-4.5098
T4
X2.1087Y-4.0764
X2.2071Y-4.0764
X2.3055Y-4.0764
X2.4039Y-4.0764
T5
X1.648Y-2.9142
X1.648Y-3.0142
X1.648Y-3.1142
X1.648Y-3.2142
X1.648Y-3.3142
X1.648Y-3.4142
X1.648Y-3.5142
X1.648Y-3.6142
X1.648Y-3.7142
X1.648Y-3.8142
X2.4268Y-2.9075
X2.4268Y-3.0075
X2.4268Y-3.1075
X2.4268Y-3.2075
X2.4268Y-3.3075
X2.4268Y-3.4075
X2.4268Y-3.5075
X2.4268Y-3.6075
X2.4268Y-3.7075
X2.4268Y-3.8075
T6
X1.7402Y-4.1276
T7
X1.6402Y-4.0276
X1.6402Y-4.2276
X1.8402Y-4.0276
X1.8402Y-4.2276
T8
X1.6386Y-2.6173
X1.6433Y-4.8791
X2.4358Y-4.8787
X2.4382Y-2.6161
T2
G00X1.8402Y-4.678
M15
G01X1.8402Y-4.7213
M16
G05
G00X1.8402Y-4.8524
M15
G01X1.8402Y-4.876
M16
G05
G00X2.1803Y-4.678
M15
G01X2.1803Y-4.7213
M16
G05
G00X2.1803Y-4.8524
M15
G01X2.1803Y-4.876
M16
G05
M30
