%TF.GenerationSoftware,KiCad,Pcbnew,9.0.6*%
%TF.CreationDate,2025-12-20T13:57:38-05:00*%
%TF.ProjectId,TinkerNav V24,54696e6b-6572-44e6-9176-205632342e6b,1*%
%TF.SameCoordinates,Original*%
%TF.FileFunction,Paste,Top*%
%TF.FilePolarity,Positive*%
%FSLAX46Y46*%
G04 Gerber Fmt 4.6, Leading zero omitted, Abs format (unit mm)*
G04 Created by KiCad (PCBNEW 9.0.6) date 2025-12-20 13:57:38*
%MOMM*%
%LPD*%
G01*
G04 APERTURE LIST*
G04 Aperture macros list*
%AMRoundRect*
0 Rectangle with rounded corners*
0 $1 Rounding radius*
0 $2 $3 $4 $5 $6 $7 $8 $9 X,Y pos of 4 corners*
0 Add a 4 corners polygon primitive as box body*
4,1,4,$2,$3,$4,$5,$6,$7,$8,$9,$2,$3,0*
0 Add four circle primitives for the rounded corners*
1,1,$1+$1,$2,$3*
1,1,$1+$1,$4,$5*
1,1,$1+$1,$6,$7*
1,1,$1+$1,$8,$9*
0 Add four rect primitives between the rounded corners*
20,1,$1+$1,$2,$3,$4,$5,0*
20,1,$1+$1,$4,$5,$6,$7,0*
20,1,$1+$1,$6,$7,$8,$9,0*
20,1,$1+$1,$8,$9,$2,$3,0*%
G04 Aperture macros list end*
%ADD10C,0.010000*%
%ADD11R,1.092200X1.193800*%
%ADD12R,0.560000X0.800000*%
%ADD13R,0.560000X0.720000*%
%ADD14R,0.640000X0.320000*%
%ADD15R,0.320000X0.640000*%
%ADD16R,0.960000X0.960000*%
%ADD17R,0.640000X0.640000*%
%ADD18RoundRect,0.005000X-0.095000X0.235000X-0.095000X-0.235000X0.095000X-0.235000X0.095000X0.235000X0*%
%ADD19RoundRect,0.005000X-0.235000X0.095000X-0.235000X-0.095000X0.235000X-0.095000X0.235000X0.095000X0*%
%ADD20RoundRect,0.600000X0.600000X-1.000000X0.600000X1.000000X-0.600000X1.000000X-0.600000X-1.000000X0*%
%ADD21R,0.480000X1.160000*%
%ADD22R,0.240000X1.160000*%
%ADD23O,0.800000X1.680000*%
%ADD24O,0.800000X1.280000*%
%ADD25RoundRect,0.200000X0.275000X-0.200000X0.275000X0.200000X-0.275000X0.200000X-0.275000X-0.200000X0*%
%ADD26RoundRect,0.218750X-0.256250X0.218750X-0.256250X-0.218750X0.256250X-0.218750X0.256250X0.218750X0*%
%ADD27RoundRect,0.250000X-0.475000X0.250000X-0.475000X-0.250000X0.475000X-0.250000X0.475000X0.250000X0*%
%ADD28RoundRect,0.250000X0.475000X-0.250000X0.475000X0.250000X-0.475000X0.250000X-0.475000X-0.250000X0*%
%ADD29RoundRect,0.250000X-0.250000X-0.475000X0.250000X-0.475000X0.250000X0.475000X-0.250000X0.475000X0*%
%ADD30RoundRect,0.200000X0.200000X0.275000X-0.200000X0.275000X-0.200000X-0.275000X0.200000X-0.275000X0*%
%ADD31R,0.977900X0.850000*%
%ADD32R,0.977900X0.558800*%
%ADD33RoundRect,0.225000X-0.375000X0.225000X-0.375000X-0.225000X0.375000X-0.225000X0.375000X0.225000X0*%
%ADD34RoundRect,0.200000X-0.275000X0.200000X-0.275000X-0.200000X0.275000X-0.200000X0.275000X0.200000X0*%
%ADD35RoundRect,0.200000X-0.200000X-0.275000X0.200000X-0.275000X0.200000X0.275000X-0.200000X0.275000X0*%
%ADD36RoundRect,0.225000X-0.250000X0.225000X-0.250000X-0.225000X0.250000X-0.225000X0.250000X0.225000X0*%
%ADD37R,0.558800X1.295400*%
%ADD38R,1.500000X2.400000*%
%ADD39RoundRect,0.225000X-0.225000X-0.250000X0.225000X-0.250000X0.225000X0.250000X-0.225000X0.250000X0*%
%ADD40R,0.700000X0.700000*%
%ADD41RoundRect,0.225000X0.225000X0.250000X-0.225000X0.250000X-0.225000X-0.250000X0.225000X-0.250000X0*%
%ADD42RoundRect,0.225000X0.250000X-0.225000X0.250000X0.225000X-0.250000X0.225000X-0.250000X-0.225000X0*%
G04 APERTURE END LIST*
D10*
%TO.C,U3*%
X50680000Y-71290000D02*
X49480000Y-71290000D01*
X49480000Y-70690000D01*
X50080000Y-70090000D01*
X50680000Y-70090000D01*
X50680000Y-71290000D01*
G36*
X50680000Y-71290000D02*
G01*
X49480000Y-71290000D01*
X49480000Y-70690000D01*
X50080000Y-70090000D01*
X50680000Y-70090000D01*
X50680000Y-71290000D01*
G37*
%TO.C,U6*%
X45140000Y-114595000D02*
X44890000Y-114595000D01*
X44890000Y-113875000D01*
X45140000Y-113875000D01*
X45140000Y-114595000D01*
G36*
X45140000Y-114595000D02*
G01*
X44890000Y-114595000D01*
X44890000Y-113875000D01*
X45140000Y-113875000D01*
X45140000Y-114595000D01*
G37*
X45640000Y-114770500D02*
X45390000Y-114770500D01*
X45390000Y-114195500D01*
X45640000Y-114195500D01*
X45640000Y-114770500D01*
G36*
X45640000Y-114770500D02*
G01*
X45390000Y-114770500D01*
X45390000Y-114195500D01*
X45640000Y-114195500D01*
X45640000Y-114770500D01*
G37*
X44640000Y-114770500D02*
X44390000Y-114770500D01*
X44390000Y-114195500D01*
X44640000Y-114195500D01*
X44640000Y-114770500D01*
G36*
X44640000Y-114770500D02*
G01*
X44390000Y-114770500D01*
X44390000Y-114195500D01*
X44640000Y-114195500D01*
X44640000Y-114770500D01*
G37*
X45140000Y-115515000D02*
X44890000Y-115515000D01*
X44890000Y-114795000D01*
X45140000Y-114795000D01*
X45140000Y-115515000D01*
G36*
X45140000Y-115515000D02*
G01*
X44890000Y-115515000D01*
X44890000Y-114795000D01*
X45140000Y-114795000D01*
X45140000Y-115515000D01*
G37*
X45640000Y-115545500D02*
X45390000Y-115545500D01*
X45390000Y-114970500D01*
X45640000Y-114970500D01*
X45640000Y-115545500D01*
G36*
X45640000Y-115545500D02*
G01*
X45390000Y-115545500D01*
X45390000Y-114970500D01*
X45640000Y-114970500D01*
X45640000Y-115545500D01*
G37*
X44640000Y-115545500D02*
X44390000Y-115545500D01*
X44390000Y-114970500D01*
X44640000Y-114970500D01*
X44640000Y-115545500D01*
G36*
X44640000Y-115545500D02*
G01*
X44390000Y-115545500D01*
X44390000Y-114970500D01*
X44640000Y-114970500D01*
X44640000Y-115545500D01*
G37*
X43915000Y-114995000D02*
X43315000Y-114995000D01*
X43315000Y-114745000D01*
X43665000Y-114745000D01*
X43665000Y-114495000D01*
X43315000Y-114495000D01*
X43315000Y-114245000D01*
X43915000Y-114245000D01*
X43915000Y-114995000D01*
G36*
X43915000Y-114995000D02*
G01*
X43315000Y-114995000D01*
X43315000Y-114745000D01*
X43665000Y-114745000D01*
X43665000Y-114495000D01*
X43315000Y-114495000D01*
X43315000Y-114245000D01*
X43915000Y-114245000D01*
X43915000Y-114995000D01*
G37*
X46715000Y-114495000D02*
X46365000Y-114495000D01*
X46365000Y-114745000D01*
X46715000Y-114745000D01*
X46715000Y-114995000D01*
X46115000Y-114995000D01*
X46115000Y-114245000D01*
X46715000Y-114245000D01*
X46715000Y-114495000D01*
G36*
X46715000Y-114495000D02*
G01*
X46365000Y-114495000D01*
X46365000Y-114745000D01*
X46715000Y-114745000D01*
X46715000Y-114995000D01*
X46115000Y-114995000D01*
X46115000Y-114245000D01*
X46715000Y-114245000D01*
X46715000Y-114495000D01*
G37*
%TD*%
D11*
%TO.C,CR1*%
X56335800Y-111240000D03*
X53110000Y-111240000D03*
%TD*%
D12*
%TO.C,U2*%
X54980000Y-88960000D03*
X53880000Y-88960000D03*
X52780000Y-88960000D03*
X51680000Y-88960000D03*
X50580000Y-88960000D03*
X49480000Y-88960000D03*
X48380000Y-88960000D03*
X47280000Y-88960000D03*
X46180000Y-88960000D03*
X46180000Y-98660000D03*
X47280000Y-98660000D03*
X48380000Y-98660000D03*
X49480000Y-98660000D03*
X50580000Y-98660000D03*
X51680000Y-98660000D03*
X52780000Y-98660000D03*
X53880000Y-98660000D03*
X54980000Y-98660000D03*
%TD*%
D13*
%TO.C,D2*%
X44490000Y-99960000D03*
X44490000Y-98660000D03*
%TD*%
D14*
%TO.C,U3*%
X44730000Y-66390000D03*
X44730000Y-67240000D03*
X44730000Y-68090000D03*
X44730000Y-68940000D03*
X44730000Y-69790000D03*
X44730000Y-70640000D03*
X44730000Y-71490000D03*
X44730000Y-72340000D03*
X44730000Y-73190000D03*
X44730000Y-74040000D03*
X44730000Y-74890000D03*
X44730000Y-75740000D03*
X44730000Y-76590000D03*
X44730000Y-77440000D03*
X44730000Y-78290000D03*
D15*
X45780000Y-79340000D03*
X46630000Y-79340000D03*
X47480000Y-79340000D03*
X48330000Y-79340000D03*
X49180000Y-79340000D03*
X50030000Y-79340000D03*
X50880000Y-79340000D03*
X51730000Y-79340000D03*
X52580000Y-79340000D03*
X53430000Y-79340000D03*
X54280000Y-79340000D03*
X55130000Y-79340000D03*
X55980000Y-79340000D03*
X56830000Y-79340000D03*
X57680000Y-79340000D03*
D14*
X58730000Y-78290000D03*
X58730000Y-77440000D03*
X58730000Y-76590000D03*
X58730000Y-75740000D03*
X58730000Y-74890000D03*
X58730000Y-74040000D03*
X58730000Y-73190000D03*
X58730000Y-72340000D03*
X58730000Y-71490000D03*
X58730000Y-70640000D03*
X58730000Y-69790000D03*
X58730000Y-68940000D03*
X58730000Y-68090000D03*
X58730000Y-67240000D03*
X58730000Y-66390000D03*
D15*
X57680000Y-65340000D03*
X56830000Y-65340000D03*
X55980000Y-65340000D03*
X55130000Y-65340000D03*
X54280000Y-65340000D03*
X53430000Y-65340000D03*
X52580000Y-65340000D03*
X51730000Y-65340000D03*
X50880000Y-65340000D03*
X50030000Y-65340000D03*
X49180000Y-65340000D03*
X48330000Y-65340000D03*
X47480000Y-65340000D03*
X46630000Y-65340000D03*
X45780000Y-65340000D03*
D16*
X51730000Y-72340000D03*
X51730000Y-70690000D03*
X53380000Y-70690000D03*
X53380000Y-72340000D03*
X53380000Y-73990000D03*
X51730000Y-73990000D03*
X50080000Y-73990000D03*
X50080000Y-72340000D03*
D17*
X44730000Y-65340000D03*
X44730000Y-79340000D03*
X58730000Y-79340000D03*
X58730000Y-65340000D03*
%TD*%
D18*
%TO.C,U6*%
X45765000Y-112945000D03*
X45265000Y-112945000D03*
X44765000Y-112945000D03*
X44265000Y-112945000D03*
D19*
X43615000Y-113370000D03*
X43615000Y-113870000D03*
X46415000Y-113870000D03*
X46415000Y-113370000D03*
%TD*%
D20*
%TO.C,J7*%
X50980000Y-122660000D03*
D21*
X47810000Y-118455000D03*
X48610000Y-118455000D03*
D22*
X49810000Y-118455000D03*
X50810000Y-118455000D03*
X51310000Y-118455000D03*
X52310000Y-118455000D03*
D21*
X53510000Y-118455000D03*
X54310000Y-118455000D03*
D22*
X52810000Y-118455000D03*
X51810000Y-118455000D03*
X50310000Y-118455000D03*
X49310000Y-118455000D03*
D23*
X46740000Y-119370000D03*
D24*
X46740000Y-123550000D03*
D23*
X55380000Y-119370000D03*
D24*
X55380000Y-123550000D03*
%TD*%
D25*
%TO.C,R1*%
X58660000Y-82725000D03*
X58660000Y-81075000D03*
%TD*%
D26*
%TO.C,D1*%
X61550000Y-118227500D03*
X61550000Y-119802500D03*
%TD*%
D27*
%TO.C,C21*%
X42600000Y-69475000D03*
X42600000Y-71375000D03*
%TD*%
D28*
%TO.C,C18*%
X50860000Y-113320000D03*
X50860000Y-111420000D03*
%TD*%
D29*
%TO.C,C4*%
X49500000Y-87180000D03*
X51400000Y-87180000D03*
%TD*%
D30*
%TO.C,R13*%
X44185000Y-109690000D03*
X42535000Y-109690000D03*
%TD*%
D31*
%TO.C,CR2*%
X59672550Y-120180200D03*
D32*
X59660000Y-118375000D03*
X57285100Y-118375000D03*
X57285100Y-120305400D03*
%TD*%
D33*
%TO.C,D4*%
X55960000Y-113192500D03*
X55960000Y-116492500D03*
%TD*%
D34*
%TO.C,R15*%
X46300000Y-81335000D03*
X46300000Y-82985000D03*
%TD*%
D25*
%TO.C,R7*%
X63110000Y-119850000D03*
X63110000Y-118200000D03*
%TD*%
D29*
%TO.C,C13*%
X42240000Y-111410000D03*
X44140000Y-111410000D03*
%TD*%
D35*
%TO.C,R6*%
X49225000Y-109920000D03*
X50875000Y-109920000D03*
%TD*%
D36*
%TO.C,C16*%
X42230000Y-113605000D03*
X42230000Y-115155000D03*
%TD*%
D34*
%TO.C,R20*%
X45630000Y-109635000D03*
X45630000Y-111285000D03*
%TD*%
D36*
%TO.C,C3*%
X47815000Y-114875000D03*
X47815000Y-116425000D03*
%TD*%
D37*
%TO.C,SW1*%
X63576400Y-70190000D03*
X60223600Y-70190000D03*
%TD*%
D38*
%TO.C,L2*%
X44720000Y-118200000D03*
X41020000Y-118200000D03*
%TD*%
D36*
%TO.C,C22*%
X40840000Y-69430000D03*
X40840000Y-70980000D03*
%TD*%
D25*
%TO.C,R22*%
X59140000Y-99960000D03*
X59140000Y-98310000D03*
%TD*%
%TO.C,R24*%
X59140000Y-96955000D03*
X59140000Y-95305000D03*
%TD*%
D28*
%TO.C,C15*%
X48870000Y-113340000D03*
X48870000Y-111440000D03*
%TD*%
D26*
%TO.C,D3*%
X49490000Y-101875000D03*
X49490000Y-103450000D03*
%TD*%
D30*
%TO.C,R2*%
X59320000Y-108300000D03*
X57670000Y-108300000D03*
%TD*%
D25*
%TO.C,R23*%
X57630000Y-96970000D03*
X57630000Y-95320000D03*
%TD*%
D28*
%TO.C,C14*%
X40470000Y-111670000D03*
X40470000Y-109770000D03*
%TD*%
D39*
%TO.C,C19*%
X49285000Y-108410000D03*
X50835000Y-108410000D03*
%TD*%
D40*
%TO.C,L1*%
X54400000Y-108170000D03*
X54400000Y-109270000D03*
X56230000Y-109270000D03*
X56230000Y-108170000D03*
%TD*%
D30*
%TO.C,R5*%
X50870000Y-116440000D03*
X49220000Y-116440000D03*
%TD*%
D33*
%TO.C,D7*%
X53540000Y-113190000D03*
X53540000Y-116490000D03*
%TD*%
D27*
%TO.C,C17*%
X40460000Y-113210000D03*
X40460000Y-115110000D03*
%TD*%
D41*
%TO.C,C8*%
X47975000Y-87440000D03*
X46425000Y-87440000D03*
%TD*%
D42*
%TO.C,C12*%
X57110000Y-82670000D03*
X57110000Y-81120000D03*
%TD*%
D25*
%TO.C,R8*%
X49500000Y-106520000D03*
X49500000Y-104870000D03*
%TD*%
D34*
%TO.C,R10*%
X57310000Y-121915000D03*
X57310000Y-123565000D03*
%TD*%
%TO.C,R4*%
X44770000Y-81340000D03*
X44770000Y-82990000D03*
%TD*%
D36*
%TO.C,C20*%
X57610000Y-98365000D03*
X57610000Y-99915000D03*
%TD*%
D25*
%TO.C,R21*%
X47130000Y-111275000D03*
X47130000Y-109625000D03*
%TD*%
M02*
