%TF.GenerationSoftware,KiCad,Pcbnew,9.0.6*%
%TF.CreationDate,2025-12-20T13:57:38-05:00*%
%TF.ProjectId,TinkerNav V24,54696e6b-6572-44e6-9176-205632342e6b,1*%
%TF.SameCoordinates,Original*%
%TF.FileFunction,Legend,Top*%
%TF.FilePolarity,Positive*%
%FSLAX46Y46*%
G04 Gerber Fmt 4.6, Leading zero omitted, Abs format (unit mm)*
G04 Created by KiCad (PCBNEW 9.0.6) date 2025-12-20 13:57:38*
%MOMM*%
%LPD*%
G01*
G04 APERTURE LIST*
%ADD10C,0.150000*%
%ADD11C,0.200000*%
%ADD12C,0.300000*%
%ADD13C,0.120000*%
%ADD14C,0.152400*%
%ADD15C,0.127000*%
G04 APERTURE END LIST*
D10*
X42530000Y-61430000D02*
X42020000Y-61420000D01*
X42020000Y-63670000D01*
X41460000Y-63680000D01*
X41460000Y-61420000D01*
X40930000Y-61420000D01*
X41740000Y-60370000D01*
X42530000Y-61430000D01*
G36*
X42530000Y-61430000D02*
G01*
X42020000Y-61420000D01*
X42020000Y-63670000D01*
X41460000Y-63680000D01*
X41460000Y-61420000D01*
X40930000Y-61420000D01*
X41740000Y-60370000D01*
X42530000Y-61430000D01*
G37*
X45450000Y-122500000D02*
X44940000Y-122490000D01*
X44940000Y-124740000D01*
X44380000Y-124750000D01*
X44380000Y-122490000D01*
X43850000Y-122490000D01*
X44660000Y-121440000D01*
X45450000Y-122500000D01*
G36*
X45450000Y-122500000D02*
G01*
X44940000Y-122490000D01*
X44940000Y-124740000D01*
X44380000Y-124750000D01*
X44380000Y-122490000D01*
X43850000Y-122490000D01*
X44660000Y-121440000D01*
X45450000Y-122500000D01*
G37*
X45400000Y-87530000D02*
X44890000Y-87520000D01*
X44890000Y-89770000D01*
X44330000Y-89780000D01*
X44330000Y-87520000D01*
X43800000Y-87520000D01*
X44610000Y-86470000D01*
X45400000Y-87530000D01*
G36*
X45400000Y-87530000D02*
G01*
X44890000Y-87520000D01*
X44890000Y-89770000D01*
X44330000Y-89780000D01*
X44330000Y-87520000D01*
X43800000Y-87520000D01*
X44610000Y-86470000D01*
X45400000Y-87530000D01*
G37*
D11*
X48683482Y-99694838D02*
X48588244Y-99647219D01*
X48588244Y-99647219D02*
X48445387Y-99647219D01*
X48445387Y-99647219D02*
X48302530Y-99694838D01*
X48302530Y-99694838D02*
X48207292Y-99790076D01*
X48207292Y-99790076D02*
X48159673Y-99885314D01*
X48159673Y-99885314D02*
X48112054Y-100075790D01*
X48112054Y-100075790D02*
X48112054Y-100218647D01*
X48112054Y-100218647D02*
X48159673Y-100409123D01*
X48159673Y-100409123D02*
X48207292Y-100504361D01*
X48207292Y-100504361D02*
X48302530Y-100599600D01*
X48302530Y-100599600D02*
X48445387Y-100647219D01*
X48445387Y-100647219D02*
X48540625Y-100647219D01*
X48540625Y-100647219D02*
X48683482Y-100599600D01*
X48683482Y-100599600D02*
X48731101Y-100551980D01*
X48731101Y-100551980D02*
X48731101Y-100218647D01*
X48731101Y-100218647D02*
X48540625Y-100218647D01*
X49159673Y-100647219D02*
X49159673Y-99647219D01*
X49159673Y-99647219D02*
X49540625Y-99647219D01*
X49540625Y-99647219D02*
X49635863Y-99694838D01*
X49635863Y-99694838D02*
X49683482Y-99742457D01*
X49683482Y-99742457D02*
X49731101Y-99837695D01*
X49731101Y-99837695D02*
X49731101Y-99980552D01*
X49731101Y-99980552D02*
X49683482Y-100075790D01*
X49683482Y-100075790D02*
X49635863Y-100123409D01*
X49635863Y-100123409D02*
X49540625Y-100171028D01*
X49540625Y-100171028D02*
X49159673Y-100171028D01*
X50112054Y-100599600D02*
X50254911Y-100647219D01*
X50254911Y-100647219D02*
X50493006Y-100647219D01*
X50493006Y-100647219D02*
X50588244Y-100599600D01*
X50588244Y-100599600D02*
X50635863Y-100551980D01*
X50635863Y-100551980D02*
X50683482Y-100456742D01*
X50683482Y-100456742D02*
X50683482Y-100361504D01*
X50683482Y-100361504D02*
X50635863Y-100266266D01*
X50635863Y-100266266D02*
X50588244Y-100218647D01*
X50588244Y-100218647D02*
X50493006Y-100171028D01*
X50493006Y-100171028D02*
X50302530Y-100123409D01*
X50302530Y-100123409D02*
X50207292Y-100075790D01*
X50207292Y-100075790D02*
X50159673Y-100028171D01*
X50159673Y-100028171D02*
X50112054Y-99932933D01*
X50112054Y-99932933D02*
X50112054Y-99837695D01*
X50112054Y-99837695D02*
X50159673Y-99742457D01*
X50159673Y-99742457D02*
X50207292Y-99694838D01*
X50207292Y-99694838D02*
X50302530Y-99647219D01*
X50302530Y-99647219D02*
X50540625Y-99647219D01*
X50540625Y-99647219D02*
X50683482Y-99694838D01*
D12*
X59543558Y-109317733D02*
X61067368Y-109317733D01*
X60305463Y-110079638D02*
X60305463Y-108555828D01*
D13*
%TO.C,CR1*%
X57132900Y-110370000D02*
X57132900Y-112090000D01*
D14*
X56297700Y-112370300D02*
X56297700Y-112169640D01*
X56297700Y-110310360D02*
X56297700Y-110109700D01*
X56297700Y-110109700D02*
X53148100Y-110109700D01*
X53148100Y-112370300D02*
X56297700Y-112370300D01*
X53148100Y-112169640D02*
X53148100Y-112370300D01*
X53148100Y-110109700D02*
X53148100Y-110310360D01*
D13*
%TO.C,U2*%
X45530000Y-98660000D02*
X45680000Y-98660000D01*
X55630000Y-98660000D02*
X55430000Y-98660000D01*
X55630000Y-98660000D02*
X55630000Y-88960000D01*
X45530000Y-88960000D02*
X45530000Y-98660000D01*
X45530000Y-88960000D02*
X45680000Y-88960000D01*
X55630000Y-88960000D02*
X55480000Y-88960000D01*
D15*
%TO.C,U3*%
X44030000Y-59565000D02*
X59430000Y-59565000D01*
X44030000Y-64615000D02*
X44030000Y-59565000D01*
X59430000Y-59565000D02*
X59430000Y-64615000D01*
X59430000Y-80065000D02*
X44030000Y-80065000D01*
%TO.C,U6*%
X46515000Y-112845000D02*
X46210000Y-112845000D01*
X43515000Y-112845000D02*
X43820000Y-112845000D01*
X46515000Y-112925000D02*
X46515000Y-112845000D01*
X43515000Y-112925000D02*
X43515000Y-112845000D01*
X46515000Y-115265000D02*
X46515000Y-115345000D01*
X46515000Y-115345000D02*
X46010000Y-115345000D01*
X44020000Y-115345000D02*
X43515000Y-115345000D01*
X43515000Y-115345000D02*
X43515000Y-115265000D01*
D13*
%TO.C,J7*%
X46360000Y-120600000D02*
X46360000Y-122600000D01*
X46360000Y-124500000D02*
X46360000Y-126400000D01*
X46360000Y-126400000D02*
X55760000Y-126400000D01*
X55760000Y-120600000D02*
X55760000Y-122600000D01*
X55760000Y-124500000D02*
X55760000Y-126400000D01*
%TO.C,R1*%
X58137500Y-82137258D02*
X58137500Y-81662742D01*
X59182500Y-82137258D02*
X59182500Y-81662742D01*
%TO.C,D1*%
X60815000Y-117530000D02*
X60815000Y-119815000D01*
X62285000Y-117530000D02*
X60815000Y-117530000D01*
X62285000Y-119815000D02*
X62285000Y-117530000D01*
%TO.C,C21*%
X41865000Y-70163748D02*
X41865000Y-70686252D01*
X43335000Y-70163748D02*
X43335000Y-70686252D01*
%TO.C,C18*%
X50125000Y-112631252D02*
X50125000Y-112108748D01*
X51595000Y-112631252D02*
X51595000Y-112108748D01*
%TO.C,C4*%
X50188748Y-86445000D02*
X50711252Y-86445000D01*
X50188748Y-87915000D02*
X50711252Y-87915000D01*
%TO.C,R13*%
X43597258Y-109167500D02*
X43122742Y-109167500D01*
X43597258Y-110212500D02*
X43122742Y-110212500D01*
D14*
%TO.C,CR2*%
X57647050Y-118987140D02*
X57647050Y-119693260D01*
X57647050Y-120991200D02*
X59298050Y-120991200D01*
X59298050Y-117689200D02*
X57647050Y-117689200D01*
X59302550Y-119560200D02*
X59298050Y-118987140D01*
D13*
%TO.C,D4*%
X54960000Y-112482500D02*
X54960000Y-116492500D01*
X56960000Y-112482500D02*
X54960000Y-112482500D01*
X56960000Y-112482500D02*
X56960000Y-116492500D01*
%TO.C,R15*%
X45777500Y-81922742D02*
X45777500Y-82397258D01*
X46822500Y-81922742D02*
X46822500Y-82397258D01*
%TO.C,R7*%
X62587500Y-119262258D02*
X62587500Y-118787742D01*
X63632500Y-119262258D02*
X63632500Y-118787742D01*
%TO.C,C13*%
X42928748Y-110675000D02*
X43451252Y-110675000D01*
X42928748Y-112145000D02*
X43451252Y-112145000D01*
%TO.C,R6*%
X49812742Y-109397500D02*
X50287258Y-109397500D01*
X49812742Y-110442500D02*
X50287258Y-110442500D01*
%TO.C,C16*%
X41720000Y-114239420D02*
X41720000Y-114520580D01*
X42740000Y-114239420D02*
X42740000Y-114520580D01*
D15*
%TO.C,J2*%
X40700000Y-103840000D02*
X40700000Y-105840000D01*
X43200000Y-101340000D02*
X45200000Y-101340000D01*
X43200000Y-108340000D02*
X45200000Y-108340000D01*
X47700000Y-103840000D02*
X47700000Y-105840000D01*
D13*
%TO.C,R20*%
X45107500Y-110222742D02*
X45107500Y-110697258D01*
X46152500Y-110222742D02*
X46152500Y-110697258D01*
%TO.C,C3*%
X47305000Y-115509420D02*
X47305000Y-115790580D01*
X48325000Y-115509420D02*
X48325000Y-115790580D01*
D14*
%TO.C,SW1*%
X60274400Y-71421900D02*
X63525600Y-71421900D01*
X63525600Y-68958100D02*
X60274400Y-68958100D01*
D15*
%TO.C,L2*%
X40645000Y-116170000D02*
X40645000Y-116700000D01*
X40645000Y-120230000D02*
X40645000Y-119700000D01*
X45095000Y-116170000D02*
X40645000Y-116170000D01*
X45095000Y-116170000D02*
X45095000Y-116700000D01*
X45095000Y-119700000D02*
X45095000Y-120230000D01*
X45095000Y-120230000D02*
X40645000Y-120230000D01*
D13*
%TO.C,J5*%
X50710000Y-100790000D02*
X50710000Y-102040000D01*
X51000000Y-101080000D02*
X51000000Y-107050000D01*
X51000000Y-107050000D02*
X63620000Y-107050000D01*
X51010000Y-101090000D02*
X51010000Y-101840000D01*
X51010000Y-101840000D02*
X52810000Y-101840000D01*
X51010000Y-103340000D02*
X51760000Y-103340000D01*
X51760000Y-103340000D02*
X51760000Y-106290000D01*
X51760000Y-106290000D02*
X57310000Y-106290000D01*
X51960000Y-100790000D02*
X50710000Y-100790000D01*
X52810000Y-101090000D02*
X51010000Y-101090000D01*
X52810000Y-101840000D02*
X52810000Y-101090000D01*
X54310000Y-101090000D02*
X54310000Y-101840000D01*
X54310000Y-101840000D02*
X60310000Y-101840000D01*
X60310000Y-101090000D02*
X54310000Y-101090000D01*
X60310000Y-101840000D02*
X60310000Y-101090000D01*
X61810000Y-101090000D02*
X61810000Y-101840000D01*
X61810000Y-101840000D02*
X63610000Y-101840000D01*
X62860000Y-103340000D02*
X62860000Y-106290000D01*
X62860000Y-106290000D02*
X57310000Y-106290000D01*
X63610000Y-101090000D02*
X61810000Y-101090000D01*
X63610000Y-101840000D02*
X63610000Y-101090000D01*
X63610000Y-103340000D02*
X62860000Y-103340000D01*
X63620000Y-101080000D02*
X51000000Y-101080000D01*
X63620000Y-107050000D02*
X63620000Y-101080000D01*
%TO.C,C22*%
X40330000Y-70064420D02*
X40330000Y-70345580D01*
X41350000Y-70064420D02*
X41350000Y-70345580D01*
%TO.C,R22*%
X58617500Y-99372258D02*
X58617500Y-98897742D01*
X59662500Y-99372258D02*
X59662500Y-98897742D01*
%TO.C,J1*%
X40480000Y-72640000D02*
X41860000Y-72640000D01*
X40480000Y-74020000D02*
X40480000Y-72640000D01*
X40480000Y-75290000D02*
X40480000Y-98260000D01*
X40480000Y-75290000D02*
X43240000Y-75290000D01*
X40480000Y-98260000D02*
X43240000Y-98260000D01*
X43240000Y-75290000D02*
X43240000Y-98260000D01*
%TO.C,R24*%
X58617500Y-96367258D02*
X58617500Y-95892742D01*
X59662500Y-96367258D02*
X59662500Y-95892742D01*
%TO.C,C15*%
X48135000Y-112651252D02*
X48135000Y-112128748D01*
X49605000Y-112651252D02*
X49605000Y-112128748D01*
%TO.C,D3*%
X48755000Y-101177500D02*
X48755000Y-103462500D01*
X50225000Y-101177500D02*
X48755000Y-101177500D01*
X50225000Y-103462500D02*
X50225000Y-101177500D01*
%TO.C,R2*%
X58732258Y-107777500D02*
X58257742Y-107777500D01*
X58732258Y-108822500D02*
X58257742Y-108822500D01*
%TO.C,R23*%
X57107500Y-96382258D02*
X57107500Y-95907742D01*
X58152500Y-96382258D02*
X58152500Y-95907742D01*
%TO.C,C14*%
X39735000Y-110981252D02*
X39735000Y-110458748D01*
X41205000Y-110981252D02*
X41205000Y-110458748D01*
%TO.C,C19*%
X49919420Y-107900000D02*
X50200580Y-107900000D01*
X49919420Y-108920000D02*
X50200580Y-108920000D01*
%TO.C,J4*%
X60260000Y-72470000D02*
X61640000Y-72470000D01*
X60260000Y-73850000D02*
X60260000Y-72470000D01*
X60260000Y-75120000D02*
X60260000Y-98090000D01*
X60260000Y-75120000D02*
X63020000Y-75120000D01*
X60260000Y-98090000D02*
X63020000Y-98090000D01*
X63020000Y-75120000D02*
X63020000Y-98090000D01*
%TO.C,J29*%
X57980000Y-115660000D02*
X57980000Y-116910000D01*
X57980000Y-116910000D02*
X59230000Y-116910000D01*
X58080000Y-114850000D02*
X58080000Y-115150000D01*
X58080000Y-115150000D02*
X58280000Y-115150000D01*
X58180000Y-114850000D02*
X58180000Y-115150000D01*
X58280000Y-110490000D02*
X58280000Y-116610000D01*
X58280000Y-114050000D02*
X58890000Y-114050000D01*
X58280000Y-114850000D02*
X58080000Y-114850000D01*
X58280000Y-116610000D02*
X63000000Y-116610000D01*
X58890000Y-111100000D02*
X58890000Y-113050000D01*
X58890000Y-113050000D02*
X58280000Y-113050000D01*
X58890000Y-114050000D02*
X58890000Y-116000000D01*
X58890000Y-116000000D02*
X62390000Y-116000000D01*
X59590000Y-110490000D02*
X59590000Y-111100000D01*
X59590000Y-116610000D02*
X59590000Y-116000000D01*
X60890000Y-110490000D02*
X60890000Y-111100000D01*
X60890000Y-116610000D02*
X60890000Y-116000000D01*
X61890000Y-113450000D02*
X62390000Y-113450000D01*
X61890000Y-113650000D02*
X61890000Y-113450000D01*
X62390000Y-111100000D02*
X58890000Y-111100000D01*
X62390000Y-113550000D02*
X61890000Y-113550000D01*
X62390000Y-113650000D02*
X61890000Y-113650000D01*
X62390000Y-116000000D02*
X62390000Y-111100000D01*
X63000000Y-110490000D02*
X58280000Y-110490000D01*
X63000000Y-116610000D02*
X63000000Y-110490000D01*
%TO.C,L1*%
X53715000Y-109870000D02*
X53715000Y-107870000D01*
X53715000Y-109870000D02*
X56915000Y-109870000D01*
X54015000Y-107570000D02*
X53715000Y-107870000D01*
X54015000Y-107570000D02*
X56915000Y-107570000D01*
X56915000Y-107570000D02*
X56915000Y-109870000D01*
%TO.C,R5*%
X50282258Y-115917500D02*
X49807742Y-115917500D01*
X50282258Y-116962500D02*
X49807742Y-116962500D01*
%TO.C,D7*%
X52540000Y-112480000D02*
X52540000Y-116490000D01*
X54540000Y-112480000D02*
X52540000Y-112480000D01*
X54540000Y-112480000D02*
X54540000Y-116490000D01*
%TO.C,C17*%
X39725000Y-113898748D02*
X39725000Y-114421252D01*
X41195000Y-113898748D02*
X41195000Y-114421252D01*
%TO.C,C8*%
X47340580Y-86930000D02*
X47059420Y-86930000D01*
X47340580Y-87950000D02*
X47059420Y-87950000D01*
%TO.C,C12*%
X56600000Y-82035580D02*
X56600000Y-81754420D01*
X57620000Y-82035580D02*
X57620000Y-81754420D01*
%TO.C,R8*%
X48977500Y-105932258D02*
X48977500Y-105457742D01*
X50022500Y-105932258D02*
X50022500Y-105457742D01*
%TO.C,R10*%
X56787500Y-122502742D02*
X56787500Y-122977258D01*
X57832500Y-122502742D02*
X57832500Y-122977258D01*
%TO.C,R4*%
X44247500Y-81927742D02*
X44247500Y-82402258D01*
X45292500Y-81927742D02*
X45292500Y-82402258D01*
%TO.C,C20*%
X57100000Y-98999420D02*
X57100000Y-99280580D01*
X58120000Y-98999420D02*
X58120000Y-99280580D01*
%TO.C,R21*%
X46607500Y-110687258D02*
X46607500Y-110212742D01*
X47652500Y-110687258D02*
X47652500Y-110212742D01*
%TD*%
M02*
