%TF.GenerationSoftware,KiCad,Pcbnew,9.0.6*%
%TF.CreationDate,2025-12-29T21:41:17-05:00*%
%TF.ProjectId,TinkerSend - E220-900MM22S,54696e6b-6572-4536-956e-64202d204532,1*%
%TF.SameCoordinates,Original*%
%TF.FileFunction,Legend,Top*%
%TF.FilePolarity,Positive*%
%FSLAX46Y46*%
G04 Gerber Fmt 4.6, Leading zero omitted, Abs format (unit mm)*
G04 Created by KiCad (PCBNEW 9.0.6) date 2025-12-29 21:41:17*
%MOMM*%
%LPD*%
G01*
G04 APERTURE LIST*
%ADD10C,0.000000*%
%ADD11C,0.120000*%
G04 APERTURE END LIST*
D10*
%TO.C,G\u002A\u002A\u002A*%
G36*
X111589651Y-47617309D02*
G01*
X111610382Y-47647472D01*
X111638803Y-47691780D01*
X111665242Y-47734699D01*
X111691992Y-47778505D01*
X111730960Y-47841850D01*
X111779650Y-47920701D01*
X111835565Y-48011021D01*
X111896209Y-48108777D01*
X111959085Y-48209933D01*
X111989776Y-48259234D01*
X112056975Y-48367144D01*
X112126869Y-48479421D01*
X112196166Y-48590776D01*
X112261577Y-48695920D01*
X112319810Y-48789563D01*
X112367576Y-48866417D01*
X112378812Y-48884507D01*
X112421002Y-48952406D01*
X112474926Y-49039128D01*
X112537620Y-49139914D01*
X112606122Y-49250000D01*
X112677469Y-49364627D01*
X112748698Y-49479032D01*
X112793429Y-49550856D01*
X112854927Y-49649922D01*
X112911309Y-49741378D01*
X112960984Y-49822601D01*
X113002366Y-49890964D01*
X113033866Y-49943842D01*
X113053894Y-49978610D01*
X113060864Y-49992644D01*
X113060820Y-49992782D01*
X113046208Y-49994021D01*
X113007441Y-49995065D01*
X112948152Y-49995878D01*
X112871976Y-49996426D01*
X112782547Y-49996672D01*
X112683499Y-49996579D01*
X112679257Y-49996567D01*
X112302538Y-49995508D01*
X112302538Y-52427724D01*
X110857614Y-52427724D01*
X110850514Y-50003052D01*
X110471672Y-49996105D01*
X110092830Y-49989157D01*
X110351933Y-49572308D01*
X110418291Y-49465525D01*
X110485288Y-49357662D01*
X110550173Y-49253156D01*
X110610193Y-49156440D01*
X110662597Y-49071947D01*
X110704632Y-49004114D01*
X110722760Y-48974825D01*
X110768170Y-48901420D01*
X110809120Y-48835258D01*
X110847883Y-48772681D01*
X110886730Y-48710029D01*
X110927932Y-48643645D01*
X110973760Y-48569868D01*
X111026485Y-48485039D01*
X111088380Y-48385502D01*
X111161714Y-48267595D01*
X111197166Y-48210602D01*
X111258259Y-48112368D01*
X111318112Y-48016089D01*
X111374202Y-47925827D01*
X111424004Y-47845645D01*
X111464994Y-47779607D01*
X111494647Y-47731777D01*
X111501439Y-47720804D01*
X111532431Y-47671865D01*
X111558204Y-47633342D01*
X111575249Y-47610363D01*
X111579852Y-47606170D01*
X111589651Y-47617309D01*
G37*
D11*
%TO.C,C2*%
X100710000Y-59442164D02*
X100710000Y-59657836D01*
X101430000Y-59442164D02*
X101430000Y-59657836D01*
%TO.C,D1*%
X105480000Y-48255000D02*
X107765000Y-48255000D01*
X107765000Y-46785000D02*
X105480000Y-46785000D01*
X107765000Y-48255000D02*
X107765000Y-46785000D01*
%TO.C,U1*%
X101660000Y-58930000D02*
X101680000Y-69140000D01*
X101680000Y-69140000D02*
X111880000Y-69140000D01*
X111870000Y-58930000D02*
X101660000Y-58930000D01*
X111880000Y-69140000D02*
X111870000Y-58930000D01*
%TO.C,J1*%
X102590000Y-73130000D02*
X103120000Y-73670000D01*
X102594400Y-70323600D02*
X102594400Y-70512961D01*
X103130000Y-73680000D02*
X105845600Y-73676401D01*
X103391960Y-70323600D02*
X102594400Y-70323600D01*
X105845600Y-70323600D02*
X105048040Y-70323600D01*
X105845600Y-70512961D02*
X105845600Y-70323600D01*
X105845600Y-73676401D02*
X105845600Y-73388241D01*
%TO.C,R1*%
X103254758Y-46957500D02*
X102780242Y-46957500D01*
X103254758Y-48002500D02*
X102780242Y-48002500D01*
%TO.C,C1*%
X99825000Y-62481252D02*
X99825000Y-61958748D01*
X101295000Y-62481252D02*
X101295000Y-61958748D01*
%TD*%
M02*
