%TF.GenerationSoftware,KiCad,Pcbnew,9.0.6*%
%TF.CreationDate,2025-12-29T21:41:18-05:00*%
%TF.ProjectId,TinkerSend - E220-900MM22S,54696e6b-6572-4536-956e-64202d204532,1*%
%TF.SameCoordinates,Original*%
%TF.FileFunction,Soldermask,Top*%
%TF.FilePolarity,Negative*%
%FSLAX46Y46*%
G04 Gerber Fmt 4.6, Leading zero omitted, Abs format (unit mm)*
G04 Created by KiCad (PCBNEW 9.0.6) date 2025-12-29 21:41:18*
%MOMM*%
%LPD*%
G01*
G04 APERTURE LIST*
G04 Aperture macros list*
%AMRoundRect*
0 Rectangle with rounded corners*
0 $1 Rounding radius*
0 $2 $3 $4 $5 $6 $7 $8 $9 X,Y pos of 4 corners*
0 Add a 4 corners polygon primitive as box body*
4,1,4,$2,$3,$4,$5,$6,$7,$8,$9,$2,$3,0*
0 Add four circle primitives for the rounded corners*
1,1,$1+$1,$2,$3*
1,1,$1+$1,$4,$5*
1,1,$1+$1,$6,$7*
1,1,$1+$1,$8,$9*
0 Add four rect primitives between the rounded corners*
20,1,$1+$1,$2,$3,$4,$5,0*
20,1,$1+$1,$4,$5,$6,$7,0*
20,1,$1+$1,$6,$7,$8,$9,0*
20,1,$1+$1,$8,$9,$2,$3,0*%
G04 Aperture macros list end*
%ADD10C,1.000000*%
%ADD11RoundRect,0.140000X-0.170000X0.140000X-0.170000X-0.140000X0.170000X-0.140000X0.170000X0.140000X0*%
%ADD12RoundRect,0.218750X0.218750X0.256250X-0.218750X0.256250X-0.218750X-0.256250X0.218750X-0.256250X0*%
%ADD13R,0.750000X0.800000*%
%ADD14R,0.600000X1.046300*%
%ADD15R,0.588200X2.209800*%
%ADD16R,0.608200X2.225501*%
%ADD17RoundRect,0.200000X0.200000X0.275000X-0.200000X0.275000X-0.200000X-0.275000X0.200000X-0.275000X0*%
%ADD18RoundRect,0.250000X0.475000X-0.250000X0.475000X0.250000X-0.475000X0.250000X-0.475000X-0.250000X0*%
%ADD19R,1.700000X1.700000*%
%ADD20C,1.700000*%
G04 APERTURE END LIST*
D10*
%TO.C,FID1*%
X105550000Y-52780000D03*
%TD*%
D11*
%TO.C,C2*%
X101070000Y-59070000D03*
X101070000Y-60030000D03*
%TD*%
D12*
%TO.C,D1*%
X107067500Y-47520000D03*
X105492500Y-47520000D03*
%TD*%
D13*
%TO.C,U1*%
X102120000Y-61490000D03*
X102120000Y-62760000D03*
X102120000Y-64030000D03*
X102120000Y-65300000D03*
X102120000Y-66570000D03*
X104230000Y-68660000D03*
X105500000Y-68660000D03*
X106770000Y-68660000D03*
X108040000Y-68660000D03*
X109310000Y-68660000D03*
X111430000Y-66570000D03*
X111430000Y-65300000D03*
X111430000Y-64030000D03*
X111430000Y-62760000D03*
X111430000Y-61490000D03*
X109310000Y-59400000D03*
X108040000Y-59400000D03*
X106770000Y-59400000D03*
X105500000Y-59400000D03*
X104230000Y-59400000D03*
%TD*%
D14*
%TO.C,J1*%
X104220000Y-70423150D03*
D15*
X102750000Y-71950000D03*
D16*
X105710000Y-71930000D03*
%TD*%
D17*
%TO.C,R1*%
X103842500Y-47480000D03*
X102192500Y-47480000D03*
%TD*%
D18*
%TO.C,C1*%
X100560000Y-63170000D03*
X100560000Y-61270000D03*
%TD*%
D19*
%TO.C,J2*%
X95900000Y-48571250D03*
D20*
X95900000Y-51111250D03*
X95900000Y-53651250D03*
X95900000Y-56191250D03*
X95900000Y-58731250D03*
X95900000Y-61271250D03*
X95900000Y-63811250D03*
X95900000Y-66351250D03*
X95900000Y-68891250D03*
X95900000Y-71431250D03*
%TD*%
D19*
%TO.C,J3*%
X115680000Y-48401250D03*
D20*
X115680000Y-50941250D03*
X115680000Y-53481250D03*
X115680000Y-56021250D03*
X115680000Y-58561250D03*
X115680000Y-61101250D03*
X115680000Y-63641250D03*
X115680000Y-66181250D03*
X115680000Y-68721250D03*
X115680000Y-71261250D03*
%TD*%
M02*
