M48
; DRILL file {KiCad 9.0.6} date 2025-12-29T21:41:19-0500
; FORMAT={-:-/ absolute / inch / decimal}
; #@! TF.CreationDate,2025-12-29T21:41:19-05:00
; #@! TF.GenerationSoftware,Kicad,Pcbnew,9.0.6
; #@! TF.FileFunction,Plated,1,4,PTH
FMAT,2
INCH
; #@! TA.AperFunction,Plated,PTH,ViaDrill
T1C0.0118
; #@! TA.AperFunction,Plated,PTH,ViaDrill
T2C0.0157
; #@! TA.AperFunction,Plated,PTH,ComponentDrill
T3C0.0394
%
G90
G05
T1
X3.874Y-2.2327
X3.9Y-2.465
X3.9016Y-2.376
X3.9016Y-2.422
X3.9067Y-2.5126
X3.9083Y-2.2394
X3.9142Y-2.3276
X3.926Y-2.563
X3.9402Y-1.872
X3.9469Y-2.3047
X3.9618Y-2.5713
X3.9709Y-2.6358
X3.9717Y-2.6685
X3.9724Y-2.6012
X3.9728Y-2.5413
X3.9728Y-2.7008
X3.974Y-1.9083
X3.9795Y-2.7323
X4.0079Y-2.7465
X4.0138Y-2.8736
X4.0142Y-2.8417
X4.0157Y-2.8091
X4.0165Y-2.3051
X4.0165Y-2.7776
X4.0303Y-1.9126
X4.0634Y-2.3055
X4.0713Y-2.711
X4.072Y-2.7437
X4.0724Y-2.7756
X4.0728Y-2.6787
X4.078Y-2.8079
X4.0827Y-1.9138
X4.1031Y-2.6689
X4.1098Y-2.8122
X4.128Y-2.3035
X4.1323Y-2.7598
X4.1331Y-2.2543
X4.1339Y-2.728
X4.1339Y-2.7913
X4.1358Y-2.6709
X4.1374Y-1.9138
X4.1571Y-2.2839
X4.1669Y-2.7335
X4.1772Y-2.2559
X4.1913Y-2.7835
X4.1913Y-2.815
X4.1921Y-2.8465
X4.1937Y-2.8783
X4.1965Y-1.9146
X4.2008Y-2.7374
X4.202Y-2.3039
X4.2327Y-2.7465
X4.2516Y-2.3043
X4.2528Y-1.9102
X4.2693Y-1.865
X4.3039Y-2.3043
X4.3291Y-2.7386
X4.3539Y-2.3047
X4.3681Y-2.7374
X4.4063Y-2.3087
X4.4063Y-2.8791
X4.4083Y-2.7374
X4.4264Y-2.4303
X4.428Y-2.3795
X4.428Y-2.5449
X4.4283Y-2.3409
X4.4283Y-2.6701
X4.4283Y-2.8516
X4.4287Y-2.6346
X4.4287Y-2.7079
X4.4295Y-2.4898
X4.4295Y-2.5937
X4.4539Y-2.8772
X4.5Y-2.6335
X4.5232Y-2.6547
T2
X3.7087Y-1.9748
X3.7087Y-2.1634
X3.7102Y-2.0602
X3.7114Y-2.2362
X3.8244Y-2.3665
X3.8244Y-2.4665
X3.8331Y-2.6772
X3.8335Y-2.7732
X3.8343Y-2.5953
X3.8457Y-2.8646
X3.8795Y-2.0976
X3.8807Y-1.9787
X3.8819Y-1.8744
X3.9043Y-2.6622
X3.9224Y-2.7677
X3.9382Y-2.861
X3.9409Y-2.3657
X3.9756Y-1.8717
X3.9839Y-2.1035
X3.9972Y-1.9744
X4.0803Y-2.1047
X4.139Y-1.9744
X4.2437Y-2.7965
X4.2437Y-2.8622
X4.3012Y-2.0933
X4.3114Y-1.9709
X4.3134Y-2.8673
X4.3953Y-1.8622
X4.4024Y-2.0909
X4.4854Y-2.2839
X4.4909Y-2.0634
X4.4917Y-1.9717
X4.4921Y-2.1654
X4.6079Y-2.5575
X4.6098Y-2.4693
X4.6142Y-2.6724
X4.615Y-2.778
T3
X3.7756Y-1.9123
X3.7756Y-2.0123
X3.7756Y-2.1123
X3.7756Y-2.2123
X3.7756Y-2.3123
X3.7756Y-2.4123
X3.7756Y-2.5123
X3.7756Y-2.6123
X3.7756Y-2.7123
X3.7756Y-2.8123
X4.5543Y-1.9056
X4.5543Y-2.0056
X4.5543Y-2.1056
X4.5543Y-2.2056
X4.5543Y-2.3056
X4.5543Y-2.4056
X4.5543Y-2.5056
X4.5543Y-2.6056
X4.5543Y-2.7056
X4.5543Y-2.8056
M30
