%TF.GenerationSoftware,KiCad,Pcbnew,9.0.6*%
%TF.CreationDate,2025-12-29T21:41:17-05:00*%
%TF.ProjectId,TinkerSend - E220-900MM22S,54696e6b-6572-4536-956e-64202d204532,1*%
%TF.SameCoordinates,Original*%
%TF.FileFunction,Legend,Bot*%
%TF.FilePolarity,Positive*%
%FSLAX46Y46*%
G04 Gerber Fmt 4.6, Leading zero omitted, Abs format (unit mm)*
G04 Created by KiCad (PCBNEW 9.0.6) date 2025-12-29 21:41:17*
%MOMM*%
%LPD*%
G01*
G04 APERTURE LIST*
%ADD10C,0.150000*%
%ADD11C,0.000000*%
%ADD12C,0.120000*%
G04 APERTURE END LIST*
D10*
X109752143Y-65322241D02*
X109209286Y-65322241D01*
X109480715Y-66272241D02*
X109480715Y-65322241D01*
X108892619Y-66272241D02*
X108892619Y-65638907D01*
X108892619Y-65322241D02*
X108937857Y-65367479D01*
X108937857Y-65367479D02*
X108892619Y-65412717D01*
X108892619Y-65412717D02*
X108847381Y-65367479D01*
X108847381Y-65367479D02*
X108892619Y-65322241D01*
X108892619Y-65322241D02*
X108892619Y-65412717D01*
X108440238Y-65638907D02*
X108440238Y-66272241D01*
X108440238Y-65729383D02*
X108395000Y-65684145D01*
X108395000Y-65684145D02*
X108304524Y-65638907D01*
X108304524Y-65638907D02*
X108168809Y-65638907D01*
X108168809Y-65638907D02*
X108078333Y-65684145D01*
X108078333Y-65684145D02*
X108033095Y-65774622D01*
X108033095Y-65774622D02*
X108033095Y-66272241D01*
X107580714Y-66272241D02*
X107580714Y-65322241D01*
X107490238Y-65910336D02*
X107218809Y-66272241D01*
X107218809Y-65638907D02*
X107580714Y-66000812D01*
X106449761Y-66227003D02*
X106540237Y-66272241D01*
X106540237Y-66272241D02*
X106721190Y-66272241D01*
X106721190Y-66272241D02*
X106811666Y-66227003D01*
X106811666Y-66227003D02*
X106856904Y-66136526D01*
X106856904Y-66136526D02*
X106856904Y-65774622D01*
X106856904Y-65774622D02*
X106811666Y-65684145D01*
X106811666Y-65684145D02*
X106721190Y-65638907D01*
X106721190Y-65638907D02*
X106540237Y-65638907D01*
X106540237Y-65638907D02*
X106449761Y-65684145D01*
X106449761Y-65684145D02*
X106404523Y-65774622D01*
X106404523Y-65774622D02*
X106404523Y-65865098D01*
X106404523Y-65865098D02*
X106856904Y-65955574D01*
X105997380Y-66272241D02*
X105997380Y-65638907D01*
X105997380Y-65819860D02*
X105952142Y-65729383D01*
X105952142Y-65729383D02*
X105906904Y-65684145D01*
X105906904Y-65684145D02*
X105816428Y-65638907D01*
X105816428Y-65638907D02*
X105725951Y-65638907D01*
X105454523Y-66227003D02*
X105318809Y-66272241D01*
X105318809Y-66272241D02*
X105092618Y-66272241D01*
X105092618Y-66272241D02*
X105002142Y-66227003D01*
X105002142Y-66227003D02*
X104956904Y-66181764D01*
X104956904Y-66181764D02*
X104911666Y-66091288D01*
X104911666Y-66091288D02*
X104911666Y-66000812D01*
X104911666Y-66000812D02*
X104956904Y-65910336D01*
X104956904Y-65910336D02*
X105002142Y-65865098D01*
X105002142Y-65865098D02*
X105092618Y-65819860D01*
X105092618Y-65819860D02*
X105273571Y-65774622D01*
X105273571Y-65774622D02*
X105364047Y-65729383D01*
X105364047Y-65729383D02*
X105409285Y-65684145D01*
X105409285Y-65684145D02*
X105454523Y-65593669D01*
X105454523Y-65593669D02*
X105454523Y-65503193D01*
X105454523Y-65503193D02*
X105409285Y-65412717D01*
X105409285Y-65412717D02*
X105364047Y-65367479D01*
X105364047Y-65367479D02*
X105273571Y-65322241D01*
X105273571Y-65322241D02*
X105047380Y-65322241D01*
X105047380Y-65322241D02*
X104911666Y-65367479D01*
X104142618Y-66227003D02*
X104233094Y-66272241D01*
X104233094Y-66272241D02*
X104414047Y-66272241D01*
X104414047Y-66272241D02*
X104504523Y-66227003D01*
X104504523Y-66227003D02*
X104549761Y-66136526D01*
X104549761Y-66136526D02*
X104549761Y-65774622D01*
X104549761Y-65774622D02*
X104504523Y-65684145D01*
X104504523Y-65684145D02*
X104414047Y-65638907D01*
X104414047Y-65638907D02*
X104233094Y-65638907D01*
X104233094Y-65638907D02*
X104142618Y-65684145D01*
X104142618Y-65684145D02*
X104097380Y-65774622D01*
X104097380Y-65774622D02*
X104097380Y-65865098D01*
X104097380Y-65865098D02*
X104549761Y-65955574D01*
X103690237Y-65638907D02*
X103690237Y-66272241D01*
X103690237Y-65729383D02*
X103644999Y-65684145D01*
X103644999Y-65684145D02*
X103554523Y-65638907D01*
X103554523Y-65638907D02*
X103418808Y-65638907D01*
X103418808Y-65638907D02*
X103328332Y-65684145D01*
X103328332Y-65684145D02*
X103283094Y-65774622D01*
X103283094Y-65774622D02*
X103283094Y-66272241D01*
X102423570Y-66272241D02*
X102423570Y-65322241D01*
X102423570Y-66227003D02*
X102514046Y-66272241D01*
X102514046Y-66272241D02*
X102694999Y-66272241D01*
X102694999Y-66272241D02*
X102785475Y-66227003D01*
X102785475Y-66227003D02*
X102830713Y-66181764D01*
X102830713Y-66181764D02*
X102875951Y-66091288D01*
X102875951Y-66091288D02*
X102875951Y-65819860D01*
X102875951Y-65819860D02*
X102830713Y-65729383D01*
X102830713Y-65729383D02*
X102785475Y-65684145D01*
X102785475Y-65684145D02*
X102694999Y-65638907D01*
X102694999Y-65638907D02*
X102514046Y-65638907D01*
X102514046Y-65638907D02*
X102423570Y-65684145D01*
X113506905Y-67801688D02*
X113959286Y-67801688D01*
X113959286Y-67801688D02*
X113959286Y-66851688D01*
X113054524Y-67801688D02*
X113145000Y-67756450D01*
X113145000Y-67756450D02*
X113190238Y-67711211D01*
X113190238Y-67711211D02*
X113235476Y-67620735D01*
X113235476Y-67620735D02*
X113235476Y-67349307D01*
X113235476Y-67349307D02*
X113190238Y-67258830D01*
X113190238Y-67258830D02*
X113145000Y-67213592D01*
X113145000Y-67213592D02*
X113054524Y-67168354D01*
X113054524Y-67168354D02*
X112918809Y-67168354D01*
X112918809Y-67168354D02*
X112828333Y-67213592D01*
X112828333Y-67213592D02*
X112783095Y-67258830D01*
X112783095Y-67258830D02*
X112737857Y-67349307D01*
X112737857Y-67349307D02*
X112737857Y-67620735D01*
X112737857Y-67620735D02*
X112783095Y-67711211D01*
X112783095Y-67711211D02*
X112828333Y-67756450D01*
X112828333Y-67756450D02*
X112918809Y-67801688D01*
X112918809Y-67801688D02*
X113054524Y-67801688D01*
X111787857Y-67801688D02*
X112104524Y-67349307D01*
X112330714Y-67801688D02*
X112330714Y-66851688D01*
X112330714Y-66851688D02*
X111968809Y-66851688D01*
X111968809Y-66851688D02*
X111878333Y-66896926D01*
X111878333Y-66896926D02*
X111833095Y-66942164D01*
X111833095Y-66942164D02*
X111787857Y-67032640D01*
X111787857Y-67032640D02*
X111787857Y-67168354D01*
X111787857Y-67168354D02*
X111833095Y-67258830D01*
X111833095Y-67258830D02*
X111878333Y-67304069D01*
X111878333Y-67304069D02*
X111968809Y-67349307D01*
X111968809Y-67349307D02*
X112330714Y-67349307D01*
X110973571Y-67801688D02*
X110973571Y-67304069D01*
X110973571Y-67304069D02*
X111018809Y-67213592D01*
X111018809Y-67213592D02*
X111109285Y-67168354D01*
X111109285Y-67168354D02*
X111290238Y-67168354D01*
X111290238Y-67168354D02*
X111380714Y-67213592D01*
X110973571Y-67756450D02*
X111064047Y-67801688D01*
X111064047Y-67801688D02*
X111290238Y-67801688D01*
X111290238Y-67801688D02*
X111380714Y-67756450D01*
X111380714Y-67756450D02*
X111425952Y-67665973D01*
X111425952Y-67665973D02*
X111425952Y-67575497D01*
X111425952Y-67575497D02*
X111380714Y-67485021D01*
X111380714Y-67485021D02*
X111290238Y-67439783D01*
X111290238Y-67439783D02*
X111064047Y-67439783D01*
X111064047Y-67439783D02*
X110973571Y-67394545D01*
X109254523Y-67801688D02*
X109571190Y-67349307D01*
X109797380Y-67801688D02*
X109797380Y-66851688D01*
X109797380Y-66851688D02*
X109435475Y-66851688D01*
X109435475Y-66851688D02*
X109344999Y-66896926D01*
X109344999Y-66896926D02*
X109299761Y-66942164D01*
X109299761Y-66942164D02*
X109254523Y-67032640D01*
X109254523Y-67032640D02*
X109254523Y-67168354D01*
X109254523Y-67168354D02*
X109299761Y-67258830D01*
X109299761Y-67258830D02*
X109344999Y-67304069D01*
X109344999Y-67304069D02*
X109435475Y-67349307D01*
X109435475Y-67349307D02*
X109797380Y-67349307D01*
X108440237Y-67801688D02*
X108440237Y-67304069D01*
X108440237Y-67304069D02*
X108485475Y-67213592D01*
X108485475Y-67213592D02*
X108575951Y-67168354D01*
X108575951Y-67168354D02*
X108756904Y-67168354D01*
X108756904Y-67168354D02*
X108847380Y-67213592D01*
X108440237Y-67756450D02*
X108530713Y-67801688D01*
X108530713Y-67801688D02*
X108756904Y-67801688D01*
X108756904Y-67801688D02*
X108847380Y-67756450D01*
X108847380Y-67756450D02*
X108892618Y-67665973D01*
X108892618Y-67665973D02*
X108892618Y-67575497D01*
X108892618Y-67575497D02*
X108847380Y-67485021D01*
X108847380Y-67485021D02*
X108756904Y-67439783D01*
X108756904Y-67439783D02*
X108530713Y-67439783D01*
X108530713Y-67439783D02*
X108440237Y-67394545D01*
X107580713Y-67801688D02*
X107580713Y-66851688D01*
X107580713Y-67756450D02*
X107671189Y-67801688D01*
X107671189Y-67801688D02*
X107852142Y-67801688D01*
X107852142Y-67801688D02*
X107942618Y-67756450D01*
X107942618Y-67756450D02*
X107987856Y-67711211D01*
X107987856Y-67711211D02*
X108033094Y-67620735D01*
X108033094Y-67620735D02*
X108033094Y-67349307D01*
X108033094Y-67349307D02*
X107987856Y-67258830D01*
X107987856Y-67258830D02*
X107942618Y-67213592D01*
X107942618Y-67213592D02*
X107852142Y-67168354D01*
X107852142Y-67168354D02*
X107671189Y-67168354D01*
X107671189Y-67168354D02*
X107580713Y-67213592D01*
X107128332Y-67801688D02*
X107128332Y-67168354D01*
X107128332Y-66851688D02*
X107173570Y-66896926D01*
X107173570Y-66896926D02*
X107128332Y-66942164D01*
X107128332Y-66942164D02*
X107083094Y-66896926D01*
X107083094Y-66896926D02*
X107128332Y-66851688D01*
X107128332Y-66851688D02*
X107128332Y-66942164D01*
X106540237Y-67801688D02*
X106630713Y-67756450D01*
X106630713Y-67756450D02*
X106675951Y-67711211D01*
X106675951Y-67711211D02*
X106721189Y-67620735D01*
X106721189Y-67620735D02*
X106721189Y-67349307D01*
X106721189Y-67349307D02*
X106675951Y-67258830D01*
X106675951Y-67258830D02*
X106630713Y-67213592D01*
X106630713Y-67213592D02*
X106540237Y-67168354D01*
X106540237Y-67168354D02*
X106404522Y-67168354D01*
X106404522Y-67168354D02*
X106314046Y-67213592D01*
X106314046Y-67213592D02*
X106268808Y-67258830D01*
X106268808Y-67258830D02*
X106223570Y-67349307D01*
X106223570Y-67349307D02*
X106223570Y-67620735D01*
X106223570Y-67620735D02*
X106268808Y-67711211D01*
X106268808Y-67711211D02*
X106314046Y-67756450D01*
X106314046Y-67756450D02*
X106404522Y-67801688D01*
X106404522Y-67801688D02*
X106540237Y-67801688D01*
X105092617Y-67304069D02*
X104775950Y-67304069D01*
X104640236Y-67801688D02*
X105092617Y-67801688D01*
X105092617Y-67801688D02*
X105092617Y-66851688D01*
X105092617Y-66851688D02*
X104640236Y-66851688D01*
X104278331Y-66942164D02*
X104233093Y-66896926D01*
X104233093Y-66896926D02*
X104142617Y-66851688D01*
X104142617Y-66851688D02*
X103916426Y-66851688D01*
X103916426Y-66851688D02*
X103825950Y-66896926D01*
X103825950Y-66896926D02*
X103780712Y-66942164D01*
X103780712Y-66942164D02*
X103735474Y-67032640D01*
X103735474Y-67032640D02*
X103735474Y-67123116D01*
X103735474Y-67123116D02*
X103780712Y-67258830D01*
X103780712Y-67258830D02*
X104323569Y-67801688D01*
X104323569Y-67801688D02*
X103735474Y-67801688D01*
X103373569Y-66942164D02*
X103328331Y-66896926D01*
X103328331Y-66896926D02*
X103237855Y-66851688D01*
X103237855Y-66851688D02*
X103011664Y-66851688D01*
X103011664Y-66851688D02*
X102921188Y-66896926D01*
X102921188Y-66896926D02*
X102875950Y-66942164D01*
X102875950Y-66942164D02*
X102830712Y-67032640D01*
X102830712Y-67032640D02*
X102830712Y-67123116D01*
X102830712Y-67123116D02*
X102875950Y-67258830D01*
X102875950Y-67258830D02*
X103418807Y-67801688D01*
X103418807Y-67801688D02*
X102830712Y-67801688D01*
X102242617Y-66851688D02*
X102152140Y-66851688D01*
X102152140Y-66851688D02*
X102061664Y-66896926D01*
X102061664Y-66896926D02*
X102016426Y-66942164D01*
X102016426Y-66942164D02*
X101971188Y-67032640D01*
X101971188Y-67032640D02*
X101925950Y-67213592D01*
X101925950Y-67213592D02*
X101925950Y-67439783D01*
X101925950Y-67439783D02*
X101971188Y-67620735D01*
X101971188Y-67620735D02*
X102016426Y-67711211D01*
X102016426Y-67711211D02*
X102061664Y-67756450D01*
X102061664Y-67756450D02*
X102152140Y-67801688D01*
X102152140Y-67801688D02*
X102242617Y-67801688D01*
X102242617Y-67801688D02*
X102333093Y-67756450D01*
X102333093Y-67756450D02*
X102378331Y-67711211D01*
X102378331Y-67711211D02*
X102423569Y-67620735D01*
X102423569Y-67620735D02*
X102468807Y-67439783D01*
X102468807Y-67439783D02*
X102468807Y-67213592D01*
X102468807Y-67213592D02*
X102423569Y-67032640D01*
X102423569Y-67032640D02*
X102378331Y-66942164D01*
X102378331Y-66942164D02*
X102333093Y-66896926D01*
X102333093Y-66896926D02*
X102242617Y-66851688D01*
X101518807Y-67439783D02*
X100794998Y-67439783D01*
X100433093Y-66851688D02*
X99799760Y-67801688D01*
X99799760Y-66851688D02*
X100433093Y-67801688D01*
X99528331Y-66851688D02*
X98894998Y-67801688D01*
X98894998Y-66851688D02*
X99528331Y-67801688D01*
X98623569Y-66851688D02*
X97990236Y-67801688D01*
X97990236Y-66851688D02*
X98623569Y-67801688D01*
X107467618Y-68381135D02*
X107150952Y-69331135D01*
X107150952Y-69331135D02*
X106834285Y-68381135D01*
X106019999Y-69331135D02*
X106562856Y-69331135D01*
X106291428Y-69331135D02*
X106291428Y-68381135D01*
X106291428Y-68381135D02*
X106381904Y-68516849D01*
X106381904Y-68516849D02*
X106472380Y-68607325D01*
X106472380Y-68607325D02*
X106562856Y-68652563D01*
X105612856Y-69240658D02*
X105567618Y-69285897D01*
X105567618Y-69285897D02*
X105612856Y-69331135D01*
X105612856Y-69331135D02*
X105658094Y-69285897D01*
X105658094Y-69285897D02*
X105612856Y-69240658D01*
X105612856Y-69240658D02*
X105612856Y-69331135D01*
X104979523Y-68381135D02*
X104889046Y-68381135D01*
X104889046Y-68381135D02*
X104798570Y-68426373D01*
X104798570Y-68426373D02*
X104753332Y-68471611D01*
X104753332Y-68471611D02*
X104708094Y-68562087D01*
X104708094Y-68562087D02*
X104662856Y-68743039D01*
X104662856Y-68743039D02*
X104662856Y-68969230D01*
X104662856Y-68969230D02*
X104708094Y-69150182D01*
X104708094Y-69150182D02*
X104753332Y-69240658D01*
X104753332Y-69240658D02*
X104798570Y-69285897D01*
X104798570Y-69285897D02*
X104889046Y-69331135D01*
X104889046Y-69331135D02*
X104979523Y-69331135D01*
X104979523Y-69331135D02*
X105069999Y-69285897D01*
X105069999Y-69285897D02*
X105115237Y-69240658D01*
X105115237Y-69240658D02*
X105160475Y-69150182D01*
X105160475Y-69150182D02*
X105205713Y-68969230D01*
X105205713Y-68969230D02*
X105205713Y-68743039D01*
X105205713Y-68743039D02*
X105160475Y-68562087D01*
X105160475Y-68562087D02*
X105115237Y-68471611D01*
X105115237Y-68471611D02*
X105069999Y-68426373D01*
X105069999Y-68426373D02*
X104979523Y-68381135D01*
D11*
%TO.C,G\u002A\u002A\u002A*%
G36*
X106870817Y-51118952D02*
G01*
X106845720Y-51198445D01*
X106795886Y-51266735D01*
X106723174Y-51319815D01*
X106646910Y-51345962D01*
X106569518Y-51347448D01*
X106495921Y-51327147D01*
X106430297Y-51288326D01*
X106376823Y-51234252D01*
X106339679Y-51168193D01*
X106323041Y-51093417D01*
X106324847Y-51075409D01*
X106528646Y-51075409D01*
X106542817Y-51116344D01*
X106550722Y-51125860D01*
X106585875Y-51144511D01*
X106624455Y-51139414D01*
X106656875Y-51111015D01*
X106668271Y-51082450D01*
X106663429Y-51045722D01*
X106640393Y-51017895D01*
X106605343Y-51005411D01*
X106564460Y-51014710D01*
X106539510Y-51037020D01*
X106528646Y-51075409D01*
X106324847Y-51075409D01*
X106331089Y-51013190D01*
X106343508Y-50975704D01*
X106385198Y-50903508D01*
X106441602Y-50850412D01*
X106508160Y-50816413D01*
X106580312Y-50801511D01*
X106653500Y-50805703D01*
X106723164Y-50828988D01*
X106784744Y-50871364D01*
X106833682Y-50932830D01*
X106865417Y-51013384D01*
X106869317Y-51032263D01*
X106870185Y-51082450D01*
X106870817Y-51118952D01*
G37*
G36*
X104998948Y-51085181D02*
G01*
X104997449Y-51106033D01*
X104977618Y-51170722D01*
X104939492Y-51235238D01*
X104889130Y-51290727D01*
X104832590Y-51328334D01*
X104823470Y-51332107D01*
X104750442Y-51346899D01*
X104670346Y-51341928D01*
X104593761Y-51318907D01*
X104531266Y-51279549D01*
X104521383Y-51270050D01*
X104476502Y-51205374D01*
X104453150Y-51129696D01*
X104452193Y-51096788D01*
X104653422Y-51096788D01*
X104669046Y-51128859D01*
X104670493Y-51130258D01*
X104705381Y-51145699D01*
X104744102Y-51138338D01*
X104776029Y-51110044D01*
X104788866Y-51088278D01*
X104791342Y-51066006D01*
X104776029Y-51037679D01*
X104756372Y-51014558D01*
X104722821Y-51002512D01*
X104679673Y-51016479D01*
X104668900Y-51025142D01*
X104653800Y-51057703D01*
X104653422Y-51096788D01*
X104452193Y-51096788D01*
X104450820Y-51049559D01*
X104469001Y-50971502D01*
X104507184Y-50902069D01*
X104564862Y-50847799D01*
X104597332Y-50829228D01*
X104676250Y-50804729D01*
X104755610Y-50804753D01*
X104830838Y-50826799D01*
X104897360Y-50868367D01*
X104950601Y-50926954D01*
X104985989Y-51000059D01*
X104996029Y-51066006D01*
X104998948Y-51085181D01*
G37*
G36*
X106065216Y-52947856D02*
G01*
X106055501Y-53004206D01*
X106026961Y-53054220D01*
X105984716Y-53087243D01*
X105939769Y-53107139D01*
X105939769Y-55253681D01*
X105989541Y-55283047D01*
X105994788Y-55286264D01*
X106040472Y-55329888D01*
X106062508Y-55383239D01*
X106061573Y-55417345D01*
X106060952Y-55440003D01*
X106035861Y-55493865D01*
X105987289Y-55538512D01*
X105940884Y-55567708D01*
X105940327Y-57306322D01*
X105939769Y-59044937D01*
X105982173Y-59062501D01*
X106011936Y-59079823D01*
X106046777Y-59122156D01*
X106062281Y-59174696D01*
X106060925Y-59193178D01*
X106058213Y-59230131D01*
X106034339Y-59281146D01*
X105990425Y-59320427D01*
X105958854Y-59332619D01*
X105899059Y-59335120D01*
X105838946Y-59316450D01*
X105820551Y-59304445D01*
X105787741Y-59262434D01*
X105773271Y-59209664D01*
X105773846Y-59201412D01*
X105824898Y-59201412D01*
X105838913Y-59232979D01*
X105838975Y-59233089D01*
X105870602Y-59265416D01*
X105912848Y-59279481D01*
X105955675Y-59274239D01*
X105989049Y-59248641D01*
X106004218Y-59221409D01*
X106012134Y-59193178D01*
X106006415Y-59170225D01*
X105989049Y-59137715D01*
X105988982Y-59137618D01*
X105955569Y-59112077D01*
X105912729Y-59106887D01*
X105870499Y-59121003D01*
X105838913Y-59153377D01*
X105827804Y-59175649D01*
X105824898Y-59201412D01*
X105773846Y-59201412D01*
X105777118Y-59154407D01*
X105799257Y-59104939D01*
X105839664Y-59069535D01*
X105881878Y-59047705D01*
X105881877Y-57307707D01*
X105881877Y-55567708D01*
X105831857Y-55527797D01*
X105827349Y-55524068D01*
X105789249Y-55476098D01*
X105776147Y-55432799D01*
X105827434Y-55432799D01*
X105852932Y-55473634D01*
X105880623Y-55492514D01*
X105918060Y-55502580D01*
X105929181Y-55501592D01*
X105968476Y-55484546D01*
X105999522Y-55453388D01*
X106012134Y-55417345D01*
X106000401Y-55374218D01*
X105970047Y-55343247D01*
X105929363Y-55328123D01*
X105886645Y-55331903D01*
X105850188Y-55357645D01*
X105830708Y-55389653D01*
X105827434Y-55432799D01*
X105776147Y-55432799D01*
X105772525Y-55420830D01*
X105776756Y-55365394D01*
X105801519Y-55316919D01*
X105846391Y-55282535D01*
X105881878Y-55266367D01*
X105881878Y-53106314D01*
X105840335Y-53081774D01*
X105802314Y-53050377D01*
X105775443Y-53001981D01*
X105771378Y-52963575D01*
X105824898Y-52963575D01*
X105838913Y-52995144D01*
X105838975Y-52995254D01*
X105870602Y-53027581D01*
X105912848Y-53041647D01*
X105955675Y-53036404D01*
X105989049Y-53010806D01*
X106006280Y-52978879D01*
X106008315Y-52936578D01*
X105982335Y-52896598D01*
X105961149Y-52880733D01*
X105916143Y-52869711D01*
X105872159Y-52881742D01*
X105838910Y-52915543D01*
X105827805Y-52937809D01*
X105824898Y-52963575D01*
X105771378Y-52963575D01*
X105769836Y-52949003D01*
X105783665Y-52897409D01*
X105815099Y-52853168D01*
X105862310Y-52822247D01*
X105923467Y-52810614D01*
X105951754Y-52815263D01*
X105999862Y-52840313D01*
X106040163Y-52879767D01*
X106062546Y-52925289D01*
X106063882Y-52936578D01*
X106065216Y-52947856D01*
G37*
G36*
X105490880Y-53019523D02*
G01*
X105460041Y-53065897D01*
X105418366Y-53092956D01*
X105414297Y-53094518D01*
X105409490Y-53098230D01*
X105405357Y-53105586D01*
X105401846Y-53118532D01*
X105398908Y-53139014D01*
X105396490Y-53168979D01*
X105394543Y-53210372D01*
X105393016Y-53265141D01*
X105391857Y-53335231D01*
X105391016Y-53422589D01*
X105390442Y-53529161D01*
X105390084Y-53656894D01*
X105389891Y-53807733D01*
X105389813Y-53983626D01*
X105389798Y-54186518D01*
X105389866Y-54381694D01*
X105390108Y-54564766D01*
X105390556Y-54722221D01*
X105391239Y-54855785D01*
X105392187Y-54967180D01*
X105393432Y-55058130D01*
X105395002Y-55130360D01*
X105396928Y-55185591D01*
X105399241Y-55225548D01*
X105401970Y-55251955D01*
X105405146Y-55266536D01*
X105408799Y-55271013D01*
X105412532Y-55271586D01*
X105436949Y-55285314D01*
X105466691Y-55311605D01*
X105478292Y-55325386D01*
X105502321Y-55377758D01*
X105503749Y-55407693D01*
X105505008Y-55434098D01*
X105488260Y-55487041D01*
X105453987Y-55529221D01*
X105404094Y-55553274D01*
X105360852Y-55562771D01*
X105360852Y-59324151D01*
X105395574Y-59337352D01*
X105437662Y-59364648D01*
X105467105Y-59410435D01*
X105477214Y-59465131D01*
X105476418Y-59469373D01*
X105466713Y-59521071D01*
X105434330Y-59570588D01*
X105420091Y-59583889D01*
X105381254Y-59606791D01*
X105331906Y-59612893D01*
X105288600Y-59607061D01*
X105235479Y-59579078D01*
X105200059Y-59532222D01*
X105192083Y-59494460D01*
X105248275Y-59494460D01*
X105267812Y-59532258D01*
X105293200Y-59547279D01*
X105331906Y-59555001D01*
X105373035Y-59546595D01*
X105406585Y-59516729D01*
X105418744Y-59469373D01*
X105412196Y-59436287D01*
X105386255Y-59402097D01*
X105348228Y-59383681D01*
X105306390Y-59384445D01*
X105269021Y-59407793D01*
X105268580Y-59408285D01*
X105248573Y-59448777D01*
X105248275Y-59494460D01*
X105192083Y-59494460D01*
X105187177Y-59471229D01*
X105187561Y-59460503D01*
X105201878Y-59403984D01*
X105232717Y-59357610D01*
X105274392Y-59330551D01*
X105276756Y-59329705D01*
X105280637Y-59327238D01*
X105284115Y-59322285D01*
X105287211Y-59313376D01*
X105289948Y-59299041D01*
X105292348Y-59277809D01*
X105294434Y-59248212D01*
X105296226Y-59208778D01*
X105297748Y-59158038D01*
X105299022Y-59094523D01*
X105300069Y-59016761D01*
X105300912Y-58923283D01*
X105301573Y-58812619D01*
X105302074Y-58683300D01*
X105302437Y-58533854D01*
X105302684Y-58362812D01*
X105302838Y-58168705D01*
X105302921Y-57950062D01*
X105302954Y-57705412D01*
X105302960Y-57433287D01*
X105302953Y-57286259D01*
X105302896Y-57026552D01*
X105302766Y-56793607D01*
X105302548Y-56585992D01*
X105302223Y-56402275D01*
X105301776Y-56241021D01*
X105301189Y-56100799D01*
X105300445Y-55980174D01*
X105299529Y-55877715D01*
X105298422Y-55791987D01*
X105297109Y-55721558D01*
X105295572Y-55664995D01*
X105293795Y-55620865D01*
X105291761Y-55587735D01*
X105289453Y-55564172D01*
X105286853Y-55548743D01*
X105283947Y-55540015D01*
X105280716Y-55536554D01*
X105268080Y-55528676D01*
X105242791Y-55496072D01*
X105223684Y-55450822D01*
X105221985Y-55440286D01*
X105276992Y-55440286D01*
X105300482Y-55478627D01*
X105324842Y-55494531D01*
X105368472Y-55501255D01*
X105409292Y-55486578D01*
X105439504Y-55454168D01*
X105451308Y-55407693D01*
X105450414Y-55394223D01*
X105433027Y-55352650D01*
X105399197Y-55328144D01*
X105356490Y-55324165D01*
X105312471Y-55344174D01*
X105300944Y-55354671D01*
X105277416Y-55395948D01*
X105276992Y-55440286D01*
X105221985Y-55440286D01*
X105216123Y-55403940D01*
X105216893Y-55392637D01*
X105233276Y-55345195D01*
X105264815Y-55303096D01*
X105303338Y-55278129D01*
X105307286Y-55276628D01*
X105312117Y-55272976D01*
X105316270Y-55265723D01*
X105319797Y-55252920D01*
X105322748Y-55232618D01*
X105325175Y-55202866D01*
X105327128Y-55161715D01*
X105328659Y-55107216D01*
X105329817Y-55037418D01*
X105330655Y-54950372D01*
X105331223Y-54844129D01*
X105331572Y-54716738D01*
X105331753Y-54566250D01*
X105331817Y-54390716D01*
X105331815Y-54188186D01*
X105331723Y-53107309D01*
X105288265Y-53082579D01*
X105248562Y-53048391D01*
X105223144Y-52993447D01*
X105221971Y-52938955D01*
X105276633Y-52938955D01*
X105277434Y-52981001D01*
X105300482Y-53018228D01*
X105330990Y-53035242D01*
X105375189Y-53041635D01*
X105412959Y-53031105D01*
X105437837Y-53005668D01*
X105452982Y-52963811D01*
X105446032Y-52922779D01*
X105432107Y-52899868D01*
X105402843Y-52875473D01*
X105359477Y-52868727D01*
X105328188Y-52874841D01*
X105294683Y-52900699D01*
X105276633Y-52938955D01*
X105221971Y-52938955D01*
X105221701Y-52926397D01*
X105238915Y-52876174D01*
X105273948Y-52837226D01*
X105319922Y-52815789D01*
X105370886Y-52811321D01*
X105420886Y-52823278D01*
X105463970Y-52851119D01*
X105494186Y-52894299D01*
X105505581Y-52952278D01*
X105505197Y-52963005D01*
X105504993Y-52963811D01*
X105490880Y-53019523D01*
G37*
G36*
X108471905Y-52537810D02*
G01*
X108563995Y-52555158D01*
X108646695Y-52579916D01*
X108725398Y-52612954D01*
X108793197Y-52649591D01*
X108913680Y-52735852D01*
X109024662Y-52842007D01*
X109120390Y-52962206D01*
X109195113Y-53090602D01*
X109210738Y-53125513D01*
X109245830Y-53218250D01*
X109277988Y-53321005D01*
X109303683Y-53421905D01*
X109319392Y-53509080D01*
X109329771Y-53592152D01*
X111471704Y-53592152D01*
X111987474Y-53082553D01*
X112078539Y-52992574D01*
X112190432Y-52882007D01*
X112301056Y-52772687D01*
X112407189Y-52667795D01*
X112505612Y-52570516D01*
X112593104Y-52484031D01*
X112666445Y-52411524D01*
X112722414Y-52356178D01*
X112742677Y-52336226D01*
X112808526Y-52272607D01*
X112868329Y-52216611D01*
X112918508Y-52171477D01*
X112955488Y-52140445D01*
X112975691Y-52126755D01*
X113028266Y-52118508D01*
X113084064Y-52132702D01*
X113131298Y-52167137D01*
X113164009Y-52217297D01*
X113176237Y-52278670D01*
X113176506Y-52287083D01*
X113176980Y-52296514D01*
X113176464Y-52305680D01*
X113173732Y-52315869D01*
X113167559Y-52328368D01*
X113156718Y-52344464D01*
X113139985Y-52365445D01*
X113116133Y-52392598D01*
X113083937Y-52427211D01*
X113042171Y-52470572D01*
X112989609Y-52523967D01*
X112925027Y-52588684D01*
X112847198Y-52666011D01*
X112754896Y-52757234D01*
X112646897Y-52863642D01*
X112521973Y-52986522D01*
X112378901Y-53127161D01*
X112216453Y-53286847D01*
X111596784Y-53896084D01*
X109326436Y-53896084D01*
X109326436Y-56834090D01*
X111273337Y-56834090D01*
X112134331Y-57631451D01*
X112182058Y-57675652D01*
X112316299Y-57799984D01*
X112445400Y-57919570D01*
X112567574Y-58032753D01*
X112681031Y-58137875D01*
X112783983Y-58233277D01*
X112874640Y-58317303D01*
X112951213Y-58388295D01*
X113011915Y-58444593D01*
X113054955Y-58484542D01*
X113078544Y-58506482D01*
X113099277Y-58526010D01*
X113133401Y-58560841D01*
X113152175Y-58587790D01*
X113160120Y-58614611D01*
X113161764Y-58649054D01*
X113154817Y-58698807D01*
X113126775Y-58753015D01*
X113082082Y-58790045D01*
X113025985Y-58805978D01*
X112963732Y-58796897D01*
X112962456Y-58796320D01*
X112941604Y-58781180D01*
X112901240Y-58747637D01*
X112842750Y-58696939D01*
X112767519Y-58630334D01*
X112676933Y-58549072D01*
X112572378Y-58454401D01*
X112455240Y-58347570D01*
X112326905Y-58229826D01*
X112188757Y-58102419D01*
X112042184Y-57966597D01*
X111165623Y-57152494D01*
X109326436Y-57152494D01*
X109326436Y-60785201D01*
X111244100Y-60787055D01*
X112169832Y-61647338D01*
X112285638Y-61755043D01*
X112419275Y-61879553D01*
X112545633Y-61997517D01*
X112663160Y-62107479D01*
X112770308Y-62207977D01*
X112865526Y-62297554D01*
X112947263Y-62374751D01*
X113013969Y-62438109D01*
X113064095Y-62486170D01*
X113096089Y-62517473D01*
X113108402Y-62530561D01*
X113111968Y-62537978D01*
X113120736Y-62585089D01*
X113115698Y-62638908D01*
X113097880Y-62684461D01*
X113069812Y-62715634D01*
X113015890Y-62744863D01*
X112955017Y-62752680D01*
X112896681Y-62736624D01*
X112883199Y-62727478D01*
X112849501Y-62699960D01*
X112805267Y-62660681D01*
X112756521Y-62614875D01*
X112738006Y-62597209D01*
X112695301Y-62556964D01*
X112634786Y-62500269D01*
X112558466Y-62428989D01*
X112468346Y-62344991D01*
X112366430Y-62250143D01*
X112254723Y-62146311D01*
X112135231Y-62035362D01*
X112009958Y-61919162D01*
X111880909Y-61799580D01*
X111113843Y-61089137D01*
X110221851Y-61089135D01*
X109329859Y-61089132D01*
X109322528Y-61273662D01*
X109317976Y-61348424D01*
X109309836Y-61414773D01*
X109294920Y-61536349D01*
X109255374Y-61739934D01*
X109200508Y-61954367D01*
X109179146Y-62022607D01*
X109131492Y-62174837D01*
X109049497Y-62396532D01*
X109012282Y-62488744D01*
X108973784Y-62580155D01*
X108938721Y-62656934D01*
X108903564Y-62725939D01*
X108864786Y-62794027D01*
X108818859Y-62868057D01*
X108762253Y-62954887D01*
X108653711Y-63114413D01*
X108510627Y-63308768D01*
X108464199Y-63365476D01*
X108367333Y-63483790D01*
X108219454Y-63644447D01*
X108062617Y-63795705D01*
X107892446Y-63942532D01*
X107835511Y-63988813D01*
X107740746Y-64063009D01*
X107654470Y-64125677D01*
X107568562Y-64182318D01*
X107474897Y-64238435D01*
X107365353Y-64299529D01*
X107171096Y-64395817D01*
X106945911Y-64489089D01*
X106707516Y-64571467D01*
X106463647Y-64640533D01*
X106222038Y-64693872D01*
X105990425Y-64729066D01*
X105985514Y-64729617D01*
X105732791Y-64746520D01*
X105477057Y-64740834D01*
X105215023Y-64712200D01*
X104943405Y-64660262D01*
X104658915Y-64584665D01*
X104589772Y-64563434D01*
X104349685Y-64480554D01*
X104128804Y-64388093D01*
X103922231Y-64283131D01*
X103725067Y-64162750D01*
X103532417Y-64024028D01*
X103339383Y-63864049D01*
X103141067Y-63679891D01*
X103126428Y-63665518D01*
X103011495Y-63545042D01*
X102893017Y-63408677D01*
X102844326Y-63348075D01*
X102967166Y-63348075D01*
X102968314Y-63356345D01*
X102986217Y-63382581D01*
X103020542Y-63423148D01*
X103068329Y-63475059D01*
X103126621Y-63535331D01*
X103192460Y-63600978D01*
X103262889Y-63669016D01*
X103334950Y-63736461D01*
X103405684Y-63800327D01*
X103472134Y-63857629D01*
X103577664Y-63943551D01*
X103689039Y-64027146D01*
X103800113Y-64101642D01*
X103920118Y-64173188D01*
X104058288Y-64247930D01*
X104108709Y-64273500D01*
X104299304Y-64359452D01*
X104506062Y-64438147D01*
X104721341Y-64507284D01*
X104937500Y-64564565D01*
X105146897Y-64607687D01*
X105341890Y-64634351D01*
X105467333Y-64644574D01*
X105662219Y-64652156D01*
X105848699Y-64647654D01*
X106033332Y-64630363D01*
X106222673Y-64599580D01*
X106423279Y-64554600D01*
X106641707Y-64494719D01*
X106703165Y-64475911D01*
X106895636Y-64408574D01*
X107089500Y-64329010D01*
X107277183Y-64240705D01*
X107451115Y-64147144D01*
X107603724Y-64051813D01*
X107652838Y-64016619D01*
X107737138Y-63951129D01*
X107831972Y-63872910D01*
X107931795Y-63786865D01*
X108031062Y-63697900D01*
X108124226Y-63610917D01*
X108205744Y-63530821D01*
X108270069Y-63462516D01*
X108356101Y-63365476D01*
X107942173Y-63073971D01*
X107528246Y-62782466D01*
X106721308Y-62782466D01*
X106721308Y-62883776D01*
X106272647Y-62883776D01*
X106272647Y-63086397D01*
X104970083Y-63086397D01*
X104970083Y-62898249D01*
X104521422Y-62898249D01*
X104521422Y-62782466D01*
X103768306Y-62782466D01*
X103374180Y-63059478D01*
X103309452Y-63105006D01*
X103219484Y-63168407D01*
X103138856Y-63225368D01*
X103070438Y-63273851D01*
X103017102Y-63311820D01*
X102981721Y-63337241D01*
X102967166Y-63348075D01*
X102844326Y-63348075D01*
X102775294Y-63262155D01*
X102662627Y-63111210D01*
X102559316Y-62961575D01*
X102469660Y-62818983D01*
X102397959Y-62689165D01*
X102375345Y-62641666D01*
X102340435Y-62562109D01*
X102301285Y-62467813D01*
X102260569Y-62365638D01*
X102220959Y-62262448D01*
X102185129Y-62165103D01*
X102155752Y-62080467D01*
X102135500Y-62015400D01*
X102131508Y-62000601D01*
X102228251Y-62000601D01*
X102229897Y-62015400D01*
X102235623Y-62035663D01*
X102252553Y-62085450D01*
X102277390Y-62152917D01*
X102307969Y-62232666D01*
X102342128Y-62319297D01*
X102377702Y-62407409D01*
X102412528Y-62491603D01*
X102444441Y-62566480D01*
X102471279Y-62626639D01*
X102490878Y-62666682D01*
X102515329Y-62709644D01*
X102552912Y-62771562D01*
X102598019Y-62842974D01*
X102648092Y-62920109D01*
X102700574Y-62999195D01*
X102752906Y-63076460D01*
X102802530Y-63148135D01*
X102846889Y-63210446D01*
X102883425Y-63259624D01*
X102909580Y-63291896D01*
X102922795Y-63303491D01*
X102932040Y-63297733D01*
X102962546Y-63277096D01*
X103011670Y-63243273D01*
X103076681Y-63198159D01*
X103154849Y-63143651D01*
X103243443Y-63081643D01*
X103339731Y-63014033D01*
X103751337Y-62724574D01*
X104521422Y-62724574D01*
X104521422Y-62652209D01*
X104970083Y-62652209D01*
X104970083Y-62232494D01*
X104521422Y-62232494D01*
X104521422Y-62131184D01*
X103601500Y-62131184D01*
X103585016Y-62174856D01*
X103568957Y-62201525D01*
X103527279Y-62234803D01*
X103474302Y-62253939D01*
X103420371Y-62253960D01*
X103395882Y-62245138D01*
X103351020Y-62210708D01*
X103318337Y-62162184D01*
X103305695Y-62109474D01*
X103363587Y-62109474D01*
X103370636Y-62140123D01*
X103392533Y-62174603D01*
X103415552Y-62191860D01*
X103457807Y-62201610D01*
X103497063Y-62188931D01*
X103525991Y-62157119D01*
X103537262Y-62109474D01*
X103532611Y-62091415D01*
X107641463Y-62091415D01*
X107650095Y-62109474D01*
X107662845Y-62136146D01*
X107665992Y-62139993D01*
X107706061Y-62169089D01*
X107750101Y-62171119D01*
X107792305Y-62145657D01*
X107817012Y-62104183D01*
X107816397Y-62057929D01*
X107789576Y-62015964D01*
X107760064Y-61994710D01*
X107720259Y-61989090D01*
X107679382Y-62011782D01*
X107648978Y-62048303D01*
X107641463Y-62091415D01*
X103532611Y-62091415D01*
X103525097Y-62062243D01*
X103492764Y-62028319D01*
X103447204Y-62015400D01*
X103436528Y-62016720D01*
X103402102Y-62036021D01*
X103374740Y-62070369D01*
X103363587Y-62109474D01*
X103305695Y-62109474D01*
X103309006Y-62083271D01*
X103332630Y-62031412D01*
X103372372Y-61988682D01*
X103420371Y-61964988D01*
X103457664Y-61962999D01*
X103510617Y-61976348D01*
X103556142Y-62003806D01*
X103583642Y-62040475D01*
X103598752Y-62080528D01*
X104521422Y-62072506D01*
X104521422Y-61986454D01*
X104970083Y-61986454D01*
X104970083Y-61566739D01*
X104521422Y-61566739D01*
X104521422Y-61465429D01*
X104001976Y-61465429D01*
X103983095Y-61505229D01*
X103980088Y-61510802D01*
X103951141Y-61543775D01*
X103911884Y-61570621D01*
X103878567Y-61584700D01*
X103845179Y-61588237D01*
X103803337Y-61577857D01*
X103762513Y-61557048D01*
X103723045Y-61514222D01*
X103704132Y-61460916D01*
X103706868Y-61433716D01*
X103757736Y-61433716D01*
X103761428Y-61466182D01*
X103789881Y-61502269D01*
X103796778Y-61508975D01*
X103831578Y-61533116D01*
X103864357Y-61532575D01*
X103904370Y-61507797D01*
X103907968Y-61504860D01*
X103936997Y-61464888D01*
X103938862Y-61423875D01*
X107382634Y-61423875D01*
X107393823Y-61465515D01*
X107421794Y-61497771D01*
X107458345Y-61508376D01*
X107502293Y-61502746D01*
X107536785Y-61482380D01*
X107554366Y-61456125D01*
X107561563Y-61414253D01*
X107547551Y-61376664D01*
X107516837Y-61348837D01*
X107473925Y-61336250D01*
X107423320Y-61344383D01*
X107410213Y-61351613D01*
X107388130Y-61382644D01*
X107383042Y-61420813D01*
X107382634Y-61423875D01*
X103938862Y-61423875D01*
X103939001Y-61420813D01*
X103913559Y-61378591D01*
X103910281Y-61375435D01*
X103867681Y-61352279D01*
X103823718Y-61356535D01*
X103784353Y-61387779D01*
X103778358Y-61395614D01*
X103757736Y-61433716D01*
X103706868Y-61433716D01*
X103709797Y-61404588D01*
X103729601Y-61360780D01*
X103767986Y-61318647D01*
X103821713Y-61297617D01*
X103877373Y-61296744D01*
X103934343Y-61319301D01*
X103976747Y-61364732D01*
X104002033Y-61407537D01*
X104521422Y-61407537D01*
X104521422Y-61320699D01*
X104970083Y-61320699D01*
X104970083Y-60886511D01*
X104521422Y-60886511D01*
X104521422Y-60654944D01*
X104608259Y-60654944D01*
X104608259Y-60408905D01*
X104608063Y-60339195D01*
X104607003Y-60265980D01*
X104604754Y-60215390D01*
X104601012Y-60183775D01*
X104595474Y-60167484D01*
X104587837Y-60162865D01*
X104583185Y-60162025D01*
X104558581Y-60146748D01*
X104529945Y-60118335D01*
X104515387Y-60098622D01*
X104493477Y-60043965D01*
X104494338Y-60002355D01*
X104554360Y-60002355D01*
X104554539Y-60048095D01*
X104578460Y-60089647D01*
X104605959Y-60109628D01*
X104637205Y-60119446D01*
X104656530Y-60117094D01*
X104692520Y-60096232D01*
X104714451Y-60060496D01*
X104720435Y-60018104D01*
X104708582Y-59977274D01*
X104677006Y-59946222D01*
X104654742Y-59935117D01*
X104628974Y-59932209D01*
X104597405Y-59946222D01*
X104576639Y-59962138D01*
X104554360Y-60002355D01*
X104494338Y-60002355D01*
X104494567Y-59991311D01*
X104514422Y-59944398D01*
X104548809Y-59906964D01*
X104593493Y-59882746D01*
X104644240Y-59875481D01*
X104696816Y-59888906D01*
X104746986Y-59926760D01*
X104762868Y-59947638D01*
X104781772Y-60003096D01*
X104780212Y-60018104D01*
X104775606Y-60062412D01*
X104744466Y-60118335D01*
X104736843Y-60126937D01*
X104708280Y-60152555D01*
X104686574Y-60162865D01*
X104680788Y-60165231D01*
X104674710Y-60177996D01*
X104670511Y-60205095D01*
X104667887Y-60250179D01*
X104666535Y-60316898D01*
X104666151Y-60408905D01*
X104666151Y-60654944D01*
X104970083Y-60654944D01*
X104970083Y-60510215D01*
X105592419Y-60510215D01*
X105592419Y-57916700D01*
X105549000Y-57876141D01*
X105526851Y-57851421D01*
X105505566Y-57801562D01*
X105512949Y-57751153D01*
X105549000Y-57702466D01*
X105592419Y-57661907D01*
X105592419Y-56088563D01*
X105551218Y-56070326D01*
X105512008Y-56041655D01*
X105484668Y-55992954D01*
X105478274Y-55938792D01*
X105535061Y-55938792D01*
X105540304Y-55981619D01*
X105565902Y-56014994D01*
X105593134Y-56030162D01*
X105621365Y-56038078D01*
X105644318Y-56032359D01*
X105676828Y-56014994D01*
X105676924Y-56014926D01*
X105702466Y-55981513D01*
X105707656Y-55938674D01*
X105693540Y-55896443D01*
X105661165Y-55864858D01*
X105638893Y-55853748D01*
X105613131Y-55850842D01*
X105581564Y-55864858D01*
X105581454Y-55864919D01*
X105549127Y-55896547D01*
X105535061Y-55938792D01*
X105478274Y-55938792D01*
X105477726Y-55934146D01*
X105493326Y-55872552D01*
X105515627Y-55842852D01*
X105551218Y-55817683D01*
X105592419Y-55799445D01*
X105592419Y-53634855D01*
X105557697Y-53621654D01*
X105557617Y-53621623D01*
X105512973Y-53590698D01*
X105485089Y-53543460D01*
X105479016Y-53508761D01*
X105536847Y-53508761D01*
X105557462Y-53550087D01*
X105561896Y-53554580D01*
X105601839Y-53574650D01*
X105647075Y-53573125D01*
X105685335Y-53550013D01*
X105692664Y-53540552D01*
X105705652Y-53497966D01*
X105695197Y-53452960D01*
X105662826Y-53414704D01*
X105640481Y-53399807D01*
X105615341Y-53394468D01*
X105583225Y-53406137D01*
X105559691Y-53423449D01*
X105538218Y-53463039D01*
X105536847Y-53508761D01*
X105479016Y-53508761D01*
X105475409Y-53488149D01*
X105485377Y-53433002D01*
X105516436Y-53386259D01*
X105551667Y-53360150D01*
X105610313Y-53342208D01*
X105669370Y-53351648D01*
X105723789Y-53388418D01*
X105743968Y-53413780D01*
X105764011Y-53468679D01*
X105762514Y-53497966D01*
X105761090Y-53525809D01*
X105736344Y-53577308D01*
X105690912Y-53615319D01*
X105650311Y-53636315D01*
X105650311Y-55803373D01*
X105686230Y-55812388D01*
X105691679Y-55814017D01*
X105727338Y-55839847D01*
X105752207Y-55883430D01*
X105764123Y-55935974D01*
X105763959Y-55938674D01*
X105760924Y-55988683D01*
X105740445Y-56032766D01*
X105717852Y-56055546D01*
X105682875Y-56080312D01*
X105650311Y-56096988D01*
X105650311Y-56891515D01*
X105650314Y-56959067D01*
X105650380Y-57120623D01*
X105650590Y-57256362D01*
X105651021Y-57368560D01*
X105651752Y-57459496D01*
X105652861Y-57531445D01*
X105654424Y-57586685D01*
X105656519Y-57627493D01*
X105659225Y-57656145D01*
X105662618Y-57674918D01*
X105666776Y-57686090D01*
X105671778Y-57691936D01*
X105677700Y-57694735D01*
X105702199Y-57713409D01*
X105722875Y-57746366D01*
X105729821Y-57772174D01*
X105727391Y-57819664D01*
X105708890Y-57860327D01*
X105677700Y-57883871D01*
X105673047Y-57886064D01*
X105668917Y-57890710D01*
X105665319Y-57899562D01*
X105662217Y-57914386D01*
X105659574Y-57936950D01*
X105657354Y-57969021D01*
X105655520Y-58012366D01*
X105654035Y-58068752D01*
X105652862Y-58139947D01*
X105651965Y-58227717D01*
X105651306Y-58333830D01*
X105650850Y-58460054D01*
X105650559Y-58608154D01*
X105650396Y-58779899D01*
X105650326Y-58977055D01*
X105650311Y-59201390D01*
X105650311Y-60510215D01*
X106272647Y-60510215D01*
X106272647Y-60625999D01*
X106547633Y-60625999D01*
X106547633Y-60388170D01*
X106547601Y-60348818D01*
X106547102Y-60270980D01*
X106545639Y-60216125D01*
X106542753Y-60180021D01*
X106537986Y-60158434D01*
X106530880Y-60147132D01*
X106520976Y-60141882D01*
X106519189Y-60141298D01*
X106471955Y-60111254D01*
X106439785Y-60062061D01*
X106431223Y-60018488D01*
X106485478Y-60018488D01*
X106497464Y-60056901D01*
X106525998Y-60081290D01*
X106540808Y-60086116D01*
X106591723Y-60088941D01*
X106631687Y-60071461D01*
X106656200Y-60038857D01*
X106660766Y-59996307D01*
X106640886Y-59948991D01*
X106640510Y-59948461D01*
X106607602Y-59924205D01*
X106564070Y-59916472D01*
X106524472Y-59927901D01*
X106511545Y-59938756D01*
X106490139Y-59975843D01*
X106485478Y-60018488D01*
X106431223Y-60018488D01*
X106427902Y-60001590D01*
X106429574Y-59970421D01*
X106442280Y-59933894D01*
X106473523Y-59899695D01*
X106517496Y-59871834D01*
X106574246Y-59860579D01*
X106629254Y-59871123D01*
X106676264Y-59900769D01*
X106709017Y-59946815D01*
X106719154Y-59996307D01*
X106721254Y-60006562D01*
X106716117Y-60035917D01*
X106695711Y-60080454D01*
X106666420Y-60119196D01*
X106635469Y-60140838D01*
X106627243Y-60144035D01*
X106618445Y-60151647D01*
X106612410Y-60166776D01*
X106608619Y-60193707D01*
X106606554Y-60236726D01*
X106605695Y-60300118D01*
X106605524Y-60388170D01*
X106605524Y-60625999D01*
X106721308Y-60625999D01*
X106721308Y-60872038D01*
X106272647Y-60872038D01*
X106272647Y-61291754D01*
X106721308Y-61291754D01*
X106721308Y-61393064D01*
X107025239Y-61393064D01*
X107074175Y-61393012D01*
X107165955Y-61392429D01*
X107233586Y-61391019D01*
X107280395Y-61388559D01*
X107309711Y-61384825D01*
X107324861Y-61379594D01*
X107329171Y-61372641D01*
X107330011Y-61367990D01*
X107345287Y-61343385D01*
X107373700Y-61314749D01*
X107390943Y-61301911D01*
X107447928Y-61278563D01*
X107504813Y-61278941D01*
X107555415Y-61300833D01*
X107593554Y-61342030D01*
X107613048Y-61400323D01*
X107612153Y-61414253D01*
X107609058Y-61462455D01*
X107584301Y-61512171D01*
X107544544Y-61547261D01*
X107495559Y-61565569D01*
X107443121Y-61564939D01*
X107393001Y-61543213D01*
X107350972Y-61498234D01*
X107321935Y-61452071D01*
X107021621Y-61451513D01*
X106721308Y-61450956D01*
X106721308Y-61537793D01*
X106272647Y-61537793D01*
X106272647Y-61971981D01*
X106721308Y-61971981D01*
X106721308Y-62058819D01*
X107583338Y-62058819D01*
X107599822Y-62015147D01*
X107612461Y-61992465D01*
X107652678Y-61957810D01*
X107705991Y-61938076D01*
X107762742Y-61937847D01*
X107785574Y-61945078D01*
X107832712Y-61978327D01*
X107866324Y-62027352D01*
X107879143Y-62083086D01*
X107878113Y-62096118D01*
X107875138Y-62104183D01*
X107860703Y-62143309D01*
X107827541Y-62187313D01*
X107786146Y-62219813D01*
X107744039Y-62232494D01*
X107707542Y-62229139D01*
X107648555Y-62205206D01*
X107607177Y-62160352D01*
X107582447Y-62116894D01*
X107151878Y-62116802D01*
X106721308Y-62116711D01*
X106721308Y-62218021D01*
X106272647Y-62218021D01*
X106272647Y-62637736D01*
X106721308Y-62637736D01*
X106721308Y-62724574D01*
X107543017Y-62724574D01*
X107620624Y-62777724D01*
X107645274Y-62794763D01*
X107694275Y-62828927D01*
X107759386Y-62874515D01*
X107836408Y-62928583D01*
X107921145Y-62988187D01*
X108009399Y-63050383D01*
X108085192Y-63103773D01*
X108165293Y-63160024D01*
X108236079Y-63209551D01*
X108293969Y-63249855D01*
X108335386Y-63278439D01*
X108356749Y-63292805D01*
X108392932Y-63315720D01*
X108496167Y-63175731D01*
X108565477Y-63079491D01*
X108641500Y-62969302D01*
X108713661Y-62860236D01*
X108777227Y-62759456D01*
X108827464Y-62674131D01*
X108829843Y-62669781D01*
X108850822Y-62627045D01*
X108878057Y-62566172D01*
X108909582Y-62492132D01*
X108943431Y-62409893D01*
X108977639Y-62324427D01*
X109010238Y-62240701D01*
X109039263Y-62163687D01*
X109062748Y-62098353D01*
X109078726Y-62049670D01*
X109085231Y-62022607D01*
X109083896Y-62011832D01*
X109074117Y-61997202D01*
X109052076Y-61979358D01*
X109014312Y-61955979D01*
X108957366Y-61924739D01*
X108877775Y-61883317D01*
X108841529Y-61864479D01*
X108674461Y-61772355D01*
X108507177Y-61672031D01*
X108345150Y-61567157D01*
X108193853Y-61461380D01*
X108058759Y-61358349D01*
X107945339Y-61261711D01*
X107928195Y-61245790D01*
X107794615Y-61106379D01*
X107663465Y-60943325D01*
X107537780Y-60761314D01*
X107420598Y-60565031D01*
X107314955Y-60359162D01*
X107223886Y-60148392D01*
X107223054Y-60146263D01*
X107148213Y-59947951D01*
X107071607Y-59732344D01*
X106994697Y-59504320D01*
X106918948Y-59268756D01*
X106845822Y-59030531D01*
X106776781Y-58794522D01*
X106713288Y-58565608D01*
X106656807Y-58348667D01*
X106608799Y-58148577D01*
X106570727Y-57970215D01*
X106560427Y-57916764D01*
X106523372Y-57705444D01*
X106488234Y-57473718D01*
X106454921Y-57220639D01*
X106423344Y-56945260D01*
X106393412Y-56646635D01*
X106365034Y-56323818D01*
X106338121Y-55975862D01*
X106312582Y-55601821D01*
X106288326Y-55200748D01*
X106265264Y-54771697D01*
X106259542Y-54660525D01*
X106250839Y-54496458D01*
X106241754Y-54330369D01*
X106232583Y-54167414D01*
X106223622Y-54012748D01*
X106215166Y-53871527D01*
X106207512Y-53748907D01*
X106200954Y-53650044D01*
X106195660Y-53571489D01*
X106187639Y-53444623D01*
X106180087Y-53316349D01*
X106173428Y-53194235D01*
X106168085Y-53085850D01*
X106164482Y-52998762D01*
X106162046Y-52934605D01*
X106158287Y-52850431D01*
X106154359Y-52776433D01*
X106150601Y-52718864D01*
X106147353Y-52683976D01*
X106139104Y-52622466D01*
X105147045Y-52622466D01*
X105138662Y-52683976D01*
X105136329Y-52706890D01*
X105132644Y-52758921D01*
X105128708Y-52829079D01*
X105124865Y-52911110D01*
X105121455Y-52998762D01*
X105119330Y-53052894D01*
X105114563Y-53154761D01*
X105108336Y-53272978D01*
X105101072Y-53399976D01*
X105093191Y-53528188D01*
X105085117Y-53650044D01*
X105080654Y-53716714D01*
X105073310Y-53832790D01*
X105065077Y-53969005D01*
X105056248Y-54120202D01*
X105047119Y-54281225D01*
X105037985Y-54446919D01*
X105029142Y-54612128D01*
X105020884Y-54771697D01*
X105001546Y-55133846D01*
X104975924Y-55561420D01*
X104948693Y-55960759D01*
X104919817Y-56332232D01*
X104889260Y-56676212D01*
X104856986Y-56993070D01*
X104822960Y-57283178D01*
X104787145Y-57546907D01*
X104749506Y-57784629D01*
X104710008Y-57996715D01*
X104687480Y-58102693D01*
X104641143Y-58300321D01*
X104585837Y-58516364D01*
X104523100Y-58745680D01*
X104454473Y-58983123D01*
X104381495Y-59223550D01*
X104305705Y-59461816D01*
X104228644Y-59692777D01*
X104151851Y-59911290D01*
X104076865Y-60112209D01*
X104050515Y-60178332D01*
X103955075Y-60390807D01*
X103846737Y-60596376D01*
X103728322Y-60790638D01*
X103602649Y-60969188D01*
X103472538Y-61127624D01*
X103340809Y-61261542D01*
X103287186Y-61308656D01*
X103167573Y-61404608D01*
X103029860Y-61505490D01*
X102879795Y-61607462D01*
X102723123Y-61706686D01*
X102565589Y-61799321D01*
X102412941Y-61881529D01*
X102393325Y-61891558D01*
X102324917Y-61927024D01*
X102277892Y-61952966D01*
X102248563Y-61972080D01*
X102233244Y-61987059D01*
X102228251Y-62000601D01*
X102131508Y-62000601D01*
X102124218Y-61973572D01*
X102099667Y-61874112D01*
X102074957Y-61764116D01*
X102051337Y-61650007D01*
X102030055Y-61538208D01*
X102012360Y-61435141D01*
X101999500Y-61347231D01*
X101992724Y-61280899D01*
X101984405Y-61147024D01*
X100962572Y-61147045D01*
X99940738Y-61147066D01*
X99209625Y-61868272D01*
X99136537Y-61940294D01*
X98980174Y-62093765D01*
X98843801Y-62226678D01*
X98727283Y-62339163D01*
X98630480Y-62431351D01*
X98553257Y-62503370D01*
X98495474Y-62555353D01*
X98456996Y-62587428D01*
X98437684Y-62599726D01*
X98405547Y-62602515D01*
X98350740Y-62587722D01*
X98300692Y-62552966D01*
X98263874Y-62502962D01*
X98263703Y-62502611D01*
X98247480Y-62463868D01*
X98245473Y-62434859D01*
X98256638Y-62400833D01*
X98258165Y-62398039D01*
X98277134Y-62374249D01*
X98315632Y-62331698D01*
X98372606Y-62271460D01*
X98447002Y-62194611D01*
X98537766Y-62102225D01*
X98643843Y-61995375D01*
X98764180Y-61875138D01*
X98897722Y-61742586D01*
X99043416Y-61598794D01*
X99810482Y-60843712D01*
X100899570Y-60843402D01*
X101988658Y-60843093D01*
X101988658Y-57166967D01*
X99933778Y-57166967D01*
X99343868Y-57747211D01*
X99279301Y-57810741D01*
X99167337Y-57921005D01*
X99059273Y-58027547D01*
X98957502Y-58128002D01*
X98864417Y-58220003D01*
X98782411Y-58301185D01*
X98713877Y-58369181D01*
X98661208Y-58421626D01*
X98626797Y-58456155D01*
X98616667Y-58466397D01*
X98558274Y-58524489D01*
X98514519Y-58565070D01*
X98480860Y-58591239D01*
X98452755Y-58606095D01*
X98425662Y-58612736D01*
X98395037Y-58614261D01*
X98344106Y-58604436D01*
X98295560Y-58572857D01*
X98261931Y-58525958D01*
X98247768Y-58470408D01*
X98257620Y-58412873D01*
X98262562Y-58405376D01*
X98286993Y-58376784D01*
X98330209Y-58330107D01*
X98390907Y-58266666D01*
X98467785Y-58187788D01*
X98559541Y-58094795D01*
X98664871Y-57989012D01*
X98782473Y-57871762D01*
X98911046Y-57744371D01*
X99049285Y-57608161D01*
X99822219Y-56848563D01*
X101988658Y-56848563D01*
X101988658Y-53953976D01*
X100877860Y-53953356D01*
X99767063Y-53952737D01*
X98992761Y-53189995D01*
X98988314Y-53185614D01*
X98863519Y-53062518D01*
X98744569Y-52944892D01*
X98633110Y-52834381D01*
X98530788Y-52732629D01*
X98439249Y-52641283D01*
X98360137Y-52561987D01*
X98295098Y-52496388D01*
X98245779Y-52446130D01*
X98213825Y-52412859D01*
X98200880Y-52398221D01*
X98189593Y-52374331D01*
X98183020Y-52318714D01*
X98198777Y-52264638D01*
X98232979Y-52218318D01*
X98281741Y-52185969D01*
X98341178Y-52173805D01*
X98349943Y-52173904D01*
X98361422Y-52175047D01*
X98373883Y-52178609D01*
X98388836Y-52185968D01*
X98407790Y-52198500D01*
X98432254Y-52217585D01*
X98463739Y-52244598D01*
X98503753Y-52280919D01*
X98553807Y-52327925D01*
X98615410Y-52386993D01*
X98690071Y-52459500D01*
X98779300Y-52546826D01*
X98884607Y-52650347D01*
X99007500Y-52771441D01*
X99149491Y-52911486D01*
X99897319Y-53649167D01*
X100941303Y-53649605D01*
X101985286Y-53650044D01*
X101995433Y-53555297D01*
X102000437Y-53517251D01*
X102012407Y-53454659D01*
X102097205Y-53454659D01*
X102097205Y-61429246D01*
X102146376Y-61657195D01*
X102157252Y-61705969D01*
X102174699Y-61777575D01*
X102190413Y-61834254D01*
X102203110Y-61871515D01*
X102211505Y-61884866D01*
X102215621Y-61884305D01*
X102245831Y-61873059D01*
X102295734Y-61849023D01*
X102361547Y-61814355D01*
X102439487Y-61771214D01*
X102525774Y-61721759D01*
X102616625Y-61668149D01*
X102708259Y-61612542D01*
X102796892Y-61557099D01*
X102878744Y-61503977D01*
X103038021Y-61391389D01*
X103245033Y-61220034D01*
X103430526Y-61033635D01*
X103596210Y-60830025D01*
X103743795Y-60607037D01*
X103874993Y-60362505D01*
X103991513Y-60094260D01*
X104002394Y-60066133D01*
X104048893Y-59940843D01*
X104100830Y-59794064D01*
X104156556Y-59630940D01*
X104214423Y-59456614D01*
X104272782Y-59276228D01*
X104329984Y-59094926D01*
X104384381Y-58917851D01*
X104434325Y-58750147D01*
X104478167Y-58596955D01*
X104514258Y-58463419D01*
X104539363Y-58363931D01*
X104582842Y-58176683D01*
X104623430Y-57980790D01*
X104661318Y-57774560D01*
X104696699Y-57556303D01*
X104729765Y-57324327D01*
X104760710Y-57076942D01*
X104789724Y-56812455D01*
X104817000Y-56529175D01*
X104842731Y-56225412D01*
X104867109Y-55899474D01*
X104890326Y-55549669D01*
X104912574Y-55174307D01*
X104934047Y-54771697D01*
X104939768Y-54660525D01*
X104948467Y-54496458D01*
X104957545Y-54330369D01*
X104966707Y-54167413D01*
X104975656Y-54012748D01*
X104984098Y-53871527D01*
X104991737Y-53748907D01*
X104998279Y-53650044D01*
X105003557Y-53571494D01*
X105011553Y-53444627D01*
X105019079Y-53316351D01*
X105025713Y-53194237D01*
X105031033Y-53085851D01*
X105034617Y-52998762D01*
X105037045Y-52934607D01*
X105040804Y-52850432D01*
X105044748Y-52776433D01*
X105048536Y-52718864D01*
X105051824Y-52683976D01*
X105060207Y-52622466D01*
X103961661Y-52622466D01*
X103828165Y-52622491D01*
X103635962Y-52622651D01*
X103469461Y-52622993D01*
X103326660Y-52623554D01*
X103205561Y-52624371D01*
X103104163Y-52625482D01*
X103020467Y-52626924D01*
X102952473Y-52628734D01*
X102898181Y-52630951D01*
X102855591Y-52633611D01*
X102822703Y-52636752D01*
X102797517Y-52640411D01*
X102778035Y-52644627D01*
X102716508Y-52663737D01*
X102587066Y-52724950D01*
X102466832Y-52810499D01*
X102358434Y-52917565D01*
X102264494Y-53043332D01*
X102187639Y-53184981D01*
X102130493Y-53339695D01*
X102097205Y-53454659D01*
X102012407Y-53454659D01*
X102019399Y-53418095D01*
X102046263Y-53311126D01*
X102077772Y-53208577D01*
X102110667Y-53122681D01*
X102115001Y-53113089D01*
X102175170Y-53005108D01*
X102254201Y-52896682D01*
X102345716Y-52794966D01*
X102443337Y-52707114D01*
X102540688Y-52640280D01*
X102575579Y-52621627D01*
X106225816Y-52621627D01*
X106234128Y-52683556D01*
X106236438Y-52706541D01*
X106240092Y-52758694D01*
X106243994Y-52828958D01*
X106247804Y-52911069D01*
X106251184Y-52998762D01*
X106254018Y-53071413D01*
X106259363Y-53186582D01*
X106265934Y-53311743D01*
X106273156Y-53436069D01*
X106280451Y-53548734D01*
X106287783Y-53655525D01*
X106297640Y-53802574D01*
X106306636Y-53941920D01*
X106315075Y-54078793D01*
X106323261Y-54218427D01*
X106331499Y-54366051D01*
X106340092Y-54526899D01*
X106349345Y-54706201D01*
X106359562Y-54909189D01*
X106367449Y-55063465D01*
X106390893Y-55480207D01*
X106416178Y-55869911D01*
X106443462Y-56233952D01*
X106472899Y-56573704D01*
X106504644Y-56890543D01*
X106538852Y-57185843D01*
X106575680Y-57460978D01*
X106615281Y-57717325D01*
X106657812Y-57956258D01*
X106703427Y-58179151D01*
X106752282Y-58387380D01*
X106763438Y-58431085D01*
X106802222Y-58575061D01*
X106848580Y-58737822D01*
X106900861Y-58914170D01*
X106957413Y-59098904D01*
X107016583Y-59286825D01*
X107076720Y-59472733D01*
X107136173Y-59651427D01*
X107193288Y-59817709D01*
X107246414Y-59966378D01*
X107293899Y-60092235D01*
X107305775Y-60122174D01*
X107415260Y-60367146D01*
X107540675Y-60598358D01*
X107679966Y-60812885D01*
X107831080Y-61007802D01*
X107991963Y-61180183D01*
X108160562Y-61327103D01*
X108164151Y-61329882D01*
X108279547Y-61414979D01*
X108412363Y-61506148D01*
X108554716Y-61598411D01*
X108698722Y-61686791D01*
X108836498Y-61766310D01*
X108960161Y-61831989D01*
X109020147Y-61861064D01*
X109076451Y-61885518D01*
X109111651Y-61896805D01*
X109123815Y-61894190D01*
X109125518Y-61884954D01*
X109132731Y-61851376D01*
X109144612Y-61797952D01*
X109160089Y-61729488D01*
X109178088Y-61650793D01*
X109232362Y-61414773D01*
X109232362Y-53498078D01*
X109199944Y-53375058D01*
X109144934Y-53212631D01*
X109069505Y-53063276D01*
X108976164Y-52930989D01*
X108867047Y-52818349D01*
X108744289Y-52727936D01*
X108610026Y-52662330D01*
X108523188Y-52629702D01*
X107374502Y-52625664D01*
X106225816Y-52621627D01*
X102575579Y-52621627D01*
X102598613Y-52609313D01*
X102661317Y-52581632D01*
X102725976Y-52560836D01*
X102797981Y-52545834D01*
X102881975Y-52535628D01*
X103496588Y-52535628D01*
X105621365Y-52535628D01*
X105621365Y-51516140D01*
X105621281Y-51389369D01*
X105620917Y-51226476D01*
X105620287Y-51073918D01*
X105619416Y-50934020D01*
X105618329Y-50809111D01*
X105617050Y-50701515D01*
X105615604Y-50613560D01*
X105614016Y-50547571D01*
X105612309Y-50505876D01*
X105610510Y-50490799D01*
X105604248Y-50489746D01*
X105573840Y-50489653D01*
X105525247Y-50491922D01*
X105465486Y-50496289D01*
X105333017Y-50511558D01*
X105094148Y-50560217D01*
X104864821Y-50634149D01*
X104646895Y-50731897D01*
X104442226Y-50852007D01*
X104252674Y-50993021D01*
X104080096Y-51153484D01*
X103926349Y-51331941D01*
X103793292Y-51526935D01*
X103682782Y-51737010D01*
X103596678Y-51960712D01*
X103561841Y-52085335D01*
X103525362Y-52265365D01*
X103503562Y-52445172D01*
X103496588Y-52535628D01*
X102881975Y-52535628D01*
X102882724Y-52535537D01*
X102985594Y-52528853D01*
X103111984Y-52524690D01*
X103403116Y-52517899D01*
X103412873Y-52400125D01*
X103413692Y-52390512D01*
X103448801Y-52153211D01*
X103511180Y-51921409D01*
X103599360Y-51697568D01*
X103711875Y-51484153D01*
X103847257Y-51283626D01*
X104004037Y-51098449D01*
X104180749Y-50931087D01*
X104375924Y-50784002D01*
X104474088Y-50718472D01*
X103235008Y-49286454D01*
X103129241Y-49278074D01*
X103117774Y-49277085D01*
X103009252Y-49257544D01*
X102920886Y-49219836D01*
X102848923Y-49161788D01*
X102789612Y-49081225D01*
X102760635Y-49012626D01*
X102743802Y-48922944D01*
X102744372Y-48830909D01*
X102763267Y-48748139D01*
X102798574Y-48677497D01*
X102861468Y-48601471D01*
X102939172Y-48544923D01*
X103027157Y-48508971D01*
X103120894Y-48494729D01*
X103215855Y-48503313D01*
X103307511Y-48535839D01*
X103391332Y-48593423D01*
X103453811Y-48660526D01*
X103495866Y-48735336D01*
X103517328Y-48821828D01*
X103520652Y-48926326D01*
X103515553Y-49046025D01*
X104165203Y-49797262D01*
X104814854Y-50548498D01*
X104940799Y-50507996D01*
X105026543Y-50481835D01*
X105708202Y-50481835D01*
X105708202Y-52535628D01*
X107825413Y-52535628D01*
X107815729Y-52419512D01*
X107815410Y-52415724D01*
X107780794Y-52173053D01*
X107719239Y-51940897D01*
X107630900Y-51719586D01*
X107515933Y-51509450D01*
X107374492Y-51310819D01*
X107206732Y-51124024D01*
X107033723Y-50967317D01*
X106849405Y-50833419D01*
X106649626Y-50719779D01*
X106607245Y-50699019D01*
X106458778Y-50634377D01*
X106308992Y-50582860D01*
X106151134Y-50542667D01*
X105978450Y-50511997D01*
X105784185Y-50489051D01*
X105708202Y-50481835D01*
X105026543Y-50481835D01*
X105052056Y-50474051D01*
X105164682Y-50445121D01*
X105272413Y-50424692D01*
X105383655Y-50411506D01*
X105506819Y-50404304D01*
X105650311Y-50401829D01*
X105767638Y-50402789D01*
X105905146Y-50409013D01*
X106028478Y-50422022D01*
X106145862Y-50443058D01*
X106265528Y-50473361D01*
X106395706Y-50514171D01*
X106540396Y-50562839D01*
X107196589Y-49804401D01*
X107852783Y-49045963D01*
X107839056Y-48966291D01*
X107832135Y-48868903D01*
X107849837Y-48767370D01*
X107894779Y-48675623D01*
X107966981Y-48593602D01*
X107969766Y-48591121D01*
X108054074Y-48533806D01*
X108144641Y-48501797D01*
X108237415Y-48493480D01*
X108328347Y-48507243D01*
X108413384Y-48541476D01*
X108488475Y-48594566D01*
X108549569Y-48664901D01*
X108592615Y-48750869D01*
X108613561Y-48850858D01*
X108615216Y-48883796D01*
X108604979Y-48985790D01*
X108569400Y-49075696D01*
X108507319Y-49156862D01*
X108460071Y-49200450D01*
X108397325Y-49240454D01*
X108325019Y-49264935D01*
X108233937Y-49277976D01*
X108132835Y-49286454D01*
X107549420Y-49959446D01*
X107545481Y-49963990D01*
X107440831Y-50084767D01*
X107340896Y-50200209D01*
X107247459Y-50308250D01*
X107162301Y-50406823D01*
X107087206Y-50493864D01*
X107023955Y-50567306D01*
X106974331Y-50625085D01*
X106940115Y-50665134D01*
X106923089Y-50685388D01*
X106880173Y-50738339D01*
X106999201Y-50821744D01*
X107007625Y-50827689D01*
X107154481Y-50944509D01*
X107298675Y-51082556D01*
X107433926Y-51234793D01*
X107553952Y-51394183D01*
X107652472Y-51553688D01*
X107708796Y-51665558D01*
X107782506Y-51843869D01*
X107841131Y-52027702D01*
X107882251Y-52209085D01*
X107903443Y-52380044D01*
X107912461Y-52521155D01*
X108155041Y-52521155D01*
X108237986Y-52521873D01*
X108365033Y-52527004D01*
X108450325Y-52535628D01*
X108471905Y-52537810D01*
G37*
D12*
%TO.C,J2*%
X94520000Y-49841250D02*
X94520000Y-72811250D01*
X97280000Y-47191250D02*
X95900000Y-47191250D01*
X97280000Y-48571250D02*
X97280000Y-47191250D01*
X97280000Y-49841250D02*
X94520000Y-49841250D01*
X97280000Y-49841250D02*
X97280000Y-72811250D01*
X97280000Y-72811250D02*
X94520000Y-72811250D01*
%TO.C,J3*%
X114300000Y-49671250D02*
X114300000Y-72641250D01*
X117060000Y-47021250D02*
X115680000Y-47021250D01*
X117060000Y-48401250D02*
X117060000Y-47021250D01*
X117060000Y-49671250D02*
X114300000Y-49671250D01*
X117060000Y-49671250D02*
X117060000Y-72641250D01*
X117060000Y-72641250D02*
X114300000Y-72641250D01*
%TD*%
M02*
