%TF.GenerationSoftware,KiCad,Pcbnew,9.0.6*%
%TF.CreationDate,2025-12-29T21:41:17-05:00*%
%TF.ProjectId,TinkerSend - E220-900MM22S,54696e6b-6572-4536-956e-64202d204532,1*%
%TF.SameCoordinates,Original*%
%TF.FileFunction,Copper,L4,Bot*%
%TF.FilePolarity,Positive*%
%FSLAX46Y46*%
G04 Gerber Fmt 4.6, Leading zero omitted, Abs format (unit mm)*
G04 Created by KiCad (PCBNEW 9.0.6) date 2025-12-29 21:41:17*
%MOMM*%
%LPD*%
G01*
G04 APERTURE LIST*
%TA.AperFunction,ComponentPad*%
%ADD10R,1.700000X1.700000*%
%TD*%
%TA.AperFunction,ComponentPad*%
%ADD11C,1.700000*%
%TD*%
%TA.AperFunction,ViaPad*%
%ADD12C,0.800000*%
%TD*%
%TA.AperFunction,ViaPad*%
%ADD13C,0.500000*%
%TD*%
%TA.AperFunction,Conductor*%
%ADD14C,0.200000*%
%TD*%
G04 APERTURE END LIST*
D10*
%TO.P,J2,1,Pin_1*%
%TO.N,GND*%
X95900000Y-48571250D03*
D11*
%TO.P,J2,2,Pin_2*%
%TO.N,+3V3*%
X95900000Y-51111250D03*
%TO.P,J2,3,Pin_3*%
%TO.N,SDA*%
X95900000Y-53651250D03*
%TO.P,J2,4,Pin_4*%
%TO.N,SCL*%
X95900000Y-56191250D03*
%TO.P,J2,5,Pin_5*%
%TO.N,IO34*%
X95900000Y-58731250D03*
%TO.P,J2,6,Pin_6*%
%TO.N,IO33*%
X95900000Y-61271250D03*
%TO.P,J2,7,Pin_7*%
%TO.N,GPS_RXD2*%
X95900000Y-63811250D03*
%TO.P,J2,8,Pin_8*%
%TO.N,L_BUSY*%
X95900000Y-66351250D03*
%TO.P,J2,9,Pin_9*%
%TO.N,L_DI01*%
X95900000Y-68891250D03*
%TO.P,J2,10,Pin_10*%
%TO.N,VCC*%
X95900000Y-71431250D03*
%TD*%
D10*
%TO.P,J3,1,Pin_1*%
%TO.N,unconnected-(J3-Pin_1-Pad1)*%
X115680000Y-48401250D03*
D11*
%TO.P,J3,2,Pin_2*%
%TO.N,GPS_TX*%
X115680000Y-50941250D03*
%TO.P,J3,3,Pin_3*%
%TO.N,GPS_RX*%
X115680000Y-53481250D03*
%TO.P,J3,4,Pin_4*%
%TO.N,L_CS*%
X115680000Y-56021250D03*
%TO.P,J3,5,Pin_5*%
%TO.N,L_RST*%
X115680000Y-58561250D03*
%TO.P,J3,6,Pin_6*%
%TO.N,L_SCK*%
X115680000Y-61101250D03*
%TO.P,J3,7,Pin_7*%
%TO.N,L_MOSI*%
X115680000Y-63641250D03*
%TO.P,J3,8,Pin_8*%
%TO.N,L_MISO*%
X115680000Y-66181250D03*
%TO.P,J3,9,Pin_9*%
%TO.N,unconnected-(J3-Pin_9-Pad9)*%
X115680000Y-68721250D03*
%TO.P,J3,10,Pin_10*%
%TO.N,L_RXEN*%
X115680000Y-71261250D03*
%TD*%
D12*
%TO.N,+3V3*%
X100100000Y-60090000D03*
D13*
%TO.N,GND*%
X107510000Y-69760000D03*
D12*
X111820000Y-53110000D03*
X99170000Y-67620000D03*
X99630000Y-70300000D03*
X100030000Y-72670000D03*
X97680000Y-72760000D03*
X107790000Y-72700000D03*
X107790000Y-71030000D03*
X109560000Y-72830000D03*
X109250000Y-53170000D03*
X111640000Y-47300000D03*
X109510000Y-50060000D03*
X105130000Y-50150000D03*
X101530000Y-50150000D03*
X103640000Y-53460000D03*
X101190000Y-53430000D03*
X98540000Y-53280000D03*
X98570000Y-50260000D03*
X98600000Y-47610000D03*
X114090000Y-50080000D03*
X114070000Y-52410000D03*
X114100000Y-55000000D03*
X113930000Y-58010000D03*
X117090000Y-62720000D03*
X117040000Y-64960000D03*
X117200000Y-67880000D03*
X117220000Y-70560000D03*
X97370000Y-70440000D03*
X97360000Y-68000000D03*
X97390000Y-65920000D03*
X97140000Y-62650000D03*
X97140000Y-60110000D03*
X94270000Y-56800000D03*
X94200000Y-54950000D03*
X94240000Y-52330000D03*
X94200000Y-50160000D03*
D13*
X108440000Y-47370000D03*
X108020000Y-48520000D03*
X106590000Y-48630000D03*
X105090000Y-48610000D03*
X103700000Y-48610000D03*
X102370000Y-48580000D03*
X100940000Y-48470000D03*
X100080000Y-47550000D03*
D12*
%TO.N,+3V3*%
X100980000Y-47540000D03*
D13*
%TO.N,GND*%
X99270000Y-56880000D03*
X99720000Y-65100000D03*
X99230000Y-63820000D03*
X99060000Y-62610000D03*
X99100000Y-61520000D03*
X99100000Y-60350000D03*
X99420000Y-59120000D03*
X100250000Y-58540000D03*
X102020000Y-58550000D03*
X103210000Y-58560000D03*
X104850000Y-58510000D03*
X104980000Y-57260000D03*
X106100000Y-57300000D03*
X106730000Y-58520000D03*
X107990000Y-58530000D03*
X109320000Y-58530000D03*
X110590000Y-58540000D03*
X111920000Y-58640000D03*
X112480000Y-59460000D03*
X112470000Y-60440000D03*
X112430000Y-61730000D03*
X112510000Y-63240000D03*
X112470000Y-64640000D03*
X112510000Y-65880000D03*
X114890000Y-67430000D03*
%TO.N,L_BUSY*%
X114300000Y-66890000D03*
%TO.N,GND*%
X112490000Y-66920000D03*
X112480000Y-67820000D03*
X112490000Y-68780000D03*
X111970000Y-69530000D03*
X110950000Y-69530000D03*
X113130000Y-73080000D03*
X111920000Y-73130000D03*
X109960000Y-69560000D03*
X106700000Y-69530000D03*
X105840000Y-69430000D03*
X105000000Y-69290000D03*
X101800000Y-69760000D03*
X101080000Y-69400000D03*
X100910000Y-68600000D03*
X100880000Y-67780000D03*
X100860000Y-66950000D03*
X100900000Y-66070000D03*
X100630000Y-65310000D03*
X101950000Y-72990000D03*
X101960000Y-72180000D03*
X102000000Y-71350000D03*
X102020000Y-70550000D03*
X106520000Y-73110000D03*
X106480000Y-72300000D03*
X106460000Y-71500000D03*
X106460000Y-70700000D03*
X104960000Y-70100000D03*
X105000000Y-70900000D03*
X104390000Y-71430000D03*
X103580000Y-71320000D03*
X103440000Y-70500000D03*
X103430000Y-69690000D03*
X103410000Y-68860000D03*
X103450000Y-68040000D03*
X104220000Y-67790000D03*
X105050000Y-67840000D03*
%TO.N,L_DI02*%
X105590000Y-58010000D03*
X112480000Y-72430000D03*
%TO.N,L_RST*%
X98400000Y-56710000D03*
X100910000Y-64550000D03*
%TD*%
D14*
%TO.N,L_BUSY*%
X95900000Y-66351250D02*
X97895000Y-64356250D01*
X110553862Y-55720000D02*
X113948000Y-59114138D01*
X97895000Y-64356250D02*
X97895000Y-56375000D01*
X97895000Y-56375000D02*
X98550000Y-55720000D01*
X114300000Y-66860000D02*
X114300000Y-66890000D01*
X98550000Y-55720000D02*
X110553862Y-55720000D01*
X113948000Y-59114138D02*
X113948000Y-66508000D01*
X113948000Y-66508000D02*
X114300000Y-66860000D01*
%TO.N,L_DI02*%
X112480000Y-72430000D02*
X112610000Y-72430000D01*
X112610000Y-72430000D02*
X113620000Y-71420000D01*
X113620000Y-71420000D02*
X113620000Y-59250000D01*
X113620000Y-59250000D02*
X112380000Y-58010000D01*
X112380000Y-58010000D02*
X105590000Y-58010000D01*
%TO.N,L_RST*%
X98400000Y-64020000D02*
X98930000Y-64550000D01*
X98930000Y-64550000D02*
X100910000Y-64550000D01*
X98400000Y-56710000D02*
X98400000Y-64020000D01*
%TD*%
%TA.AperFunction,Conductor*%
%TO.N,GND*%
G36*
X116212223Y-46141909D02*
G01*
X116433171Y-46157712D01*
X116441996Y-46158981D01*
X116656260Y-46205591D01*
X116664812Y-46208103D01*
X116798821Y-46258087D01*
X116870255Y-46284731D01*
X116878365Y-46288434D01*
X117070822Y-46393526D01*
X117078317Y-46398343D01*
X117253850Y-46529748D01*
X117260590Y-46535587D01*
X117415641Y-46690642D01*
X117421480Y-46697382D01*
X117552874Y-46872909D01*
X117557695Y-46880411D01*
X117662781Y-47072869D01*
X117666484Y-47080977D01*
X117680255Y-47117899D01*
X117743108Y-47286426D01*
X117745620Y-47294982D01*
X117792224Y-47509242D01*
X117793493Y-47518069D01*
X117809340Y-47739711D01*
X117809499Y-47744167D01*
X117809499Y-47771986D01*
X117809499Y-47798823D01*
X117809499Y-47798825D01*
X117809500Y-47803860D01*
X117809500Y-71829836D01*
X117809499Y-71829854D01*
X117809499Y-71889027D01*
X117809340Y-71893484D01*
X117793543Y-72114438D01*
X117792274Y-72123265D01*
X117745668Y-72337531D01*
X117743156Y-72346087D01*
X117666531Y-72551539D01*
X117662826Y-72559651D01*
X117557737Y-72752115D01*
X117552916Y-72759617D01*
X117421518Y-72935149D01*
X117415679Y-72941889D01*
X117260622Y-73096950D01*
X117253882Y-73102789D01*
X117078346Y-73234196D01*
X117070844Y-73239018D01*
X116878384Y-73344111D01*
X116870273Y-73347815D01*
X116664830Y-73424443D01*
X116656273Y-73426956D01*
X116442002Y-73473568D01*
X116433176Y-73474837D01*
X116212922Y-73490591D01*
X116208463Y-73490750D01*
X95212236Y-73490750D01*
X95207777Y-73490591D01*
X94986829Y-73474787D01*
X94978003Y-73473518D01*
X94763741Y-73426908D01*
X94755184Y-73424395D01*
X94549744Y-73347768D01*
X94541633Y-73344064D01*
X94432657Y-73284558D01*
X94349180Y-73238975D01*
X94341682Y-73234156D01*
X94166149Y-73102751D01*
X94159409Y-73096912D01*
X94004358Y-72941857D01*
X93998519Y-72935117D01*
X93955955Y-72878257D01*
X93867124Y-72759588D01*
X93862304Y-72752088D01*
X93757218Y-72559630D01*
X93753518Y-72551529D01*
X93676888Y-72346065D01*
X93674381Y-72337525D01*
X93627774Y-72123255D01*
X93626506Y-72114430D01*
X93610658Y-71892781D01*
X93610500Y-71888331D01*
X93610500Y-71884369D01*
X93610501Y-71833677D01*
X93610500Y-71833673D01*
X93610500Y-71334974D01*
X94922500Y-71334974D01*
X94922500Y-71527525D01*
X94960064Y-71716376D01*
X94960066Y-71716384D01*
X95033750Y-71894270D01*
X95033751Y-71894272D01*
X95139856Y-72053068D01*
X95140726Y-72054370D01*
X95276880Y-72190524D01*
X95436980Y-72297500D01*
X95502724Y-72324732D01*
X95614865Y-72371183D01*
X95614869Y-72371184D01*
X95614874Y-72371186D01*
X95803725Y-72408750D01*
X95996275Y-72408750D01*
X96185126Y-72371186D01*
X96185132Y-72371183D01*
X96185134Y-72371183D01*
X96245754Y-72346073D01*
X96363020Y-72297500D01*
X96523120Y-72190524D01*
X96659274Y-72054370D01*
X96766250Y-71894270D01*
X96822337Y-71758861D01*
X96839933Y-71716384D01*
X96839933Y-71716382D01*
X96839936Y-71716376D01*
X96877500Y-71527525D01*
X96877500Y-71334975D01*
X96839936Y-71146124D01*
X96839934Y-71146119D01*
X96839933Y-71146115D01*
X96799105Y-71047549D01*
X96766250Y-70968230D01*
X96659274Y-70808130D01*
X96523120Y-70671976D01*
X96523119Y-70671975D01*
X96363022Y-70565001D01*
X96363020Y-70565000D01*
X96185134Y-70491316D01*
X96185126Y-70491314D01*
X95996275Y-70453750D01*
X95803725Y-70453750D01*
X95614873Y-70491314D01*
X95614865Y-70491316D01*
X95436979Y-70565000D01*
X95436977Y-70565001D01*
X95276880Y-70671975D01*
X95140725Y-70808130D01*
X95033751Y-70968227D01*
X95033750Y-70968229D01*
X94960066Y-71146115D01*
X94960064Y-71146123D01*
X94922500Y-71334974D01*
X93610500Y-71334974D01*
X93610500Y-68794974D01*
X94922500Y-68794974D01*
X94922500Y-68987525D01*
X94960064Y-69176376D01*
X94960066Y-69176384D01*
X95033750Y-69354270D01*
X95033751Y-69354272D01*
X95140725Y-69514369D01*
X95140726Y-69514370D01*
X95276880Y-69650524D01*
X95436980Y-69757500D01*
X95516299Y-69790355D01*
X95614865Y-69831183D01*
X95614869Y-69831184D01*
X95614874Y-69831186D01*
X95803725Y-69868750D01*
X95996275Y-69868750D01*
X96185126Y-69831186D01*
X96185132Y-69831183D01*
X96185134Y-69831183D01*
X96227611Y-69813587D01*
X96363020Y-69757500D01*
X96523120Y-69650524D01*
X96659274Y-69514370D01*
X96766250Y-69354270D01*
X96822337Y-69218861D01*
X96839933Y-69176384D01*
X96839933Y-69176382D01*
X96839936Y-69176376D01*
X96877500Y-68987525D01*
X96877500Y-68794975D01*
X96839936Y-68606124D01*
X96839934Y-68606119D01*
X96839933Y-68606115D01*
X96799105Y-68507549D01*
X96766250Y-68428230D01*
X96659274Y-68268130D01*
X96523120Y-68131976D01*
X96523119Y-68131975D01*
X96363022Y-68025001D01*
X96363020Y-68025000D01*
X96185134Y-67951316D01*
X96185126Y-67951314D01*
X95996275Y-67913750D01*
X95803725Y-67913750D01*
X95614873Y-67951314D01*
X95614865Y-67951316D01*
X95436979Y-68025000D01*
X95436977Y-68025001D01*
X95276880Y-68131975D01*
X95140725Y-68268130D01*
X95033751Y-68428227D01*
X95033750Y-68428229D01*
X94960066Y-68606115D01*
X94960064Y-68606123D01*
X94922500Y-68794974D01*
X93610500Y-68794974D01*
X93610500Y-66254974D01*
X94922500Y-66254974D01*
X94922500Y-66447525D01*
X94960064Y-66636376D01*
X94960066Y-66636384D01*
X95033750Y-66814270D01*
X95033751Y-66814272D01*
X95119934Y-66943253D01*
X95140726Y-66974370D01*
X95276880Y-67110524D01*
X95436980Y-67217500D01*
X95516299Y-67250355D01*
X95614865Y-67291183D01*
X95614869Y-67291184D01*
X95614874Y-67291186D01*
X95803725Y-67328750D01*
X95996275Y-67328750D01*
X96185126Y-67291186D01*
X96185132Y-67291183D01*
X96185134Y-67291183D01*
X96243673Y-67266935D01*
X96363020Y-67217500D01*
X96523120Y-67110524D01*
X96659274Y-66974370D01*
X96766250Y-66814270D01*
X96822337Y-66678861D01*
X96839933Y-66636384D01*
X96839933Y-66636382D01*
X96839936Y-66636376D01*
X96877500Y-66447525D01*
X96877500Y-66254975D01*
X96839936Y-66066124D01*
X96839934Y-66066119D01*
X96839933Y-66066115D01*
X96766252Y-65888235D01*
X96766250Y-65888231D01*
X96766250Y-65888230D01*
X96762102Y-65882023D01*
X96752770Y-65835109D01*
X96769873Y-65803108D01*
X98087865Y-64485118D01*
X98122500Y-64401503D01*
X98122500Y-64310997D01*
X98122500Y-64215121D01*
X98140806Y-64170927D01*
X98185000Y-64152621D01*
X98229194Y-64170927D01*
X98737135Y-64678868D01*
X98801132Y-64742865D01*
X98801133Y-64742865D01*
X98801135Y-64742867D01*
X98884744Y-64777499D01*
X98884747Y-64777500D01*
X100539562Y-64777500D01*
X100583756Y-64795806D01*
X100661625Y-64873675D01*
X100661634Y-64873682D01*
X100753863Y-64926931D01*
X100753866Y-64926932D01*
X100753869Y-64926934D01*
X100753870Y-64926934D01*
X100753872Y-64926935D01*
X100816826Y-64943803D01*
X100856747Y-64954500D01*
X100856748Y-64954500D01*
X100963252Y-64954500D01*
X100963253Y-64954500D01*
X101066131Y-64926934D01*
X101158369Y-64873680D01*
X101233680Y-64798369D01*
X101286934Y-64706131D01*
X101314500Y-64603253D01*
X101314500Y-64496747D01*
X101286934Y-64393869D01*
X101239087Y-64310997D01*
X101233682Y-64301634D01*
X101233675Y-64301625D01*
X101158374Y-64226324D01*
X101158365Y-64226317D01*
X101066136Y-64173068D01*
X101066127Y-64173064D01*
X100963259Y-64145501D01*
X100963254Y-64145500D01*
X100963253Y-64145500D01*
X100856747Y-64145500D01*
X100856746Y-64145500D01*
X100856740Y-64145501D01*
X100753872Y-64173064D01*
X100753863Y-64173068D01*
X100661634Y-64226317D01*
X100661625Y-64226324D01*
X100583756Y-64304194D01*
X100539562Y-64322500D01*
X99050121Y-64322500D01*
X99005927Y-64304194D01*
X98645806Y-63944073D01*
X98627500Y-63899879D01*
X98627500Y-60020554D01*
X99572500Y-60020554D01*
X99572500Y-60159445D01*
X99572501Y-60159453D01*
X99608446Y-60293603D01*
X99608447Y-60293606D01*
X99630218Y-60331314D01*
X99672761Y-60405001D01*
X99677896Y-60413894D01*
X99677899Y-60413898D01*
X99776101Y-60512100D01*
X99776105Y-60512103D01*
X99776107Y-60512105D01*
X99896393Y-60581552D01*
X99896396Y-60581553D01*
X99978495Y-60603551D01*
X100030553Y-60617500D01*
X100030554Y-60617500D01*
X100169446Y-60617500D01*
X100169447Y-60617500D01*
X100303607Y-60581552D01*
X100423893Y-60512105D01*
X100522105Y-60413893D01*
X100591552Y-60293607D01*
X100627500Y-60159447D01*
X100627500Y-60020553D01*
X100591552Y-59886393D01*
X100522105Y-59766107D01*
X100522103Y-59766105D01*
X100522100Y-59766101D01*
X100423898Y-59667899D01*
X100423894Y-59667896D01*
X100423893Y-59667895D01*
X100363750Y-59633171D01*
X100303606Y-59598447D01*
X100303603Y-59598446D01*
X100169453Y-59562501D01*
X100169448Y-59562500D01*
X100169447Y-59562500D01*
X100030553Y-59562500D01*
X100030552Y-59562500D01*
X100030546Y-59562501D01*
X99896396Y-59598446D01*
X99896393Y-59598447D01*
X99776105Y-59667896D01*
X99776101Y-59667899D01*
X99677899Y-59766101D01*
X99677896Y-59766105D01*
X99608447Y-59886393D01*
X99608446Y-59886396D01*
X99572501Y-60020546D01*
X99572500Y-60020554D01*
X98627500Y-60020554D01*
X98627500Y-57080437D01*
X98645806Y-57036243D01*
X98683300Y-56998749D01*
X98723680Y-56958369D01*
X98776934Y-56866131D01*
X98804500Y-56763253D01*
X98804500Y-56656747D01*
X98776934Y-56553869D01*
X98723680Y-56461631D01*
X98723678Y-56461629D01*
X98723675Y-56461625D01*
X98648374Y-56386324D01*
X98648365Y-56386317D01*
X98556136Y-56333068D01*
X98556127Y-56333064D01*
X98453259Y-56305501D01*
X98453254Y-56305500D01*
X98453253Y-56305500D01*
X98437121Y-56305500D01*
X98392927Y-56287194D01*
X98374621Y-56243000D01*
X98392927Y-56198806D01*
X98625928Y-55965806D01*
X98670122Y-55947500D01*
X110433741Y-55947500D01*
X110477935Y-55965806D01*
X112187934Y-57675806D01*
X112206240Y-57720000D01*
X112187934Y-57764194D01*
X112143740Y-57782500D01*
X105960438Y-57782500D01*
X105916244Y-57764194D01*
X105838374Y-57686324D01*
X105838365Y-57686317D01*
X105746136Y-57633068D01*
X105746127Y-57633064D01*
X105643259Y-57605501D01*
X105643254Y-57605500D01*
X105643253Y-57605500D01*
X105536747Y-57605500D01*
X105536746Y-57605500D01*
X105536740Y-57605501D01*
X105433872Y-57633064D01*
X105433863Y-57633068D01*
X105341634Y-57686317D01*
X105341625Y-57686324D01*
X105266324Y-57761625D01*
X105266317Y-57761634D01*
X105213068Y-57853863D01*
X105213064Y-57853872D01*
X105185501Y-57956740D01*
X105185500Y-57956748D01*
X105185500Y-58063251D01*
X105185501Y-58063259D01*
X105213064Y-58166127D01*
X105213068Y-58166136D01*
X105266317Y-58258365D01*
X105266324Y-58258374D01*
X105341625Y-58333675D01*
X105341634Y-58333682D01*
X105433863Y-58386931D01*
X105433866Y-58386932D01*
X105433869Y-58386934D01*
X105433870Y-58386934D01*
X105433872Y-58386935D01*
X105496826Y-58403803D01*
X105536747Y-58414500D01*
X105536748Y-58414500D01*
X105643252Y-58414500D01*
X105643253Y-58414500D01*
X105746131Y-58386934D01*
X105838369Y-58333680D01*
X105838374Y-58333675D01*
X105916244Y-58255806D01*
X105960438Y-58237500D01*
X112259879Y-58237500D01*
X112304073Y-58255806D01*
X113374194Y-59325927D01*
X113392500Y-59370121D01*
X113392500Y-71299878D01*
X113374194Y-71344072D01*
X112684572Y-72033693D01*
X112640378Y-72051999D01*
X112624202Y-72049869D01*
X112533259Y-72025501D01*
X112533254Y-72025500D01*
X112533253Y-72025500D01*
X112426747Y-72025500D01*
X112426746Y-72025500D01*
X112426740Y-72025501D01*
X112323872Y-72053064D01*
X112323863Y-72053068D01*
X112231634Y-72106317D01*
X112231625Y-72106324D01*
X112156324Y-72181625D01*
X112156317Y-72181634D01*
X112103068Y-72273863D01*
X112103064Y-72273872D01*
X112075501Y-72376740D01*
X112075500Y-72376748D01*
X112075500Y-72483251D01*
X112075501Y-72483259D01*
X112103064Y-72586127D01*
X112103068Y-72586136D01*
X112156317Y-72678365D01*
X112156324Y-72678374D01*
X112231625Y-72753675D01*
X112231634Y-72753682D01*
X112323863Y-72806931D01*
X112323866Y-72806932D01*
X112323869Y-72806934D01*
X112323870Y-72806934D01*
X112323872Y-72806935D01*
X112386826Y-72823803D01*
X112426747Y-72834500D01*
X112426748Y-72834500D01*
X112533252Y-72834500D01*
X112533253Y-72834500D01*
X112636131Y-72806934D01*
X112728369Y-72753680D01*
X112803680Y-72678369D01*
X112856934Y-72586131D01*
X112882369Y-72491204D01*
X112898543Y-72463189D01*
X113812866Y-71548868D01*
X113838644Y-71486632D01*
X113847500Y-71465253D01*
X113847500Y-71164974D01*
X114702500Y-71164974D01*
X114702500Y-71357525D01*
X114740064Y-71546376D01*
X114740066Y-71546384D01*
X114813750Y-71724270D01*
X114813751Y-71724272D01*
X114920725Y-71884369D01*
X114920726Y-71884370D01*
X115056880Y-72020524D01*
X115216980Y-72127500D01*
X115296299Y-72160355D01*
X115394865Y-72201183D01*
X115394869Y-72201184D01*
X115394874Y-72201186D01*
X115583725Y-72238750D01*
X115776275Y-72238750D01*
X115965126Y-72201186D01*
X115965132Y-72201183D01*
X115965134Y-72201183D01*
X116012336Y-72181631D01*
X116143020Y-72127500D01*
X116303120Y-72020524D01*
X116439274Y-71884370D01*
X116546250Y-71724270D01*
X116619936Y-71546376D01*
X116657500Y-71357525D01*
X116657500Y-71164975D01*
X116619936Y-70976124D01*
X116619934Y-70976119D01*
X116619933Y-70976115D01*
X116579105Y-70877549D01*
X116546250Y-70798230D01*
X116439274Y-70638130D01*
X116303120Y-70501976D01*
X116303119Y-70501975D01*
X116143022Y-70395001D01*
X116143020Y-70395000D01*
X115965134Y-70321316D01*
X115965126Y-70321314D01*
X115776275Y-70283750D01*
X115583725Y-70283750D01*
X115394873Y-70321314D01*
X115394865Y-70321316D01*
X115216979Y-70395000D01*
X115216977Y-70395001D01*
X115056880Y-70501975D01*
X114920725Y-70638130D01*
X114813751Y-70798227D01*
X114813750Y-70798229D01*
X114740066Y-70976115D01*
X114740064Y-70976123D01*
X114702500Y-71164974D01*
X113847500Y-71164974D01*
X113847500Y-68624974D01*
X114702500Y-68624974D01*
X114702500Y-68817525D01*
X114740064Y-69006376D01*
X114740066Y-69006384D01*
X114813750Y-69184270D01*
X114920726Y-69344370D01*
X115056880Y-69480524D01*
X115216980Y-69587500D01*
X115296299Y-69620355D01*
X115394865Y-69661183D01*
X115394869Y-69661184D01*
X115394874Y-69661186D01*
X115583725Y-69698750D01*
X115776275Y-69698750D01*
X115965126Y-69661186D01*
X115965132Y-69661183D01*
X115965134Y-69661183D01*
X116007611Y-69643587D01*
X116143020Y-69587500D01*
X116303120Y-69480524D01*
X116439274Y-69344370D01*
X116546250Y-69184270D01*
X116619936Y-69006376D01*
X116657500Y-68817525D01*
X116657500Y-68624975D01*
X116619936Y-68436124D01*
X116619934Y-68436119D01*
X116619933Y-68436115D01*
X116579105Y-68337549D01*
X116546250Y-68258230D01*
X116439274Y-68098130D01*
X116303120Y-67961976D01*
X116303119Y-67961975D01*
X116143022Y-67855001D01*
X116143020Y-67855000D01*
X115965134Y-67781316D01*
X115965126Y-67781314D01*
X115776275Y-67743750D01*
X115583725Y-67743750D01*
X115394873Y-67781314D01*
X115394865Y-67781316D01*
X115216979Y-67855000D01*
X115216977Y-67855001D01*
X115056880Y-67961975D01*
X114920725Y-68098130D01*
X114813751Y-68258227D01*
X114813750Y-68258229D01*
X114740066Y-68436115D01*
X114740064Y-68436123D01*
X114702500Y-68624974D01*
X113847500Y-68624974D01*
X113847500Y-67148499D01*
X113865806Y-67104305D01*
X113910000Y-67085999D01*
X113954194Y-67104305D01*
X113964124Y-67117245D01*
X113976318Y-67138365D01*
X113976321Y-67138370D01*
X113976324Y-67138374D01*
X114051625Y-67213675D01*
X114051634Y-67213682D01*
X114143863Y-67266931D01*
X114143866Y-67266932D01*
X114143869Y-67266934D01*
X114143870Y-67266934D01*
X114143872Y-67266935D01*
X114206826Y-67283803D01*
X114246747Y-67294500D01*
X114246748Y-67294500D01*
X114353252Y-67294500D01*
X114353253Y-67294500D01*
X114456131Y-67266934D01*
X114548369Y-67213680D01*
X114623680Y-67138369D01*
X114676934Y-67046131D01*
X114704500Y-66943253D01*
X114704500Y-66836747D01*
X114676934Y-66733869D01*
X114674257Y-66729233D01*
X114623682Y-66641634D01*
X114623675Y-66641625D01*
X114548374Y-66566324D01*
X114548365Y-66566317D01*
X114456136Y-66513068D01*
X114456127Y-66513064D01*
X114353259Y-66485501D01*
X114353254Y-66485500D01*
X114353253Y-66485500D01*
X114353252Y-66485500D01*
X114273121Y-66485500D01*
X114228927Y-66467194D01*
X114193806Y-66432073D01*
X114175500Y-66387879D01*
X114175500Y-66084974D01*
X114702500Y-66084974D01*
X114702500Y-66277525D01*
X114740064Y-66466376D01*
X114740066Y-66466384D01*
X114813750Y-66644270D01*
X114813751Y-66644272D01*
X114920725Y-66804369D01*
X114920726Y-66804370D01*
X115056880Y-66940524D01*
X115216980Y-67047500D01*
X115296299Y-67080355D01*
X115394865Y-67121183D01*
X115394869Y-67121184D01*
X115394874Y-67121186D01*
X115583725Y-67158750D01*
X115776275Y-67158750D01*
X115965126Y-67121186D01*
X115965132Y-67121183D01*
X115965134Y-67121183D01*
X116007611Y-67103587D01*
X116143020Y-67047500D01*
X116303120Y-66940524D01*
X116439274Y-66804370D01*
X116546250Y-66644270D01*
X116619936Y-66466376D01*
X116657500Y-66277525D01*
X116657500Y-66084975D01*
X116619936Y-65896124D01*
X116619934Y-65896119D01*
X116619933Y-65896115D01*
X116579105Y-65797549D01*
X116546250Y-65718230D01*
X116439274Y-65558130D01*
X116303120Y-65421976D01*
X116303119Y-65421975D01*
X116143022Y-65315001D01*
X116143020Y-65315000D01*
X115965134Y-65241316D01*
X115965126Y-65241314D01*
X115776275Y-65203750D01*
X115583725Y-65203750D01*
X115394873Y-65241314D01*
X115394865Y-65241316D01*
X115216979Y-65315000D01*
X115216977Y-65315001D01*
X115056880Y-65421975D01*
X114920725Y-65558130D01*
X114813751Y-65718227D01*
X114813750Y-65718229D01*
X114740066Y-65896115D01*
X114740064Y-65896123D01*
X114702500Y-66084974D01*
X114175500Y-66084974D01*
X114175500Y-63544974D01*
X114702500Y-63544974D01*
X114702500Y-63737525D01*
X114740064Y-63926376D01*
X114740066Y-63926384D01*
X114813750Y-64104270D01*
X114813751Y-64104272D01*
X114920725Y-64264369D01*
X114920726Y-64264370D01*
X115056880Y-64400524D01*
X115216980Y-64507500D01*
X115296299Y-64540355D01*
X115394865Y-64581183D01*
X115394869Y-64581184D01*
X115394874Y-64581186D01*
X115583725Y-64618750D01*
X115776275Y-64618750D01*
X115965126Y-64581186D01*
X115965132Y-64581183D01*
X115965134Y-64581183D01*
X116007611Y-64563587D01*
X116143020Y-64507500D01*
X116303120Y-64400524D01*
X116439274Y-64264370D01*
X116546250Y-64104270D01*
X116619936Y-63926376D01*
X116657500Y-63737525D01*
X116657500Y-63544975D01*
X116619936Y-63356124D01*
X116619934Y-63356119D01*
X116619933Y-63356115D01*
X116579105Y-63257549D01*
X116546250Y-63178230D01*
X116439274Y-63018130D01*
X116303120Y-62881976D01*
X116303119Y-62881975D01*
X116143022Y-62775001D01*
X116143020Y-62775000D01*
X115965134Y-62701316D01*
X115965126Y-62701314D01*
X115776275Y-62663750D01*
X115583725Y-62663750D01*
X115394873Y-62701314D01*
X115394865Y-62701316D01*
X115216979Y-62775000D01*
X115216977Y-62775001D01*
X115056880Y-62881975D01*
X114920725Y-63018130D01*
X114813751Y-63178227D01*
X114813750Y-63178229D01*
X114740066Y-63356115D01*
X114740064Y-63356123D01*
X114702500Y-63544974D01*
X114175500Y-63544974D01*
X114175500Y-61004974D01*
X114702500Y-61004974D01*
X114702500Y-61197525D01*
X114740064Y-61386376D01*
X114740066Y-61386384D01*
X114813750Y-61564270D01*
X114920726Y-61724370D01*
X115056880Y-61860524D01*
X115216980Y-61967500D01*
X115296299Y-62000355D01*
X115394865Y-62041183D01*
X115394869Y-62041184D01*
X115394874Y-62041186D01*
X115583725Y-62078750D01*
X115776275Y-62078750D01*
X115965126Y-62041186D01*
X115965132Y-62041183D01*
X115965134Y-62041183D01*
X116007611Y-62023587D01*
X116143020Y-61967500D01*
X116303120Y-61860524D01*
X116439274Y-61724370D01*
X116546250Y-61564270D01*
X116619936Y-61386376D01*
X116657500Y-61197525D01*
X116657500Y-61004975D01*
X116619936Y-60816124D01*
X116619934Y-60816119D01*
X116619933Y-60816115D01*
X116579105Y-60717549D01*
X116546250Y-60638230D01*
X116439274Y-60478130D01*
X116303120Y-60341976D01*
X116303119Y-60341975D01*
X116143022Y-60235001D01*
X116143020Y-60235000D01*
X115965134Y-60161316D01*
X115965126Y-60161314D01*
X115776275Y-60123750D01*
X115583725Y-60123750D01*
X115394873Y-60161314D01*
X115394865Y-60161316D01*
X115216979Y-60235000D01*
X115216977Y-60235001D01*
X115056880Y-60341975D01*
X114920725Y-60478130D01*
X114813751Y-60638227D01*
X114813750Y-60638229D01*
X114740066Y-60816115D01*
X114740064Y-60816123D01*
X114702500Y-61004974D01*
X114175500Y-61004974D01*
X114175500Y-59068887D01*
X114175500Y-59068885D01*
X114157020Y-59024270D01*
X114157020Y-59024269D01*
X114157020Y-59024268D01*
X114140868Y-58985273D01*
X114140864Y-58985268D01*
X113661695Y-58506099D01*
X113620570Y-58464974D01*
X114702500Y-58464974D01*
X114702500Y-58657525D01*
X114740064Y-58846376D01*
X114740066Y-58846384D01*
X114796086Y-58981626D01*
X114813750Y-59024270D01*
X114920726Y-59184370D01*
X115056880Y-59320524D01*
X115216980Y-59427500D01*
X115296299Y-59460355D01*
X115394865Y-59501183D01*
X115394869Y-59501184D01*
X115394874Y-59501186D01*
X115583725Y-59538750D01*
X115776275Y-59538750D01*
X115965126Y-59501186D01*
X115965132Y-59501183D01*
X115965134Y-59501183D01*
X116007611Y-59483587D01*
X116143020Y-59427500D01*
X116303120Y-59320524D01*
X116439274Y-59184370D01*
X116546250Y-59024270D01*
X116619936Y-58846376D01*
X116657500Y-58657525D01*
X116657500Y-58464975D01*
X116619936Y-58276124D01*
X116619934Y-58276119D01*
X116619933Y-58276115D01*
X116579105Y-58177549D01*
X116546250Y-58098230D01*
X116439274Y-57938130D01*
X116303120Y-57801976D01*
X116303119Y-57801975D01*
X116143022Y-57695001D01*
X116143020Y-57695000D01*
X115965134Y-57621316D01*
X115965126Y-57621314D01*
X115776275Y-57583750D01*
X115583725Y-57583750D01*
X115394873Y-57621314D01*
X115394865Y-57621316D01*
X115216979Y-57695000D01*
X115216977Y-57695001D01*
X115056880Y-57801975D01*
X114920725Y-57938130D01*
X114813751Y-58098227D01*
X114813750Y-58098229D01*
X114740066Y-58276115D01*
X114740064Y-58276123D01*
X114702500Y-58464974D01*
X113620570Y-58464974D01*
X111121694Y-55966099D01*
X111080569Y-55924974D01*
X114702500Y-55924974D01*
X114702500Y-56117525D01*
X114740064Y-56306376D01*
X114740066Y-56306384D01*
X114813750Y-56484270D01*
X114813751Y-56484272D01*
X114920725Y-56644369D01*
X114920726Y-56644370D01*
X115056880Y-56780524D01*
X115216980Y-56887500D01*
X115296299Y-56920355D01*
X115394865Y-56961183D01*
X115394869Y-56961184D01*
X115394874Y-56961186D01*
X115583725Y-56998750D01*
X115776275Y-56998750D01*
X115965126Y-56961186D01*
X115965132Y-56961183D01*
X115965134Y-56961183D01*
X116007611Y-56943587D01*
X116143020Y-56887500D01*
X116303120Y-56780524D01*
X116439274Y-56644370D01*
X116546250Y-56484270D01*
X116608881Y-56333066D01*
X116619933Y-56306384D01*
X116619933Y-56306382D01*
X116619936Y-56306376D01*
X116657500Y-56117525D01*
X116657500Y-55924975D01*
X116619936Y-55736124D01*
X116619934Y-55736119D01*
X116619933Y-55736115D01*
X116579105Y-55637549D01*
X116546250Y-55558230D01*
X116439274Y-55398130D01*
X116303120Y-55261976D01*
X116303119Y-55261975D01*
X116143022Y-55155001D01*
X116143020Y-55155000D01*
X115965134Y-55081316D01*
X115965126Y-55081314D01*
X115776275Y-55043750D01*
X115583725Y-55043750D01*
X115394873Y-55081314D01*
X115394865Y-55081316D01*
X115216979Y-55155000D01*
X115216977Y-55155001D01*
X115056880Y-55261975D01*
X114920725Y-55398130D01*
X114813751Y-55558227D01*
X114813750Y-55558229D01*
X114740066Y-55736115D01*
X114740064Y-55736123D01*
X114702500Y-55924974D01*
X111080569Y-55924974D01*
X110682731Y-55527136D01*
X110682726Y-55527132D01*
X110599117Y-55492500D01*
X110599115Y-55492500D01*
X98595253Y-55492500D01*
X98504747Y-55492500D01*
X98421133Y-55527133D01*
X98421131Y-55527135D01*
X97766132Y-56182135D01*
X97702136Y-56246130D01*
X97702132Y-56246135D01*
X97667500Y-56329744D01*
X97667500Y-64236128D01*
X97649194Y-64280322D01*
X96448142Y-65481373D01*
X96403948Y-65499679D01*
X96369225Y-65489146D01*
X96363020Y-65485000D01*
X96354264Y-65481373D01*
X96185134Y-65411316D01*
X96185126Y-65411314D01*
X95996275Y-65373750D01*
X95803725Y-65373750D01*
X95614873Y-65411314D01*
X95614865Y-65411316D01*
X95436979Y-65485000D01*
X95436977Y-65485001D01*
X95276880Y-65591975D01*
X95140725Y-65728130D01*
X95033751Y-65888227D01*
X95033750Y-65888229D01*
X94960066Y-66066115D01*
X94960064Y-66066123D01*
X94922500Y-66254974D01*
X93610500Y-66254974D01*
X93610500Y-63714974D01*
X94922500Y-63714974D01*
X94922500Y-63907525D01*
X94960064Y-64096376D01*
X94960066Y-64096384D01*
X95033750Y-64274270D01*
X95033751Y-64274272D01*
X95118764Y-64401502D01*
X95140726Y-64434370D01*
X95276880Y-64570524D01*
X95436980Y-64677500D01*
X95506114Y-64706136D01*
X95614865Y-64751183D01*
X95614869Y-64751184D01*
X95614874Y-64751186D01*
X95803725Y-64788750D01*
X95996275Y-64788750D01*
X96185126Y-64751186D01*
X96185132Y-64751183D01*
X96185134Y-64751183D01*
X96227611Y-64733587D01*
X96363020Y-64677500D01*
X96523120Y-64570524D01*
X96659274Y-64434370D01*
X96766250Y-64274270D01*
X96822337Y-64138861D01*
X96839933Y-64096384D01*
X96839933Y-64096382D01*
X96839936Y-64096376D01*
X96877500Y-63907525D01*
X96877500Y-63714975D01*
X96839936Y-63526124D01*
X96839934Y-63526119D01*
X96839933Y-63526115D01*
X96799105Y-63427549D01*
X96766250Y-63348230D01*
X96659274Y-63188130D01*
X96523120Y-63051976D01*
X96523119Y-63051975D01*
X96363022Y-62945001D01*
X96363020Y-62945000D01*
X96185134Y-62871316D01*
X96185126Y-62871314D01*
X95996275Y-62833750D01*
X95803725Y-62833750D01*
X95614873Y-62871314D01*
X95614865Y-62871316D01*
X95436979Y-62945000D01*
X95436977Y-62945001D01*
X95276880Y-63051975D01*
X95140725Y-63188130D01*
X95033751Y-63348227D01*
X95033750Y-63348229D01*
X94960066Y-63526115D01*
X94960064Y-63526123D01*
X94922500Y-63714974D01*
X93610500Y-63714974D01*
X93610500Y-61174974D01*
X94922500Y-61174974D01*
X94922500Y-61367525D01*
X94960064Y-61556376D01*
X94960066Y-61556384D01*
X95033750Y-61734270D01*
X95033751Y-61734272D01*
X95140725Y-61894369D01*
X95140726Y-61894370D01*
X95276880Y-62030524D01*
X95436980Y-62137500D01*
X95516299Y-62170355D01*
X95614865Y-62211183D01*
X95614869Y-62211184D01*
X95614874Y-62211186D01*
X95803725Y-62248750D01*
X95996275Y-62248750D01*
X96185126Y-62211186D01*
X96185132Y-62211183D01*
X96185134Y-62211183D01*
X96227611Y-62193587D01*
X96363020Y-62137500D01*
X96523120Y-62030524D01*
X96659274Y-61894370D01*
X96766250Y-61734270D01*
X96822337Y-61598861D01*
X96839933Y-61556384D01*
X96839933Y-61556382D01*
X96839936Y-61556376D01*
X96877500Y-61367525D01*
X96877500Y-61174975D01*
X96839936Y-60986124D01*
X96839934Y-60986119D01*
X96839933Y-60986115D01*
X96799105Y-60887549D01*
X96766250Y-60808230D01*
X96659274Y-60648130D01*
X96523120Y-60511976D01*
X96523119Y-60511975D01*
X96363022Y-60405001D01*
X96363020Y-60405000D01*
X96185134Y-60331316D01*
X96185126Y-60331314D01*
X95996275Y-60293750D01*
X95803725Y-60293750D01*
X95614873Y-60331314D01*
X95614865Y-60331316D01*
X95436979Y-60405000D01*
X95436977Y-60405001D01*
X95276880Y-60511975D01*
X95140725Y-60648130D01*
X95033751Y-60808227D01*
X95033750Y-60808229D01*
X94960066Y-60986115D01*
X94960064Y-60986123D01*
X94922500Y-61174974D01*
X93610500Y-61174974D01*
X93610500Y-58634974D01*
X94922500Y-58634974D01*
X94922500Y-58827525D01*
X94960064Y-59016376D01*
X94960066Y-59016384D01*
X95033750Y-59194270D01*
X95033751Y-59194272D01*
X95140725Y-59354369D01*
X95140726Y-59354370D01*
X95276880Y-59490524D01*
X95436980Y-59597500D01*
X95516299Y-59630355D01*
X95614865Y-59671183D01*
X95614869Y-59671184D01*
X95614874Y-59671186D01*
X95803725Y-59708750D01*
X95996275Y-59708750D01*
X96185126Y-59671186D01*
X96185132Y-59671183D01*
X96185134Y-59671183D01*
X96227611Y-59653587D01*
X96363020Y-59597500D01*
X96523120Y-59490524D01*
X96659274Y-59354370D01*
X96766250Y-59194270D01*
X96839936Y-59016376D01*
X96877500Y-58827525D01*
X96877500Y-58634975D01*
X96839936Y-58446124D01*
X96839934Y-58446119D01*
X96839933Y-58446115D01*
X96793358Y-58333675D01*
X96766250Y-58268230D01*
X96659274Y-58108130D01*
X96523120Y-57971976D01*
X96500330Y-57956748D01*
X96363022Y-57865001D01*
X96363020Y-57865000D01*
X96185134Y-57791316D01*
X96185126Y-57791314D01*
X95996275Y-57753750D01*
X95803725Y-57753750D01*
X95614873Y-57791314D01*
X95614865Y-57791316D01*
X95436979Y-57865000D01*
X95436977Y-57865001D01*
X95276880Y-57971975D01*
X95140725Y-58108130D01*
X95033751Y-58268227D01*
X95033750Y-58268229D01*
X94960066Y-58446115D01*
X94960064Y-58446123D01*
X94922500Y-58634974D01*
X93610500Y-58634974D01*
X93610500Y-56094974D01*
X94922500Y-56094974D01*
X94922500Y-56287525D01*
X94960064Y-56476376D01*
X94960066Y-56476384D01*
X95033750Y-56654270D01*
X95033751Y-56654272D01*
X95140725Y-56814369D01*
X95140726Y-56814370D01*
X95276880Y-56950524D01*
X95436980Y-57057500D01*
X95492355Y-57080437D01*
X95614865Y-57131183D01*
X95614869Y-57131184D01*
X95614874Y-57131186D01*
X95803725Y-57168750D01*
X95996275Y-57168750D01*
X96185126Y-57131186D01*
X96185132Y-57131183D01*
X96185134Y-57131183D01*
X96227611Y-57113587D01*
X96363020Y-57057500D01*
X96523120Y-56950524D01*
X96659274Y-56814370D01*
X96766250Y-56654270D01*
X96822337Y-56518861D01*
X96839933Y-56476384D01*
X96839933Y-56476382D01*
X96839936Y-56476376D01*
X96877500Y-56287525D01*
X96877500Y-56094975D01*
X96839936Y-55906124D01*
X96839934Y-55906119D01*
X96839933Y-55906115D01*
X96799105Y-55807549D01*
X96766250Y-55728230D01*
X96659274Y-55568130D01*
X96523120Y-55431976D01*
X96523119Y-55431975D01*
X96363022Y-55325001D01*
X96363020Y-55325000D01*
X96185134Y-55251316D01*
X96185126Y-55251314D01*
X95996275Y-55213750D01*
X95803725Y-55213750D01*
X95614873Y-55251314D01*
X95614865Y-55251316D01*
X95436979Y-55325000D01*
X95436977Y-55325001D01*
X95276880Y-55431975D01*
X95140725Y-55568130D01*
X95033751Y-55728227D01*
X95033750Y-55728229D01*
X94960066Y-55906115D01*
X94960064Y-55906123D01*
X94922500Y-56094974D01*
X93610500Y-56094974D01*
X93610500Y-53554974D01*
X94922500Y-53554974D01*
X94922500Y-53747525D01*
X94960064Y-53936376D01*
X94960066Y-53936384D01*
X95033750Y-54114270D01*
X95033751Y-54114272D01*
X95140725Y-54274369D01*
X95140726Y-54274370D01*
X95276880Y-54410524D01*
X95436980Y-54517500D01*
X95516299Y-54550355D01*
X95614865Y-54591183D01*
X95614869Y-54591184D01*
X95614874Y-54591186D01*
X95803725Y-54628750D01*
X95996275Y-54628750D01*
X96185126Y-54591186D01*
X96185132Y-54591183D01*
X96185134Y-54591183D01*
X96227611Y-54573587D01*
X96363020Y-54517500D01*
X96523120Y-54410524D01*
X96659274Y-54274370D01*
X96766250Y-54114270D01*
X96822337Y-53978861D01*
X96839933Y-53936384D01*
X96839933Y-53936382D01*
X96839936Y-53936376D01*
X96877500Y-53747525D01*
X96877500Y-53554975D01*
X96843685Y-53384974D01*
X114702500Y-53384974D01*
X114702500Y-53577525D01*
X114740064Y-53766376D01*
X114740066Y-53766384D01*
X114813750Y-53944270D01*
X114920726Y-54104370D01*
X115056880Y-54240524D01*
X115216980Y-54347500D01*
X115296299Y-54380355D01*
X115394865Y-54421183D01*
X115394869Y-54421184D01*
X115394874Y-54421186D01*
X115583725Y-54458750D01*
X115776275Y-54458750D01*
X115965126Y-54421186D01*
X115965132Y-54421183D01*
X115965134Y-54421183D01*
X116007611Y-54403587D01*
X116143020Y-54347500D01*
X116303120Y-54240524D01*
X116439274Y-54104370D01*
X116546250Y-53944270D01*
X116619936Y-53766376D01*
X116657500Y-53577525D01*
X116657500Y-53384975D01*
X116619936Y-53196124D01*
X116619934Y-53196119D01*
X116619933Y-53196115D01*
X116579105Y-53097549D01*
X116546250Y-53018230D01*
X116439274Y-52858130D01*
X116303120Y-52721976D01*
X116303119Y-52721975D01*
X116143022Y-52615001D01*
X116143020Y-52615000D01*
X115965134Y-52541316D01*
X115965126Y-52541314D01*
X115776275Y-52503750D01*
X115583725Y-52503750D01*
X115394873Y-52541314D01*
X115394865Y-52541316D01*
X115216979Y-52615000D01*
X115216977Y-52615001D01*
X115056880Y-52721975D01*
X114920725Y-52858130D01*
X114813751Y-53018227D01*
X114813750Y-53018229D01*
X114740066Y-53196115D01*
X114740064Y-53196123D01*
X114702500Y-53384974D01*
X96843685Y-53384974D01*
X96839936Y-53366124D01*
X96839934Y-53366119D01*
X96839933Y-53366115D01*
X96799105Y-53267549D01*
X96766250Y-53188230D01*
X96659274Y-53028130D01*
X96523120Y-52891976D01*
X96523119Y-52891975D01*
X96363022Y-52785001D01*
X96363020Y-52785000D01*
X96185134Y-52711316D01*
X96185126Y-52711314D01*
X95996275Y-52673750D01*
X95803725Y-52673750D01*
X95614873Y-52711314D01*
X95614865Y-52711316D01*
X95436979Y-52785000D01*
X95436977Y-52785001D01*
X95276880Y-52891975D01*
X95140725Y-53028130D01*
X95033751Y-53188227D01*
X95033750Y-53188229D01*
X94960066Y-53366115D01*
X94960064Y-53366123D01*
X94922500Y-53554974D01*
X93610500Y-53554974D01*
X93610500Y-51014974D01*
X94922500Y-51014974D01*
X94922500Y-51207525D01*
X94960064Y-51396376D01*
X94960066Y-51396384D01*
X95033750Y-51574270D01*
X95033751Y-51574272D01*
X95140725Y-51734369D01*
X95140726Y-51734370D01*
X95276880Y-51870524D01*
X95436980Y-51977500D01*
X95516299Y-52010355D01*
X95614865Y-52051183D01*
X95614869Y-52051184D01*
X95614874Y-52051186D01*
X95803725Y-52088750D01*
X95996275Y-52088750D01*
X96185126Y-52051186D01*
X96185132Y-52051183D01*
X96185134Y-52051183D01*
X96227611Y-52033587D01*
X96363020Y-51977500D01*
X96523120Y-51870524D01*
X96659274Y-51734370D01*
X96766250Y-51574270D01*
X96822337Y-51438861D01*
X96839933Y-51396384D01*
X96839933Y-51396382D01*
X96839936Y-51396376D01*
X96877500Y-51207525D01*
X96877500Y-51014975D01*
X96843685Y-50844974D01*
X114702500Y-50844974D01*
X114702500Y-51037525D01*
X114740064Y-51226376D01*
X114740066Y-51226384D01*
X114813750Y-51404270D01*
X114920726Y-51564370D01*
X115056880Y-51700524D01*
X115216980Y-51807500D01*
X115296299Y-51840355D01*
X115394865Y-51881183D01*
X115394869Y-51881184D01*
X115394874Y-51881186D01*
X115583725Y-51918750D01*
X115776275Y-51918750D01*
X115965126Y-51881186D01*
X115965132Y-51881183D01*
X115965134Y-51881183D01*
X116007611Y-51863587D01*
X116143020Y-51807500D01*
X116303120Y-51700524D01*
X116439274Y-51564370D01*
X116546250Y-51404270D01*
X116619936Y-51226376D01*
X116657500Y-51037525D01*
X116657500Y-50844975D01*
X116619936Y-50656124D01*
X116619934Y-50656119D01*
X116619933Y-50656115D01*
X116579105Y-50557549D01*
X116546250Y-50478230D01*
X116439274Y-50318130D01*
X116303120Y-50181976D01*
X116303119Y-50181975D01*
X116143022Y-50075001D01*
X116143020Y-50075000D01*
X115965134Y-50001316D01*
X115965126Y-50001314D01*
X115776275Y-49963750D01*
X115583725Y-49963750D01*
X115394873Y-50001314D01*
X115394865Y-50001316D01*
X115216979Y-50075000D01*
X115216977Y-50075001D01*
X115056880Y-50181975D01*
X114920725Y-50318130D01*
X114813751Y-50478227D01*
X114813750Y-50478229D01*
X114740066Y-50656115D01*
X114740064Y-50656123D01*
X114702500Y-50844974D01*
X96843685Y-50844974D01*
X96839936Y-50826124D01*
X96839934Y-50826119D01*
X96839933Y-50826115D01*
X96799105Y-50727549D01*
X96766250Y-50648230D01*
X96659274Y-50488130D01*
X96523120Y-50351976D01*
X96523119Y-50351975D01*
X96363022Y-50245001D01*
X96363020Y-50245000D01*
X96185134Y-50171316D01*
X96185126Y-50171314D01*
X95996275Y-50133750D01*
X95803725Y-50133750D01*
X95614873Y-50171314D01*
X95614865Y-50171316D01*
X95436979Y-50245000D01*
X95436977Y-50245001D01*
X95276880Y-50351975D01*
X95140725Y-50488130D01*
X95033751Y-50648227D01*
X95033750Y-50648229D01*
X94960066Y-50826115D01*
X94960064Y-50826123D01*
X94922500Y-51014974D01*
X93610500Y-51014974D01*
X93610500Y-47798826D01*
X93610501Y-47798823D01*
X93610500Y-47743469D01*
X93610659Y-47739015D01*
X93613690Y-47696625D01*
X94800000Y-47696625D01*
X94800000Y-48321250D01*
X95466988Y-48321250D01*
X95434075Y-48378257D01*
X95400000Y-48505424D01*
X95400000Y-48637076D01*
X95434075Y-48764243D01*
X95466988Y-48821250D01*
X94800000Y-48821250D01*
X94800000Y-49445874D01*
X94814504Y-49518794D01*
X94814505Y-49518796D01*
X94869760Y-49601489D01*
X94952453Y-49656744D01*
X94952455Y-49656745D01*
X95025375Y-49671249D01*
X95025376Y-49671250D01*
X95650000Y-49671250D01*
X95650000Y-49004262D01*
X95707007Y-49037175D01*
X95834174Y-49071250D01*
X95965826Y-49071250D01*
X96092993Y-49037175D01*
X96150000Y-49004262D01*
X96150000Y-49671250D01*
X96774624Y-49671250D01*
X96774624Y-49671249D01*
X96847544Y-49656745D01*
X96847546Y-49656744D01*
X96930239Y-49601489D01*
X96985494Y-49518796D01*
X96985495Y-49518794D01*
X96999999Y-49445874D01*
X97000000Y-49445874D01*
X97000000Y-48821250D01*
X96333012Y-48821250D01*
X96365925Y-48764243D01*
X96400000Y-48637076D01*
X96400000Y-48505424D01*
X96365925Y-48378257D01*
X96333012Y-48321250D01*
X97000000Y-48321250D01*
X97000000Y-47696626D01*
X96999999Y-47696625D01*
X96985495Y-47623705D01*
X96985494Y-47623703D01*
X96930240Y-47541011D01*
X96896437Y-47518424D01*
X96896436Y-47518422D01*
X96847546Y-47485755D01*
X96847544Y-47485754D01*
X96774624Y-47471250D01*
X96150000Y-47471250D01*
X96150000Y-48138238D01*
X96092993Y-48105325D01*
X95965826Y-48071250D01*
X95834174Y-48071250D01*
X95707007Y-48105325D01*
X95650000Y-48138238D01*
X95650000Y-47471250D01*
X95025376Y-47471250D01*
X94952455Y-47485754D01*
X94952453Y-47485755D01*
X94869760Y-47541010D01*
X94814505Y-47623703D01*
X94814504Y-47623705D01*
X94800000Y-47696625D01*
X93613690Y-47696625D01*
X93614228Y-47689099D01*
X93624815Y-47541011D01*
X93626456Y-47518057D01*
X93627725Y-47509234D01*
X93629407Y-47501501D01*
X93636138Y-47470554D01*
X100452500Y-47470554D01*
X100452500Y-47609445D01*
X100452501Y-47609453D01*
X100488446Y-47743603D01*
X100488447Y-47743606D01*
X100557896Y-47863894D01*
X100557899Y-47863898D01*
X100656101Y-47962100D01*
X100656105Y-47962103D01*
X100656107Y-47962105D01*
X100776393Y-48031552D01*
X100776396Y-48031553D01*
X100858495Y-48053551D01*
X100910553Y-48067500D01*
X100910554Y-48067500D01*
X101049446Y-48067500D01*
X101049447Y-48067500D01*
X101183607Y-48031552D01*
X101303893Y-47962105D01*
X101402105Y-47863893D01*
X101471552Y-47743607D01*
X101507500Y-47609447D01*
X101507500Y-47538692D01*
X114702500Y-47538692D01*
X114702500Y-49263807D01*
X114709898Y-49300998D01*
X114709898Y-49300999D01*
X114738077Y-49343172D01*
X114766257Y-49362000D01*
X114780252Y-49371352D01*
X114817442Y-49378750D01*
X114817443Y-49378750D01*
X116542557Y-49378750D01*
X116542558Y-49378750D01*
X116579748Y-49371352D01*
X116621922Y-49343172D01*
X116650102Y-49300998D01*
X116657500Y-49263808D01*
X116657500Y-47538692D01*
X116650102Y-47501502D01*
X116650101Y-47501500D01*
X116621922Y-47459327D01*
X116579748Y-47431148D01*
X116542558Y-47423750D01*
X114817442Y-47423750D01*
X114798847Y-47427449D01*
X114780251Y-47431148D01*
X114780250Y-47431148D01*
X114738077Y-47459327D01*
X114709898Y-47501500D01*
X114709898Y-47501501D01*
X114702500Y-47538692D01*
X101507500Y-47538692D01*
X101507500Y-47470553D01*
X101471552Y-47336393D01*
X101402105Y-47216107D01*
X101402103Y-47216105D01*
X101402100Y-47216101D01*
X101303898Y-47117899D01*
X101303894Y-47117896D01*
X101303893Y-47117895D01*
X101225869Y-47072848D01*
X101183606Y-47048447D01*
X101183603Y-47048446D01*
X101049453Y-47012501D01*
X101049448Y-47012500D01*
X101049447Y-47012500D01*
X100910553Y-47012500D01*
X100910552Y-47012500D01*
X100910546Y-47012501D01*
X100776396Y-47048446D01*
X100776393Y-47048447D01*
X100656105Y-47117896D01*
X100656101Y-47117899D01*
X100557899Y-47216101D01*
X100557896Y-47216105D01*
X100488447Y-47336393D01*
X100488446Y-47336396D01*
X100452501Y-47470546D01*
X100452500Y-47470554D01*
X93636138Y-47470554D01*
X93674334Y-47294956D01*
X93676839Y-47286424D01*
X93753475Y-47080944D01*
X93757173Y-47072848D01*
X93770497Y-47048447D01*
X93862262Y-46880384D01*
X93867077Y-46872890D01*
X93998487Y-46697342D01*
X94004314Y-46690616D01*
X94159385Y-46535542D01*
X94166117Y-46529710D01*
X94341653Y-46398303D01*
X94349151Y-46393483D01*
X94541615Y-46288388D01*
X94549720Y-46284686D01*
X94755180Y-46208052D01*
X94763717Y-46205545D01*
X94977997Y-46158930D01*
X94986821Y-46157662D01*
X95207078Y-46141909D01*
X95211537Y-46141750D01*
X95267583Y-46141750D01*
X116152417Y-46141750D01*
X116207764Y-46141750D01*
X116212223Y-46141909D01*
G37*
%TD.AperFunction*%
%TD*%
M02*
